<svg width="222" height="47" viewBox="0 0 222 47" fill="none" xmlns="http://www.w3.org/2000/svg">
<g id="Group 41">
<g id="Group 38">
<path id="Vector" d="M8.80049 0.585167C8.90042 0.719361 8.62425 1.09412 8.18374 1.42218C7.74322 1.75024 7.30494 1.90698 7.20502 1.7726C7.10509 1.63823 7.38117 1.26356 7.82168 0.935592C8.26219 0.607622 8.70038 0.450884 8.80049 0.585167Z" fill="#1C4480"/>
<path id="Vector_2" d="M8.29115 0.641179C8.29115 0.767973 8.25355 0.891921 8.18312 0.997352C8.11269 1.10278 8.01257 1.18497 7.89544 1.23351C7.77831 1.28205 7.64941 1.29477 7.52505 1.27007C7.40068 1.24537 7.28643 1.18434 7.19674 1.09472C7.10706 1.00509 7.04595 0.890888 7.02116 0.766541C6.99637 0.642194 7.00901 0.513288 7.05747 0.39612C7.10593 0.278952 7.18804 0.178783 7.29342 0.108276C7.39881 0.0377683 7.52273 8.86129e-05 7.64952 1.56047e-07C7.73376 -5.86122e-05 7.81718 0.0164825 7.89503 0.0486785C7.97287 0.0808744 8.04361 0.128094 8.10319 0.187639C8.16278 0.247184 8.21005 0.317887 8.2423 0.395707C8.27455 0.473528 8.29115 0.55694 8.29115 0.641179Z" fill="#1C4480"/>
<path id="Vector_3" d="M44.6045 0.685612C44.6045 0.812425 44.6421 0.936391 44.7126 1.04183C44.783 1.14727 44.8831 1.22945 45.0003 1.27798C45.1175 1.32651 45.2464 1.33921 45.3708 1.31447C45.4951 1.28973 45.6094 1.22866 45.6991 1.13899C45.7887 1.04932 45.8498 0.935076 45.8745 0.8107C45.8993 0.686324 45.8866 0.557404 45.838 0.440244C45.7895 0.323084 45.7073 0.222945 45.6019 0.152492C45.4964 0.082038 45.3725 0.0444336 45.2457 0.0444336C45.0756 0.0444336 44.9125 0.111986 44.7923 0.23223C44.672 0.352475 44.6045 0.515561 44.6045 0.685612Z" fill="#1C4480"/>
<path id="Vector_4" d="M7.92006 1.81592C7.92006 1.81592 4.57819 5.90436 3.41517 8.54351C3.41517 8.54351 2.774 10.0048 2.774 10.2732C2.774 10.5416 2.63193 11.1379 3.21344 11.1827C3.79494 11.2274 2.92313 12.6364 2.29689 13.4416C1.67065 14.2467 1.3128 16.1255 1.11151 17.7582C0.910221 19.3908 0.954952 22.7904 1.87194 23.5061C2.78894 24.2218 3.12397 24.11 3.19152 25.273C3.25906 26.436 3.12442 27.9569 3.99668 28.8963C4.86894 29.8356 4.77948 31.267 4.75711 31.5578C4.73475 31.8485 5.56228 29.7014 5.27152 28.1582C4.98077 26.615 4.64529 26.4137 5.18206 24.4231C5.71884 22.4326 5.69647 22.3878 5.22679 21.8511C4.75711 21.3143 4.3098 21.0906 5.45045 19.525C6.5911 17.9594 8.38035 15.7229 8.35798 14.873C8.33562 14.0231 7.93304 13.7771 7.64228 13.5534C7.35153 13.3298 7.21733 13.3521 7.75411 13.2403C8.29089 13.1285 11.8694 10.6011 13.2337 8.43168C11.9141 7.73834 10.281 7.3134 7.92006 1.81592Z" stroke="#1C4480" stroke-width="0.224153"/>
<path id="Vector_5" d="M9.97504 5.75532C9.97504 5.75532 10.6312 6.9033 9.82599 11.7791C8.48405 12.8229 8.27525 12.9719 8.27525 12.9719C8.27525 12.9719 8.78223 10.4968 8.72256 8.31985C8.66289 6.14287 7.7832 1.93821 7.7832 1.93821L7.91981 1.81592L9.97504 5.75532Z" fill="#1C4480"/>
<path id="Vector_6" d="M6.41189 3.80273C6.41189 3.80273 7.66437 7.6049 7.35125 13.2858C7.63538 13.5401 7.89042 13.8251 8.11168 14.1357C7.97217 13.9977 7.80278 13.8936 7.61663 13.8316C7.43047 13.7695 7.23254 13.7511 7.03813 13.7778C6.36716 13.8673 5.83039 14.1804 5.74092 12.8832C5.65146 11.586 6.32243 8.36533 4.75684 6.17349C5.87512 4.42897 6.41189 3.80273 6.41189 3.80273Z" fill="#1C4480"/>
<path id="Vector_7" d="M3.50483 8.27539C3.50483 8.27539 4.53365 9.25948 4.75731 11.004C4.98096 12.7485 4.84677 14.672 6.23344 14.8509C7.62011 15.0298 8.35818 14.8733 8.35818 14.8733L7.57538 16.7296C7.57538 16.7296 5.69667 17.0875 4.98096 15.3877C4.26526 13.6879 4.66785 11.4513 3.21408 11.1829C2.56547 10.9593 2.77419 10.2734 2.77419 10.2734L3.50483 8.27539Z" fill="#1C4480"/>
<path id="Vector_8" d="M3.01265 12.4355C3.01265 12.4355 3.81781 12.9723 3.99674 15.2089C4.17566 17.4455 6.41223 18.2059 6.41223 18.2059L5.15975 19.9504C5.15975 19.9504 4.04147 18.8769 3.77308 17.8928C3.50469 16.9087 3.59415 14.8063 1.62598 14.9852C1.8049 14.1353 2.69953 12.8829 3.01265 12.4355Z" fill="#1C4480"/>
<path id="Vector_9" d="M1.31312 16.1035C1.31312 16.1035 2.4314 17.5349 2.92345 18.6532C3.41549 19.7715 4.93635 21.6502 4.93635 21.6502L5.51786 22.2317L5.56259 22.9921C5.56259 22.9921 4.89162 22.5896 4.26539 22.187C3.63915 21.7844 3.32603 21.2476 2.92345 20.7108C2.52086 20.1741 1.98409 19.682 1 19.19C1.04163 18.1558 1.14619 17.125 1.31312 16.1035Z" fill="#1C4480"/>
<path id="Vector_10" d="M1.04395 20.4868C1.04395 20.4868 2.1175 21.9629 2.52008 22.1866C2.92266 22.4103 4.2646 22.8128 4.62245 23.4838C4.9803 24.1548 5.20396 24.6021 5.20396 24.6021L4.89084 26.2124C4.89084 26.2124 4.48826 24.9152 3.86202 24.5126C3.23578 24.1101 1.71491 23.5733 1.53599 23.1707C1.35706 22.7681 1.04395 20.4868 1.04395 20.4868Z" fill="#1C4480"/>
<path id="Vector_11" d="M3.10254 25.1392C3.10254 25.1392 3.86297 26.3916 4.26555 26.9284C4.66813 27.4652 5.3391 28.5387 5.3391 28.5387L5.20491 30.0596C5.20491 30.0596 5.11545 28.9413 4.57867 28.5835C4.0419 28.2256 3.28146 27.8678 3.28146 27.6888C3.28146 27.5099 3.10254 25.1392 3.10254 25.1392Z" fill="#1C4480"/>
<path id="Vector_12" d="M26.4962 34.7864C32.8864 34.7864 38.0667 29.6062 38.0667 23.216C38.0667 16.8258 32.8864 11.6455 26.4962 11.6455C20.1061 11.6455 14.9258 16.8258 14.9258 23.216C14.9258 29.6062 20.1061 34.7864 26.4962 34.7864Z" stroke="#1C4480" stroke-width="0.448306"/>
<path id="Vector_13" d="M37.1661 23.2456C37.1661 25.3499 36.5421 27.407 35.3731 29.1567C34.204 30.9064 32.5423 32.2701 30.5981 33.0754C28.654 33.8807 26.5147 34.0915 24.4508 33.6809C22.3869 33.2704 20.491 32.2571 19.0031 30.7691C17.5151 29.2811 16.5017 27.3853 16.0912 25.3214C15.6806 23.2575 15.8913 21.1182 16.6966 19.174C17.5019 17.2299 18.8656 15.5682 20.6153 14.3991C22.365 13.23 24.4221 12.606 26.5264 12.606C29.3482 12.606 32.0545 13.7269 34.0498 15.7222C36.0451 17.7175 37.1661 20.4238 37.1661 23.2456Z" stroke="#1C4480" stroke-width="0.149435"/>
<path id="Vector_14" d="M39.6035 8.52854C39.6035 8.52854 41.9142 7.44014 43.1667 5.59113C45.1502 2.66275 45.1949 1.81885 45.1949 1.81885C45.1949 1.81885 47.521 5.53155 48.7734 5.57628C50.0259 5.62101 50.2496 5.62101 50.6074 7.63392C50.9653 9.64683 51.5496 14.3757 52.4116 16.2074C52.8887 17.2213 52.3221 18.8316 52.0835 19.4877C51.9868 19.7535 51.0697 22.0523 52.2625 23.9608C54.0903 26.8856 50.5627 33.4439 50.5627 33.4439C50.5627 33.4439 51.3381 28.2998 50.0856 26.1079C48.8331 23.9161 46.4921 21.8137 46.4921 20.4718C46.4921 19.1299 47.0289 18.0563 46.85 17.2512C46.6711 16.446 46.4474 16.2671 46.2237 14.5673C46.0001 12.8675 45.8659 11.8834 44.4792 11.8387C43.0926 11.7939 42.2427 11.5255 39.6035 8.52854Z" stroke="#1C4480" stroke-width="0.224153"/>
<path id="Vector_15" d="M42.649 6.32599C42.9503 6.80784 43.674 7.41288 44.1223 6.72169C44.4809 6.16881 44.0178 5.4871 43.6137 5.09803C43.4268 4.91794 43.1417 5.20225 43.3291 5.38261C43.5721 5.61665 43.8395 5.95043 43.8509 6.30023C43.8616 6.62838 43.5462 6.68698 43.3342 6.51601C43.2009 6.40416 43.0868 6.27118 42.9965 6.12238C42.8593 5.90284 42.5108 6.10448 42.649 6.32555V6.32599Z" fill="#1C4480"/>
<path id="Vector_16" d="M45.8376 7.57767C45.6566 7.33469 45.3529 6.84649 45.0153 6.82941C44.6829 6.8125 44.3711 6.96306 44.2454 7.27851C44.026 7.82781 44.6347 8.46255 45.106 8.61919C45.3555 8.70213 45.6361 8.58341 45.7976 8.39071C45.9993 8.14996 45.9528 7.84364 45.8376 7.57767C45.7347 7.33997 45.388 7.5452 45.49 7.78084C45.5706 7.96701 45.5496 8.15971 45.3404 8.232C45.1767 8.28845 44.9883 8.1174 44.8822 8.01729C44.7206 7.8652 44.4359 7.39731 44.7653 7.2684C44.9584 7.19271 44.9872 7.22751 45.0895 7.32082C45.2372 7.46107 45.3713 7.61497 45.49 7.78048C45.6432 7.98625 45.9929 7.78585 45.8376 7.57767Z" fill="#1C4480"/>
<path id="Vector_17" d="M47.7003 9.19672C47.5245 8.93871 47.2972 8.52208 46.9877 8.41178C46.9025 8.37767 46.811 8.3624 46.7193 8.36702C46.6277 8.37163 46.5381 8.39602 46.4568 8.43852C46.3754 8.48101 46.3042 8.5406 46.2481 8.6132C46.1919 8.68579 46.1522 8.76967 46.1315 8.85909C46.0185 9.35945 46.4211 9.98918 46.9009 10.145C47.4844 10.3346 47.8944 9.77894 47.7207 9.24521C47.6406 8.99946 47.2518 9.10466 47.3324 9.35256C47.3889 9.52576 47.3925 9.69932 47.1945 9.76937C47.0278 9.82824 46.8677 9.6757 46.7617 9.56996C46.6275 9.43576 46.3317 8.9125 46.6327 8.79387C46.9571 8.66594 47.2052 9.18402 47.3528 9.4007C47.498 9.61272 47.847 9.41143 47.7003 9.19672Z" fill="#1C4480"/>
<path id="Vector_18" d="M48.8097 11.427C48.7409 11.1129 48.6924 10.6612 48.4759 10.4104C48.1784 10.0656 47.7561 10.1852 47.5786 10.5744C47.367 11.0387 47.5428 11.6854 47.8676 12.0565C47.9406 12.1345 48.0359 12.1882 48.1405 12.2101C48.2452 12.2321 48.354 12.2213 48.4523 12.1793C48.7234 12.0519 48.7947 11.7547 48.8168 11.4806C48.8378 11.2212 48.435 11.2237 48.4143 11.4806C48.4053 11.592 48.3706 11.8934 48.1867 11.8021C48.0826 11.7505 48.0197 11.5631 47.9825 11.4647C47.9291 11.3203 47.8986 11.1684 47.8923 11.0145C47.8873 10.9121 47.9234 10.6053 48.0594 10.5986C48.2945 10.587 48.3858 11.3717 48.4214 11.5341C48.4773 11.7876 48.8651 11.6801 48.8097 11.427Z" fill="#1C4480"/>
<path id="Vector_19" d="M49.6227 14.1947C49.5917 13.7997 49.5259 13.4083 49.4259 13.0249C49.3065 12.6289 48.8584 12.6411 48.706 13.009C48.5092 13.4848 48.4905 14.2858 48.7248 14.7499C48.8158 14.9302 49.0169 15.0711 49.2191 14.9521C49.4909 14.7921 49.5913 14.4928 49.6227 14.1947C49.6495 13.9366 49.2469 13.9392 49.22 14.1947C49.2103 14.2865 49.1216 14.7109 49.0437 14.4514C48.9988 14.2705 48.9781 14.0844 48.9821 13.898C48.9789 13.7748 48.9847 13.6514 48.9937 13.5286C49.0023 13.4407 49.0178 13.3535 49.04 13.268C49.0489 13.24 49.0573 13.2121 49.066 13.1842C49.1299 13.1146 49.1165 13.0883 49.0258 13.1052C49.1268 13.187 49.134 13.5758 49.153 13.6956C49.1792 13.8612 49.201 14.0276 49.22 14.1942C49.2488 14.4495 49.6517 14.4523 49.6227 14.1947Z" fill="#1C4480"/>
<path id="Vector_20" d="M43.574 6.55735C43.8603 6.9314 44.2122 7.32244 44.6452 7.52418C44.879 7.63305 45.0836 7.28612 44.8484 7.17653C44.6148 7.05637 44.4048 6.89512 44.2283 6.70049C44.1471 6.61801 44.0702 6.53114 43.9953 6.44293C43.9712 6.41457 43.9476 6.38568 43.9243 6.35669C43.9056 6.33352 43.8912 6.3142 43.9217 6.35418C43.7663 6.1511 43.4163 6.35123 43.5742 6.55744L43.574 6.55735Z" fill="#1C4480"/>
<path id="Vector_21" d="M45.4051 8.32979C45.8034 8.57394 46.1993 8.82354 46.5829 9.09023C46.7968 9.23882 46.9977 8.88965 46.7861 8.74257C46.4025 8.47589 46.0066 8.22628 45.6082 7.98214C45.3863 7.84607 45.1842 8.19444 45.4051 8.32979Z" fill="#1C4480"/>
<path id="Vector_22" d="M47.1092 9.7445C47.3924 10.0422 47.6372 10.3742 47.8379 10.7327C47.9656 10.9587 48.3134 10.7559 48.1855 10.5294C47.9671 10.1413 47.7012 9.78206 47.3937 9.45992C47.2136 9.27205 46.9292 9.55743 47.1092 9.7445Z" fill="#1C4480"/>
<path id="Vector_23" d="M48.2721 11.9063C48.6019 12.2632 48.7642 12.7831 48.8466 13.2489C48.8913 13.5042 49.2796 13.3957 49.2348 13.1415C49.1402 12.6054 48.9337 12.0292 48.5567 11.6213C48.3803 11.4302 48.0963 11.7157 48.2721 11.906V11.9063Z" fill="#1C4480"/>
<path id="Vector_24" d="M48.9587 14.3944C48.8838 14.8973 49.0205 15.4401 49.16 15.918C49.2326 16.1666 49.6211 16.0607 49.5483 15.8106C49.447 15.4843 49.3805 15.1482 49.3499 14.8078C49.3441 14.723 49.3426 14.6379 49.3456 14.5529C49.3464 14.5286 49.3627 14.3951 49.347 14.5012C49.3848 14.2474 48.9969 14.1381 48.9587 14.3938V14.3944Z" fill="#1C4480"/>
<g id="Group">
<path id="Vector_25" d="M47.6436 13.4419C47.6436 13.4419 47.544 13.1861 47.4002 13.1964C47.4389 13.5637 47.443 13.6024 47.4675 13.8342C47.492 14.066 47.4944 14.4967 47.5888 15.2555C47.6831 16.0144 48.0148 17.9133 47.683 19.7135C47.4646 19.9805 47.3052 20.116 47.3163 19.5409C47.3273 18.9657 47.4563 16.2039 47.2998 15.8177C47.1432 15.4315 46.8476 15.2441 46.6865 15.2304C46.9301 15.5674 47.0685 15.9689 47.0841 16.3845C47.0917 16.5923 47.0556 19.2715 47.0802 19.5034C47.1048 19.7353 47.1395 20.475 47.5065 20.1061C47.5665 20.5362 47.5837 20.5602 47.7499 20.7627C47.9161 20.9651 47.7762 21.4251 47.6589 21.6867C47.5416 21.9483 48.0232 22.8508 48.1016 23.044C48.1799 23.2371 48.6719 23.6367 48.9514 23.1111C49.1235 22.6799 48.5586 23.028 48.5265 22.9992C48.4944 22.9705 48.2022 22.9769 47.8582 22.1983C48.1767 21.6458 48.2983 21.0117 48.2288 20.7654C48.1593 20.5192 47.8385 20.2304 47.8385 20.2304C47.8385 20.2304 48.2247 19.9046 48.325 20.03C48.4253 20.1553 48.5358 20.3774 48.4157 20.7502C48.5888 20.88 48.953 21.0332 49.0226 21.2795C49.0922 21.5258 49.3205 21.3557 49.3241 21.1139C49.3164 20.9915 49.2757 20.8736 49.2063 20.7725C49.1368 20.6715 49.0413 20.5912 48.9298 20.5402C48.7498 20.4829 48.7996 20.4053 48.8529 20.0859C48.9061 19.7665 48.7819 18.8678 47.9744 19.7319C48.0365 19.3592 48.6745 17.3014 48.3733 15.8229C48.5724 15.5126 48.7854 14.9529 48.8061 14.7351C48.8267 14.5174 48.6942 13.7399 48.6942 13.7399C48.6942 13.7399 48.5568 15.2273 48.3057 15.5958C48.2111 15.2479 48.0413 14.8765 48.033 14.7991C48.0248 14.7217 47.9827 14.1852 47.9827 14.1852C47.9827 14.1852 48.3436 13.7582 48.4003 13.608C48.4569 13.4578 48.5709 13.0265 48.465 13.1241C48.3592 13.2217 48.1668 13.4592 48.0893 13.4159C48.0118 13.3726 47.9091 13.2087 47.6436 13.4419Z" fill="#1C4480"/>
<path id="Vector_26" d="M49.9506 10.5438C49.9692 10.311 50.0181 10.0815 50.096 9.86133C50.1347 10.2288 50.139 10.2674 50.1634 10.4994C50.1879 10.7314 50.2677 11.0744 50.3365 11.8622C50.4052 12.65 50.5031 14.8113 51.1047 15.5631C51.327 15.3347 51.4784 15.1216 51.3604 14.6916C51.2425 14.2615 50.7163 12.3447 50.67 11.7254C50.6277 11.2224 50.6977 10.7163 50.8747 10.2436C50.8151 11.183 50.9139 11.5598 50.9473 11.7387C50.9807 11.9176 51.5152 13.9558 51.5396 14.1877C51.5641 14.4197 51.6766 15.0722 51.3178 15.5188C51.3518 15.9779 51.3429 16.0311 51.2501 16.5248C51.1574 17.0184 51.3545 17.0997 51.4963 17.07C51.6381 17.0404 51.6106 18.5641 51.5858 18.8735C51.561 19.183 51.4437 20.1361 50.9528 20.4283C50.7358 20.4343 51.0932 19.8378 51.1131 19.7507C51.3358 19.1502 51.4455 18.5136 51.4366 17.8732C51.0811 18.0777 50.8656 17.8225 50.874 17.4885C50.8824 17.1544 51.0802 16.2834 51.0802 16.2834C51.0802 16.2834 50.7144 16.8023 50.6591 17.1023C50.6039 17.4024 50.5589 17.7993 50.7239 17.8518C50.6119 18.3019 50.354 19.1541 50.3458 19.4878C50.3377 19.8215 50.1255 20.1461 50.0775 19.9627C50.0294 19.7793 50.1485 19.1258 50.2796 18.7192C50.4108 18.3126 50.3566 18.3517 50.2541 18.207C50.1517 18.0624 50.0801 17.1049 50.8794 16.1636C50.76 15.995 49.8685 15.6553 49.8266 13.8856C49.611 14.0414 49.3696 14.2256 49.3122 14.0958C49.2611 13.9317 49.224 13.7637 49.2012 13.5934C49.2012 13.5934 49.5694 13.7852 49.8368 13.5714C49.8457 13.1071 49.9093 12.4733 49.9011 12.3961C49.893 12.3189 49.8249 11.8112 49.8249 11.8112C49.8249 11.8112 49.4599 12.1995 49.3865 12.1951C49.3132 12.1906 49.1422 12.0802 49.2439 11.9446C49.3457 11.8089 49.5421 11.6094 49.5946 11.4207C49.6471 11.2319 49.6974 10.8931 49.9506 10.5438Z" fill="#1C4480"/>
</g>
<path id="Vector_27" d="M48.7729 16.0997C48.7729 16.0997 49.6973 15.5667 49.921 15.3579C50.1447 15.1491 49.9657 15.7605 49.9657 15.7605C50.0671 16.123 50.1283 16.4955 50.1484 16.8714C50.1596 18.4593 49.8912 18.8619 49.3842 19.0706C49.3842 19.0706 48.7121 19.3092 48.6537 18.0865C48.6052 17.0726 48.8177 16.5471 48.8177 16.5471C48.8177 16.5471 48.5493 16.1892 48.7729 16.0997Z" fill="#1C4480"/>
<path id="Vector_28" d="M48.3472 15.9993C48.3472 15.9993 48.6715 16.1782 48.884 16.1782C49.0964 16.1782 48.8169 16.4354 48.8169 16.4354C48.647 16.3529 48.4826 16.2596 48.3248 16.1558L48.2354 16.0776L48.3584 15.9434L48.3472 15.9993Z" fill="#1C4480"/>
<path id="Vector_29" d="M49.8128 15.4738C49.9195 15.0897 49.9906 14.6966 50.0253 14.2996C50.0626 13.6904 50.2378 15.1159 49.9358 15.6415C49.5956 16.2337 49.5124 16.3268 49.8128 15.4738Z" fill="#1C4480"/>
<path id="Vector_30" d="M44.123 0.585167C44.023 0.719361 44.2992 1.09412 44.7398 1.42218C45.1803 1.75024 45.6185 1.90698 45.7186 1.7726C45.8187 1.63823 45.5423 1.26356 45.1018 0.935592C44.6613 0.607622 44.223 0.450884 44.123 0.585167Z" fill="#1C4480"/>
<path id="Vector_31" d="M23.049 14.147L22.4025 14.2921L21.8459 14.4959L21.3468 14.7283L20.9063 14.991L20.554 15.3111L20.2312 15.6601L19.9675 16.0088L19.7329 16.4165L19.5565 16.8528L19.4097 17.2902L19.3223 17.7556L19.2638 18.2207L19.2337 18.7447L19.2046 19.2399L19.2337 19.7638L19.2638 20.2874L19.351 21.3643L19.4983 22.4119L19.6444 23.4309L19.7329 24.42L19.7616 24.8854L19.7912 25.3515L19.7616 25.759L19.7329 26.1665L19.6739 26.5443L19.5857 26.8932L19.4398 27.1845L19.2638 27.4756L19.1165 27.3881L18.9401 27.2718L18.7646 27.0396L18.5582 26.7769L18.4709 26.5732L18.3827 26.3694L18.3236 26.1368L18.2654 25.9039L18.2063 25.6127L18.1776 25.2928V24.9438V24.565L17.8244 24.6238L17.6489 24.6811L17.5025 24.7401L17.3852 24.7989L17.2679 24.8854L17.1792 25.0025L17.1207 25.0889L17.0033 25.3515L16.9442 25.6127L16.916 25.9039L16.9743 26.2242L17.0329 26.5443L17.1506 26.8644L17.2967 27.1845L17.4439 27.5334L17.6489 27.8247L17.8544 28.145L18.0604 28.4071L18.2949 28.6397L19.0866 28.3487L19.7616 28.0283L20.0548 27.8833L20.2899 27.7084L20.5254 27.5334L20.7305 27.3594L20.9063 27.1845L21.0823 26.9807L21.1996 26.8067L21.3169 26.6029L21.4054 26.3993L21.4642 26.1956L21.5814 25.759L21.6115 25.3225L21.5814 24.8276L21.5523 24.3325L21.4642 23.7798L21.2882 22.6156L21.1996 21.9753L21.1405 21.3065L21.1123 21.1027L21.0531 20.5203L21.0232 19.6472L21.0531 19.1523L21.0823 18.5993L21.1405 18.0169L21.2578 17.4356L21.4054 16.8241L21.6115 16.2427L21.8751 15.6601L22.0219 15.3987L22.1979 15.1361L22.3743 14.8747L22.579 14.6121L22.8144 14.3796L23.049 14.147Z" fill="#1C4480"/>
<path id="Vector_32" d="M27.7742 29.1351V28.7275L27.8032 28.3489L27.9201 27.6211L28.0665 26.923L28.2725 26.312L28.6843 25.1475L28.8881 24.5948L29.0648 24.0713L29.1821 23.5175L29.2107 23.256V22.9944V22.732L29.1821 22.4407L29.1535 22.1506L29.0648 21.8593L28.9475 21.568L28.8303 21.2478L28.6534 20.9278L28.4492 20.6079L28.2124 20.2589L27.9488 19.9089L27.6261 19.5311L27.245 19.1238L26.4525 19.7639L25.6011 20.4038L24.604 21.1028L24.5745 20.0838L24.604 19.0363L24.6626 17.8145L24.6914 17.2029L24.78 16.6204L24.8974 16.0678L25.0145 15.5729L25.1906 15.1362L25.2792 14.9624L25.3965 14.8159L25.5137 14.6998L25.6312 14.5835L25.7775 14.5247H25.9248L26.0421 14.6424L26.1889 14.7586L26.364 14.8748L26.5698 14.9911L26.7758 15.0784L27.0104 15.1362L27.2741 15.1649L27.5087 15.1946L27.7742 15.1649L28.0374 15.1075L28.3012 14.9911L28.5956 14.8451L28.859 14.6424L29.1221 14.3797L29.3881 14.0308L29.6227 13.652L29.4167 13.7395L29.2107 13.8271L29.0049 13.8557L28.8016 13.9146H28.3897L28.0087 13.8845L27.5974 13.7683L27.2164 13.6233L26.8331 13.4484L26.4525 13.2446L26.0121 13.4193L25.6312 13.6233L25.2492 13.8557L24.8974 14.1184L24.604 14.4084L24.3108 14.7285L24.0762 15.1075L23.8416 15.4864L23.6643 15.9224L23.4884 16.3878L23.3712 16.9118L23.2834 17.4358L23.1952 18.0171L23.166 18.6584V19.3273L23.1952 20.0251L23.4007 23.0235L23.4597 24.5948L23.518 26.1369V26.8646V27.5633L23.4597 28.2327L23.4007 28.8151L23.3125 29.3678L23.1952 29.8331L23.0488 30.2118L22.9605 30.3567L22.8732 30.503L22.4914 30.2691L22.1678 30.0655L21.8457 29.9206L21.5812 29.804L21.3466 29.7165L21.1121 29.659L20.9061 29.6293H20.7303L20.5252 29.659L20.3778 29.7165L20.0546 29.8331L19.3809 30.1529L19.7327 30.2691L20.0546 30.3858L20.3191 30.5608L20.5538 30.7355L20.9356 31.0844L21.1121 31.2297L21.288 31.3757L21.464 31.4921L21.6395 31.5495L21.8749 31.5795L22.1386 31.5209L22.4323 31.4335L22.7559 31.2297L23.166 30.9682L23.6352 30.5896L23.8116 30.4155L23.9876 30.2404L24.1348 30.0655L24.2808 29.8628L24.5155 29.4253L24.6914 28.96L24.8086 28.4651L24.8974 27.9711L24.9563 27.4471V26.923V26.4282L24.9272 25.9331L24.8674 25.0026L24.75 24.1875L24.6914 23.6048L24.6328 21.888L24.78 21.7431L24.9272 21.568L25.132 21.4517L25.3082 21.3353L25.5137 21.2478L25.7188 21.2191L25.9248 21.2478L26.1302 21.3066L26.3066 21.4517L26.5125 21.6555L26.6586 21.9468L26.8331 22.3244L26.9531 22.7908L27.0678 23.3722L27.1568 24.0713L27.2164 24.8856L27.245 25.4393V25.9914L27.1876 26.8933L27.1276 27.6509L27.0104 28.3197L26.9531 28.8724L26.893 29.4253V29.7165L26.9222 29.9791L26.9531 30.2691L27.0104 30.5896L27.1876 31.2595L27.2741 31.5795L27.3915 31.8409L27.5087 32.0737L27.6568 32.2774L27.7742 32.4524L27.9488 32.5974L28.0952 32.7139L28.2725 32.7724L28.4492 32.8015H28.6243L28.8303 32.7437L29.0357 32.6561L29.2707 32.5109L29.5053 32.3071L29.7692 32.0737L29.8865 31.8997L29.9459 31.8409V31.7533V31.6959L29.9152 31.6371L29.8286 31.5495L29.6804 31.4921L29.2399 31.3173L29.0049 31.2006L28.7416 31.0844L28.5069 30.9093L28.2725 30.677L28.0665 30.4155L27.9779 30.2404L27.8913 30.0655L27.8319 29.8628L27.8032 29.659L27.7742 29.3964V29.1351Z" fill="#1C4480"/>
<path id="Vector_33" d="M34.0831 22.4995H34.0231L33.4966 22.0919L33.2021 21.8306L32.9383 21.5393L32.6442 21.2477L32.3805 20.9277L32.1459 20.5788L31.94 20.2291L31.7654 19.8802L31.6459 19.531L31.5594 19.181V18.8324L31.5881 18.6583L31.6172 18.4835L31.6768 18.3371L31.7654 18.1631L31.8827 17.9882L31.9995 17.843L32.1459 17.6969L32.321 17.5519L32.7329 17.7557L33.1443 18.0468L33.554 18.3959L33.9659 18.8032L34.3465 19.2686L34.5236 19.531L34.67 19.7926L34.816 20.0837L34.9333 20.375L35.0507 20.6652L35.1388 20.9866L35.2273 20.8114L35.316 20.6366L35.4025 20.2875L35.4333 19.9088V19.531L35.3451 19.181L35.2273 18.8032L35.0507 18.4246L34.816 18.0755L34.5523 17.727L34.2891 17.3768L33.9659 17.057L33.6139 16.7664L33.2616 16.4753L32.8789 16.2127L32.4982 15.9802L32.1173 15.7764L31.7654 16.2715L31.4708 16.7367L31.2071 17.1731L31.0013 17.5806L30.7957 17.9882L30.6496 18.3672L30.5012 18.7448L30.4147 19.0946L30.3552 19.4435L30.2975 19.7639L30.2666 20.055V20.3453L30.2975 20.6079L30.3265 20.8688L30.3839 21.1315L30.4725 21.3644L30.6496 21.7717L30.8843 22.1506L31.1189 22.4995L31.3823 22.7908L31.6768 23.0235L31.9114 23.256L32.321 23.5761L32.7042 23.9248L33.027 24.2748L33.2907 24.6526L33.5254 25.0026L33.7004 25.3803L33.8775 25.7591L33.9945 26.1369L34.0831 26.5155L34.1404 26.8645V27.2134V27.5335L34.1118 27.8536L34.054 28.1451L33.9659 28.4072L33.8775 28.6398L33.7598 28.8437L33.6139 29.0187L33.4658 29.1636L33.2907 29.2512L33.1135 29.2801H32.9383L32.7329 29.2214L32.527 29.135L32.321 28.9599L32.1173 28.7561L31.9114 28.465L31.7058 28.1159L31.4999 27.6798L31.2936 27.1846L31.0898 26.6317L30.9131 25.9628L30.7383 25.235L30.6206 25.643L30.5325 26.0791L30.5012 26.5444V27.0397L30.5612 27.5335L30.6496 28.0284L30.7671 28.5236L30.9131 28.989L31.0898 29.4252L31.2936 29.8039L31.5287 30.1528L31.7654 30.4441L31.8827 30.5316L32.0287 30.6479L32.1459 30.7068L32.2924 30.7643L32.4384 30.793H32.5865L32.7329 30.7643L32.8789 30.7068L33.1443 30.5608L33.4367 30.3566L33.789 30.0955L34.1404 29.7752L34.4928 29.3963L34.8451 28.9599L35.1679 28.465L35.4623 27.9411L35.5798 27.6508L35.6684 27.3595L35.7548 27.0683L35.8144 26.7483L35.8434 26.4281V26.1081L35.8144 25.7877L35.7856 25.4392L35.6971 25.089L35.5798 24.7402L35.4333 24.3613L35.2566 24.0124L35.0215 23.6346L34.7586 23.256L34.435 22.8773L34.0831 22.4995Z" fill="#1C4480"/>
<g id="Group_2">
<path id="Vector_34" d="M22.6602 42.2324V42.1581C22.7718 42.1553 22.8823 42.1354 22.9878 42.0989C23.0646 42.0729 23.1314 42.0235 23.1787 41.9576C23.2143 41.882 23.2335 41.7996 23.235 41.716C23.2457 41.5965 23.251 41.4018 23.251 41.1319V40.2661C23.2545 40.1048 23.2475 39.9434 23.2299 39.783C23.2233 39.7116 23.198 39.6431 23.1566 39.5846C23.106 39.5345 23.0428 39.4992 22.9736 39.4823C22.8718 39.4521 22.7666 39.4341 22.6605 39.4287V39.3502C22.7128 39.3515 22.7704 39.3525 22.8334 39.3532C22.8963 39.354 22.9895 39.3543 23.1127 39.3542C23.264 39.3542 23.3769 39.3539 23.4514 39.3532C23.5259 39.3526 23.5938 39.3509 23.6553 39.3481C23.646 39.4894 23.639 39.6135 23.6343 39.7204C23.6296 39.8273 23.6272 39.9138 23.6272 39.9798V41.3706C23.6229 41.5267 23.6306 41.6828 23.6503 41.8376C23.6592 41.9046 23.6867 41.9678 23.7297 42.0199C23.7826 42.0682 23.8469 42.1021 23.9167 42.1184C24.0179 42.1437 24.1217 42.1572 24.2261 42.1585V42.2329C24.0131 42.2289 23.853 42.2265 23.7458 42.2257C23.6386 42.2249 23.5388 42.2246 23.4463 42.2248C23.3538 42.2248 23.254 42.2251 23.1467 42.2257C23.0395 42.2263 22.8773 42.2285 22.6602 42.2324Z" fill="#1C4480"/>
<path id="Vector_35" d="M24.692 42.3348L24.6518 42.2484C24.9541 42.1062 25.2308 41.915 25.4708 41.6827C25.6708 41.4835 25.8212 41.2401 25.9099 40.9722C25.8152 41.0288 25.714 41.0736 25.6085 41.1058C25.5127 41.1343 25.4132 41.1488 25.3133 41.149C25.1995 41.1546 25.0859 41.1363 24.9797 41.0952C24.8735 41.0541 24.7771 40.9911 24.6968 40.9104C24.6165 40.8297 24.554 40.733 24.5134 40.6267C24.4728 40.5203 24.455 40.4066 24.4611 40.2928C24.4566 40.1624 24.4791 40.0325 24.5274 39.9112C24.5756 39.7899 24.6485 39.68 24.7414 39.5883C24.837 39.4966 24.95 39.425 25.0738 39.3779C25.1976 39.3307 25.3296 39.309 25.462 39.314C25.5966 39.3066 25.7312 39.3272 25.8575 39.3744C25.9837 39.4216 26.0988 39.4945 26.1956 39.5883C26.3738 39.7713 26.4629 40.0229 26.4629 40.343C26.4638 40.7842 26.2976 41.2094 25.9977 41.5329C25.6873 41.8826 25.2521 42.1499 24.692 42.3348ZM25.9521 40.8335C25.9732 40.7494 25.9897 40.6642 26.0014 40.5782C26.0126 40.4963 26.0182 40.4137 26.0184 40.3311C26.0302 40.1002 25.9765 39.8707 25.8636 39.669C25.8223 39.5945 25.7617 39.5326 25.6882 39.4896C25.6146 39.4466 25.5309 39.4243 25.4457 39.4249C25.3656 39.4227 25.2862 39.4399 25.2143 39.4751C25.1423 39.5103 25.08 39.5624 25.0325 39.6269C24.9242 39.7974 24.8702 39.9967 24.8775 40.1985C24.8849 40.4004 24.9533 40.5952 25.0738 40.7573C25.136 40.831 25.2141 40.8896 25.3021 40.9289C25.3902 40.9683 25.4859 40.9872 25.5823 40.9845C25.6511 40.9854 25.7194 40.9728 25.7832 40.9473C25.8463 40.9206 25.9037 40.8819 25.9521 40.8335Z" fill="#1C4480"/>
<path id="Vector_36" d="M26.6455 42.2404L26.6172 42.1822C27.0101 41.8645 27.3655 41.5031 27.6764 41.1048C27.9003 40.7967 28.0121 40.518 28.0121 40.2687C28.0216 40.1077 27.9723 39.9488 27.8734 39.8214C27.8257 39.7673 27.7665 39.7246 27.7 39.6966C27.6335 39.6686 27.5616 39.656 27.4895 39.6597C27.3674 39.6612 27.2478 39.6948 27.1428 39.7572C27.0146 39.8338 26.9007 39.932 26.8062 40.0476L26.7436 39.9973C26.8386 39.7989 26.9767 39.6242 27.1476 39.4857C27.2939 39.3769 27.4719 39.3194 27.6541 39.3219C27.7561 39.3198 27.8573 39.3394 27.9511 39.3795C28.0448 39.4196 28.1289 39.4793 28.1977 39.5545C28.344 39.7115 28.4224 39.9199 28.4158 40.1344C28.4158 40.3823 28.3103 40.6487 28.0993 40.9333C27.8102 41.2954 27.477 41.62 27.1074 41.8995L27.839 41.8915C27.9425 41.8943 28.046 41.8883 28.1484 41.8736C28.2009 41.8655 28.2506 41.8448 28.2933 41.8133C28.3439 41.7671 28.3894 41.7156 28.4289 41.6596C28.4864 41.5789 28.5398 41.4953 28.5887 41.4091L28.659 41.4432L28.3495 42.2331C28.1647 42.2303 28.0206 42.2283 27.9173 42.2271C27.8141 42.2258 27.7184 42.2252 27.6301 42.2251C27.4491 42.2251 27.2776 42.2264 27.1155 42.2291C26.9534 42.2318 26.7967 42.2356 26.6455 42.2404Z" fill="#1C4480"/>
<path id="Vector_37" d="M29.0183 42.3354L28.9781 42.2489C29.2804 42.1067 29.5571 41.9156 29.7971 41.6832C29.9971 41.484 30.1475 41.2407 30.2362 40.9728C30.1415 41.0293 30.0403 41.0742 29.9348 41.1063C29.8389 41.1348 29.7395 41.1494 29.6395 41.1495C29.5258 41.1551 29.4122 41.1368 29.306 41.0957C29.1998 41.0546 29.1034 40.9917 29.023 40.911C28.9427 40.8303 28.8802 40.7336 28.8396 40.6272C28.799 40.5208 28.7812 40.4071 28.7873 40.2934C28.7827 40.1629 28.8053 40.033 28.8536 39.9117C28.9019 39.7904 28.9748 39.6805 29.0678 39.5889C29.2687 39.412 29.5272 39.3145 29.7948 39.3145C30.0625 39.3145 30.321 39.412 30.5219 39.5889C30.7001 39.7718 30.7891 40.0234 30.7891 40.3436C30.7901 40.7847 30.6239 41.2099 30.3239 41.5334C30.0135 41.8832 29.5783 42.1505 29.0183 42.3354ZM30.2785 40.834C30.2996 40.7499 30.316 40.6647 30.3278 40.5788C30.3389 40.4968 30.3446 40.4143 30.3448 40.3316C30.3565 40.1007 30.3029 39.8713 30.1901 39.6696C30.1488 39.5951 30.0881 39.5331 30.0146 39.4901C29.941 39.4471 29.8572 39.4248 29.772 39.4254C29.692 39.4232 29.6126 39.4404 29.5407 39.4756C29.4687 39.5108 29.4064 39.5629 29.359 39.6274C29.2506 39.7979 29.1965 39.9972 29.2039 40.1991C29.2112 40.4009 29.2797 40.5958 29.4002 40.7579C29.4625 40.8315 29.5405 40.8901 29.6285 40.9295C29.7165 40.9688 29.8123 40.9878 29.9086 40.985C29.9774 40.986 30.0458 40.9733 30.1097 40.9478C30.1727 40.9211 30.2301 40.8825 30.2785 40.834Z" fill="#1C4480"/>
</g>
<path id="Vector_38" d="M18.3184 40.9131H21.2912" stroke="#1C4480" stroke-width="0.0747176"/>
<path id="Vector_39" d="M32.3408 40.9131H35.3138" stroke="#1C4480" stroke-width="0.0747176"/>
<g id="Group_3">
<path id="Vector_40" d="M18.3638 38.4694L18.3623 38.4115C18.5229 38.4012 18.6297 38.3684 18.6828 38.3131C18.7358 38.2579 18.7624 38.1293 18.7626 37.9274V36.7921C18.7626 36.5876 18.737 36.4567 18.6859 36.3995C18.6002 36.3289 18.4922 36.2908 18.3811 36.2922V36.2344C18.4822 36.2344 18.6223 36.2354 18.8016 36.2375C18.9808 36.2396 19.1095 36.2406 19.1877 36.2405C19.3221 36.2405 19.4599 36.24 19.6012 36.239C19.7425 36.238 19.9058 36.2365 20.0913 36.2344L20.0429 36.7564H19.9959C19.9899 36.5918 19.9452 36.4783 19.8617 36.4157C19.7782 36.3532 19.6175 36.3219 19.3795 36.3219H19.0638V37.2942H19.4311C19.55 37.3033 19.6689 37.276 19.772 37.216C19.8096 37.186 19.8397 37.1476 19.8601 37.104C19.8804 37.0603 19.8904 37.0125 19.8892 36.9644L19.9407 36.9659C19.9355 37.0681 19.9316 37.1642 19.929 37.2543C19.9264 37.3445 19.9251 37.4317 19.9251 37.5162C19.9251 37.5871 19.9254 37.6408 19.9258 37.6772C19.9264 37.7138 19.9266 37.7476 19.9266 37.7789H19.8798C19.8846 37.7299 19.878 37.6805 19.8604 37.6346C19.8428 37.5886 19.8148 37.5474 19.7785 37.5142C19.6773 37.4522 19.559 37.4243 19.4408 37.4345H19.0641V37.9122C19.0641 38.1072 19.0953 38.2347 19.1578 38.295C19.2203 38.3552 19.3501 38.394 19.5471 38.4113V38.4692H19.5283C19.2635 38.4649 19.0671 38.4628 18.939 38.4629C18.8681 38.4629 18.7923 38.4634 18.7116 38.4644L18.3638 38.4694Z" fill="#1C4480"/>
<path id="Vector_41" d="M20.2707 37.3426C20.2637 37.1884 20.2896 37.0345 20.3467 36.891C20.4037 36.7476 20.4907 36.6179 20.6017 36.5106C20.8221 36.3033 21.1162 36.1996 21.4842 36.1996C21.6431 36.192 21.8019 36.2166 21.9511 36.2718C22.1003 36.327 22.2369 36.4117 22.3526 36.5208C22.4626 36.6333 22.5484 36.7671 22.6044 36.9141C22.6605 37.0611 22.6857 37.218 22.6784 37.3751C22.6849 37.5283 22.6586 37.6811 22.6013 37.8233C22.5441 37.9654 22.4571 38.0938 22.3463 38.1997C22.1248 38.4076 21.8312 38.5116 21.4654 38.5117C21.3067 38.5193 21.1481 38.495 20.9989 38.4402C20.8498 38.3854 20.7131 38.3012 20.5971 38.1927C20.487 38.0812 20.4011 37.9481 20.345 37.8018C20.2888 37.6555 20.2635 37.4992 20.2707 37.3426ZM20.6522 37.2973C20.6395 37.5849 20.7231 37.8685 20.8897 38.1032C20.9579 38.2005 21.0487 38.2798 21.1544 38.3342C21.2601 38.3885 21.3774 38.4163 21.4963 38.4151C21.6084 38.4184 21.7198 38.3951 21.8212 38.347C21.9225 38.2989 22.011 38.2274 22.0794 38.1384C22.2354 37.9251 22.3133 37.6645 22.2998 37.4005C22.3002 37.2676 22.2829 37.1352 22.2483 37.0069C22.2174 36.8888 22.1678 36.7764 22.1013 36.674C22.0286 36.5572 21.9298 36.4588 21.8128 36.3864C21.6595 36.3011 21.4811 36.2727 21.3089 36.3062C21.1368 36.3396 20.9819 36.4328 20.8717 36.5692C20.7171 36.7794 20.6394 37.0364 20.6518 37.297L20.6522 37.2973Z" fill="#1C4480"/>
<path id="Vector_42" d="M23.0911 37.6116V36.79C23.0945 36.6954 23.0885 36.6007 23.0732 36.5073C23.0647 36.464 23.0418 36.425 23.0083 36.3963C22.9682 36.3652 22.9227 36.3417 22.8742 36.3268C22.8157 36.3094 22.7553 36.2992 22.6943 36.2964V36.2385C22.7621 36.2407 22.8345 36.2422 22.9116 36.2432C22.9888 36.2441 23.1055 36.2447 23.2618 36.2448C23.4201 36.2448 23.5387 36.2442 23.6174 36.2432C23.6961 36.2421 23.7693 36.2405 23.837 36.2385L23.8387 36.2964C23.6636 36.3015 23.5455 36.3364 23.4845 36.4011C23.4234 36.4657 23.3929 36.5942 23.3929 36.7866V37.5801C23.3891 37.7014 23.401 37.8226 23.428 37.9409C23.4491 38.0209 23.4896 38.0944 23.5461 38.1549C23.614 38.2254 23.6975 38.2789 23.7899 38.3111C23.8968 38.3489 24.0095 38.3674 24.1229 38.3658C24.2543 38.3711 24.3849 38.3423 24.502 38.2823C24.6066 38.2196 24.6889 38.1258 24.7373 38.0139C24.7722 37.9291 24.793 37.8391 24.7989 37.7476C24.8109 37.6314 24.8168 37.4463 24.8168 37.1922C24.8202 37.0196 24.8137 36.8471 24.7973 36.6753C24.7912 36.5994 24.7685 36.5258 24.7309 36.4597C24.6925 36.4048 24.6386 36.3626 24.5762 36.3385C24.4955 36.3093 24.4102 36.2948 24.3244 36.2957V36.2378C24.3817 36.2399 24.4427 36.2415 24.5074 36.2424C24.572 36.2434 24.67 36.2439 24.8013 36.2441C24.9336 36.2441 25.0323 36.2435 25.0975 36.2424C25.1627 36.2415 25.2227 36.2399 25.278 36.2378V36.2957H25.2718C25.2189 36.2907 25.1657 36.3019 25.1194 36.3279C25.073 36.3538 25.0357 36.3933 25.0123 36.441C24.9654 36.5378 24.9419 36.782 24.942 37.1736C24.942 37.2069 24.9415 37.2568 24.9404 37.3235C24.9361 37.686 24.9059 37.9322 24.8497 38.0624C24.7868 38.2106 24.6732 38.3316 24.5292 38.4038C24.3557 38.4866 24.1649 38.5265 23.9728 38.5201C23.8176 38.5239 23.663 38.4997 23.5165 38.4485C23.3997 38.4075 23.2975 38.3331 23.2226 38.2345C23.1746 38.1674 23.1403 38.0913 23.1218 38.0109C23.0974 37.8792 23.0871 37.7454 23.0911 37.6116Z" fill="#1C4480"/>
<path id="Vector_43" d="M25.4309 38.4694L25.4293 38.4115C25.594 38.4033 25.7063 38.3496 25.7662 38.2505C25.8261 38.1514 25.8561 37.9464 25.8561 37.6355V37.0214C25.8561 36.9934 25.8566 36.956 25.8576 36.9092C25.8586 36.8624 25.8592 36.8296 25.8592 36.8108C25.8624 36.7316 25.8518 36.6525 25.8279 36.5769C25.8056 36.5197 25.7702 36.4685 25.7247 36.4274C25.682 36.3887 25.6324 36.3584 25.5786 36.3379C25.5177 36.3147 25.4537 36.3008 25.3887 36.2966V36.2388C25.4231 36.2388 25.473 36.2398 25.5388 36.2418C25.6045 36.2438 25.6523 36.245 25.6826 36.245C25.7128 36.245 25.7591 36.244 25.8185 36.2418C25.8779 36.2397 25.9212 36.2388 25.9483 36.2388L27.549 37.9503V37.2131C27.5533 37.0263 27.5457 36.8394 27.5263 36.6535C27.5187 36.5761 27.4909 36.5021 27.4458 36.4388C27.4098 36.3945 27.3622 36.3611 27.3083 36.3422C27.2373 36.317 27.163 36.3019 27.0878 36.2975V36.2396C27.1442 36.2417 27.2046 36.2433 27.2692 36.2442C27.3337 36.2452 27.4281 36.2457 27.5522 36.2458C27.6752 36.2458 27.7661 36.2453 27.8249 36.2442C27.8838 36.2432 27.9377 36.2416 27.9868 36.2396V36.2975H27.9618C27.9087 36.2958 27.8566 36.3118 27.8135 36.3427C27.7704 36.3737 27.7387 36.4181 27.7233 36.4689C27.678 36.5831 27.6554 36.7956 27.6553 37.1064V37.7891C27.6553 37.948 27.6566 38.0889 27.6592 38.2119C27.6619 38.3348 27.6653 38.4486 27.6694 38.5532H27.6506C27.586 38.4785 27.5159 38.398 27.4404 38.3116L27.3145 38.1679L25.9604 36.7345V37.3657C25.9604 37.6764 25.9664 37.8855 25.9783 37.9931C25.9826 38.0737 26.0036 38.1526 26.04 38.2246C26.072 38.2735 26.1177 38.312 26.1714 38.3352C26.2534 38.3707 26.3395 38.3959 26.4277 38.41V38.4694H26.4187C26.1988 38.4652 26.0348 38.4631 25.9267 38.4632C25.8662 38.4632 25.8011 38.4637 25.7312 38.4647L25.4309 38.4694Z" fill="#1C4480"/>
<path id="Vector_44" d="M28.1426 38.4693V38.4114C28.3083 38.398 28.4195 38.3628 28.4763 38.3059C28.5331 38.249 28.5615 38.1383 28.5615 37.9738V36.709C28.5733 36.6015 28.5449 36.4933 28.4818 36.4054C28.3947 36.337 28.2877 36.2988 28.177 36.2964V36.2385C28.3563 36.2365 28.547 36.2335 28.749 36.2296C28.9511 36.2257 29.0658 36.2239 29.093 36.2241C29.56 36.2241 29.9257 36.3257 30.1904 36.5289C30.3192 36.6256 30.4226 36.752 30.4917 36.8974C30.5609 37.0428 30.5938 37.2028 30.5875 37.3637C30.594 37.5202 30.563 37.676 30.4971 37.8181C30.4312 37.9602 30.3322 38.0845 30.2084 38.1805C29.9556 38.3791 29.6073 38.4783 29.1633 38.4782C29.0779 38.4782 28.9203 38.477 28.6905 38.4744C28.4608 38.4718 28.2781 38.4701 28.1426 38.4693ZM28.8695 37.883C28.8695 38.0904 28.9028 38.2283 28.9696 38.2965C29.0363 38.3648 29.1608 38.399 29.3432 38.399C29.4595 38.4024 29.5751 38.3799 29.6816 38.3331C29.7881 38.2863 29.8829 38.2164 29.9591 38.1284C30.1308 37.9039 30.2148 37.6245 30.1954 37.3425C30.176 37.0606 30.0544 36.7953 29.8536 36.5965C29.6237 36.3975 29.3051 36.298 28.8976 36.2979H28.8695V37.883Z" fill="#1C4480"/>
<path id="Vector_45" d="M30.625 38.4698V38.4119C30.7461 38.4088 30.8638 38.3711 30.9642 38.3033C31.0194 38.2515 31.047 38.1407 31.0471 37.9711V36.744C31.0471 36.5645 31.0197 36.4459 30.965 36.3882C30.8786 36.3193 30.7697 36.2851 30.6594 36.2922V36.2344C30.7636 36.2369 30.8746 36.2385 30.9924 36.2393C31.1103 36.2401 31.2812 36.2405 31.5051 36.2405C31.7667 36.2405 31.9582 36.2402 32.0796 36.2394C32.2009 36.2386 32.3101 36.2374 32.4071 36.2359C32.3977 36.3068 32.3896 36.3828 32.3829 36.4641C32.3761 36.5454 32.3696 36.6387 32.3633 36.744H32.3149C32.3171 36.6831 32.3064 36.6224 32.2834 36.566C32.2605 36.5095 32.2259 36.4586 32.1819 36.4164C32.1038 36.3555 31.9657 36.325 31.7678 36.325H31.3488V37.2474H31.6708C31.7963 37.258 31.9224 37.2348 32.0358 37.1801C32.0732 37.1507 32.1039 37.1138 32.1261 37.0718C32.1483 37.0298 32.1615 36.9836 32.1647 36.9362H32.2164C32.2164 36.9946 32.214 37.0863 32.2093 37.2113C32.2046 37.3363 32.2023 37.4338 32.2023 37.5037V37.6881H32.1554C32.1553 37.6426 32.1444 37.5977 32.1238 37.5571C32.1031 37.5165 32.0733 37.4813 32.0365 37.4544C31.9236 37.4009 31.7985 37.378 31.6739 37.388H31.3488V37.957C31.3488 38.1311 31.3842 38.2457 31.455 38.301C31.5259 38.3562 31.664 38.3838 31.8693 38.3838C32.0296 38.3934 32.1878 38.3439 32.3141 38.2446C32.4326 38.1294 32.5083 37.9772 32.5288 37.8132L32.5804 37.8194C32.5747 37.9356 32.5614 38.0512 32.5406 38.1657C32.5215 38.2712 32.494 38.3749 32.4584 38.476C32.3074 38.4718 32.1423 38.4687 31.9629 38.4666C31.7836 38.4646 31.5882 38.4636 31.3767 38.4635C31.1798 38.4635 31.0287 38.464 30.9234 38.465C30.818 38.466 30.7185 38.4676 30.625 38.4698Z" fill="#1C4480"/>
<path id="Vector_46" d="M32.7217 38.4693V38.4114C32.8874 38.398 32.9986 38.3628 33.0554 38.3059C33.1122 38.249 33.1406 38.1383 33.1406 37.9738V36.709C33.1524 36.6015 33.124 36.4933 33.0609 36.4054C32.9738 36.337 32.8668 36.2988 32.7561 36.2964V36.2385C32.935 36.2365 33.1258 36.2335 33.3282 36.2296C33.5307 36.2257 33.6454 36.2239 33.6721 36.2241C34.139 36.2241 34.5048 36.3257 34.7696 36.5289C34.8983 36.6257 35.0017 36.7522 35.0708 36.8976C35.1399 37.0431 35.1727 37.2032 35.1663 37.3641C35.1729 37.5206 35.1419 37.6764 35.0759 37.8185C35.01 37.9606 34.911 38.0848 34.7873 38.1809C34.5345 38.3794 34.1861 38.4787 33.7422 38.4786C33.6568 38.4786 33.4992 38.4773 33.2694 38.4748C33.0396 38.4722 32.857 38.4704 32.7217 38.4693ZM33.4486 37.883C33.4486 38.0904 33.4819 38.2283 33.5487 38.2965C33.6154 38.3648 33.7399 38.399 33.9223 38.399C34.0386 38.4024 34.1541 38.3799 34.2607 38.3331C34.3672 38.2863 34.462 38.2164 34.5381 38.1284C34.7099 37.904 34.7939 37.6246 34.7745 37.3426C34.7551 37.0606 34.6336 36.7953 34.4327 36.5965C34.2029 36.3975 33.8842 36.298 33.4767 36.2979H33.4487L33.4486 37.883Z" fill="#1C4480"/>
</g>
<path id="Vector_47" d="M19.3455 32.0545C19.2992 32.0117 19.2739 31.9868 19.2598 31.9723C19.2469 31.9627 19.2317 31.9512 19.2131 31.9372C19.0898 31.8436 18.9715 31.7519 18.8575 31.6509L7.26222 45.8497L7.27116 45.8586C7.20117 45.9219 7.14613 46 7.11001 46.0872C7.07389 46.1744 7.0576 46.2685 7.06232 46.3628C7.06704 46.457 7.09264 46.549 7.13728 46.6322C7.18192 46.7153 7.24449 46.7875 7.32045 46.8435C7.3964 46.8995 7.48386 46.938 7.57649 46.956C7.66912 46.9741 7.76461 46.9714 7.85604 46.948C7.94748 46.9246 8.03259 46.8813 8.1052 46.821C8.17782 46.7607 8.23613 46.685 8.27592 46.5995L19.9552 32.3545C19.7268 32.3168 19.5147 32.2125 19.3455 32.0545Z" fill="#1C4480"/>
<path id="Vector_48" d="M18.809 14.377C18.9713 14.22 19.1765 14.1147 19.3987 14.0746L8.47725 0.701172L7.49316 1.55107L18.5025 14.978C18.5365 14.7496 18.6441 14.5386 18.809 14.377Z" fill="#1C4480"/>
<path id="Vector_49" d="M34.0715 14.4661C34.2322 14.621 34.3389 14.8235 34.3757 15.0437L45.4022 1.5955L44.4181 0.745605L33.4619 14.1613C33.6909 14.2001 33.9031 14.3062 34.0715 14.4661Z" fill="#1C4480"/>
<path id="Vector_50" d="M45.5209 45.8586L45.5299 45.8496L33.9802 31.707C33.9579 31.7809 33.9272 31.852 33.8888 31.9189C33.8069 32.0655 33.6905 32.1899 33.5496 32.2813C33.4087 32.3728 33.2477 32.4284 33.0804 32.4435C33.0396 32.4645 32.9974 32.4826 32.9541 32.4977L44.5163 46.5993C44.5561 46.685 44.6143 46.7608 44.687 46.8212C44.7596 46.8816 44.8447 46.9251 44.9363 46.9485C45.0278 46.972 45.1233 46.9747 45.216 46.9567C45.3087 46.9386 45.3963 46.9002 45.4723 46.8441C45.5483 46.788 45.6109 46.7158 45.6556 46.6325C45.7002 46.5493 45.7258 46.4572 45.7304 46.3628C45.7351 46.2685 45.7187 46.1743 45.6825 46.0871C45.6462 45.9998 45.591 45.9219 45.5209 45.8586Z" fill="#1C4480"/>
</g>
<g id="Group 39">
<g id="ARCHIVES">
<path d="M71.8781 40.8665L70.9586 38.5101H63.8607L62.9986 40.8665C62.922 41.0581 62.8645 41.2497 62.8262 41.4412C62.7879 41.6137 62.7688 41.7669 62.7688 41.901C62.7688 42.38 62.9699 42.7152 63.3722 42.9068C63.7745 43.0984 64.3397 43.2229 65.0677 43.2804V44.5735H58.7744V43.2804C59.1576 43.2037 59.4928 43.1079 59.7802 42.993C60.0675 42.8589 60.2879 42.6003 60.4411 42.2171L66.2746 26.9007L65.2688 24.4006H71.9644L79.0047 42.2171C79.1388 42.5811 79.3496 42.8302 79.6369 42.9643C79.9243 43.0984 80.2787 43.2037 80.7002 43.2804V44.5735H69.9241V43.2804C70.5754 43.2612 71.1023 43.1558 71.5046 42.9643C71.9069 42.7535 72.108 42.4087 72.108 41.9298C72.108 41.7957 72.0889 41.6424 72.0506 41.47C72.0122 41.2784 71.9548 41.0772 71.8781 40.8665ZM67.3091 29.1709L64.4642 36.8434H70.2977L67.3091 29.1709Z" fill="#1C4480"/>
<path d="M91.3452 25.9237H90.7417V34.6882H91.3739C92.5808 34.6882 93.5291 34.2955 94.2188 33.51C94.9276 32.7246 95.282 31.623 95.282 30.2054C95.282 28.8452 94.9372 27.7915 94.2475 27.0444C93.5578 26.2972 92.5904 25.9237 91.3452 25.9237ZM90.7417 36.24V41.355C90.7417 42.083 90.8375 42.562 91.0291 42.7918C91.2206 43.0217 91.7858 43.1846 92.7245 43.2804V44.5735H82.4657V43.2804C83.4044 43.1846 83.9695 43.0217 84.1611 42.7918C84.3527 42.562 84.4485 42.083 84.4485 41.355V27.6191C84.4485 26.8911 84.3527 26.4122 84.1611 26.1823C83.9695 25.9524 83.4044 25.7896 82.4657 25.6938V24.4006H93.6441C95.943 24.4006 97.8204 24.9179 99.2764 25.9524C100.751 26.9677 101.489 28.3758 101.489 30.1766C101.489 31.5751 101.058 32.6958 100.196 33.5388C99.353 34.3625 98.4143 34.9564 97.3798 35.3204L101.202 40.9527C101.776 41.8148 102.236 42.4087 102.581 42.7344C102.926 43.0601 103.424 43.242 104.075 43.2804V44.5735H96.9775C96.5752 44.267 96.1728 43.8551 95.7705 43.3378C95.3874 42.8014 94.9851 42.1596 94.5636 41.4125L91.6038 36.24H90.7417Z" fill="#1C4480"/>
<path d="M115.945 24.1133C117.267 24.1133 118.464 24.2665 119.537 24.5731C120.629 24.8604 121.587 25.2723 122.41 25.8087L122.525 31.01H120.974C120.61 29.2858 120.044 27.9639 119.278 27.0444C118.512 26.1248 117.477 25.665 116.175 25.665C114.47 25.665 113.244 26.4984 112.496 28.1651C111.768 29.8318 111.404 31.8625 111.404 34.2572C111.404 36.8434 111.826 38.9891 112.669 40.6941C113.531 42.38 114.795 43.2229 116.462 43.2229C117.573 43.2229 118.579 42.7535 119.479 41.8148C120.399 40.8569 121.156 39.2764 121.749 37.0733H123.33L122.813 42.9068C121.989 43.5198 120.935 43.9988 119.652 44.3436C118.368 44.6884 117.018 44.8609 115.6 44.8609C112.266 44.8609 109.632 43.9892 107.697 42.2459C105.763 40.5025 104.795 38.1078 104.795 35.0618C104.795 31.6901 105.897 29.0272 108.1 27.0731C110.303 25.0999 112.918 24.1133 115.945 24.1133Z" fill="#1C4480"/>
<path d="M133.943 27.6191V33.4238H140.609V27.6191C140.609 26.8911 140.514 26.4122 140.322 26.1823C140.13 25.9524 139.565 25.7896 138.627 25.6938V24.4006H148.885V25.6938C147.947 25.7896 147.382 25.9524 147.19 26.1823C146.998 26.4122 146.903 26.8911 146.903 27.6191V41.355C146.903 42.083 146.998 42.562 147.19 42.7918C147.382 43.0217 147.947 43.1846 148.885 43.2804V44.5735H138.627V43.2804C139.565 43.1846 140.13 43.0217 140.322 42.7918C140.514 42.562 140.609 42.083 140.609 41.355V35.3779H133.943V41.355C133.943 42.083 134.038 42.562 134.23 42.7918C134.422 43.0217 134.987 43.1846 135.925 43.2804V44.5735H125.667V43.2804C126.605 43.1846 127.17 43.0217 127.362 42.7918C127.554 42.562 127.649 42.083 127.649 41.355V27.6191C127.649 26.8911 127.554 26.4122 127.362 26.1823C127.17 25.9524 126.605 25.7896 125.667 25.6938V24.4006H135.925V25.6938C134.987 25.7896 134.422 25.9524 134.23 26.1823C134.038 26.4122 133.943 26.8911 133.943 27.6191Z" fill="#1C4480"/>
<path d="M159.528 27.6191V41.355C159.528 42.083 159.624 42.562 159.815 42.7918C160.007 43.0217 160.572 43.1846 161.511 43.2804V44.5735H151.252V43.2804C152.191 43.1846 152.756 43.0217 152.947 42.7918C153.139 42.562 153.235 42.083 153.235 41.355V27.6191C153.235 26.8911 153.139 26.4122 152.947 26.1823C152.756 25.9524 152.191 25.7896 151.252 25.6938V24.4006H161.511V25.6938C160.572 25.7896 160.007 25.9524 159.815 26.1823C159.624 26.4122 159.528 26.8911 159.528 27.6191Z" fill="#1C4480"/>
<path d="M176.516 36.8434L179.907 28.1076C179.984 27.8969 180.051 27.6957 180.108 27.5042C180.185 27.2934 180.223 27.1114 180.223 26.9582C180.223 26.5367 180.099 26.2302 179.85 26.0386C179.62 25.847 179.083 25.7321 178.24 25.6938V24.4006H184.275V25.6938C183.854 25.7704 183.499 25.8758 183.212 26.0099C182.944 26.1248 182.733 26.3739 182.58 26.757L175.223 44.6597H173.384L164.936 26.757C164.744 26.3739 164.524 26.1248 164.275 26.0099C164.026 25.8758 163.69 25.7704 163.269 25.6938V24.4006H174.102V25.6938C173.259 25.7321 172.713 25.847 172.464 26.0386C172.235 26.2302 172.12 26.5367 172.12 26.9582C172.12 27.1114 172.148 27.2934 172.206 27.5042C172.263 27.7149 172.33 27.916 172.407 28.1076L176.516 36.8434Z" fill="#1C4480"/>
<path d="M186.034 44.5735V43.2804C186.973 43.1846 187.538 43.0217 187.729 42.7918C187.921 42.562 188.017 42.083 188.017 41.355V27.6191C188.017 26.8911 187.921 26.4122 187.729 26.1823C187.538 25.9524 186.973 25.7896 186.034 25.6938V24.4006H202.873L203.017 30.1192H201.81C201.044 28.5099 200.354 27.3988 199.741 26.7858C199.147 26.1536 198.161 25.8375 196.781 25.8375H194.31V33.3089H196.695C197.366 33.3089 197.816 33.1173 198.046 32.7342C198.295 32.3318 198.477 31.6326 198.592 30.6364H199.942V37.7055H198.592C198.477 36.7093 198.295 36.0197 198.046 35.6365C197.816 35.2342 197.366 35.0331 196.695 35.0331H194.31V41.2114C194.31 41.9777 194.492 42.4949 194.856 42.7631C195.22 43.0122 195.776 43.1367 196.523 43.1367H197.155C198.496 43.1367 199.463 42.7823 200.057 42.0734C200.651 41.3646 201.475 40.0236 202.529 38.0504H203.965L203.017 44.5735H186.034Z" fill="#1C4480"/>
<path d="M213.868 44.8609C212.412 44.8609 211.071 44.6789 209.845 44.3149C208.619 43.9317 207.651 43.4719 206.942 42.9355L206.597 37.9067H208.293C208.657 39.4584 209.318 40.7612 210.276 41.8148C211.234 42.8493 212.431 43.3666 213.868 43.3666C214.806 43.3666 215.573 43.1558 216.167 42.7344C216.761 42.3129 217.057 41.6807 217.057 40.8378C217.057 39.9757 216.722 39.3052 216.052 38.8262C215.4 38.3473 214.308 37.8971 212.776 37.4756C210.783 36.9392 209.27 36.1442 208.235 35.0905C207.201 34.0369 206.684 32.6288 206.684 30.8663C206.684 28.759 207.402 27.1114 208.839 25.9237C210.295 24.7167 212.105 24.1133 214.27 24.1133C215.63 24.1133 216.847 24.2761 217.92 24.6018C219.012 24.9083 219.902 25.3202 220.592 25.8375V30.2341H219.184C218.82 28.8548 218.236 27.734 217.431 26.872C216.646 26.0099 215.592 25.5788 214.27 25.5788C213.446 25.5788 212.766 25.7991 212.23 26.2398C211.713 26.6804 211.454 27.2934 211.454 28.0789C211.454 28.9601 211.78 29.6402 212.431 30.1192C213.082 30.5789 214.126 31.01 215.563 31.4123C217.46 31.9487 219.002 32.6958 220.19 33.6537C221.397 34.5924 222 36.1155 222 38.2228C222 40.5217 221.196 42.2075 219.586 43.2804C217.996 44.334 216.09 44.8609 213.868 44.8609Z" fill="#1C4480"/>
</g>
<g id="Group_4">
<g id="Group 6">
<path id="Vector_51" d="M67.0138 11.5193C66.997 12.129 67.0322 12.7391 67.1191 13.3429C67.1578 13.6308 67.2825 13.9002 67.477 14.1159C67.6885 14.3032 67.9344 14.4474 68.201 14.5406C68.5778 14.6736 68.9671 14.7679 69.363 14.822L69.3545 15.1339L67.4179 15.1086C66.9743 15.1031 66.5647 15.1003 66.1888 15.1003C65.4871 15.1003 64.4402 15.1115 63.0483 15.1339H62.9978V14.822C63.3977 14.768 63.791 14.6738 64.1719 14.5406C64.4382 14.4494 64.6831 14.3049 64.8917 14.1159C65.0913 13.9026 65.2195 13.6324 65.2586 13.3429C65.3455 12.7391 65.3808 12.129 65.3639 11.5193V3.69931H64.168C63.0903 3.69931 62.3045 3.8649 61.8104 4.19608C61.3163 4.52726 60.9599 5.10818 60.7411 5.93882L60.4463 5.88838L60.7748 2.5625H60.9766L61.4987 3.11816C62.0374 3.11816 62.8317 3.12096 63.8815 3.12659C64.9313 3.13221 65.7171 3.13503 66.2391 3.13503C66.7553 3.13503 67.5299 3.13221 68.563 3.12659C69.596 3.12096 70.3678 3.11816 70.8784 3.11816L71.4509 2.5625H71.5856L71.8806 5.92213L71.6026 5.98101C71.4005 5.16162 71.0482 4.57649 70.5458 4.22562C70.0434 3.87475 69.2983 3.69931 68.3106 3.69931H67.0138V11.5193Z" fill="#1C4480"/>
<path id="Vector_52" d="M71.9635 15.1334L71.9551 14.8216C72.4769 14.7992 72.8235 14.6928 72.9948 14.5024C73.1662 14.3119 73.2518 13.8166 73.2517 13.0164L73.2348 5.08037C73.2456 4.80897 73.213 4.5376 73.1381 4.27651C73.0691 4.08755 72.9548 3.91837 72.8053 3.78377L72.3592 3.40495V3.25325L74.4725 2.39453L74.6493 2.47873L74.549 8.28737C75.0608 7.93148 75.6083 7.62974 76.1826 7.38703C76.6027 7.20245 77.0542 7.0996 77.5129 7.08397C78.3155 7.08397 78.9021 7.31096 79.2725 7.76493C79.6429 8.21889 79.8422 8.95879 79.8703 9.98462L79.9461 13.2267C79.9685 13.9211 80.0611 14.348 80.224 14.5075C80.3869 14.667 80.7181 14.772 81.2176 14.8225V15.1343C81.0042 15.1233 80.7642 15.1149 80.4977 15.109C80.2312 15.1031 79.8228 15.1004 79.2725 15.1008C78.7222 15.1008 78.304 15.1035 78.0181 15.109C77.7322 15.1145 77.4683 15.123 77.2265 15.1343L77.2181 14.8225C77.7514 14.7666 78.1065 14.649 78.2832 14.4697C78.4599 14.2904 78.5483 13.9209 78.5484 13.3611C78.5484 13.3164 78.5456 13.2324 78.54 13.1091C78.5344 12.9858 78.5316 12.888 78.5316 12.8156L78.498 10.816C78.4756 9.83604 78.2946 9.1264 77.955 8.68711C77.6154 8.24781 77.0834 8.02799 76.359 8.02762C76.0686 8.02918 75.7802 8.07596 75.5042 8.1663C75.1813 8.27442 74.8719 8.41951 74.5824 8.59869V12.9998C74.5824 13.739 74.6736 14.2221 74.8561 14.449C75.0385 14.6758 75.402 14.8004 75.9465 14.8226L75.938 15.1345C75.7024 15.1235 75.4441 15.1151 75.1633 15.1092C74.8825 15.1033 74.4644 15.1006 73.9088 15.1009C73.3699 15.1009 72.9658 15.1037 72.6964 15.1092C72.427 15.1147 72.1827 15.1228 71.9635 15.1334Z" fill="#1C4480"/>
<path id="Vector_53" d="M87.8971 13.0623L88.1412 13.2729C87.7524 13.8659 87.2378 14.366 86.6341 14.7379C86.0816 15.0668 85.4499 15.2386 84.807 15.2347C84.322 15.2434 83.8408 15.1475 83.3962 14.9535C82.9516 14.7596 82.554 14.4721 82.2305 14.1107C81.5289 13.3471 81.1542 12.3391 81.1865 11.3025C81.1586 10.1982 81.5583 9.12586 82.3022 8.30925C82.6384 7.91989 83.0555 7.60856 83.5245 7.39698C83.9934 7.1854 84.5028 7.07865 85.0172 7.08419C85.876 7.08419 86.5677 7.3256 87.0925 7.80844C87.6173 8.29127 87.9022 8.95082 87.9472 9.78709C86.9874 9.75333 86.0767 9.72809 85.2151 9.71133C84.3535 9.69458 83.5354 9.68614 82.7606 9.68602C82.7218 9.84105 82.6936 9.99857 82.6764 10.1575C82.6592 10.3225 82.6507 10.4883 82.6511 10.6542C82.6188 11.5682 82.9314 12.4609 83.5269 13.155C83.7937 13.4723 84.1278 13.7261 84.505 13.8979C84.8822 14.0698 85.293 14.1554 85.7075 14.1485C86.1246 14.152 86.5369 14.0583 86.9116 13.875C87.2966 13.6809 87.6333 13.4033 87.8971 13.0623ZM86.2046 9.25657C86.133 8.77608 85.9387 8.32217 85.6405 7.93869C85.5241 7.79428 85.3765 7.67803 85.2089 7.59862C85.0412 7.51921 84.8578 7.47869 84.6723 7.48007C84.4554 7.48023 84.2407 7.52477 84.0416 7.61096C83.8425 7.69715 83.6632 7.82316 83.5146 7.98124C83.1584 8.35801 82.9198 8.83057 82.8283 9.34095L86.2046 9.25657Z" fill="#1C4480"/>
<path id="Vector_54" d="M105.907 13.7878V14.0997C105.032 14.5034 104.122 14.8258 103.187 15.0628C102.375 15.2672 101.541 15.373 100.704 15.3781C98.6323 15.3781 96.968 14.8182 95.7106 13.6983C94.4533 12.5784 93.8246 11.1036 93.8246 9.27378C93.8143 8.398 93.9894 7.52995 94.3383 6.72662C94.695 5.93583 95.221 5.23306 95.8792 4.66799C96.5451 4.08231 97.3187 3.63189 98.1567 3.34186C99.0549 3.03475 99.9988 2.88246 100.948 2.89149C101.645 2.89297 102.341 2.95211 103.028 3.06833C103.753 3.19062 104.468 3.36791 105.166 3.59867C105.138 4.05912 105.114 4.54331 105.095 5.05121C105.075 5.55911 105.06 6.10217 105.048 6.68039H104.787C104.529 5.59194 104.053 4.75977 103.36 4.18387C102.667 3.60797 101.787 3.32057 100.721 3.32167C99.2499 3.32167 98.0627 3.81422 97.1589 4.79933C96.2552 5.78443 95.8033 7.08532 95.8035 8.70197C95.8001 9.48672 95.9443 10.2651 96.2287 10.9965C96.5122 11.7237 96.9308 12.3907 97.4622 12.9623C98.0151 13.5559 98.6941 14.0178 99.4492 14.314C100.255 14.6348 101.116 14.7963 101.984 14.7894C102.545 14.7894 102.92 14.7026 103.107 14.529C103.295 14.3553 103.39 13.9827 103.39 13.411V11.7635C103.39 11.08 103.227 10.5969 102.901 10.3143C102.576 10.0317 101.97 9.8537 101.083 9.78045V9.46859C101.543 9.47739 101.993 9.48516 102.434 9.49189C102.875 9.49861 103.314 9.50204 103.752 9.50216C104.201 9.50216 104.643 9.49935 105.078 9.49372C105.513 9.4881 105.938 9.47971 106.353 9.46859L106.362 9.78045C105.84 9.84783 105.491 9.99777 105.314 10.2303C105.137 10.4627 105.048 10.9544 105.048 11.7054V13.79L105.907 13.7878Z" fill="#1C4480"/>
<path id="Vector_55" d="M108.405 10.5137V6.08822C108.423 5.57874 108.391 5.06871 108.309 4.56562C108.262 4.33286 108.139 4.1224 107.959 3.96813C107.742 3.80075 107.497 3.6739 107.235 3.59371C106.92 3.49989 106.595 3.44476 106.267 3.42954V3.11768C106.632 3.12905 107.022 3.13749 107.437 3.14299C107.853 3.14849 108.481 3.1513 109.323 3.15142C110.176 3.15142 110.815 3.14862 111.238 3.14299C111.662 3.13737 112.057 3.12893 112.422 3.11768L112.43 3.42954C111.487 3.45779 110.851 3.64575 110.522 3.99345C110.193 4.34114 110.029 5.03383 110.029 6.07153V10.3458C110.009 10.9991 110.073 11.6522 110.219 12.2893C110.332 12.7201 110.55 13.1161 110.855 13.4417C111.22 13.8216 111.67 14.11 112.168 14.2831C112.744 14.4867 113.351 14.5865 113.961 14.5778C114.669 14.606 115.373 14.451 116.003 14.1278C116.566 13.7911 117.009 13.2864 117.271 12.6848C117.458 12.2277 117.571 11.7431 117.603 11.25C117.667 10.6246 117.7 9.62788 117.7 8.25986C117.718 7.33038 117.682 6.40063 117.594 5.47515C117.561 5.06669 117.439 4.67043 117.237 4.31393C117.03 4.01845 116.74 3.79143 116.403 3.66196C115.969 3.5045 115.51 3.42609 115.048 3.43044V3.11859C115.356 3.12997 115.684 3.13841 116.033 3.14391C116.381 3.14941 116.909 3.15222 117.616 3.15234C118.329 3.15234 118.861 3.14954 119.212 3.14391C119.563 3.13828 119.887 3.12985 120.184 3.11859V3.43044H120.15C119.471 3.43044 119.005 3.69131 118.752 4.21304C118.5 4.73476 118.374 6.04982 118.374 8.15823C118.374 8.33752 118.371 8.60656 118.366 8.96538C118.343 10.9176 118.181 12.2446 117.878 12.9462C117.538 13.7443 116.927 14.3959 116.151 14.7847C115.349 15.2023 114.35 15.4113 113.154 15.4115C112.318 15.4318 111.485 15.3006 110.696 15.0243C110.067 14.8031 109.516 14.4023 109.113 13.8715C108.854 13.5103 108.67 13.1014 108.57 12.6684C108.438 11.9581 108.383 11.2357 108.405 10.5137Z" fill="#1C4480"/>
<path id="Vector_56" d="M120.83 15.1331V14.8212C121.706 14.771 122.298 14.5903 122.607 14.2793C122.915 13.9683 123.07 13.278 123.07 12.2084V6.03361C123.07 4.96962 122.918 4.28348 122.615 3.97517C122.312 3.66685 121.717 3.4848 120.83 3.42904V3.11719C121.178 3.11719 121.699 3.12281 122.392 3.13406C123.085 3.14531 123.603 3.15093 123.946 3.15093C124.288 3.15093 124.797 3.14531 125.474 3.13406C126.15 3.12281 126.654 3.11719 126.985 3.11719V3.42904C126.098 3.48517 125.503 3.67003 125.2 3.9836C124.897 4.29717 124.745 4.9805 124.745 6.03361V12.2084C124.745 13.2724 124.898 13.9627 125.204 14.2793C125.51 14.596 126.103 14.7766 126.985 14.8212L126.976 15.1331C126.123 15.1162 125.487 15.1064 125.069 15.1038C124.651 15.1011 124.26 15.0997 123.895 15.0995C123.53 15.0995 123.139 15.1009 122.721 15.1038C122.304 15.1066 121.673 15.1163 120.83 15.1331Z" fill="#1C4480"/>
<path id="Vector_57" d="M127.668 15.1334V14.8216C128.561 14.7492 129.16 14.5596 129.466 14.2529C129.771 13.9462 129.924 13.3498 129.924 12.4637V5.65274C129.924 4.8578 129.781 4.31261 129.495 4.01714C129.209 3.72167 128.661 3.52599 127.853 3.43011V3.11825C128.818 3.10724 129.846 3.09177 130.935 3.07184C132.024 3.0519 132.642 3.04212 132.788 3.04249C135.302 3.04249 137.273 3.58976 138.698 4.68433C140.124 5.77889 140.837 7.27765 140.837 9.1806C140.837 11.0443 140.157 12.5107 138.795 13.5798C137.434 14.6489 135.558 15.1837 133.167 15.1841C132.706 15.1841 131.857 15.177 130.62 15.1628C129.382 15.1486 128.398 15.1388 127.668 15.1334ZM131.583 11.976C131.583 13.0931 131.763 13.8355 132.122 14.203C132.481 14.5705 133.152 14.7544 134.134 14.7546C134.761 14.7729 135.383 14.6517 135.957 14.3998C136.531 14.1478 137.041 13.7714 137.452 13.2979C138.31 12.3268 138.74 11.0582 138.74 9.49209C138.74 7.60063 138.121 6.11875 136.883 5.04645C135.646 3.97414 133.929 3.43806 131.735 3.43818H131.583V11.976Z" fill="#1C4480"/>
<path id="Vector_58" d="M141.934 9.063C141.934 7.19393 142.527 5.70081 143.714 4.58362C144.901 3.46643 146.486 2.90796 148.468 2.9082C150.415 2.9082 151.974 3.48489 153.145 4.63828C154.316 5.79167 154.901 7.32552 154.901 9.23984C154.901 11.0812 154.304 12.5616 153.112 13.6813C151.919 14.8009 150.337 15.3608 148.367 15.3611C146.419 15.3611 144.86 14.7885 143.689 13.6435C142.519 12.4984 141.933 10.9716 141.934 9.063ZM143.988 8.81884C143.988 10.5922 144.415 12.039 145.268 13.1594C146.121 14.2797 147.21 14.8397 148.535 14.8392C149.139 14.8572 149.739 14.7314 150.285 14.4723C150.831 14.2132 151.307 13.8282 151.675 13.3489C152.467 12.3553 152.863 11.0306 152.863 9.37469C152.865 8.65814 152.772 7.9445 152.585 7.25276C152.419 6.61651 152.151 6.01103 151.793 5.45939C151.401 4.83062 150.87 4.30054 150.24 3.91018C149.414 3.45124 148.453 3.29841 147.526 3.47862C146.599 3.65883 145.765 4.16052 145.171 4.89529C144.382 5.88883 143.988 7.19668 143.988 8.81884Z" fill="#1C4480"/>
<path id="Vector_59" d="M154.861 15.1332L154.853 14.8214C155.739 14.7766 156.344 14.487 156.667 13.9526C156.99 13.4181 157.151 12.3141 157.151 10.6406V7.33328C157.151 7.18212 157.154 6.98069 157.16 6.72901C157.165 6.47732 157.168 6.30096 157.168 6.19994C157.185 5.77365 157.128 5.34766 157 4.94077C156.88 4.63266 156.689 4.35671 156.444 4.1347C156.214 3.9263 155.947 3.76263 155.657 3.65206C155.329 3.527 154.984 3.45198 154.634 3.42954V3.11768C154.819 3.11768 155.088 3.12331 155.442 3.13456C155.796 3.14581 156.054 3.15143 156.217 3.15143C156.385 3.15143 156.629 3.14581 156.949 3.13456C157.269 3.12331 157.502 3.11768 157.648 3.11768L166.27 12.3364V8.36589C166.27 6.87704 166.229 5.87243 166.148 5.35205C166.107 4.93468 165.957 4.53531 165.714 4.19359C165.52 3.95518 165.263 3.77504 164.973 3.67297C164.591 3.53681 164.191 3.45487 163.786 3.42954V3.11768C164.089 3.12905 164.415 3.13749 164.763 3.14299C165.111 3.14849 165.619 3.15131 166.287 3.15143C166.949 3.15143 167.439 3.14862 167.756 3.14299C168.073 3.13737 168.364 3.12893 168.627 3.11768V3.42954H168.493C167.881 3.42954 167.453 3.73743 167.209 4.3532C166.964 4.96896 166.842 6.11342 166.842 7.78658V11.4636C166.842 12.3196 166.849 13.0789 166.863 13.7412C166.877 14.4036 166.895 15.0164 166.918 15.5796H166.817C166.469 15.1767 166.091 14.7429 165.684 14.278L165.006 13.5037L157.714 5.78865V9.18865C157.714 10.8623 157.746 11.9887 157.811 12.5677C157.875 13.1468 157.986 13.5626 158.143 13.8152C158.316 14.0786 158.562 14.2858 158.851 14.4112C159.292 14.6031 159.756 14.7387 160.232 14.8148V15.1347H160.181C158.996 15.1123 158.112 15.1011 157.529 15.1011C157.203 15.1011 156.852 15.1039 156.476 15.1094L154.861 15.1332Z" fill="#1C4480"/>
</g>
</g>
</g>
</g>
</svg>
