<svg width="267" height="57" viewBox="0 0 267 57" fill="none" xmlns="http://www.w3.org/2000/svg">
<path d="M9.40295 0.70588C9.52341 0.867641 9.19051 1.31939 8.6595 1.71484C8.12849 2.11029 7.60018 2.29923 7.47972 2.13725C7.35926 1.97528 7.69206 1.52364 8.22307 1.12829C8.75408 0.732948 9.28228 0.54401 9.40295 0.70588Z" fill="white"/>
<path d="M8.78895 0.772896C8.78895 0.925738 8.74364 1.07515 8.65873 1.20224C8.57383 1.32933 8.45315 1.42839 8.31196 1.48691C8.17076 1.54542 8.01539 1.56076 7.86547 1.53098C7.71556 1.5012 7.57784 1.42764 7.46973 1.31961C7.36162 1.21157 7.28796 1.0739 7.25808 0.924011C7.2282 0.774119 7.24343 0.618733 7.30184 0.477495C7.36026 0.336257 7.45924 0.21551 7.58627 0.130519C7.7133 0.045527 7.86268 0.000106817 8.01552 1.88104e-07C8.11706 -7.06529e-05 8.21763 0.0198685 8.31146 0.0586785C8.40529 0.0974884 8.49056 0.154408 8.56239 0.226185C8.63421 0.297962 8.69119 0.38319 8.73007 0.476997C8.76894 0.570804 8.78895 0.671353 8.78895 0.772896Z" fill="white"/>
<path d="M52.5625 0.827095C52.5625 0.979959 52.6078 1.12939 52.6928 1.25649C52.7777 1.3836 52.8984 1.48266 53.0396 1.54116C53.1808 1.59966 53.3363 1.61496 53.4862 1.58514C53.6361 1.55532 53.7738 1.48171 53.8819 1.37362C53.99 1.26552 54.0636 1.12781 54.0934 0.97788C54.1233 0.827953 54.108 0.672549 54.0495 0.531321C53.991 0.390092 53.8919 0.269383 53.7648 0.184456C53.6377 0.0995288 53.4883 0.0541992 53.3354 0.0541992C53.1304 0.0541992 52.9338 0.135629 52.7889 0.280575C52.6439 0.425521 52.5625 0.62211 52.5625 0.827095Z" fill="white"/>
<path d="M8.34176 2.18945C8.34176 2.18945 4.31337 7.11778 2.91144 10.2991C2.91144 10.2991 2.13855 12.0606 2.13855 12.3841C2.13855 12.7076 1.96729 13.4265 2.66826 13.4804C3.36922 13.5343 2.31832 15.2328 1.56343 16.2034C0.808545 17.1739 0.377182 19.4386 0.13454 21.4067C-0.108101 23.3748 -0.0541809 27.4728 1.05119 28.3355C2.15655 29.1982 2.56042 29.0634 2.64184 30.4653C2.72326 31.8673 2.56096 33.7006 3.6124 34.8329C4.66385 35.9652 4.55601 37.6907 4.52905 38.0412C4.50209 38.3917 5.49962 35.8035 5.14914 33.9432C4.79865 32.083 4.39425 31.8403 5.04129 29.4409C5.68834 27.0414 5.66138 26.9875 5.09522 26.3404C4.52905 25.6934 3.98985 25.4238 5.36482 23.5366C6.73979 21.6493 8.8966 18.9533 8.86964 17.9288C8.84268 16.9043 8.3574 16.6078 8.00692 16.3382C7.65643 16.0686 7.49467 16.0955 8.14172 15.9607C8.78876 15.8259 13.1024 12.7794 14.747 10.1643C13.1563 9.32852 11.1877 8.81628 8.34176 2.18945Z" stroke="white" stroke-width="0.179322"/>
<path d="M10.8189 6.93812C10.8189 6.93812 11.6098 8.32194 10.6392 14.1994C9.02158 15.4576 8.76988 15.6372 8.76988 15.6372C8.76988 15.6372 9.38102 12.6537 9.30909 10.0295C9.23716 7.40529 8.17676 2.33687 8.17676 2.33687L8.34143 2.18945L10.8189 6.93812Z" fill="white"/>
<path d="M6.52435 4.5835C6.52435 4.5835 8.03412 9.16673 7.65668 16.0146C7.99917 16.3212 8.3066 16.6648 8.57332 17.0391C8.40515 16.8728 8.20097 16.7474 7.97657 16.6726C7.75217 16.5978 7.51357 16.5756 7.27924 16.6078C6.47043 16.7156 5.82339 17.093 5.71555 15.5293C5.6077 13.9657 6.41651 10.0834 4.5293 7.44128C5.87731 5.33838 6.52435 4.5835 6.52435 4.5835Z" fill="white"/>
<path d="M3.0199 9.97607C3.0199 9.97607 4.26007 11.1623 4.52967 13.2652C4.79927 15.3681 4.63751 17.6867 6.30904 17.9024C7.98057 18.1181 8.87026 17.9293 8.87026 17.9293L7.92665 20.167C7.92665 20.167 5.662 20.5984 4.79927 18.5494C3.93654 16.5004 4.42183 13.8044 2.66942 13.4809C1.88757 13.2113 2.13916 12.3846 2.13916 12.3846L3.0199 9.97607Z" fill="white"/>
<path d="M2.42544 14.9897C2.42544 14.9897 3.396 15.6368 3.61169 18.3328C3.82737 21.0288 6.52339 21.9455 6.52339 21.9455L5.01362 24.0484C5.01362 24.0484 3.66561 22.7543 3.34208 21.568C3.01856 20.3818 3.1264 17.8475 0.753906 18.0632C0.969588 17.0387 2.048 15.529 2.42544 14.9897Z" fill="white"/>
<path d="M0.377443 19.4116C0.377443 19.4116 1.72545 21.1371 2.31858 22.4851C2.9117 23.8331 4.74499 26.0978 4.74499 26.0978L5.44596 26.7987L5.49988 27.7154C5.49988 27.7154 4.69107 27.2301 3.93619 26.7448C3.1813 26.2595 2.80386 25.6125 2.31858 24.9654C1.83329 24.3184 1.18625 23.7253 0 23.1321C0.0501795 21.8855 0.176227 20.643 0.377443 19.4116Z" fill="white"/>
<path d="M0.0537109 24.6953C0.0537109 24.6953 1.3478 26.4747 1.83308 26.7443C2.31837 27.0139 3.93598 27.4992 4.36734 28.308C4.7987 29.1168 5.06831 29.656 5.06831 29.656L4.69086 31.5971C4.69086 31.5971 4.20558 30.0334 3.45069 29.5482C2.69581 29.0629 0.862517 28.4158 0.646835 27.9305C0.431154 27.4453 0.0537109 24.6953 0.0537109 24.6953Z" fill="white"/>
<path d="M2.53418 30.3037C2.53418 30.3037 3.45083 31.8135 3.93611 32.4605C4.42139 33.1076 5.2302 34.4017 5.2302 34.4017L5.06844 36.235C5.06844 36.235 4.9606 34.887 4.31355 34.4556C3.66651 34.0242 2.74986 33.5929 2.74986 33.3772C2.74986 33.1615 2.53418 30.3037 2.53418 30.3037Z" fill="white"/>
<path d="M30.7345 41.9324C38.4374 41.9324 44.6818 35.6879 44.6818 27.985C44.6818 20.2821 38.4374 14.0376 30.7345 14.0376C23.0316 14.0376 16.7871 20.2821 16.7871 27.985C16.7871 35.6879 23.0316 41.9324 30.7345 41.9324Z" stroke="white" stroke-width="0.358644"/>
<path d="M43.5961 28.0211C43.5961 30.5577 42.8439 33.0374 41.4347 35.1466C40.0254 37.2557 38.0224 38.8996 35.6788 39.8703C33.3353 40.8411 30.7566 41.0951 28.2687 40.6002C25.7808 40.1053 23.4955 38.8838 21.7018 37.0902C19.9082 35.2965 18.6866 33.0113 18.1918 30.5234C17.6969 28.0355 17.9509 25.4567 18.9216 23.1132C19.8923 20.7696 21.5362 18.7666 23.6453 17.3573C25.7544 15.948 28.2341 15.1958 30.7707 15.1958C34.1722 15.1958 37.4344 16.547 39.8396 18.9522C42.2448 21.3574 43.5961 24.6196 43.5961 28.0211Z" stroke="white" stroke-width="0.119548"/>
<path d="M46.5332 10.2805C46.5332 10.2805 49.3186 8.96846 50.8284 6.7396C53.2193 3.20965 53.2732 2.19238 53.2732 2.19238C53.2732 2.19238 56.0771 6.66778 57.5869 6.7217C59.0966 6.77562 59.3662 6.77562 59.7976 9.20204C60.229 11.6285 60.9334 17.3288 61.9724 19.5368C62.5476 20.7589 61.8646 22.7001 61.577 23.491C61.4604 23.8114 60.3548 26.5823 61.7927 28.883C63.996 32.4085 59.7437 40.3141 59.7437 40.3141C59.7437 40.3141 60.6784 34.1133 59.1686 31.4712C57.6588 28.8291 54.8369 26.2948 54.8369 24.6772C54.8369 23.0596 55.484 21.7655 55.2683 20.7949C55.0526 19.8244 54.783 19.6087 54.5134 17.5597C54.2438 15.5107 54.0821 14.3245 52.4105 14.2706C50.739 14.2166 49.7145 13.8931 46.5332 10.2805Z" stroke="white" stroke-width="0.179322"/>
<path d="M50.2043 7.6262C50.5675 8.20703 51.4399 8.93636 51.9804 8.10318C52.4126 7.43672 51.8544 6.61498 51.3672 6.14598C51.1419 5.92889 50.7983 6.27161 51.0241 6.48902C51.317 6.77113 51.6395 7.17348 51.6532 7.59514C51.6661 7.9907 51.2859 8.06134 51.0303 7.85525C50.8696 7.72042 50.7321 7.56012 50.6233 7.38075C50.4579 7.11611 50.0378 7.35919 50.2043 7.62566V7.6262Z" fill="white"/>
<path d="M54.0482 9.13399C53.83 8.8411 53.4639 8.25261 53.0569 8.23201C52.6563 8.21163 52.2805 8.39313 52.1289 8.77337C51.8644 9.43552 52.5982 10.2006 53.1663 10.3895C53.4671 10.4894 53.8053 10.3463 54 10.1141C54.2431 9.82385 54.1871 9.4546 54.0482 9.13399C53.9242 8.84746 53.5062 9.09485 53.6292 9.3789C53.7263 9.60332 53.7011 9.83561 53.4488 9.92274C53.2516 9.99079 53.0244 9.7846 52.8966 9.66392C52.7017 9.48059 52.3586 8.91659 52.7556 8.76119C52.9883 8.66995 53.0231 8.7119 53.1464 8.82438C53.3245 8.99344 53.4861 9.17896 53.6292 9.37847C53.8139 9.6265 54.2354 9.38494 54.0482 9.13399Z" fill="white"/>
<path d="M56.2941 11.0866C56.0822 10.7756 55.8082 10.2733 55.4352 10.1404C55.3325 10.0993 55.2221 10.0809 55.1116 10.0864C55.0011 10.092 54.8931 10.1214 54.7951 10.1726C54.697 10.2238 54.6112 10.2957 54.5436 10.3832C54.4759 10.4707 54.4279 10.5718 54.403 10.6796C54.2668 11.2827 54.7521 12.0418 55.3305 12.2297C56.0338 12.4582 56.5281 11.7884 56.3187 11.145C56.2222 10.8488 55.7535 10.9756 55.8507 11.2744C55.9187 11.4832 55.923 11.6924 55.6844 11.7769C55.4835 11.8478 55.2904 11.664 55.1626 11.5365C55.0009 11.3747 54.6444 10.744 55.0071 10.601C55.3982 10.4467 55.6973 11.0713 55.8752 11.3324C56.0502 11.588 56.471 11.3454 56.2941 11.0866Z" fill="white"/>
<path d="M57.6314 13.7748C57.5484 13.3962 57.49 12.8517 57.229 12.5493C56.8704 12.1337 56.3613 12.2779 56.1474 12.7471C55.8923 13.3067 56.1042 14.0863 56.4957 14.5336C56.5838 14.6276 56.6986 14.6923 56.8247 14.7188C56.9508 14.7453 57.0821 14.7323 57.2005 14.6816C57.5274 14.5281 57.6132 14.1698 57.64 13.8394C57.6652 13.5267 57.1797 13.5297 57.1547 13.8394C57.1439 13.9737 57.1021 14.337 56.8803 14.227C56.7549 14.1648 56.6791 13.9388 56.6343 13.8202C56.5699 13.6461 56.5332 13.463 56.5254 13.2776C56.5195 13.1541 56.563 12.7843 56.7269 12.7762C57.0103 12.7622 57.1204 13.7082 57.1633 13.9039C57.2307 14.2095 57.6981 14.0799 57.6314 13.7748Z" fill="white"/>
<path d="M58.6118 17.1107C58.5745 16.6346 58.4951 16.1628 58.3746 15.7007C58.2306 15.2233 57.6906 15.2379 57.5068 15.6815C57.2696 16.255 57.247 17.2206 57.5294 17.7799C57.6392 17.9974 57.8815 18.1672 58.1253 18.0237C58.453 17.8308 58.574 17.4701 58.6118 17.1107C58.6442 16.7996 58.1588 16.8028 58.1265 17.1107C58.1147 17.2213 58.0078 17.733 57.9139 17.4202C57.8597 17.2021 57.8348 16.9778 57.8396 16.7531C57.8358 16.6046 57.8428 16.4559 57.8536 16.3078C57.864 16.2018 57.8826 16.0968 57.9094 15.9937C57.9202 15.9599 57.9303 15.9263 57.9408 15.8926C58.0178 15.8088 58.0017 15.7771 57.8923 15.7974C58.0141 15.8961 58.0227 16.3646 58.0457 16.5091C58.0772 16.7088 58.1035 16.9093 58.1265 17.1101C58.1611 17.4179 58.6468 17.4213 58.6118 17.1107Z" fill="white"/>
<path d="M51.3195 7.90506C51.6646 8.35594 52.0888 8.82731 52.6108 9.07049C52.8926 9.20174 53.1392 8.78353 52.8557 8.65142C52.5741 8.50658 52.3209 8.31221 52.1082 8.0776C52.0103 7.97817 51.9176 7.87346 51.8273 7.76713C51.7983 7.73294 51.7698 7.69811 51.7417 7.66317C51.7192 7.63524 51.7018 7.61194 51.7387 7.66015C51.5512 7.41535 51.1294 7.65659 51.3197 7.90516L51.3195 7.90506Z" fill="white"/>
<path d="M53.5272 10.0414C54.0073 10.3357 54.4846 10.6365 54.9471 10.958C55.2048 11.1371 55.447 10.7162 55.192 10.5389C54.7295 10.2175 54.2524 9.91659 53.7721 9.62229C53.5046 9.45827 53.261 9.8782 53.5272 10.0414Z" fill="white"/>
<path d="M55.5819 11.7467C55.9233 12.1056 56.2184 12.5057 56.4604 12.938C56.6142 13.2104 57.0335 12.9659 56.8793 12.6929C56.6161 12.2251 56.2955 11.792 55.9249 11.4037C55.7078 11.1772 55.365 11.5212 55.5819 11.7467Z" fill="white"/>
<path d="M56.9827 14.3529C57.3802 14.783 57.5759 15.4097 57.6752 15.9712C57.7291 16.279 58.1971 16.1482 58.1432 15.8418C58.0291 15.1955 57.7802 14.501 57.3258 14.0093C57.1131 13.7789 56.7707 14.123 56.9827 14.3524V14.3529Z" fill="white"/>
<path d="M57.8107 17.3518C57.7205 17.9579 57.8853 18.6122 58.0534 19.1883C58.1408 19.488 58.6092 19.3603 58.5214 19.0589C58.3993 18.6655 58.3191 18.2603 58.2823 17.8501C58.2753 17.7478 58.2735 17.6452 58.2771 17.5427C58.278 17.5135 58.2977 17.3525 58.2788 17.4804C58.3244 17.1745 57.8568 17.0428 57.8107 17.351V17.3518Z" fill="white"/>
<path d="M56.2259 16.2039C56.2259 16.2039 56.1059 15.8956 55.9325 15.908C55.9792 16.3508 55.9842 16.3975 56.0137 16.6769C56.0433 16.9563 56.0461 17.4755 56.1598 18.3902C56.2736 19.3049 56.6734 21.5939 56.2735 23.7639C56.0102 24.0858 55.818 24.2492 55.8314 23.5559C55.8447 22.8625 56.0002 19.5334 55.8115 19.0678C55.6228 18.6023 55.2665 18.3764 55.0723 18.3599C55.3659 18.7661 55.5327 19.2501 55.5515 19.751C55.5607 20.0015 55.5171 23.2311 55.5468 23.5107C55.5764 23.7902 55.6183 24.6818 56.0607 24.2372C56.133 24.7557 56.1537 24.7846 56.3541 25.0286C56.5544 25.2727 56.3858 25.8272 56.2444 26.1425C56.103 26.4579 56.6835 27.5458 56.778 27.7786C56.8725 28.0114 57.4655 28.493 57.8025 27.8595C58.0098 27.3398 57.3289 27.7593 57.2902 27.7247C57.2515 27.69 56.8993 27.6977 56.4847 26.7592C56.8686 26.0932 57.0151 25.3289 56.9313 25.032C56.8475 24.7351 56.4609 24.387 56.4609 24.387C56.4609 24.387 56.9265 23.9943 57.0474 24.1454C57.1683 24.2965 57.3014 24.5642 57.1566 25.0136C57.3653 25.17 57.8043 25.3548 57.8882 25.6516C57.9721 25.9485 58.2473 25.7435 58.2517 25.452C58.2425 25.3045 58.1933 25.1623 58.1096 25.0405C58.0259 24.9187 57.9107 24.8219 57.7764 24.7604C57.5594 24.6914 57.6195 24.5978 57.6836 24.2128C57.7478 23.8278 57.5981 22.7445 56.6247 23.7861C56.6996 23.3368 57.4686 20.8563 57.1055 19.0741C57.3455 18.7 57.6023 18.0253 57.6272 17.7629C57.6521 17.5004 57.4924 16.5631 57.4924 16.5631C57.4924 16.5631 57.3268 18.3561 57.0241 18.8004C56.91 18.381 56.7053 17.9332 56.6954 17.84C56.6855 17.7467 56.6348 17.1 56.6348 17.1C56.6348 17.1 57.0698 16.5852 57.1381 16.4042C57.2063 16.2231 57.3437 15.7032 57.2161 15.8209C57.0886 15.9385 56.8566 16.2248 56.7632 16.1726C56.6698 16.1204 56.546 15.9229 56.2259 16.2039Z" fill="white"/>
<path d="M59.0069 12.7099C59.0293 12.4292 59.0882 12.1527 59.1821 11.8872C59.2288 12.3301 59.234 12.3767 59.2634 12.6563C59.2929 12.936 59.3891 13.3494 59.472 14.2991C59.5549 15.2487 59.6729 17.854 60.398 18.7602C60.666 18.485 60.8485 18.2281 60.7064 17.7098C60.5642 17.1914 59.9299 14.8808 59.874 14.1342C59.8231 13.5279 59.9074 12.9178 60.1209 12.348C60.049 13.4803 60.1681 13.9346 60.2084 14.1502C60.2486 14.3659 60.8929 16.8228 60.9224 17.1024C60.9518 17.382 61.0875 18.1685 60.6549 18.7069C60.6959 19.2603 60.6852 19.3245 60.5734 19.9195C60.4616 20.5146 60.6992 20.6125 60.8702 20.5768C61.0411 20.5411 61.0079 22.3778 60.978 22.7508C60.9481 23.1238 60.8068 24.2727 60.2149 24.6249C59.9534 24.6322 60.3842 23.9132 60.4082 23.8082C60.6767 23.0843 60.8089 22.3169 60.7981 21.5449C60.3697 21.7914 60.1099 21.4839 60.12 21.0812C60.1302 20.6785 60.3686 19.6286 60.3686 19.6286C60.3686 19.6286 59.9276 20.254 59.861 20.6157C59.7944 20.9774 59.7401 21.4559 59.9391 21.5191C59.8041 22.0618 59.4931 23.089 59.4833 23.4912C59.4735 23.8935 59.2177 24.2848 59.1598 24.0637C59.1019 23.8427 59.2454 23.0549 59.4035 22.5648C59.5616 22.0746 59.4963 22.1217 59.3728 21.9474C59.2493 21.773 59.1629 20.6189 60.1265 19.4842C59.9825 19.2809 58.9079 18.8714 58.8574 16.7382C58.5975 16.926 58.3066 17.148 58.2373 16.9915C58.1758 16.7938 58.131 16.5913 58.1035 16.386C58.1035 16.386 58.5474 16.6171 58.8697 16.3595C58.8805 15.7998 58.9571 15.0357 58.9473 14.9427C58.9374 14.8496 58.8554 14.2376 58.8554 14.2376C58.8554 14.2376 58.4154 14.7057 58.327 14.7003C58.2385 14.695 58.0324 14.5619 58.1551 14.3984C58.2777 14.2349 58.5145 13.9944 58.5778 13.7669C58.6411 13.5393 58.7017 13.1309 59.0069 12.7099Z" fill="white"/>
<path d="M57.588 19.4071C57.588 19.4071 58.7023 18.7645 58.9719 18.5128C59.2415 18.2611 59.0258 18.9981 59.0258 18.9981C59.148 19.4351 59.2218 19.8841 59.246 20.3372C59.2595 22.2514 58.936 22.7366 58.3248 22.9882C58.3248 22.9882 57.5146 23.2758 57.4442 21.802C57.3858 20.5798 57.6419 19.9463 57.6419 19.9463C57.6419 19.9463 57.3184 19.5149 57.588 19.4071Z" fill="white"/>
<path d="M57.0743 19.2857C57.0743 19.2857 57.4652 19.5013 57.7213 19.5013C57.9774 19.5013 57.6404 19.8114 57.6404 19.8114C57.4356 19.712 57.2375 19.5994 57.0473 19.4744L56.9395 19.38L57.0877 19.2183L57.0743 19.2857Z" fill="white"/>
<path d="M58.8401 18.6523C58.9686 18.1893 59.0544 17.7155 59.0962 17.2368C59.1412 16.5026 59.3523 18.2209 58.9883 18.8545C58.5782 19.5683 58.4779 19.6805 58.8401 18.6523Z" fill="white"/>
<path d="M51.9817 0.70588C51.8611 0.867641 52.1942 1.31939 52.7252 1.71484C53.2562 2.11029 53.7844 2.29923 53.905 2.13725C54.0257 1.97528 53.6926 1.52364 53.1616 1.12829C52.6306 0.732948 52.1023 0.54401 51.9817 0.70588Z" fill="white"/>
<path d="M26.5785 17.0537L25.7991 17.2286L25.1282 17.4743L24.5266 17.7545L23.9956 18.0711L23.5709 18.457L23.1818 18.8776L22.8639 19.298L22.5811 19.7894L22.3685 20.3154L22.1915 20.8427L22.0861 21.4037L22.0156 21.9642L21.9794 22.596L21.9443 23.1929L21.9794 23.8244L22.0156 24.4556L22.1208 25.7537L22.2983 27.0165L22.4744 28.2448L22.5811 29.4371L22.6156 29.9982L22.6513 30.56L22.6156 31.0511L22.5811 31.5424L22.51 31.9979L22.4036 32.4183L22.2277 32.7696L22.0156 33.1204L21.8381 33.0149L21.6254 32.8747L21.4139 32.5949L21.1651 32.2783L21.0598 32.0326L20.9535 31.7869L20.8823 31.5066L20.8121 31.2258L20.7409 30.8748L20.7063 30.4892V30.0685V29.6119L20.2806 29.6827L20.069 29.7519L19.8926 29.8229L19.7512 29.8939L19.6097 29.9982L19.5028 30.1392L19.4323 30.2434L19.2908 30.56L19.2195 30.8748L19.1855 31.2258L19.2558 31.612L19.3264 31.9979L19.4683 32.3837L19.6444 32.7696L19.8219 33.1901L20.069 33.5413L20.3167 33.9274L20.565 34.2433L20.8477 34.5237L21.802 34.1729L22.6156 33.7866L22.9691 33.6119L23.2525 33.4011L23.5364 33.1901L23.7837 32.9803L23.9956 32.7696L24.2077 32.5238L24.3491 32.3142L24.4904 32.0685L24.5972 31.8231L24.6681 31.5775L24.8093 31.0511L24.8456 30.525L24.8093 29.9284L24.7743 29.3316L24.6681 28.6654L24.4559 27.262L24.3491 26.4902L24.2779 25.684L24.2438 25.4383L24.1725 24.7363L24.1365 23.6839L24.1725 23.0873L24.2077 22.4207L24.2779 21.7187L24.4193 21.0179L24.5972 20.2807L24.8456 19.58L25.1634 18.8776L25.3403 18.5626L25.5525 18.246L25.7651 17.9309L26.0119 17.6144L26.2956 17.3341L26.5785 17.0537Z" fill="white"/>
<path d="M32.2747 35.1197V34.6283L32.3098 34.1719L32.4506 33.2947L32.6272 32.4532L32.8754 31.7166L33.3719 30.3129L33.6175 29.6467L33.8306 29.0156L33.9719 28.3481L34.0064 28.0329V27.7175V27.4012L33.9719 27.05L33.9374 26.7004L33.8306 26.3492L33.6892 25.998L33.5479 25.6121L33.3346 25.2263L33.0885 24.8408L32.803 24.42L32.4852 23.9981L32.0963 23.5427L31.6369 23.0517L30.6816 23.8234L29.6553 24.5947L28.4533 25.4374L28.4178 24.209L28.4533 22.9462L28.524 21.4735L28.5587 20.7363L28.6655 20.0341L28.807 19.368L28.9482 18.7714L29.1604 18.245L29.2673 18.0355L29.4087 17.859L29.5499 17.719L29.6915 17.5788L29.8679 17.5078H30.0455L30.1868 17.6497L30.3638 17.7898L30.5748 17.9299L30.823 18.0701L31.0713 18.1754L31.3541 18.245L31.672 18.2795L31.9548 18.3155L32.2747 18.2795L32.592 18.2104L32.91 18.0701L33.2649 17.8941L33.5824 17.6497L33.8996 17.3331L34.2202 16.9125L34.503 16.456L34.2547 16.5614L34.0064 16.667L33.7583 16.7015L33.5133 16.7725H33.0168L32.5575 16.7361L32.0616 16.596L31.6024 16.4213L31.1404 16.2105L30.6816 15.9648L30.1507 16.1755L29.6915 16.4213L29.231 16.7015L28.807 17.0181L28.4533 17.3677L28.0999 17.7535L27.8171 18.2104L27.5343 18.6671L27.3206 19.1927L27.1086 19.7537L26.9672 20.3854L26.8615 21.017L26.7551 21.7177L26.72 22.4907V23.2971L26.7551 24.1382L27.0028 27.7526L27.074 29.6467L27.1442 31.5056V32.3828V33.225L27.074 34.0319L27.0028 34.7339L26.8965 35.4001L26.7551 35.961L26.5787 36.4175L26.4723 36.5922L26.367 36.7687L25.9067 36.4866L25.5167 36.2412L25.1285 36.0666L24.8096 35.926L24.5268 35.8205L24.2441 35.7513L23.9958 35.7154H23.7839L23.5366 35.7513L23.359 35.8205L22.9694 35.961L22.1572 36.3466L22.5814 36.4866L22.9694 36.6273L23.2883 36.8383L23.5711 37.0488L24.0314 37.4694L24.2441 37.6446L24.4562 37.8205L24.6683 37.9609L24.8799 38.0301L25.1636 38.0662L25.4815 37.9956L25.8356 37.8902L26.2256 37.6446L26.72 37.3293L27.2855 36.8729L27.4981 36.6632L27.7104 36.452L27.8878 36.2412L28.0638 35.9969L28.3466 35.4695L28.5587 34.9086L28.7 34.312L28.807 33.7165L28.8781 33.0849V32.4532V31.8567L28.8429 31.2599L28.7709 30.1383L28.6293 29.1557L28.5587 28.4534L28.488 26.3838L28.6655 26.2092L28.8429 25.998L29.0898 25.858L29.3022 25.7175L29.5499 25.6121L29.7972 25.5775L30.0455 25.6121L30.2931 25.683L30.5057 25.858L30.7539 26.1036L30.93 26.4547L31.1404 26.9098L31.285 27.4721L31.4232 28.173L31.5305 29.0156L31.6024 29.9972L31.6369 30.6646V31.3302L31.5677 32.4174L31.4954 33.3306L31.3541 34.1368L31.285 34.803L31.2126 35.4695V35.8205L31.2478 36.137L31.285 36.4866L31.3541 36.8729L31.5677 37.6806L31.672 38.0662L31.8135 38.3813L31.9548 38.662L32.1333 38.9075L32.2747 39.1185L32.4852 39.2932L32.6618 39.4337L32.8754 39.5043L33.0885 39.5393H33.2995L33.5479 39.4696L33.7954 39.3641L34.0787 39.1889L34.3616 38.9433L34.6796 38.662L34.821 38.4523L34.8926 38.3813V38.2757V38.2066L34.8556 38.1356L34.7512 38.0301L34.5726 37.9609L34.0416 37.7502L33.7583 37.6095L33.4409 37.4694L33.1581 37.2584L32.8754 36.9784L32.6272 36.6632L32.5203 36.452L32.416 36.2412L32.3443 35.9969L32.3098 35.7513L32.2747 35.4347V35.1197Z" fill="white"/>
<path d="M39.8798 27.1218H39.8075L39.1729 26.6305L38.8179 26.3155L38.4999 25.9644L38.1454 25.6129L37.8275 25.2272L37.5447 24.8066L37.2965 24.385L37.086 23.9645L36.942 23.5436L36.8377 23.1217V22.7014L36.8723 22.4916L36.9074 22.2808L36.9792 22.1043L37.086 21.8946L37.2274 21.6837L37.3682 21.5088L37.5447 21.3326L37.7558 21.1579L38.2522 21.4036L38.7481 21.7545L39.242 22.1753L39.7385 22.6663L40.1973 23.2273L40.4108 23.5436L40.5872 23.8589L40.7633 24.2098L40.9047 24.5609L41.0462 24.9108L41.1524 25.2981L41.2591 25.087L41.366 24.8763L41.4702 24.4555L41.5074 23.999V23.5436L41.4011 23.1217L41.2591 22.6663L41.0462 22.2098L40.7633 21.789L40.4454 21.3689L40.1281 20.9467L39.7385 20.5613L39.3143 20.2109L38.8896 19.86L38.4282 19.5435L37.9693 19.2632L37.5102 19.0176L37.086 19.6144L36.7308 20.1751L36.413 20.7012L36.1649 21.1924L35.9171 21.6837L35.741 22.1407L35.5621 22.5958L35.4578 23.0175L35.3861 23.4381L35.3165 23.8243L35.2793 24.1752V24.5251L35.3165 24.8416L35.3515 25.1562L35.4207 25.4728L35.5275 25.7535L35.741 26.2445L36.0239 26.7012L36.3067 27.1218L36.6242 27.473L36.9792 27.7534L37.2619 28.0337L37.7558 28.4196L38.2176 28.8399L38.6067 29.2618L38.9246 29.7172L39.2075 30.1391L39.4184 30.5944L39.632 31.051L39.773 31.5064L39.8798 31.9628L39.9489 32.3836V32.8042V33.1899L39.9144 33.5759L39.8447 33.9272L39.7385 34.2432L39.632 34.5236L39.4902 34.7694L39.3143 34.9803L39.1357 35.155L38.9246 35.2606L38.711 35.2954H38.4999L38.2522 35.2247L38.004 35.1205L37.7558 34.9094L37.5102 34.6638L37.2619 34.3129L37.0141 33.892L36.766 33.3664L36.5173 32.7695L36.2716 32.1029L36.0586 31.2966L35.8479 30.4193L35.706 30.9111L35.5998 31.4368L35.5621 31.9977V32.5948L35.6344 33.1899L35.741 33.7865L35.8826 34.3835L36.0586 34.9445L36.2716 35.4703L36.5173 35.9268L36.8007 36.3474L37.086 36.6985L37.2274 36.804L37.4033 36.9442L37.5447 37.0151L37.7212 37.0845L37.8972 37.1191H38.0757L38.2522 37.0845L38.4282 37.0151L38.7481 36.8392L39.1006 36.5931L39.5253 36.2783L39.9489 35.8922L40.3737 35.4355L40.7984 34.9094L41.1875 34.3129L41.5424 33.6812L41.684 33.3314L41.7907 32.9802L41.8949 32.6293L41.9667 32.2435L42.0018 31.8576V31.4718L41.9667 31.0855L41.9321 30.6655L41.8253 30.2433L41.684 29.8228L41.5074 29.3661L41.2944 28.9455L41.011 28.4901L40.6941 28.0337L40.304 27.5772L39.8798 27.1218Z" fill="white"/>
<path d="M26.1104 50.9075V50.8178C26.2449 50.8145 26.3781 50.7905 26.5053 50.7464C26.5979 50.7151 26.6784 50.6556 26.7354 50.5762C26.7784 50.485 26.8015 50.3858 26.8032 50.285C26.8162 50.1409 26.8226 49.9062 26.8225 49.5809V48.5372C26.8268 48.3428 26.8183 48.1482 26.7972 47.9549C26.7892 47.8688 26.7587 47.7863 26.7088 47.7157C26.6478 47.6553 26.5716 47.6127 26.4882 47.5924C26.3654 47.556 26.2387 47.5343 26.1108 47.5277V47.4331C26.1738 47.4347 26.2432 47.4359 26.3191 47.4368C26.3951 47.4377 26.5073 47.4381 26.6559 47.438C26.8382 47.438 26.9743 47.4376 27.0641 47.4368C27.1539 47.436 27.2358 47.434 27.31 47.4307C27.2988 47.601 27.2903 47.7506 27.2846 47.8794C27.279 48.0082 27.2761 48.1125 27.2761 48.1921V49.8686C27.2709 50.0567 27.2802 50.2449 27.3039 50.4316C27.3146 50.5123 27.3477 50.5885 27.3996 50.6513C27.4633 50.7095 27.5409 50.7503 27.625 50.77C27.747 50.8006 27.8722 50.8168 27.998 50.8184V50.908C27.7412 50.9032 27.5482 50.9003 27.419 50.8994C27.2898 50.8984 27.1695 50.8981 27.0579 50.8983C26.9465 50.8983 26.8262 50.8986 26.6969 50.8994C26.5676 50.9001 26.3721 50.9028 26.1104 50.9075Z" fill="white"/>
<path d="M28.559 51.0314L28.5105 50.9272C28.8749 50.7557 29.2085 50.5253 29.4978 50.2452C29.7388 50.0051 29.9201 49.7118 30.0271 49.3889C29.9129 49.457 29.7909 49.5111 29.6638 49.5499C29.5483 49.5842 29.4284 49.6018 29.3079 49.602C29.1708 49.6087 29.0338 49.5866 28.9058 49.5371C28.7778 49.4875 28.6616 49.4117 28.5648 49.3144C28.468 49.2171 28.3927 49.1006 28.3437 48.9723C28.2948 48.8441 28.2733 48.707 28.2807 48.5699C28.2752 48.4127 28.3024 48.256 28.3605 48.1099C28.4187 47.9637 28.5066 47.8311 28.6186 47.7207C28.7338 47.6101 28.87 47.5238 29.0192 47.467C29.1685 47.4102 29.3276 47.384 29.4871 47.3899C29.6494 47.3811 29.8117 47.4059 29.9639 47.4628C30.1161 47.5197 30.2548 47.6075 30.3714 47.7207C30.5863 47.9412 30.6937 48.2445 30.6937 48.6304C30.6948 49.1622 30.4944 49.6747 30.1329 50.0647C29.7588 50.4863 29.2341 50.8085 28.559 51.0314ZM30.078 49.2216C30.1034 49.1202 30.1233 49.0175 30.1374 48.9139C30.1508 48.8152 30.1577 48.7156 30.1579 48.616C30.1721 48.3377 30.1074 48.0611 29.9713 47.818C29.9215 47.7282 29.8485 47.6535 29.7598 47.6017C29.6712 47.5499 29.5702 47.5229 29.4675 47.5237C29.371 47.521 29.2753 47.5418 29.1886 47.5842C29.1018 47.6266 29.0267 47.6894 28.9695 47.7672C28.8389 47.9726 28.7738 48.2129 28.7826 48.4562C28.7915 48.6995 28.874 48.9344 29.0192 49.1298C29.0943 49.2186 29.1883 49.2893 29.2945 49.3367C29.4006 49.3841 29.516 49.407 29.6322 49.4036C29.7151 49.4048 29.7974 49.3895 29.8744 49.3588C29.9505 49.3266 30.0196 49.28 30.078 49.2216Z" fill="white"/>
<path d="M30.914 50.9171L30.8799 50.8469C31.3535 50.464 31.7819 50.0283 32.1567 49.5483C32.4265 49.1769 32.5614 48.8409 32.5613 48.5404C32.5728 48.3464 32.5134 48.1547 32.3942 48.0012C32.3367 47.936 32.2652 47.8845 32.1851 47.8508C32.105 47.817 32.0183 47.8018 31.9314 47.8062C31.7842 47.8081 31.6401 47.8486 31.5134 47.9238C31.359 48.0161 31.2217 48.1345 31.1078 48.2738L31.0323 48.2132C31.1468 47.9741 31.3132 47.7634 31.5193 47.5966C31.6956 47.4654 31.9102 47.396 32.1299 47.3991C32.2528 47.3965 32.3748 47.4201 32.4878 47.4685C32.6008 47.5168 32.7022 47.5888 32.7851 47.6795C32.9614 47.8687 33.0559 48.1199 33.048 48.3784C33.048 48.6774 32.9208 48.9984 32.6665 49.3416C32.318 49.778 31.9163 50.1693 31.4709 50.5062L32.3527 50.4965C32.4774 50.4999 32.6022 50.4927 32.7257 50.475C32.7889 50.4652 32.8488 50.4403 32.9003 50.4023C32.9613 50.3466 33.0161 50.2845 33.0638 50.217C33.1331 50.1197 33.1974 50.019 33.2564 49.9151L33.3411 49.9561L32.9681 50.9084C32.7452 50.905 32.5716 50.9026 32.4471 50.901C32.3227 50.8995 32.2073 50.8987 32.1009 50.8987C31.8827 50.8987 31.676 50.9003 31.4806 50.9035C31.2851 50.9068 31.0963 50.9113 30.914 50.9171Z" fill="white"/>
<path d="M33.774 51.0316L33.7256 50.9275C34.0899 50.756 34.4235 50.5256 34.7128 50.2455C34.9538 50.0054 35.1352 49.7121 35.2421 49.3891C35.128 49.4573 35.0059 49.5114 34.8787 49.5501C34.7632 49.5845 34.6434 49.602 34.5229 49.6022C34.3858 49.609 34.2488 49.5868 34.1208 49.5373C33.9927 49.4878 33.8766 49.4119 33.7797 49.3146C33.6829 49.2173 33.6076 49.1008 33.5586 48.9726C33.5097 48.8443 33.4882 48.7072 33.4956 48.5702C33.4901 48.4129 33.5173 48.2562 33.5755 48.1101C33.6337 47.9639 33.7216 47.8314 33.8336 47.7209C34.0758 47.5077 34.3874 47.3901 34.7101 47.3901C35.0327 47.3901 35.3443 47.5077 35.5865 47.7209C35.8012 47.9415 35.9086 48.2447 35.9086 48.6307C35.9098 49.1625 35.7094 49.675 35.3478 50.065C34.9737 50.4865 34.4491 50.8088 33.774 51.0316ZM35.293 49.2218C35.3185 49.1205 35.3383 49.0177 35.3525 48.9142C35.3659 48.8154 35.3728 48.7159 35.373 48.6162C35.3871 48.338 35.3225 48.0614 35.1865 47.8182C35.1367 47.7284 35.0636 47.6537 34.9749 47.6019C34.8862 47.5501 34.7853 47.5232 34.6826 47.5239C34.5861 47.5212 34.4904 47.542 34.4037 47.5844C34.317 47.6268 34.2418 47.6896 34.1847 47.7674C34.054 47.9729 33.9888 48.2131 33.9977 48.4565C34.0066 48.6998 34.0891 48.9347 34.2344 49.1301C34.3094 49.2188 34.4035 49.2895 34.5096 49.3369C34.6157 49.3843 34.7311 49.4072 34.8472 49.4039C34.9302 49.405 35.0125 49.3898 35.0896 49.359C35.1656 49.3268 35.2347 49.2803 35.293 49.2218Z" fill="white"/>
<path d="M20.875 49.3179H24.4585" stroke="white" stroke-width="0.059774"/>
<path d="M37.7793 49.3179H41.363" stroke="white" stroke-width="0.059774"/>
<path d="M20.9305 46.3724L20.9287 46.3026C21.1223 46.2901 21.2511 46.2506 21.315 46.184C21.3789 46.1174 21.411 45.9624 21.4112 45.719V44.3505C21.4112 44.104 21.3804 43.9462 21.3188 43.8773C21.2154 43.7921 21.0853 43.7463 20.9514 43.7479V43.6782C21.0732 43.6782 21.2422 43.6795 21.4582 43.682C21.6743 43.6845 21.8294 43.6857 21.9236 43.6857C22.0856 43.6857 22.2518 43.6851 22.4221 43.6838C22.5924 43.6826 22.7893 43.6807 23.0128 43.6782L22.9545 44.3075H22.8979C22.8907 44.1091 22.8368 43.9722 22.7361 43.8968C22.6355 43.8214 22.4417 43.7837 22.1549 43.7837H21.7743V44.9557H22.2171C22.3604 44.9667 22.5037 44.9339 22.628 44.8616C22.6733 44.8253 22.7097 44.7791 22.7342 44.7264C22.7587 44.6738 22.7707 44.6162 22.7692 44.5582L22.8313 44.56C22.8251 44.6832 22.8204 44.7991 22.8172 44.9077C22.8141 45.0163 22.8125 45.1216 22.8126 45.2234C22.8126 45.3089 22.8129 45.3736 22.8134 45.4175C22.8141 45.4616 22.8144 45.5024 22.8144 45.54H22.7579C22.7638 45.481 22.7558 45.4214 22.7346 45.3661C22.7134 45.3107 22.6796 45.261 22.6358 45.221C22.5139 45.1463 22.3712 45.1126 22.2287 45.1249H21.7746V45.7008C21.7746 45.9357 21.8123 46.0895 21.8876 46.1621C21.963 46.2347 22.1194 46.2815 22.357 46.3023V46.3721H22.3342C22.0151 46.367 21.7783 46.3645 21.6239 46.3645C21.5384 46.3645 21.4471 46.3652 21.3497 46.3664L20.9305 46.3724Z" fill="white"/>
<path d="M23.229 45.0138C23.2205 44.8279 23.2517 44.6423 23.3205 44.4694C23.3893 44.2964 23.4941 44.1401 23.628 44.0109C23.8936 43.7609 24.2482 43.6359 24.6917 43.6359C24.8833 43.6268 25.0747 43.6564 25.2546 43.7229C25.4345 43.7894 25.5991 43.8916 25.7386 44.0231C25.8712 44.1587 25.9745 44.32 26.0421 44.4972C26.1096 44.6743 26.14 44.8635 26.1313 45.0529C26.1391 45.2375 26.1074 45.4217 26.0384 45.5931C25.9693 45.7645 25.8645 45.9192 25.7309 46.0469C25.464 46.2975 25.11 46.4229 24.6691 46.4229C24.4778 46.4321 24.2866 46.4028 24.1068 46.3368C23.927 46.2707 23.7623 46.1693 23.6224 46.0385C23.4897 45.9041 23.3862 45.7436 23.3185 45.5673C23.2508 45.3909 23.2203 45.2025 23.229 45.0138ZM23.6888 44.9591C23.6735 45.3058 23.7743 45.6476 23.9751 45.9305C24.0573 46.0479 24.1668 46.1435 24.2942 46.209C24.4216 46.2745 24.563 46.308 24.7063 46.3066C24.8415 46.3106 24.9757 46.2824 25.0979 46.2244C25.2201 46.1664 25.3268 46.0803 25.4092 45.973C25.5973 45.7158 25.6911 45.4018 25.6749 45.0836C25.6754 44.9233 25.6545 44.7638 25.6128 44.6091C25.5755 44.4667 25.5157 44.3312 25.4356 44.2078C25.3479 44.067 25.2289 43.9483 25.0878 43.8611C24.9031 43.7583 24.688 43.7241 24.4805 43.7644C24.2729 43.8047 24.0863 43.917 23.9535 44.0815C23.767 44.3348 23.6734 44.6446 23.6883 44.9588L23.6888 44.9591Z" fill="white"/>
<path d="M26.6296 45.3386V44.3482C26.6337 44.2342 26.6265 44.12 26.6081 44.0074C26.5978 43.9553 26.5702 43.9082 26.5299 43.8737C26.4815 43.8362 26.4267 43.8079 26.3681 43.7899C26.2976 43.7689 26.2248 43.7566 26.1514 43.7533V43.6835C26.233 43.6861 26.3204 43.6879 26.4133 43.6891C26.5063 43.6902 26.647 43.6909 26.8354 43.691C27.0263 43.691 27.1692 43.6904 27.2641 43.6891C27.359 43.6878 27.4472 43.6859 27.5288 43.6835L27.5308 43.7533C27.3197 43.7594 27.1774 43.8015 27.1038 43.8794C27.0302 43.9574 26.9934 44.1123 26.9934 44.3441V45.3007C26.9889 45.4469 27.0031 45.593 27.0358 45.7356C27.0611 45.832 27.1101 45.9207 27.1781 45.9935C27.2599 46.0785 27.3606 46.143 27.472 46.1818C27.6008 46.2274 27.7367 46.2497 27.8734 46.2478C28.0318 46.2541 28.1893 46.2194 28.3304 46.1471C28.4565 46.0716 28.5557 45.9584 28.614 45.8236C28.6561 45.7213 28.6811 45.6129 28.6883 45.5025C28.7027 45.3626 28.7099 45.1394 28.7099 44.8331C28.7139 44.6251 28.7061 44.417 28.6864 44.21C28.6789 44.1185 28.6516 44.0298 28.6063 43.9501C28.56 43.8839 28.4951 43.8331 28.4198 43.804C28.3225 43.7689 28.2198 43.7514 28.1163 43.7524V43.6826C28.1854 43.6852 28.2589 43.6871 28.3369 43.6882C28.4148 43.6894 28.5329 43.69 28.6911 43.6902C28.8506 43.6902 28.9696 43.6895 29.0482 43.6882C29.1268 43.687 29.1992 43.6852 29.2658 43.6826V43.7524H29.2583C29.1945 43.7464 29.1305 43.7599 29.0746 43.7912C29.0187 43.8225 28.9737 43.87 28.9455 43.9275C28.8889 44.0442 28.8607 44.3386 28.8608 44.8106C28.8608 44.8507 28.8601 44.911 28.8588 44.9914C28.8537 45.4283 28.8173 45.7252 28.7495 45.882C28.6736 46.0607 28.5367 46.2066 28.3632 46.2936C28.1541 46.3934 27.924 46.4415 27.6924 46.4337C27.5054 46.4384 27.3191 46.4091 27.1424 46.3475C27.0016 46.298 26.8784 46.2084 26.7882 46.0895C26.7302 46.0086 26.6889 45.9169 26.6666 45.8199C26.6372 45.6613 26.6248 45.4999 26.6296 45.3386Z" fill="white"/>
<path d="M29.4493 46.3725L29.4474 46.3027C29.646 46.2928 29.7813 46.2281 29.8535 46.1086C29.9257 45.9891 29.9618 45.742 29.9619 45.3673V44.627C29.9619 44.5932 29.9625 44.5481 29.9637 44.4918C29.965 44.4354 29.9656 44.3958 29.9657 44.3731C29.9695 44.2777 29.9567 44.1823 29.9279 44.0912C29.901 44.0223 29.8584 43.9606 29.8035 43.9109C29.752 43.8643 29.6923 43.8278 29.6274 43.8031C29.554 43.7751 29.4768 43.7583 29.3984 43.7534V43.6836C29.44 43.6836 29.5001 43.6849 29.5794 43.6873C29.6587 43.6896 29.7162 43.6911 29.7527 43.6911C29.7891 43.6911 29.845 43.6898 29.9166 43.6873C29.9882 43.6847 30.0403 43.6836 30.0731 43.6836L32.0026 45.7467V44.8581C32.0078 44.6329 31.9986 44.4076 31.9752 44.1835C31.966 44.0903 31.9326 44.001 31.8781 43.9247C31.8347 43.8713 31.7773 43.831 31.7124 43.8083C31.6268 43.7779 31.5373 43.7597 31.4467 43.7543V43.6846C31.5146 43.6872 31.5875 43.689 31.6652 43.6902C31.743 43.6913 31.8568 43.692 32.0065 43.6921C32.1546 43.6921 32.2642 43.6915 32.3352 43.6902C32.4061 43.6889 32.4711 43.687 32.5302 43.6846V43.7543H32.5002C32.4362 43.7524 32.3734 43.7716 32.3214 43.8089C32.2694 43.8463 32.2312 43.8997 32.2126 43.961C32.1581 44.0987 32.1308 44.3549 32.1307 44.7294V45.5524C32.1307 45.744 32.1323 45.9139 32.1354 46.062C32.1386 46.2102 32.1427 46.3473 32.1477 46.4734H32.125C32.0471 46.3834 31.9627 46.2864 31.8717 46.1823L31.7199 46.0091L30.0876 44.2811V45.0421C30.0876 45.4166 30.0948 45.6687 30.1092 45.7984C30.1144 45.8955 30.1397 45.9905 30.1836 46.0773C30.2222 46.1363 30.2772 46.1827 30.3419 46.2107C30.4408 46.2535 30.5446 46.2838 30.6509 46.3009V46.3725H30.6401C30.375 46.3674 30.1773 46.3649 30.047 46.3649C29.9741 46.3649 29.8955 46.3656 29.8114 46.3668L29.4493 46.3725Z" fill="white"/>
<path d="M32.7178 46.3729V46.3031C32.9175 46.287 33.0516 46.2446 33.12 46.176C33.1885 46.1074 33.2227 45.9739 33.2228 45.7756V44.251C33.237 44.1214 33.2028 43.991 33.1267 43.885C33.0217 43.8026 32.8928 43.7565 32.7593 43.7537V43.6839C32.9754 43.6814 33.2052 43.6778 33.4488 43.6731C33.6924 43.6684 33.8306 43.6662 33.8635 43.6665C34.4263 43.6665 34.8673 43.789 35.1862 44.0339C35.3415 44.1504 35.4661 44.3029 35.5495 44.4781C35.6329 44.6534 35.6725 44.8463 35.665 45.0402C35.6728 45.2289 35.6355 45.4167 35.556 45.5879C35.4765 45.7592 35.3572 45.909 35.208 46.0248C34.9033 46.2641 34.4833 46.3838 33.9482 46.3837C33.8452 46.3837 33.6552 46.3821 33.3783 46.3791C33.1014 46.376 32.8812 46.3739 32.7178 46.3729ZM33.594 45.6662C33.594 45.9162 33.6342 46.0823 33.7147 46.1647C33.7951 46.247 33.9452 46.2881 34.165 46.2881C34.3052 46.2922 34.4445 46.2651 34.573 46.2087C34.7014 46.1523 34.8156 46.068 34.9075 45.962C35.1145 45.6914 35.2157 45.3546 35.1923 45.0147C35.1689 44.6748 35.0224 44.355 34.7802 44.1154C34.5031 43.8755 34.1191 43.7556 33.6279 43.7555H33.594V45.6662Z" fill="white"/>
<path d="M35.7109 46.3724V46.3026C35.8569 46.2988 35.9988 46.2534 36.1199 46.1717C36.1864 46.1092 36.2197 45.9757 36.2197 45.7712V44.292C36.2197 44.0757 36.1868 43.9327 36.1208 43.8631C36.0167 43.7801 35.8854 43.7389 35.7525 43.7474V43.6777C35.878 43.6808 36.0118 43.6827 36.1538 43.6837C36.2959 43.6846 36.5019 43.6851 36.7719 43.6852C37.0872 43.6852 37.318 43.6847 37.4643 43.6838C37.6106 43.6828 37.7422 43.6814 37.8591 43.6796C37.8478 43.765 37.838 43.8567 37.8299 43.9547C37.8218 44.0527 37.8139 44.1651 37.8064 44.292H37.7479C37.7506 44.2186 37.7377 44.1455 37.7101 44.0774C37.6825 44.0094 37.6407 43.948 37.5877 43.8972C37.4935 43.8237 37.3271 43.787 37.0885 43.787H36.5834V44.8988H36.9716C37.1229 44.9116 37.2748 44.8836 37.4116 44.8177C37.4566 44.7823 37.4937 44.7378 37.5204 44.6872C37.5472 44.6366 37.5631 44.5809 37.567 44.5237H37.6292C37.6292 44.5941 37.6264 44.7047 37.6207 44.8554C37.615 45.006 37.6122 45.1235 37.6123 45.2078V45.4301H37.5558C37.5556 45.3752 37.5425 45.3212 37.5176 45.2722C37.4927 45.2233 37.4567 45.1809 37.4125 45.1484C37.2763 45.0839 37.1256 45.0563 36.9754 45.0683H36.5834V45.7542C36.5834 45.9641 36.6261 46.1023 36.7115 46.1689C36.7969 46.2354 36.9634 46.2687 37.2109 46.2687C37.4041 46.2803 37.5948 46.2206 37.747 46.1009C37.8898 45.962 37.9811 45.7786 38.0058 45.5809L38.068 45.5884C38.0611 45.7284 38.0451 45.8678 38.02 46.0058C37.997 46.1329 37.9639 46.258 37.921 46.3799C37.739 46.3748 37.5399 46.371 37.3237 46.3686C37.1075 46.3661 36.872 46.3649 36.617 46.3648C36.3798 46.3648 36.1976 46.3654 36.0706 46.3666C35.9435 46.3679 35.8237 46.3698 35.7109 46.3724Z" fill="white"/>
<path d="M38.2373 46.3729V46.3031C38.437 46.287 38.5711 46.2446 38.6395 46.176C38.708 46.1074 38.7422 45.9739 38.7423 45.7756V44.251C38.7564 44.1214 38.7222 43.991 38.6462 43.885C38.5412 43.8026 38.4123 43.7565 38.2788 43.7537V43.6839C38.4945 43.6814 38.7244 43.6778 38.9685 43.6731C39.2125 43.6684 39.3507 43.6662 39.383 43.6665C39.9458 43.6665 40.3867 43.789 40.7059 44.0339C40.8611 44.1505 40.9857 44.303 41.069 44.4784C41.1523 44.6537 41.1918 44.8467 41.1842 45.0406C41.192 45.2293 41.1547 45.4171 41.0752 45.5884C40.9957 45.7597 40.8764 45.9094 40.7272 46.0252C40.4225 46.2646 40.0025 46.3842 39.4674 46.3841C39.3645 46.3841 39.1745 46.3826 38.8975 46.3795C38.6205 46.3764 38.4004 46.3742 38.2373 46.3729ZM39.1135 45.6662C39.1135 45.9162 39.1537 46.0823 39.2342 46.1647C39.3146 46.247 39.4647 46.2881 39.6845 46.2881C39.8247 46.2922 39.964 46.2651 40.0924 46.2087C40.2208 46.1523 40.3351 46.068 40.4269 45.962C40.634 45.6914 40.7353 45.3546 40.7119 45.0147C40.6885 44.6748 40.5419 44.355 40.2998 44.1154C40.0228 43.8755 39.6387 43.7556 39.1475 43.7555H39.1136L39.1135 45.6662Z" fill="white"/>
<path d="M22.1141 38.6394C22.0583 38.5878 22.0278 38.5578 22.0108 38.5403C21.9952 38.5288 21.9769 38.5149 21.9545 38.4979C21.8059 38.3851 21.6633 38.2746 21.5258 38.1528L7.54856 55.2685L7.55935 55.2793C7.47498 55.3556 7.40863 55.4497 7.36509 55.5548C7.32155 55.6599 7.30191 55.7734 7.3076 55.887C7.31329 56.0006 7.34415 56.1115 7.39796 56.2118C7.45178 56.312 7.52719 56.399 7.61875 56.4665C7.71032 56.534 7.81574 56.5804 7.9274 56.6021C8.03905 56.6239 8.15416 56.6206 8.26438 56.5924C8.3746 56.5643 8.47719 56.512 8.56472 56.4393C8.65225 56.3667 8.72254 56.2754 8.77051 56.1723L22.849 39.001C22.5737 38.9556 22.318 38.8298 22.1141 38.6394Z" fill="white"/>
<path d="M21.4676 17.3304C21.6632 17.1412 21.9106 17.0143 22.1784 16.9659L9.0134 0.845215L7.82715 1.8697L21.0981 18.0549C21.1391 17.7796 21.2689 17.5253 21.4676 17.3304Z" fill="white"/>
<path d="M39.8647 17.4381C40.0584 17.6248 40.187 17.8689 40.2314 18.1343L53.5231 1.92341L52.3368 0.898926L39.1299 17.0706C39.4059 17.1174 39.6617 17.2453 39.8647 17.4381Z" fill="white"/>
<path d="M53.6669 55.2794L53.6777 55.2686L39.7555 38.2207C39.7286 38.3097 39.6916 38.3954 39.6453 38.4761C39.5466 38.6528 39.4062 38.8028 39.2364 38.913C39.0666 39.0232 38.8724 39.0903 38.6708 39.1085C38.6216 39.1337 38.5708 39.1556 38.5186 39.1738L52.456 56.1723C52.5039 56.2756 52.5741 56.367 52.6617 56.4398C52.7492 56.5126 52.8519 56.565 52.9622 56.5933C53.0725 56.6215 53.1877 56.6249 53.2994 56.6031C53.4112 56.5813 53.5167 56.535 53.6083 56.4674C53.7 56.3998 53.7754 56.3127 53.8293 56.2124C53.8831 56.112 53.9139 56.001 53.9195 55.8872C53.9251 55.7735 53.9054 55.66 53.8617 55.5548C53.818 55.4497 53.7515 55.3557 53.6669 55.2794Z" fill="white"/>
<path d="M85.4382 47.8189L84.3297 44.9784H75.7738L74.7346 47.8189C74.6422 48.0498 74.5729 48.2807 74.5267 48.5117C74.4806 48.7195 74.4575 48.9042 74.4575 49.0659C74.4575 49.6432 74.6999 50.0473 75.1849 50.2783C75.6698 50.5092 76.3511 50.6593 77.2286 50.7286V52.2874H69.6426V50.7286C70.1044 50.6362 70.5086 50.5208 70.855 50.3822C71.2014 50.2205 71.4669 49.9088 71.6517 49.4469L78.6835 30.9841L77.4711 27.9704H85.5421L94.0288 49.4469C94.1904 49.8857 94.4445 50.1859 94.7908 50.3476C95.1372 50.5092 95.5645 50.6362 96.0725 50.7286V52.2874H83.0827V50.7286C83.8679 50.7055 84.5029 50.5785 84.9879 50.3476C85.4728 50.0935 85.7153 49.6779 85.7153 49.1005C85.7153 48.9389 85.6922 48.7541 85.646 48.5463C85.5998 48.3154 85.5306 48.0729 85.4382 47.8189ZM79.9305 33.7206L76.5012 42.9693H83.533L79.9305 33.7206Z" fill="white"/>
<path d="M108.904 29.8063H108.177V40.3714H108.939C110.394 40.3714 111.537 39.898 112.368 38.9512C113.223 38.0043 113.65 36.6765 113.65 34.9676C113.65 33.328 113.234 32.0579 112.403 31.1573C111.572 30.2566 110.405 29.8063 108.904 29.8063ZM108.177 42.2419V48.4077C108.177 49.2853 108.292 49.8626 108.523 50.1397C108.754 50.4168 109.435 50.6131 110.567 50.7286V52.2874H98.2007V50.7286C99.3322 50.6131 100.013 50.4168 100.244 50.1397C100.475 49.8626 100.591 49.2853 100.591 48.4077V31.85C100.591 30.9725 100.475 30.3952 100.244 30.1181C100.013 29.841 99.3322 29.6447 98.2007 29.5292V27.9704H111.675C114.447 27.9704 116.71 28.5939 118.465 29.841C120.243 31.0649 121.132 32.7622 121.132 34.933C121.132 36.6188 120.612 37.9697 119.573 38.9858C118.557 39.9788 117.426 40.6947 116.179 41.1334L120.786 47.9228C121.478 48.962 122.033 49.6779 122.448 50.0704C122.864 50.463 123.464 50.6824 124.25 50.7286V52.2874H115.694C115.209 51.9179 114.724 51.4214 114.239 50.7979C113.777 50.1513 113.292 49.3777 112.784 48.477L109.216 42.2419H108.177Z" fill="white"/>
<path d="M138.557 27.624C140.151 27.624 141.594 27.8088 142.887 28.1783C144.204 28.5247 145.358 29.0211 146.351 29.6678L146.49 35.9375H144.619C144.18 33.8591 143.499 32.2657 142.575 31.1573C141.652 30.0488 140.405 29.4946 138.834 29.4946C136.779 29.4946 135.301 30.4991 134.401 32.5082C133.523 34.5173 133.084 36.9651 133.084 39.8518C133.084 42.9693 133.592 45.5558 134.608 47.611C135.648 49.6432 137.172 50.6593 139.181 50.6593C140.52 50.6593 141.733 50.0935 142.818 48.962C143.926 47.8073 144.839 45.9022 145.554 43.2465H147.46L146.836 50.2783C145.843 51.0173 144.573 51.5946 143.026 52.0103C141.479 52.4259 139.851 52.6338 138.142 52.6338C134.123 52.6338 130.948 51.583 128.616 49.4816C126.283 47.3801 125.117 44.4935 125.117 40.8217C125.117 36.7573 126.445 33.5474 129.101 31.1919C131.756 28.8133 134.909 27.624 138.557 27.624Z" fill="white"/>
<path d="M160.252 31.85V38.8472H168.289V31.85C168.289 30.9725 168.173 30.3952 167.942 30.1181C167.711 29.841 167.03 29.6447 165.899 29.5292V27.9704H178.265V29.5292C177.133 29.6447 176.452 29.841 176.221 30.1181C175.99 30.3952 175.875 30.9725 175.875 31.85V48.4077C175.875 49.2853 175.99 49.8626 176.221 50.1397C176.452 50.4168 177.133 50.6131 178.265 50.7286V52.2874H165.899V50.7286C167.03 50.6131 167.711 50.4168 167.942 50.1397C168.173 49.8626 168.289 49.2853 168.289 48.4077V41.2027H160.252V48.4077C160.252 49.2853 160.368 49.8626 160.599 50.1397C160.83 50.4168 161.511 50.6131 162.643 50.7286V52.2874H150.276V50.7286C151.408 50.6131 152.089 50.4168 152.32 50.1397C152.551 49.8626 152.666 49.2853 152.666 48.4077V31.85C152.666 30.9725 152.551 30.3952 152.32 30.1181C152.089 29.841 151.408 29.6447 150.276 29.5292V27.9704H162.643V29.5292C161.511 29.6447 160.83 29.841 160.599 30.1181C160.368 30.3952 160.252 30.9725 160.252 31.85Z" fill="white"/>
<path d="M191.094 31.85V48.4077C191.094 49.2853 191.209 49.8626 191.44 50.1397C191.671 50.4168 192.352 50.6131 193.484 50.7286V52.2874H181.118V50.7286C182.249 50.6131 182.93 50.4168 183.161 50.1397C183.392 49.8626 183.508 49.2853 183.508 48.4077V31.85C183.508 30.9725 183.392 30.3952 183.161 30.1181C182.93 29.841 182.249 29.6447 181.118 29.5292V27.9704H193.484V29.5292C192.352 29.6447 191.671 29.841 191.44 30.1181C191.209 30.3952 191.094 30.9725 191.094 31.85Z" fill="white"/>
<path d="M211.572 42.9693L215.659 32.4389C215.752 32.1849 215.833 31.9424 215.902 31.7115C215.994 31.4575 216.04 31.2381 216.04 31.0533C216.04 30.5453 215.89 30.1758 215.59 29.9449C215.313 29.7139 214.666 29.5754 213.65 29.5292V27.9704H220.925V29.5292C220.417 29.6216 219.989 29.7486 219.643 29.9102C219.32 30.0488 219.066 30.349 218.881 30.8109L210.013 52.3913H207.796L197.612 30.8109C197.381 30.349 197.116 30.0488 196.815 29.9102C196.515 29.7486 196.111 29.6216 195.603 29.5292V27.9704H208.662V29.5292C207.646 29.5754 206.988 29.7139 206.688 29.9449C206.411 30.1758 206.272 30.5453 206.272 31.0533C206.272 31.2381 206.307 31.4575 206.376 31.7115C206.445 31.9655 206.526 32.208 206.618 32.4389L211.572 42.9693Z" fill="white"/>
<path d="M223.045 52.2874V50.7286C224.176 50.6131 224.858 50.4168 225.089 50.1397C225.32 49.8626 225.435 49.2853 225.435 48.4077V31.85C225.435 30.9725 225.32 30.3952 225.089 30.1181C224.858 29.841 224.176 29.6447 223.045 29.5292V27.9704H243.344L243.517 34.8637H242.062C241.138 32.9239 240.307 31.5845 239.568 30.8455C238.852 30.0834 237.663 29.7024 236 29.7024H233.021V38.7087H235.896C236.704 38.7087 237.247 38.4777 237.524 38.0159C237.824 37.5309 238.044 36.688 238.182 35.4872H239.81V44.0085H238.182C238.044 42.8077 237.824 41.9763 237.524 41.5145C237.247 41.0295 236.704 40.787 235.896 40.787H233.021V48.2345C233.021 49.1583 233.24 49.7818 233.679 50.1051C234.118 50.4053 234.788 50.5554 235.688 50.5554H236.45C238.067 50.5554 239.233 50.1282 239.949 49.2737C240.665 48.4193 241.658 46.8028 242.928 44.4242H244.66L243.517 52.2874H223.045Z" fill="white"/>
<path d="M256.596 52.6338C254.841 52.6338 253.225 52.4144 251.747 51.9756C250.269 51.5138 249.103 50.9595 248.248 50.3129L247.833 44.251H249.876C250.315 46.1215 251.112 47.6919 252.267 48.962C253.421 50.209 254.865 50.8325 256.596 50.8325C257.728 50.8325 258.652 50.5785 259.368 50.0704C260.084 49.5624 260.441 48.8003 260.441 47.7842C260.441 46.745 260.037 45.9368 259.229 45.3595C258.444 44.7821 257.128 44.2395 255.28 43.7314C252.879 43.0848 251.054 42.1264 249.807 40.8563C248.56 39.5862 247.937 37.8889 247.937 35.7643C247.937 33.2241 248.803 31.2381 250.535 29.8063C252.29 28.3515 254.472 27.624 257.081 27.624C258.721 27.624 260.187 27.8203 261.481 28.2129C262.797 28.5824 263.871 29.0789 264.702 29.7024V35.0022H263.005C262.566 33.3395 261.862 31.9886 260.892 30.9494C259.945 29.9102 258.675 29.3906 257.081 29.3906C256.088 29.3906 255.269 29.6562 254.622 30.1873C253.999 30.7185 253.687 31.4575 253.687 32.4043C253.687 33.4666 254.079 34.2864 254.865 34.8637C255.65 35.4179 256.908 35.9375 258.64 36.4225C260.926 37.0691 262.785 37.9697 264.217 39.1243C265.672 40.2559 266.399 42.0918 266.399 44.632C266.399 47.4032 265.43 49.4354 263.49 50.7286C261.573 51.9987 259.275 52.6338 256.596 52.6338Z" fill="white"/>
<path d="M79.5748 15.329C79.5546 16.064 79.5971 16.7994 79.7018 17.5272C79.7484 17.8742 79.8988 18.199 80.1332 18.4591C80.3881 18.6848 80.6846 18.8587 81.006 18.971C81.4601 19.1314 81.9294 19.245 82.4066 19.3102L82.3965 19.6861L80.062 19.6556C79.5273 19.649 79.0334 19.6457 78.5804 19.6457C77.7345 19.6457 76.4726 19.6592 74.7947 19.6861H74.7339V19.3102C75.2159 19.2451 75.69 19.1315 76.1491 18.971C76.4701 18.8611 76.7654 18.6869 77.0168 18.4591C77.2574 18.2019 77.412 17.8762 77.4591 17.5272C77.5639 16.7994 77.6064 16.064 77.586 15.329V5.90257H76.1445C74.8454 5.90257 73.8981 6.10218 73.3025 6.5014C72.7069 6.90061 72.2773 7.60086 72.0136 8.60215L71.6582 8.54134L72.0542 4.53223H72.2975L72.9268 5.20203C73.5762 5.20203 74.5336 5.20541 75.7991 5.2122C77.0645 5.21898 78.0118 5.22237 78.641 5.22237C79.2633 5.22237 80.197 5.21898 81.4423 5.2122C82.6875 5.20541 83.6179 5.20203 84.2334 5.20203L84.9235 4.53223H85.0858L85.4414 8.58202L85.1064 8.653C84.8627 7.66528 84.4381 6.95995 83.8325 6.537C83.2269 6.11405 82.3287 5.90257 81.138 5.90257H79.5748V15.329Z" fill="white"/>
<path d="M85.5424 19.6859L85.5322 19.31C86.1613 19.283 86.5791 19.1547 86.7856 18.9252C86.9921 18.6957 87.0953 18.0986 87.0952 17.1341L87.0748 7.56766C87.0879 7.24052 87.0485 6.9134 86.9583 6.59868C86.8751 6.3709 86.7374 6.16696 86.5572 6.00471L86.0194 5.54807V5.3652L88.5668 4.33008L88.7799 4.43157L88.659 11.4335C89.276 11.0045 89.9359 10.6408 90.6281 10.3482C91.1346 10.1257 91.6789 10.0017 92.2318 9.98286C93.1993 9.98286 93.9063 10.2565 94.3528 10.8037C94.7994 11.3509 95.0396 12.2428 95.0735 13.4794L95.1648 17.3875C95.1918 18.2245 95.3035 18.7392 95.4998 18.9314C95.6962 19.1236 96.0954 19.2502 96.6975 19.3111V19.687C96.4402 19.6737 96.151 19.6636 95.8298 19.6565C95.5085 19.6494 95.0162 19.6461 94.3528 19.6465C93.6895 19.6465 93.1854 19.6499 92.8408 19.6565C92.4961 19.6631 92.178 19.6733 91.8866 19.687L91.8764 19.3111C92.5193 19.2437 92.9473 19.102 93.1603 18.8859C93.3733 18.6697 93.4799 18.2243 93.4801 17.5496C93.4801 17.4956 93.4767 17.3943 93.4699 17.2457C93.4631 17.0971 93.4597 16.9792 93.4597 16.8919L93.4192 14.4816C93.3923 13.3003 93.1741 12.4449 92.7647 11.9153C92.3553 11.3858 91.714 11.1208 90.8409 11.1204C90.4908 11.1222 90.1431 11.1786 89.8104 11.2875C89.4212 11.4179 89.0483 11.5928 88.6992 11.8088V17.1139C88.6992 18.0051 88.8092 18.5874 89.0292 18.8609C89.2491 19.1343 89.6872 19.2845 90.3436 19.3113L90.3334 19.6872C90.0493 19.674 89.738 19.6638 89.3996 19.6567C89.0611 19.6496 88.557 19.6463 87.8873 19.6468C87.2377 19.6468 86.7506 19.6501 86.4258 19.6567C86.101 19.6633 85.8066 19.6731 85.5424 19.6859Z" fill="white"/>
<path d="M104.749 17.1889L105.043 17.4428C104.574 18.1575 103.954 18.7604 103.226 19.2087C102.56 19.6051 101.799 19.8122 101.024 19.8076C100.439 19.818 99.8592 19.7024 99.3232 19.4686C98.7873 19.2348 98.308 18.8883 97.918 18.4527C97.0723 17.5321 96.6206 16.317 96.6596 15.0676C96.6259 13.7364 97.1078 12.4438 98.0045 11.4594C98.4098 10.99 98.9125 10.6148 99.4778 10.3597C100.043 10.1047 100.657 9.97599 101.277 9.98267C102.312 9.98267 103.146 10.2737 103.779 10.8557C104.411 11.4377 104.755 12.2328 104.809 13.2408C103.652 13.2001 102.554 13.1697 101.516 13.1495C100.477 13.1293 99.491 13.1191 98.5571 13.119C98.5102 13.3059 98.4763 13.4958 98.4556 13.6873C98.4347 13.8862 98.4246 14.0861 98.425 14.2861C98.3861 15.3878 98.7629 16.4639 99.4807 17.3006C99.8023 17.683 100.205 17.989 100.66 18.1962C101.114 18.4034 101.61 18.5065 102.109 18.4982C102.612 18.5024 103.109 18.3895 103.561 18.1685C104.025 17.9346 104.431 17.5999 104.749 17.1889ZM102.709 12.6013C102.622 12.0221 102.388 11.475 102.029 11.0127C101.888 10.8386 101.71 10.6985 101.508 10.6028C101.306 10.5071 101.085 10.4582 100.861 10.4599C100.6 10.4601 100.341 10.5138 100.101 10.6177C99.8612 10.7215 99.645 10.8734 99.4659 11.064C99.0365 11.5182 98.749 12.0878 98.6387 12.703L102.709 12.6013Z" fill="white"/>
<path d="M126.459 18.0639V18.4399C125.404 18.9266 124.306 19.3152 123.18 19.6008C122.201 19.8472 121.196 19.9748 120.186 19.9809C117.689 19.9809 115.683 19.306 114.168 17.956C112.652 16.6061 111.894 14.8283 111.894 12.6226C111.882 11.5669 112.093 10.5205 112.513 9.55215C112.943 8.5989 113.577 7.75176 114.371 7.07061C115.173 6.36462 116.106 5.82167 117.116 5.47205C118.199 5.10185 119.337 4.91828 120.481 4.92917C121.321 4.93094 122.159 5.00224 122.988 5.14234C123.862 5.28974 124.724 5.50345 125.566 5.78163C125.532 6.33667 125.503 6.92031 125.479 7.53255C125.456 8.14479 125.437 8.79941 125.423 9.49642H125.109C124.798 8.18437 124.224 7.18124 123.388 6.48704C122.553 5.79283 121.492 5.44639 120.207 5.44772C118.434 5.44772 117.003 6.04145 115.913 7.22893C114.824 8.41641 114.279 9.98453 114.279 11.9333C114.275 12.8793 114.449 13.8175 114.792 14.6992C115.134 15.5758 115.638 16.3798 116.279 17.0689C116.945 17.7843 117.764 18.3411 118.674 18.6981C119.646 19.0849 120.683 19.2796 121.729 19.2713C122.406 19.2713 122.857 19.1667 123.084 18.9573C123.31 18.748 123.424 18.2988 123.424 17.6097V15.6238C123.424 14.7998 123.228 14.2175 122.835 13.8768C122.443 13.5361 121.712 13.3216 120.643 13.2333V12.8574C121.198 12.868 121.741 12.8774 122.272 12.8855C122.803 12.8936 123.333 12.8977 123.86 12.8979C124.402 12.8979 124.934 12.8945 125.459 12.8877C125.983 12.8809 126.496 12.8708 126.997 12.8574L127.007 13.2333C126.378 13.3145 125.956 13.4953 125.743 13.7755C125.53 14.0558 125.423 14.6485 125.423 15.5537V18.0666L126.459 18.0639Z" fill="white"/>
<path d="M129.47 14.1175V8.78293C129.491 8.16879 129.452 7.55398 129.353 6.94754C129.297 6.66697 129.149 6.41327 128.932 6.22731C128.67 6.02554 128.375 5.87264 128.059 5.77598C127.679 5.66288 127.287 5.59643 126.892 5.57807V5.20215C127.332 5.21586 127.802 5.22603 128.303 5.23266C128.803 5.2393 129.561 5.24268 130.576 5.24283C131.604 5.24283 132.374 5.23945 132.885 5.23266C133.396 5.22588 133.871 5.21571 134.311 5.20215L134.321 5.57807C133.184 5.61213 132.418 5.83871 132.021 6.25783C131.625 6.67695 131.427 7.51194 131.427 8.76281V13.9152C131.403 14.7026 131.48 15.4899 131.656 16.2578C131.792 16.7772 132.055 17.2546 132.422 17.647C132.863 18.105 133.405 18.4526 134.006 18.6613C134.699 18.9067 135.431 19.027 136.167 19.0165C137.021 19.0505 137.868 18.8636 138.628 18.474C139.307 18.0682 139.841 17.4598 140.156 16.7346C140.382 16.1836 140.518 15.5995 140.557 15.0051C140.634 14.2512 140.673 13.0497 140.673 11.4007C140.695 10.2803 140.653 9.15952 140.547 8.04391C140.506 7.55155 140.359 7.07388 140.115 6.64415C139.866 6.28797 139.516 6.01432 139.11 5.85824C138.587 5.66844 138.033 5.57392 137.477 5.57917V5.20326C137.848 5.21697 138.244 5.22714 138.664 5.23377C139.084 5.24041 139.72 5.24379 140.572 5.24393C141.431 5.24393 142.073 5.24055 142.496 5.23377C142.919 5.22699 143.31 5.21682 143.668 5.20326V5.57917H143.627C142.808 5.57917 142.247 5.89363 141.942 6.52253C141.638 7.15143 141.486 8.73664 141.486 11.2782C141.486 11.4943 141.483 11.8186 141.476 12.2512C141.449 14.6044 141.253 16.204 140.888 17.0497C140.479 18.0118 139.741 18.7973 138.807 19.2659C137.84 19.7693 136.635 20.0212 135.194 20.0215C134.186 20.0459 133.182 19.8878 132.231 19.5547C131.472 19.2881 130.809 18.8049 130.322 18.1651C130.011 17.7297 129.788 17.2368 129.668 16.7149C129.509 15.8587 129.443 14.9879 129.47 14.1175Z" fill="white"/>
<path d="M144.446 19.6855V19.3096C145.502 19.249 146.216 19.0313 146.588 18.6564C146.96 18.2815 147.146 17.4494 147.146 16.16V8.71671C147.146 7.43415 146.963 6.60705 146.598 6.2354C146.233 5.86376 145.516 5.64431 144.446 5.57708V5.20117C144.866 5.20117 145.493 5.20795 146.329 5.22151C147.165 5.23507 147.789 5.24185 148.202 5.24185C148.614 5.24185 149.229 5.23507 150.044 5.22151C150.859 5.20795 151.467 5.20117 151.866 5.20117V5.57708C150.797 5.64475 150.079 5.86758 149.714 6.24557C149.349 6.62356 149.166 7.44727 149.166 8.71671V16.16C149.166 17.4426 149.35 18.2747 149.719 18.6564C150.087 19.038 150.803 19.2558 151.865 19.3096L151.855 19.6855C150.827 19.6652 150.06 19.6534 149.556 19.6501C149.052 19.6469 148.581 19.6452 148.141 19.645C147.701 19.645 147.229 19.6467 146.726 19.6501C146.222 19.6535 145.463 19.6653 144.446 19.6855Z" fill="white"/>
<path d="M152.689 19.6856V19.3097C153.766 19.2224 154.488 18.9939 154.857 18.6242C155.225 18.2545 155.409 17.5356 155.409 16.4675V8.25732C155.409 7.29908 155.237 6.64189 154.892 6.28572C154.547 5.92955 153.887 5.69368 152.913 5.5781V5.20217C154.076 5.1889 155.314 5.17026 156.628 5.14623C157.941 5.1222 158.685 5.11041 158.861 5.11085C161.892 5.11085 164.267 5.77055 165.986 7.08997C167.705 8.40939 168.564 10.216 168.564 12.5099C168.564 14.7565 167.743 16.5241 166.103 17.8129C164.462 19.1016 162.2 19.7462 159.318 19.7467C158.763 19.7467 157.739 19.7381 156.247 19.721C154.756 19.7039 153.57 19.6921 152.689 19.6856ZM157.409 15.8795C157.409 17.2262 157.625 18.121 158.058 18.564C158.491 19.007 159.3 19.2287 160.484 19.229C161.239 19.2511 161.99 19.105 162.681 18.8013C163.373 18.4976 163.988 18.0439 164.483 17.473C165.518 16.3025 166.036 14.7733 166.036 12.8854C166.036 10.6054 165.29 8.81907 163.798 7.52648C162.306 6.23389 160.237 5.58768 157.592 5.58783H157.409V15.8795Z" fill="white"/>
<path d="M169.886 12.3679C169.886 10.1149 170.601 8.31502 172.032 6.96832C173.463 5.62163 175.373 4.94844 177.762 4.94873C180.11 4.94873 181.989 5.64389 183.401 7.03422C184.812 8.42454 185.518 10.2735 185.517 12.5811C185.517 14.8007 184.798 16.5853 183.36 17.9349C181.922 19.2845 180.016 19.9595 177.641 19.9598C175.293 19.9598 173.413 19.2696 172.002 17.8893C170.591 16.509 169.885 14.6686 169.886 12.3679ZM172.362 12.0736C172.362 14.2112 172.877 15.9553 173.905 17.3058C174.933 18.6563 176.246 19.3313 177.843 19.3307C178.571 19.3523 179.294 19.2008 179.952 18.8885C180.61 18.5761 181.185 18.112 181.629 17.5342C182.583 16.3366 183.06 14.7397 183.06 12.7436C183.063 11.8799 182.95 11.0196 182.725 10.1858C182.525 9.41883 182.202 8.68897 181.771 8.024C181.298 7.26607 180.658 6.62709 179.898 6.15655C178.903 5.60332 177.745 5.41909 176.627 5.63633C175.509 5.85356 174.504 6.45831 173.788 7.34402C172.838 8.54167 172.362 10.1182 172.362 12.0736Z" fill="white"/>
<path d="M185.469 19.6861L185.459 19.3101C186.528 19.2562 187.257 18.9071 187.646 18.2629C188.035 17.6186 188.23 16.2879 188.23 14.2705V10.2838C188.23 10.1015 188.233 9.85875 188.24 9.55535C188.247 9.25196 188.25 9.03937 188.25 8.9176C188.271 8.40374 188.202 7.89024 188.047 7.39977C187.902 7.02835 187.673 6.69571 187.377 6.4281C187.1 6.17689 186.778 5.9796 186.428 5.84631C186.033 5.69556 185.617 5.60513 185.195 5.57807V5.20215C185.419 5.20215 185.743 5.20894 186.17 5.2225C186.596 5.23606 186.907 5.24284 187.103 5.24284C187.306 5.24284 187.601 5.23606 187.986 5.2225C188.372 5.20894 188.653 5.20215 188.829 5.20215L199.222 16.3147V11.5285C199.222 9.7338 199.173 8.52281 199.075 7.89553C199.025 7.39242 198.845 6.91101 198.552 6.49908C198.318 6.21171 198.009 5.99456 197.659 5.87152C197.198 5.70739 196.716 5.60861 196.228 5.57807V5.20215C196.593 5.21586 196.986 5.22603 197.405 5.23266C197.825 5.2393 198.437 5.24269 199.242 5.24284C200.041 5.24284 200.631 5.23945 201.013 5.23266C201.396 5.22588 201.746 5.21571 202.064 5.20215V5.57807H201.901C201.164 5.57807 200.648 5.94922 200.353 6.69148C200.059 7.43375 199.911 8.81331 199.911 10.8302V15.2625C199.911 16.2945 199.92 17.2097 199.937 18.0081C199.954 18.8065 199.976 19.5452 200.003 20.2241H199.881C199.462 19.7385 199.007 19.2155 198.516 18.6551L197.698 17.7217L188.908 8.42182V12.5203C188.908 14.5377 188.947 15.8955 189.025 16.5935C189.103 17.2916 189.236 17.7928 189.426 18.0972C189.634 18.4148 189.93 18.6646 190.278 18.8157C190.811 19.047 191.37 19.2105 191.943 19.3022V19.6878H191.882C190.454 19.6608 189.388 19.6474 188.685 19.6474C188.292 19.6474 187.87 19.6507 187.416 19.6573L185.469 19.6861Z" fill="white"/>
</svg>
