<svg width="3295" height="505" viewBox="0 0 3295 505" fill="none" xmlns="http://www.w3.org/2000/svg">
<g clip-path="url(#clip0_83_1549)">
<path d="M136.074 46.327C136.982 47.547 134.474 50.949 130.474 53.927C126.474 56.905 122.494 58.327 121.585 57.109C120.676 55.891 123.185 52.487 127.185 49.509C131.185 46.531 135.165 45.107 136.074 46.327Z" fill="white"/>
<path d="M131.446 46.833C131.446 47.9845 131.104 49.1101 130.465 50.0675C129.825 51.0249 128.916 51.7712 127.852 52.2118C126.788 52.6525 125.617 52.7678 124.488 52.5431C123.359 52.3185 122.321 51.764 121.507 50.9498C120.693 50.1355 120.138 49.0982 119.914 47.9688C119.689 46.8394 119.804 45.6688 120.245 44.605C120.686 43.5412 121.432 42.6319 122.389 41.9922C123.347 41.3524 124.472 41.011 125.624 41.011C126.388 41.0109 127.145 41.1614 127.852 41.4539C128.558 41.7464 129.2 42.1753 129.741 42.7159C130.281 43.2566 130.71 43.8984 131.003 44.6048C131.295 45.3113 131.446 46.0684 131.446 46.833Z" fill="white"/>
<path d="M461.205 47.239C461.205 48.3905 461.547 49.5161 462.186 50.4735C462.826 51.4309 463.735 52.1772 464.799 52.6178C465.863 53.0585 467.034 53.1738 468.163 52.9491C469.292 52.7245 470.33 52.17 471.144 51.3558C471.958 50.5415 472.513 49.5042 472.737 48.3748C472.962 47.2455 472.847 46.0748 472.406 45.011C471.965 43.9472 471.219 43.0379 470.262 42.3982C469.304 41.7584 468.179 41.417 467.027 41.417C465.483 41.4173 464.002 42.0307 462.911 43.1225C461.819 44.2143 461.205 45.695 461.205 47.239Z" fill="white"/>
<path d="M99.539 329.583L98.653 329.126C98.3686 328.962 98.1408 328.715 97.9994 328.418C97.858 328.122 97.8098 327.789 97.861 327.465C98.204 323.016 98.254 311.865 91.353 304.432C84.401 296.946 84.107 285.932 83.853 276.209C83.8 274.239 83.753 272.379 83.653 270.596C83.228 263.224 81.853 262.303 77.3 259.252C75.925 258.331 74.214 257.185 72.245 255.647C62.445 248.002 63.345 213.712 64.774 202.086C67.274 181.818 70.996 168.386 75.842 162.151C83.042 152.893 86.377 145.283 85.51 144.109C85.4228 144.077 85.3309 144.058 85.238 144.055C79.263 143.596 79.628 138.1 79.803 135.455C79.832 135.024 79.86 134.63 79.86 134.296C79.86 131.743 84.412 121.168 85.808 117.987C96.32 94.113 126.617 56.923 126.922 56.55L128.486 54.636L129.462 56.907C148.91 102.2 162.8 109.128 173.967 114.7C175.008 115.22 176.028 115.729 177.028 116.254L178.463 117.008L177.601 118.381C165.291 137.955 132.594 161.525 126.878 162.717L126.367 162.823L126.467 162.903L126.983 163.295C129.667 165.321 133.342 168.095 133.551 176.035C133.735 183.035 122.794 197.735 112.213 211.961C110.339 214.481 108.524 216.92 106.862 219.201C98.117 231.201 100.195 233.47 103.638 237.224C104 237.618 104.372 238.024 104.747 238.453C109.547 243.935 109.54 245.091 104.66 263.187C100.96 276.912 101.898 280.81 103.768 288.573C104.304 290.794 104.91 293.313 105.498 296.436C107.898 309.172 102.045 327.787 100.311 329.03L99.539 329.583ZM127.7 60.375C121.383 68.284 97.54 98.786 88.544 119.2C85.806 125.441 82.85 132.991 82.85 134.3C82.85 134.69 82.82 135.153 82.787 135.658C82.544 139.307 82.862 140.864 85.458 141.064C86.0521 141.078 86.6302 141.259 87.1256 141.587C87.6211 141.916 88.0136 142.377 88.258 142.919C90.49 147.966 79.467 162.367 78.203 163.993C73.757 169.709 70.14 183.009 67.743 202.453C66.6986 212.054 66.5814 221.734 67.393 231.358C68.411 242.924 70.787 250.71 74.083 253.282C75.966 254.753 77.558 255.818 78.961 256.76C84.061 260.175 86.148 261.901 86.64 270.423C86.746 272.252 86.796 274.136 86.849 276.13C87.094 285.318 87.372 295.73 93.549 302.391C98.333 307.543 100.135 314.183 100.725 319.636C102.361 313.436 103.949 304.398 102.552 296.986C101.978 293.937 101.381 291.459 100.852 289.271C98.925 281.271 97.863 276.871 101.764 262.401C106.464 244.968 106.316 244.801 102.489 240.425C102.131 240.015 101.774 239.625 101.427 239.247C96.974 234.394 94.738 230.747 104.437 217.432C106.105 215.142 107.926 212.694 109.806 210.167C119.119 197.648 130.706 182.067 130.552 176.109C130.381 169.616 127.616 167.527 125.176 165.686L124.638 165.277C124.158 164.908 123.728 164.617 123.379 164.377C122.474 163.765 121.539 163.133 121.773 161.946C122.028 160.654 123.01 160.446 126.262 159.771C130.631 158.861 161.362 137.231 174.162 118.148C173.654 117.891 173.14 117.636 172.621 117.377C161.219 111.69 147.069 104.633 127.7 60.375Z" fill="white"/>
<path d="M146.746 93.275C146.746 93.275 152.704 103.7 145.393 147.975C133.206 157.453 131.311 158.807 131.311 158.807C131.311 158.807 135.911 136.331 135.373 116.563C134.835 96.795 126.843 58.613 126.843 58.613L128.083 57.499L146.746 93.275Z" fill="white"/>
<path d="M114.386 75.537C114.386 75.537 125.76 110.064 122.916 161.65C125.497 163.96 127.813 166.548 129.822 169.368C128.555 168.115 127.017 167.17 125.327 166.607C123.636 166.043 121.839 165.876 120.073 166.118C113.98 166.931 109.106 169.774 108.293 157.995C107.48 146.216 113.574 116.969 99.3574 97.066C109.512 81.224 114.386 75.537 114.386 75.537Z" fill="white"/>
<path d="M87.9841 116.157C87.9841 116.157 97.3261 125.093 99.3571 140.934C101.388 156.775 100.169 174.242 112.757 175.867C125.345 177.492 132.057 176.067 132.057 176.067L124.948 192.924C124.948 192.924 107.888 196.174 101.389 180.738C94.8901 165.302 98.5451 145 85.3431 142.559C79.4541 140.528 81.3491 134.3 81.3491 134.3L87.9841 116.157Z" fill="white"/>
<path d="M83.5159 153.933C83.5159 153.933 90.8269 158.807 92.4519 179.117C94.0769 199.427 114.386 206.331 114.386 206.331L103.013 222.173C103.013 222.173 92.8579 212.424 90.4209 203.488C87.9839 194.552 88.7959 175.461 70.9209 177.088C72.5479 169.368 80.6719 158 83.5159 153.933Z" fill="white"/>
<path d="M68.0803 187.24C68.0803 187.24 78.2353 200.24 82.7033 210.393C87.1713 220.546 100.982 237.608 100.982 237.608L106.262 242.889L106.669 249.794C106.669 249.794 100.576 246.138 94.8893 242.483C89.2023 238.828 86.3593 233.953 82.7033 229.083C79.0473 224.213 74.1733 219.741 65.2373 215.273C65.615 205.88 66.5644 196.518 68.0803 187.24Z" fill="white"/>
<path d="M65.6426 227.047C65.6426 227.047 75.3916 240.452 79.0426 242.483C82.6936 244.514 94.8846 248.169 98.1346 254.262C101.385 260.355 103.415 264.417 103.415 264.417L100.572 279.04C100.572 279.04 96.9156 267.26 91.2286 263.605C85.5416 259.95 71.7286 255.075 70.1066 251.419C68.4846 247.763 65.6426 227.047 65.6426 227.047Z" fill="white"/>
<path d="M84.3281 269.291C84.3281 269.291 91.2331 280.665 94.8891 285.539C98.5451 290.413 104.638 300.162 104.638 300.162L103.419 313.972C103.419 313.972 102.607 303.818 97.7321 300.572C92.8571 297.326 85.9531 294.072 85.9531 292.448C85.9531 290.824 84.3281 269.291 84.3281 269.291Z" fill="white"/>
<path d="M296.767 359.894C275.393 359.894 254.499 353.556 236.727 341.682C218.955 329.807 205.104 312.929 196.924 293.182C188.744 273.435 186.604 251.706 190.774 230.742C194.943 209.779 205.236 190.523 220.35 175.409C235.463 160.295 254.719 150.003 275.683 145.833C296.646 141.663 318.375 143.803 338.122 151.982C357.869 160.162 374.748 174.013 386.622 191.785C398.497 209.557 404.835 230.451 404.835 251.825C404.803 280.477 393.407 307.945 373.147 328.205C352.887 348.465 325.419 359.861 296.767 359.894ZM296.767 149.757C276.58 149.757 256.846 155.743 240.06 166.958C223.275 178.174 210.193 194.115 202.467 212.765C194.742 231.416 192.72 251.939 196.658 271.738C200.597 291.538 210.318 309.725 224.593 324C238.867 338.274 257.054 347.996 276.854 351.934C296.653 355.872 317.176 353.851 335.827 346.125C354.478 338.4 370.419 325.317 381.634 308.532C392.849 291.747 398.836 272.012 398.835 251.825C398.805 224.764 388.041 198.821 368.906 179.686C349.772 160.551 323.828 149.788 296.767 149.757Z" fill="white"/>
<path d="M297.039 349.714C277.732 349.714 258.859 343.989 242.806 333.263C226.753 322.536 214.242 307.291 206.853 289.454C199.465 271.616 197.532 251.989 201.299 233.053C205.065 214.118 214.363 196.724 228.015 183.072C241.667 169.421 259.06 160.124 277.996 156.357C296.932 152.591 316.559 154.524 334.396 161.913C352.233 169.302 367.479 181.814 378.205 197.867C388.931 213.92 394.655 232.793 394.655 252.1C394.625 277.98 384.331 302.792 366.031 321.091C347.731 339.391 322.919 349.685 297.039 349.714ZM297.039 156.482C278.128 156.482 259.642 162.09 243.918 172.596C228.194 183.102 215.938 198.035 208.701 215.507C201.464 232.978 199.571 252.203 203.26 270.751C206.949 289.299 216.056 306.336 229.427 319.708C242.799 333.08 259.836 342.187 278.384 345.876C296.931 349.566 316.157 347.673 333.628 340.436C351.1 333.2 366.033 320.945 376.54 305.221C387.046 289.497 392.654 271.011 392.655 252.1C392.627 226.749 382.544 202.445 364.619 184.52C346.693 166.594 322.389 156.511 297.039 156.482Z" fill="white"/>
<path d="M516.619 345.419L513.819 344.484C513.889 344.022 520.651 298.057 509.668 278.836C505.185 270.992 499.213 263.358 493.439 255.976C484.531 244.589 476.839 234.755 476.839 226.912C476.973 221.528 477.677 216.173 478.939 210.937C479.996 205.888 480.908 201.526 480.123 197.991C479.656 195.957 479.085 193.949 478.41 191.975C477.179 188.19 475.783 183.902 474.41 173.49C472.248 157.053 470.935 150.368 460.01 150.016C446.816 149.59 438.539 146.57 414.658 119.45L413.339 117.95L415.144 117.1C415.35 117 435.899 107.183 446.902 90.942C464.194 65.415 465.054 57.499 465.061 57.422L465.447 52.958L467.828 56.729C473.587 65.92 490.428 89.839 499.106 90.148L499.241 90.153C511.441 90.588 513.841 91.264 517.184 110.069C517.884 113.993 518.659 118.959 519.56 124.71C522.86 145.792 527.385 174.665 533.447 187.547C537.656 196.492 533.793 209.488 530.521 218.485L530.411 218.785C522.741 239.421 528.972 252.943 532.011 257.8C539.141 269.209 538.691 287.47 530.672 312.076C526.87 323.542 522.171 334.691 516.619 345.419ZM418.2 118.926C440.4 143.931 447.782 146.62 460.108 147.018C474.016 147.466 475.358 157.663 477.389 173.1C478.723 183.236 480.073 187.386 481.264 191.047C481.969 193.112 482.566 195.213 483.052 197.341C483.978 201.507 483.004 206.162 481.877 211.552C480.66 216.586 479.977 221.735 479.838 226.912C479.838 233.721 487.592 243.633 495.801 254.127C501.642 261.594 507.682 269.314 512.272 277.348C520.849 292.356 519.305 321.497 517.845 336.143C525.727 319.224 541.897 279.282 529.465 259.39C526.195 254.157 519.465 239.624 527.601 217.74L527.701 217.463C529.481 212.569 534.901 197.677 530.732 188.827C524.488 175.557 519.926 146.438 516.596 125.177C515.696 119.442 514.922 114.49 514.23 110.598C511.205 93.584 510.063 93.543 499.13 93.154H498.995C493.818 92.97 486.539 86.986 477.359 75.372C473.028 69.894 469.259 64.386 467.126 61.172C465.526 65.731 461.188 75.204 449.381 92.633C439.722 106.89 423.574 116.121 418.2 118.926Z" fill="white"/>
<path d="M443.084 98.675C445.134 101.992 449.321 106.693 453.715 105.062C455.154 104.498 456.382 103.5 457.228 102.206C458.073 100.912 458.494 99.3866 458.432 97.842C458.186 95.2867 457.234 92.8504 455.681 90.806C454.749 89.4412 453.686 88.1705 452.508 87.012C452.086 86.5901 451.514 86.353 450.917 86.353C450.32 86.353 449.748 86.5901 449.326 87.012C448.904 87.434 448.667 88.0063 448.667 88.603C448.667 89.1998 448.904 89.7721 449.326 90.194C450.053 90.916 450.735 91.6817 451.369 92.487C451.653 92.834 451.043 92.042 451.311 92.413C451.384 92.513 451.461 92.613 451.534 92.713C451.661 92.8864 451.786 93.0614 451.907 93.238C452.212 93.681 452.501 94.138 452.767 94.602C453.055 95.0186 453.285 95.4729 453.45 95.952C453.443 95.919 453.25 95.433 453.382 95.794C453.429 95.922 453.482 96.048 453.527 96.177C453.618 96.431 453.699 96.689 453.768 96.95C453.811 97.111 453.998 97.572 453.935 97.728C453.974 97.628 453.893 97.205 453.907 97.518C453.907 97.648 453.93 97.777 453.935 97.906C453.946 98.143 453.935 98.376 453.924 98.612C453.91 99.044 453.992 98.512 453.951 98.458C453.995 98.515 453.861 98.888 453.842 98.958C453.813 99.058 453.775 99.158 453.742 99.266C453.653 99.571 453.812 99.445 453.798 99.154C453.807 99.335 453.524 99.654 453.435 99.804C453.206 100.204 453.473 99.72 453.495 99.749C453.406 99.8668 453.308 99.9781 453.203 100.082C453.097 100.194 452.987 100.302 452.873 100.406C452.773 100.496 452.373 100.783 452.823 100.47C452.704 100.553 452.586 100.633 452.463 100.711L452.342 100.779C452.125 100.886 452.183 100.867 452.515 100.722C452.322 100.814 452.115 100.872 451.903 100.894C451.863 100.834 452.547 100.894 452.01 100.86C451.928 100.853 451.846 100.851 451.764 100.855C451.334 100.898 452.288 101.005 451.873 100.874C451.717 100.824 451.546 100.789 451.387 100.748C450.812 100.6 451.742 100.972 451.207 100.682C450.991 100.565 450.776 100.453 450.568 100.321C450.35 100.197 450.143 100.053 449.951 99.891C450.473 100.378 449.782 99.731 449.661 99.621C449.229 99.2263 448.819 98.8073 448.434 98.366C448.269 98.179 448.109 97.988 447.952 97.795C447.887 97.6985 447.814 97.6076 447.734 97.523C447.793 97.513 448.087 97.992 447.822 97.634C447.522 97.234 447.228 96.828 446.966 96.403C446.665 95.8877 446.171 95.5131 445.594 95.3617C445.017 95.2103 444.403 95.2944 443.887 95.5955C443.372 95.8967 442.998 96.3902 442.846 96.9676C442.695 97.5449 442.779 98.1587 443.08 98.674L443.084 98.675Z" fill="white"/>
<path d="M472.763 109.605C471.368 107.582 469.738 105.73 467.909 104.089C467.042 103.22 465.892 102.69 464.668 102.595C463.725 102.59 462.787 102.721 461.882 102.982C460.406 103.386 459.114 104.286 458.225 105.531C457.742 106.334 457.427 107.227 457.299 108.155C457.171 109.083 457.233 110.027 457.48 110.931C458.021 113.095 459.157 115.065 460.761 116.616C462.166 118.155 463.99 119.25 466.009 119.768C467.156 120 468.344 119.918 469.448 119.531C470.553 119.144 471.532 118.465 472.283 117.568C474.183 115.194 474.036 112.242 472.763 109.605C472.459 109.092 471.965 108.72 471.389 108.569C470.813 108.418 470.2 108.5 469.684 108.798C469.18 109.11 468.816 109.603 468.665 110.176C468.515 110.749 468.591 111.358 468.877 111.877C468.906 111.936 469.059 112.277 468.916 111.93C468.955 112.025 468.989 112.122 469.022 112.219C469.097 112.435 469.161 112.655 469.213 112.878C469.265 113.107 469.244 113.394 469.247 113.001C469.247 113.227 469.257 113.458 469.261 113.685C469.261 114.085 469.382 113.275 469.243 113.808C469.193 113.955 469.151 114.105 469.117 114.257C469.076 114.542 469.323 113.898 469.172 114.142C469.133 114.204 469.106 114.278 469.072 114.342C469.038 114.406 468.995 114.469 468.959 114.534C468.73 114.947 469.021 114.534 469.011 114.501C469.026 114.544 468.751 114.791 468.711 114.828C468.726 114.813 468.503 115.033 468.494 115.028C468.468 115.01 468.885 114.786 468.659 114.903C468.508 114.982 468.371 115.097 468.22 115.18C468.157 115.215 468.081 115.242 468.02 115.28C467.808 115.421 468.52 115.125 468.07 115.256C467.923 115.299 467.779 115.349 467.63 115.386C467.592 115.395 467.33 115.446 467.33 115.449C467.336 115.411 467.803 115.439 467.588 115.413C467.439 115.404 467.29 115.404 467.141 115.413C467.626 115.531 466.793 115.413 467.141 115.413C466.978 115.372 466.816 115.335 466.656 115.285C466.57 115.258 466.047 115.042 466.356 115.185C466.665 115.328 466.198 115.102 466.124 115.064C465.929 114.963 465.738 114.855 465.551 114.74C465.381 114.64 465.215 114.526 465.051 114.411C464.887 114.296 464.658 114.089 464.951 114.341C464.61 114.041 464.266 113.754 463.951 113.43C463.67 113.145 463.41 112.843 463.151 112.536C463.431 112.873 463.096 112.455 463.007 112.327C462.867 112.127 462.736 111.922 462.612 111.711C462.413 111.376 462.234 111.029 462.076 110.673C462.258 111.073 462.082 110.658 462.022 110.473C461.962 110.288 461.906 110.09 461.86 109.895C461.843 109.823 461.701 109.195 461.778 109.532C461.849 109.843 461.763 109.332 461.758 109.212C461.751 109.07 461.75 108.927 461.758 108.784C461.758 108.694 461.77 108.605 461.774 108.515C461.786 108.175 461.786 108.697 461.742 108.733C461.8 108.686 461.811 108.41 461.836 108.323C461.92 108.029 462.091 108.005 461.78 108.385C461.932 108.193 462.056 107.981 462.149 107.754C462.118 107.954 461.767 108.168 462.088 107.868C462.159 107.802 462.232 107.735 462.301 107.668C462.616 107.352 461.911 107.906 462.189 107.754C462.299 107.693 462.402 107.614 462.512 107.554C462.595 107.507 462.68 107.467 462.764 107.422C463.164 107.209 462.539 107.501 462.611 107.48C462.829 107.417 463.038 107.328 463.258 107.27C463.438 107.222 463.62 107.181 463.802 107.148C463.893 107.131 463.993 107.126 464.081 107.101C463.936 107.142 463.431 107.172 463.819 107.139C464.091 107.116 464.362 107.093 464.635 107.092C465.156 107.092 464.735 107.101 464.444 107.046C464.794 107.113 464.016 106.794 464.244 106.961C464.318 107.014 464.409 107.052 464.487 107.1C464.587 107.163 464.687 107.241 464.787 107.3C464.971 107.412 464.54 107.1 464.554 107.117C464.624 107.186 464.7 107.249 464.782 107.304C465.837 108.235 466.807 109.258 467.682 110.36C468.048 110.8 468.404 111.249 468.759 111.699C468.949 111.94 468.371 111.19 468.638 111.544C468.683 111.603 468.728 111.661 468.772 111.72C468.816 111.779 468.848 111.82 468.885 111.871C469.196 112.375 469.69 112.74 470.263 112.89C470.836 113.04 471.445 112.964 471.964 112.678C472.471 112.371 472.838 111.878 472.988 111.304C473.137 110.73 473.056 110.12 472.763 109.605Z" fill="white"/>
<path d="M489.685 124.308C488.405 122.35 486.976 120.494 485.412 118.754C484.644 117.835 483.619 117.166 482.469 116.831C481.267 116.534 480.011 116.538 478.81 116.843C478.08 117.03 477.394 117.362 476.795 117.82C476.196 118.278 475.695 118.853 475.323 119.509C474.451 121.302 474.254 123.349 474.77 125.275C475.316 127.324 476.378 129.2 477.853 130.723C479.112 132.177 480.772 133.227 482.625 133.741C483.725 133.981 484.868 133.935 485.945 133.606C487.021 133.278 487.995 132.678 488.773 131.865C489.593 130.914 490.133 129.755 490.334 128.516C490.535 127.277 490.389 126.007 489.912 124.846C489.743 124.278 489.36 123.797 488.844 123.504C488.329 123.211 487.72 123.129 487.144 123.274C486.573 123.439 486.089 123.821 485.795 124.338C485.501 124.855 485.422 125.467 485.573 126.042C485.713 126.443 485.829 126.851 485.922 127.265C485.986 127.52 485.904 127.137 485.903 127.109C485.903 127.195 485.917 127.281 485.921 127.367C485.93 127.585 485.893 127.808 485.905 128.024C485.919 128.294 485.898 127.8 485.93 127.814C485.918 127.889 485.901 127.964 485.88 128.037C485.84 128.207 485.787 128.374 485.722 128.537C485.677 128.525 485.951 128.131 485.799 128.329C485.736 128.457 485.664 128.58 485.584 128.698C485.491 128.915 485.938 128.323 485.638 128.635C485.538 128.735 485.449 128.841 485.346 128.935C485.295 128.982 485.236 129.024 485.187 129.073C485.021 129.24 485.349 128.922 485.364 128.934C485.353 128.925 484.995 129.157 484.942 129.19C484.521 129.443 485.232 129.12 484.89 129.221C484.727 129.27 484.568 129.321 484.402 129.363C484.33 129.38 484.257 129.392 484.186 129.409C484.166 129.452 483.937 129.465 484.186 129.409C484.237 129.325 484.432 129.399 484.186 129.398C484.115 129.398 484.044 129.405 483.973 129.405C483.891 129.397 483.809 129.395 483.726 129.397C483.49 129.425 484.181 129.497 483.945 129.428C483.845 129.4 483.12 129.159 483.095 129.179C483.114 129.164 483.505 129.385 483.295 129.262C483.233 129.224 483.16 129.197 483.095 129.162C482.912 129.069 482.733 128.962 482.559 128.862C482.424 128.777 482.294 128.684 482.159 128.596C481.808 128.364 482.418 128.823 482.09 128.547C481.782 128.291 481.487 128.02 481.206 127.734C481.063 127.587 480.924 127.437 480.789 127.282C480.735 127.22 480.398 126.826 480.569 127.03C480.74 127.234 480.554 127.011 480.528 126.975C480.458 126.875 480.388 126.782 480.32 126.684C480.202 126.513 480.089 126.339 479.981 126.16C479.781 125.833 479.606 125.495 479.438 125.151C479.247 124.76 479.538 125.451 479.396 125.051C479.321 124.837 479.245 124.624 479.183 124.406C479.139 124.246 479.099 124.084 479.064 123.921C479.047 123.842 479.039 123.757 479.018 123.679C478.949 123.425 479.066 123.867 479.043 123.879C479.052 123.879 478.996 122.794 479.001 122.679C479.001 122.598 479.013 121.992 479.016 122.379C479.016 122.726 479.037 122.319 479.064 122.206C479.099 122.061 479.149 121.922 479.189 121.779C479.289 121.445 478.938 122.223 479.172 121.832C479.237 121.724 479.308 121.612 479.372 121.501C479.536 121.201 479.031 121.853 479.272 121.626C479.345 121.558 479.414 121.481 479.484 121.409C479.823 121.06 479.184 121.572 479.412 121.456C479.497 121.413 479.574 121.356 479.658 121.305C479.742 121.254 480.141 121.082 479.731 121.253C479.336 121.419 479.675 121.277 479.772 121.253C479.892 121.22 480.01 121.182 480.132 121.153C480.224 121.14 480.316 121.122 480.405 121.099C480.529 121.055 479.779 121.149 480.171 121.133C480.379 121.125 480.584 121.109 480.793 121.115C480.893 121.115 480.993 121.127 481.093 121.132C481.468 121.15 480.933 121.132 480.819 121.089C480.979 121.145 481.168 121.148 481.334 121.189C481.463 121.244 481.597 121.287 481.734 121.316C481.803 121.316 481.203 121.016 481.394 121.177C481.468 121.234 481.548 121.282 481.631 121.322C481.717 121.361 481.175 120.922 481.449 121.181C481.532 121.261 481.623 121.333 481.707 121.412C481.887 121.581 482.058 121.758 482.226 121.938C482.682 122.427 483.108 122.938 483.526 123.465C483.599 123.556 483.947 124.014 483.74 123.734C483.533 123.454 483.84 123.872 483.901 123.947C484.101 124.214 484.299 124.48 484.494 124.747C484.938 125.353 485.375 125.964 485.794 126.586C485.941 126.846 486.138 127.074 486.374 127.258C486.609 127.441 486.879 127.576 487.168 127.653C487.456 127.731 487.757 127.751 488.053 127.712C488.349 127.672 488.634 127.575 488.891 127.424C489.149 127.273 489.374 127.073 489.554 126.834C489.734 126.595 489.864 126.324 489.937 126.034C490.011 125.745 490.026 125.444 489.982 125.148C489.938 124.853 489.835 124.569 489.68 124.314L489.685 124.308Z" fill="white"/>
<path d="M499.8 144.669C499.344 142.569 498.835 140.469 498.174 138.426C497.865 137.18 497.283 136.018 496.468 135.026C495.643 134.129 494.556 133.515 493.362 133.272C488.99 132.542 486.862 137.597 486.99 141.222C487.063 143.093 487.447 144.938 488.128 146.682C488.67 148.355 489.611 149.871 490.87 151.1C491.691 151.832 492.725 152.282 493.82 152.383C494.915 152.485 496.014 152.234 496.956 151.666C499.083 150.266 499.756 147.666 499.881 145.266C499.877 144.67 499.639 144.1 499.217 143.679C498.796 143.258 498.226 143.02 497.631 143.016C497.038 143.029 496.473 143.27 496.054 143.689C495.635 144.108 495.394 144.673 495.381 145.266C495.37 145.476 495.354 145.685 495.336 145.894C495.336 145.933 495.281 146.261 495.326 145.994C495.375 145.705 495.302 146.1 495.288 146.168C495.214 146.544 495.072 146.896 494.988 147.268C495.067 146.936 495.088 147.068 494.961 147.308C494.884 147.458 494.772 147.597 494.701 147.748C494.601 147.948 494.812 147.577 494.846 147.571C494.816 147.571 494.739 147.698 494.714 147.722C494.668 147.766 494.614 147.814 494.577 147.862C494.354 148.121 494.69 147.718 494.74 147.754C494.74 147.754 494.452 147.932 494.427 147.954C494.14 148.154 494.927 147.787 494.457 147.928C494.398 147.945 494.339 147.959 494.279 147.97C494.265 147.924 494.805 147.962 494.57 147.93C494.537 147.93 494.121 147.93 494.122 147.93C494.139 147.877 494.687 148.046 494.183 147.917C494.064 147.886 493.524 147.692 493.945 147.856C494.33 148.006 494.002 147.856 493.905 147.805C493.529 147.594 494.196 148.105 493.97 147.86C493.789 147.668 493.606 147.469 493.422 147.281C493.267 147.123 493.571 147.462 493.57 147.473C493.57 147.439 493.47 147.333 493.45 147.304C493.359 147.163 493.265 147.026 493.178 146.883C493.005 146.599 492.848 146.307 492.702 146.009C492.632 145.865 492.572 145.715 492.502 145.573C492.387 145.35 492.563 145.722 492.567 145.733C492.527 145.633 492.484 145.527 492.444 145.424C492.178 144.731 491.959 144.02 491.791 143.297C491.706 142.935 491.637 142.57 491.575 142.203C491.557 142.12 491.544 142.036 491.537 141.952C491.537 141.959 491.577 142.395 491.565 142.134C491.557 141.943 491.526 141.751 491.514 141.56C491.492 141.218 491.484 140.875 491.495 140.532C491.495 140.381 491.512 140.232 491.522 140.081C491.555 139.557 491.445 140.396 491.522 140.036C491.592 139.703 491.68 139.375 491.788 139.053C491.821 138.958 492.028 138.453 491.94 138.639C491.852 138.825 492.097 138.339 492.15 138.246C492.241 138.083 492.356 137.935 492.45 137.774C492.572 137.562 492.341 137.949 492.319 137.945C492.333 137.945 492.438 137.811 492.454 137.797C492.525 137.732 492.854 137.45 492.546 137.685C492.238 137.92 492.612 137.673 492.691 137.618C492.969 137.426 492.146 137.811 492.577 137.681C492.949 137.569 492.25 137.681 492.354 137.698C492.446 137.71 492.54 137.71 492.632 137.698C492.793 137.667 492.274 137.647 492.263 137.642C492.322 137.658 492.382 137.67 492.443 137.677C492.543 137.713 492.646 137.744 492.75 137.768C492.866 137.787 492.219 137.496 492.55 137.684C492.719 137.784 492.886 137.874 493.05 137.978C493.411 138.206 492.828 137.783 492.9 137.858C492.954 137.915 493.023 137.963 493.082 138.017C493.197 138.117 493.294 138.246 493.408 138.352C493.625 138.552 493.075 137.798 493.226 138.118C493.256 138.182 493.302 138.244 493.337 138.306C493.372 138.368 493.412 138.457 493.451 138.533C493.616 138.858 493.466 138.643 493.4 138.398C493.535 138.898 493.767 139.393 493.924 139.891C494.54 141.857 495.031 143.868 495.469 145.88C495.631 146.453 496.013 146.939 496.531 147.233C497.048 147.528 497.661 147.606 498.237 147.452C498.807 147.28 499.288 146.895 499.58 146.376C499.871 145.857 499.95 145.245 499.8 144.669Z" fill="white"/>
<path d="M507.19 169.91C506.928 167.592 506.613 165.275 506.222 162.976C505.815 160.59 505.483 157.019 502.699 156.207C498.484 154.977 497.277 160.707 496.999 163.625C496.852 165.251 496.823 166.885 496.914 168.515C496.939 170.487 497.269 172.444 497.893 174.315C498.215 175.493 498.959 176.511 499.983 177.176C500.559 177.468 501.201 177.603 501.845 177.568C502.489 177.533 503.113 177.329 503.653 176.976C505.987 175.524 507.033 172.526 507.189 169.916C507.189 169.319 506.952 168.747 506.53 168.325C506.108 167.903 505.536 167.666 504.939 167.666C504.342 167.666 503.77 167.903 503.348 168.325C502.926 168.747 502.689 169.319 502.689 169.916C502.689 169.91 502.6 170.688 502.666 170.276C502.628 170.509 502.577 170.74 502.515 170.968C502.456 171.192 502.381 171.408 502.31 171.627C502.11 172.257 502.499 171.341 502.19 171.904C502.024 172.204 501.86 172.504 501.667 172.789C501.938 172.389 501.61 172.848 501.549 172.912C501.47 172.996 501.388 173.075 501.303 173.152C501.55 172.975 501.577 172.952 501.382 173.09L501.255 173.167C501.081 173.255 501.087 173.255 501.272 173.167L501.415 173.104C501.175 173.163 501.251 173.159 501.643 173.09C501.304 173.112 502.097 173.197 502.199 173.26L502.442 173.46C502.281 173.297 502.301 173.338 502.502 173.585C502.365 173.359 502.241 173.125 502.131 172.885C502.377 173.426 502.15 172.894 502.115 172.79C502.038 172.562 501.97 172.33 501.909 172.097C501.819 171.757 501.746 171.413 501.681 171.067C501.651 170.904 501.627 170.74 501.597 170.577C501.481 169.92 501.639 171.039 501.568 170.369C501.48 169.547 501.416 168.727 501.389 167.901C501.34 166.559 501.369 165.215 501.476 163.877C501.495 163.651 501.545 163.414 501.546 163.187C501.546 164.124 501.538 163.271 501.577 163.041C501.62 162.786 501.669 162.532 501.722 162.278C501.8 161.918 501.889 161.56 501.999 161.208C502.055 161.029 502.121 160.855 502.182 160.678C501.991 161.229 502.214 160.628 502.282 160.506C502.344 160.416 502.402 160.324 502.454 160.228C502.566 159.967 502.081 160.657 502.349 160.37C502.496 160.213 502.749 160.102 502.182 160.47C502.382 160.34 502.551 160.349 501.933 160.543C502.395 160.398 501.305 160.534 501.761 160.557C501.025 160.52 501.221 160.457 501.435 160.525C501.746 160.618 500.826 160.203 501.217 160.445C501.506 160.625 500.736 160.039 500.994 160.267C501.041 160.307 501.085 160.349 501.126 160.395C501.398 160.702 500.751 159.819 501.026 160.284C501.246 160.657 500.826 159.665 501.026 160.3C501.093 160.514 501.16 160.728 501.218 160.944C501.518 162.058 501.718 163.201 501.911 164.337C502.03 165.048 502.141 165.76 502.244 166.473C502.297 166.834 502.344 167.195 502.397 167.556C502.417 167.701 502.521 168.211 502.397 167.533C502.421 167.666 502.432 167.803 502.45 167.933C502.536 168.59 502.619 169.248 502.693 169.907C502.71 170.498 502.953 171.061 503.371 171.479C503.789 171.897 504.352 172.14 504.943 172.157C505.538 172.153 506.107 171.914 506.527 171.494C506.948 171.074 507.186 170.505 507.19 169.91Z" fill="white"/>
<path d="M451.479 100.774C453.416 103.377 455.685 105.716 458.227 107.731C459.188 108.512 460.239 109.175 461.358 109.705C461.889 109.992 462.506 110.072 463.092 109.932C463.519 109.815 463.902 109.574 464.193 109.24C464.483 108.906 464.669 108.494 464.726 108.055C464.784 107.616 464.71 107.169 464.515 106.772C464.32 106.375 464.013 106.043 463.63 105.82C463.072 105.569 462.535 105.275 462.021 104.942C461.749 104.767 461.482 104.583 461.221 104.393C461.087 104.293 460.959 104.193 460.821 104.093C461.408 104.507 460.912 104.16 460.787 104.059C459.778 103.23 458.821 102.341 457.92 101.395C457.2 100.646 456.507 99.873 455.841 99.075C455.641 98.8323 455.441 98.587 455.241 98.339C455.185 98.27 455.131 98.199 455.075 98.13C454.901 97.908 455.52 98.708 455.361 98.499C455.049 98.0063 454.573 97.64 454.016 97.465C453.431 97.3094 452.808 97.391 452.282 97.692C451.772 97.9972 451.401 98.4906 451.25 99.0661C451.099 99.6417 451.18 100.253 451.475 100.77L451.479 100.774Z" fill="white"/>
<path d="M468.264 117.017C471.88 119.232 475.483 121.492 478.959 123.922C479.475 124.22 480.087 124.303 480.664 124.152C481.241 124.001 481.734 123.628 482.037 123.115C482.323 122.596 482.399 121.987 482.249 121.414C482.099 120.841 481.734 120.348 481.23 120.036C477.753 117.607 474.151 115.346 470.531 113.131C470.275 112.982 469.993 112.884 469.701 112.844C469.408 112.804 469.11 112.822 468.824 112.897C468.538 112.972 468.27 113.103 468.034 113.281C467.799 113.46 467.601 113.683 467.452 113.938C467.303 114.194 467.205 114.476 467.165 114.768C467.125 115.061 467.143 115.359 467.218 115.645C467.293 115.931 467.424 116.199 467.602 116.435C467.781 116.67 468.004 116.868 468.26 117.017H468.264Z" fill="white"/>
<path d="M483.65 129.8C484.477 130.656 485.25 131.571 485.997 132.495C486.171 132.709 486.344 132.924 486.514 133.141C486.597 133.241 486.678 133.353 486.761 133.458C486.347 132.934 486.701 133.381 486.789 133.499C487.177 134.011 487.556 134.53 487.924 135.057C488.745 136.228 489.505 137.44 490.202 138.688C490.503 139.203 490.997 139.578 491.574 139.729C492.152 139.88 492.766 139.796 493.281 139.495C493.796 139.193 494.17 138.7 494.322 138.122C494.473 137.545 494.389 136.931 494.087 136.416C492.681 133.946 491.065 131.601 489.257 129.408C488.483 128.451 487.687 127.508 486.832 126.618C486.623 126.409 486.375 126.243 486.102 126.13C485.829 126.017 485.537 125.959 485.241 125.959C484.946 125.959 484.653 126.017 484.38 126.13C484.107 126.243 483.859 126.409 483.65 126.618C483.441 126.827 483.276 127.075 483.162 127.348C483.049 127.621 482.991 127.914 482.991 128.209C482.991 128.504 483.049 128.797 483.162 129.07C483.276 129.343 483.441 129.591 483.65 129.8Z" fill="white"/>
<path d="M494.209 149.431C494.276 149.503 494.34 149.578 494.404 149.653C494.468 149.728 494.545 149.82 494.613 149.905C494.66 149.963 494.704 150.023 494.752 150.08C494.963 150.334 494.373 149.568 494.579 149.857C495.159 150.653 495.697 151.477 496.193 152.327C496.515 152.893 496.815 153.471 497.093 154.061C497.188 154.261 497.281 154.461 497.371 154.661C497.422 154.774 497.63 155.261 497.42 154.761C497.584 155.154 497.74 155.551 497.886 155.95C498.532 157.729 499.01 159.565 499.313 161.434C499.474 162.008 499.855 162.496 500.374 162.79C500.892 163.084 501.506 163.162 502.081 163.005C502.648 162.832 503.126 162.449 503.418 161.934C503.71 161.42 503.794 160.813 503.652 160.238C503.068 156.659 501.857 153.211 500.074 150.053C499.329 148.684 498.428 147.407 497.387 146.247C496.963 145.83 496.392 145.596 495.796 145.596C495.201 145.596 494.63 145.83 494.205 146.247C493.795 146.675 493.566 147.245 493.566 147.838C493.566 148.431 493.795 149.001 494.205 149.429L494.209 149.431Z" fill="white"/>
<path d="M488.8 163.076C488.8 163.076 487.9 160.752 486.59 160.846C486.941 164.182 486.979 164.533 487.201 166.638C487.423 168.743 487.442 172.654 488.301 179.545C489.16 186.436 492.17 203.679 489.157 220.026C487.173 222.451 485.725 223.685 485.831 218.459C485.937 213.233 487.103 188.159 485.681 184.65C484.259 181.141 481.576 179.441 480.113 179.316C482.325 182.376 483.581 186.022 483.722 189.795C483.791 191.682 483.464 216.012 483.687 218.118C483.91 220.224 484.225 226.94 487.559 223.59C488.103 227.497 488.259 227.714 489.768 229.553C491.277 231.392 490.007 235.568 488.942 237.944C487.877 240.32 492.25 248.514 492.962 250.268C493.674 252.022 498.141 255.65 500.679 250.877C502.241 246.963 497.112 250.123 496.82 249.862C496.528 249.601 493.876 249.662 490.752 242.589C493.644 237.573 494.752 231.814 494.117 229.578C493.482 227.342 490.574 224.719 490.574 224.719C490.574 224.719 494.08 221.761 494.991 222.899C495.902 224.037 496.905 226.054 495.814 229.44C497.386 230.618 500.694 232.009 501.325 234.246C501.956 236.483 504.025 234.938 504.064 232.746C503.994 231.635 503.624 230.563 502.993 229.646C502.363 228.728 501.495 227.999 500.482 227.536C498.848 227.016 499.301 226.311 499.782 223.411C500.263 220.511 499.138 212.35 491.805 220.196C492.369 216.812 498.162 198.125 495.427 184.696C497.236 181.878 499.17 176.796 499.357 174.818C499.544 172.84 498.342 165.78 498.342 165.78C498.342 165.78 497.094 179.287 494.814 182.634C493.954 179.475 492.414 176.102 492.338 175.399C492.262 174.696 491.881 169.824 491.881 169.824C491.881 169.824 495.158 165.947 495.672 164.583C496.186 163.219 497.221 159.305 496.261 160.189C495.301 161.073 493.552 163.232 492.852 162.839C492.152 162.446 491.206 160.958 488.8 163.076Z" fill="white"/>
<path d="M509.754 136.755C509.923 134.64 510.367 132.556 511.075 130.555C511.427 133.891 511.466 134.242 511.688 136.349C511.91 138.456 512.633 141.57 513.259 148.724C513.885 155.878 514.772 175.504 520.235 182.331C522.254 180.258 523.628 178.322 522.557 174.417C521.486 170.512 516.706 153.106 516.288 147.481C515.902 142.914 516.536 138.318 518.143 134.026C517.601 142.556 518.499 145.978 518.803 147.603C519.107 149.228 523.959 167.735 524.181 169.842C524.403 171.949 525.425 177.873 522.166 181.928C522.475 186.098 522.395 186.581 521.552 191.063C520.709 195.545 522.5 196.284 523.788 196.015C525.076 195.746 524.826 209.58 524.596 212.392C524.366 215.204 523.306 223.857 518.848 226.511C516.878 226.565 520.124 221.151 520.304 220.357C522.326 214.904 523.322 209.123 523.241 203.308C520.014 205.165 518.057 202.848 518.133 199.817C518.209 196.786 520.001 188.877 520.001 188.877C520.001 188.877 516.68 193.589 516.177 196.314C515.674 199.039 515.267 202.643 516.766 203.119C515.749 207.207 513.406 214.945 513.332 217.975C513.258 221.005 511.332 223.954 510.891 222.288C510.45 220.622 511.536 214.688 512.727 210.994C513.918 207.3 513.427 207.656 512.496 206.343C511.565 205.03 510.915 196.335 518.173 187.787C517.089 186.256 508.997 183.171 508.614 167.101C506.656 168.516 504.464 170.193 503.942 169.01C503.479 167.52 503.142 165.994 502.934 164.448C502.934 164.448 506.278 166.189 508.706 164.248C508.787 160.032 509.364 154.276 509.29 153.575C509.216 152.874 508.598 148.264 508.598 148.264C508.598 148.264 505.283 151.791 504.621 151.749C503.959 151.707 502.402 150.706 503.321 149.472C504.24 148.238 506.029 146.429 506.505 144.715C507.032 141.867 508.137 139.158 509.754 136.755Z" fill="white"/>
<path d="M499.05 187.207C499.05 187.207 507.445 182.366 509.476 180.471C511.507 178.576 509.882 184.126 509.882 184.126C510.802 187.418 511.358 190.8 511.541 194.213C511.641 208.633 509.205 212.289 504.601 214.185C504.601 214.185 498.501 216.351 497.968 205.249C497.527 196.041 499.457 191.269 499.457 191.269C499.457 191.269 497.02 188.019 499.05 187.207Z" fill="white"/>
<path d="M495.192 186.293C495.192 186.293 498.137 187.918 500.066 187.918C501.995 187.918 499.457 190.253 499.457 190.253C497.914 189.504 496.422 188.656 494.989 187.714L494.176 187.004L495.293 185.785L495.192 186.293Z" fill="white"/>
<path d="M456.83 46.327C455.922 47.547 458.43 50.949 462.43 53.927C466.43 56.905 470.41 58.327 471.319 57.109C472.228 55.891 469.719 52.487 465.719 49.509C461.719 46.531 457.739 45.107 456.83 46.327Z" fill="white"/>
<path d="M265.46 169.477L259.59 170.794L254.536 172.645L250.004 174.755L246.004 177.141L242.804 180.048L239.873 183.217L237.478 186.383L235.348 190.086L233.747 194.047L232.413 198.02L231.62 202.246L231.088 206.469L230.815 211.228L230.551 215.724L230.815 220.482L231.088 225.236L231.88 235.015L233.217 244.528L234.543 253.781L235.348 262.763L235.608 266.989L235.877 271.222L235.608 274.922L235.348 278.622L234.812 282.053L234.011 285.222L232.685 287.867L231.088 290.51L229.75 289.715L228.149 288.66L226.554 286.551L224.681 284.166L223.888 282.315L223.087 280.465L222.551 278.352L222.022 276.238L221.485 273.594L221.225 270.688V267.52V264.079L218.018 264.614L216.424 265.135L215.095 265.67L214.029 266.204L212.964 266.989L212.159 268.052L211.627 268.837L210.562 271.222L210.025 273.594L209.768 276.238L210.298 279.147L210.83 282.053L211.899 284.961L213.225 287.867L214.562 291.034L216.424 293.68L218.29 296.589L220.16 298.969L222.29 301.082L229.478 298.439L235.608 295.529L238.271 294.213L240.406 292.625L242.544 291.034L244.406 289.455L246.004 287.867L247.601 286.016L248.666 284.436L249.732 282.586L250.536 280.737L251.069 278.887L252.134 274.922L252.406 270.958L252.134 266.464L251.87 261.968L251.069 256.95L249.471 246.378L248.666 240.564L248.13 234.49L247.873 232.64L247.336 227.351L247.065 219.423L247.336 214.928L247.601 209.908L248.13 204.619L249.195 199.34L250.536 193.787L252.406 188.508L254.801 183.217L256.134 180.843L257.732 178.458L259.333 176.085L261.192 173.7L263.33 171.589L265.46 169.477Z" fill="white"/>
<path d="M308.37 305.578V301.877L308.634 298.439L309.695 291.83L311.025 285.491L312.895 279.942L316.635 269.368L318.485 264.35L320.09 259.595L321.156 254.567L321.416 252.192V249.816V247.433L321.156 244.788L320.895 242.154L320.09 239.509L319.025 236.863L317.961 233.956L316.354 231.05L314.5 228.146L312.35 224.976L309.956 221.798L307.025 218.367L303.565 214.668L296.369 220.482L288.637 226.292L279.583 232.64L279.315 223.386L279.583 213.873L280.115 202.778L280.376 197.225L281.181 191.936L282.247 186.917L283.311 182.424L284.909 178.458L285.715 176.88L286.779 175.55L287.844 174.495L288.91 173.439L290.239 172.905H291.577L292.641 173.974L293.974 175.03L295.565 176.085L297.434 177.141L299.304 177.934L301.435 178.458L303.83 178.719L305.96 178.989L308.37 178.719L310.76 178.198L313.156 177.141L315.83 175.815L318.221 173.974L320.611 171.589L323.025 168.421L325.156 164.981L323.286 165.776L321.416 166.571L319.546 166.831L317.701 167.366H313.96L310.5 167.091L306.765 166.036L303.305 164.72L299.825 163.132L296.369 161.282L292.369 162.868L288.91 164.72L285.442 166.831L282.247 169.216L279.583 171.85L276.92 174.755L274.791 178.198L272.66 181.638L271.05 185.597L269.452 189.824L268.388 194.582L267.591 199.34L266.79 204.619L266.526 210.442V216.516L266.79 222.853L268.656 250.081L269.192 264.35L269.721 278.352V284.961V291.305L269.192 297.384L268.656 302.672L267.855 307.691L266.79 311.916L265.46 315.355L264.66 316.671L263.866 318L260.399 315.876L257.46 314.027L254.536 312.711L252.134 311.652L250.004 310.857L247.873 310.337L246.004 310.066H244.406L242.544 310.337L241.206 310.857L238.271 311.916L232.153 314.82L235.348 315.876L238.271 316.935L240.674 318.525L242.804 320.111L246.272 323.279L247.873 324.599L249.471 325.925L251.069 326.982L252.663 327.503L254.801 327.775L257.195 327.242L259.863 326.449L262.801 324.599L266.526 322.224L270.786 318.786L272.387 317.205L273.985 315.615L275.322 314.027L276.648 312.187L278.779 308.214L280.376 303.988L281.442 299.494L282.247 295.008L282.783 290.25V285.491V280.997L282.518 276.502L281.974 268.052L280.909 260.651L280.376 255.36L279.843 239.769L281.181 238.454L282.518 236.863L284.377 235.808L285.978 234.75L287.844 233.956L289.706 233.695L291.577 233.956L293.442 234.49L295.043 235.808L296.913 237.658L298.239 240.304L299.825 243.732L300.914 247.968L301.956 253.247L302.764 259.595L303.305 266.989L303.565 272.018V277.032L303.044 285.222L302.499 292.1L301.435 298.174L300.914 303.193L300.369 308.214V310.857L300.635 313.242L300.914 315.876L301.435 318.786L303.044 324.869L303.83 327.775L304.895 330.149L305.96 332.263L307.305 334.112L308.37 335.702L309.956 337.018L311.286 338.077L312.895 338.608L314.5 338.872H316.09L317.961 338.348L319.826 337.552L321.96 336.233L324.091 334.382L326.486 332.263L327.552 330.683L328.091 330.149V329.353V328.833L327.812 328.298L327.026 327.503L325.681 326.982L321.68 325.394L319.546 324.335L317.156 323.279L315.025 321.689L312.895 319.58L311.025 317.205L310.22 315.615L309.435 314.027L308.894 312.187L308.634 310.337L308.37 307.951V305.578Z" fill="white"/>
<path d="M365.663 245.323H365.119L360.337 241.622L357.663 239.248L355.268 236.603L352.597 233.956L350.202 231.05L348.072 227.881L346.202 224.706L344.616 221.537L343.532 218.367L342.746 215.189V212.023L343.007 210.442L343.271 208.854L343.812 207.525L344.616 205.945L345.682 204.357L346.743 203.039L348.072 201.711L349.662 200.395L353.403 202.246L357.138 204.889L360.859 208.059L364.598 211.758L368.054 215.984L369.663 218.367L370.992 220.742L372.318 223.386L373.384 226.031L374.449 228.666L375.25 231.584L376.053 229.994L376.859 228.406L377.644 225.236L377.924 221.798V218.367L377.123 215.189L376.053 211.758L374.449 208.32L372.318 205.149L369.923 201.985L367.534 198.805L364.598 195.901L361.403 193.262L358.203 190.618L354.728 188.234L351.271 186.123L347.812 184.272L344.616 188.768L341.941 192.992L339.547 196.955L337.678 200.655L335.811 204.357L334.485 207.799L333.137 211.228L332.351 214.404L331.811 217.572L331.287 220.482L331.007 223.125V225.761L331.287 228.146L331.551 230.515L332.071 232.9L332.876 235.015L334.485 238.714L336.616 242.154L338.746 245.323L341.138 247.968L343.812 250.081L345.942 252.192L349.662 255.099L353.142 258.266L356.072 261.443L358.467 264.874L360.598 268.052L362.187 271.483L363.796 274.922L364.859 278.352L365.663 281.791L366.183 284.961V288.129V291.034L365.923 293.942L365.399 296.589L364.598 298.969L363.796 301.082L362.728 302.933L361.403 304.522L360.057 305.838L358.467 306.633L356.858 306.896H355.268L353.403 306.363L351.532 305.578L349.662 303.988L347.812 302.137L345.942 299.494L344.075 296.324L342.206 292.364L340.332 287.867L338.482 282.846L336.877 276.772L335.29 270.163L334.221 273.868L333.421 277.828L333.137 282.053V286.551L333.682 291.034L334.485 295.529L335.551 300.026L336.877 304.252L338.482 308.214L340.332 311.652L342.467 314.82L344.616 317.466L345.682 318.26L347.008 319.316L348.072 319.851L349.402 320.374L350.727 320.634H352.072L353.403 320.374L354.728 319.851L357.138 318.525L359.793 316.671L362.993 314.3L366.183 311.392L369.384 307.951L372.583 303.988L375.514 299.494L378.188 294.736L379.254 292.1L380.058 289.455L380.843 286.811L381.384 283.905L381.648 280.997V278.092L381.384 275.182L381.123 272.018L380.319 268.837L379.254 265.67L377.924 262.229L376.319 259.061L374.184 255.63L371.797 252.192L368.859 248.754L365.663 245.323Z" fill="white"/>
<path d="M261.928 424.507V423.832C262.941 423.807 263.945 423.626 264.903 423.294C265.6 423.058 266.207 422.61 266.637 422.012C266.96 421.325 267.134 420.578 267.148 419.819C267.244 418.733 267.293 416.966 267.294 414.519V406.657C267.326 405.193 267.262 403.728 267.102 402.272C267.042 401.624 266.813 401.003 266.436 400.472C265.977 400.017 265.403 399.696 264.775 399.544C263.849 399.268 262.893 399.103 261.928 399.053V398.34C262.402 398.353 262.925 398.362 263.498 398.368C264.07 398.374 264.916 398.377 266.034 398.377C267.409 398.377 268.434 398.374 269.11 398.368C269.785 398.362 270.402 398.347 270.962 398.322C270.877 399.605 270.813 400.732 270.771 401.703C270.728 402.674 270.707 403.458 270.707 404.056V416.686C270.667 418.103 270.738 419.52 270.917 420.926C270.997 421.534 271.246 422.108 271.637 422.582C272.118 423.019 272.703 423.326 273.337 423.473C274.256 423.704 275.2 423.826 276.148 423.838V424.513C274.214 424.476 272.76 424.455 271.786 424.448C270.811 424.441 269.904 424.439 269.066 424.44C268.227 424.44 267.321 424.443 266.347 424.448C265.373 424.453 263.9 424.473 261.928 424.507Z" fill="white"/>
<path d="M280.379 425.437L280.014 424.653C282.759 423.361 285.272 421.625 287.452 419.515C289.268 417.706 290.633 415.497 291.439 413.064C290.579 413.577 289.66 413.985 288.702 414.277C287.831 414.536 286.928 414.668 286.019 414.669C284.986 414.72 283.954 414.553 282.99 414.18C282.026 413.806 281.151 413.235 280.421 412.502C279.692 411.769 279.124 410.891 278.756 409.925C278.387 408.959 278.225 407.926 278.28 406.894C278.238 405.709 278.443 404.528 278.881 403.427C279.32 402.325 279.982 401.326 280.826 400.494C281.694 399.661 282.72 399.011 283.845 398.584C284.969 398.156 286.167 397.958 287.369 398.003C288.591 397.936 289.814 398.123 290.961 398.552C292.107 398.98 293.153 399.642 294.031 400.494C294.871 401.418 295.517 402.5 295.934 403.677C296.351 404.854 296.529 406.102 296.458 407.348C296.466 411.353 294.956 415.212 292.233 418.148C289 421.588 284.908 424.105 280.379 425.437ZM291.822 411.8C292.014 411.036 292.164 410.262 292.27 409.482C292.372 408.738 292.424 407.988 292.425 407.237C292.532 405.14 292.045 403.056 291.02 401.224C290.645 400.547 290.093 399.983 289.425 399.593C288.756 399.203 287.994 399 287.22 399.006C286.493 398.986 285.773 399.142 285.12 399.462C284.467 399.781 283.901 400.254 283.47 400.84C282.486 402.388 281.994 404.198 282.061 406.031C282.128 407.864 282.75 409.634 283.844 411.106C284.409 411.774 285.118 412.307 285.917 412.664C286.717 413.021 287.586 413.194 288.461 413.169C289.086 413.177 289.706 413.062 290.286 412.831C290.86 412.59 291.381 412.24 291.822 411.8Z" fill="white"/>
<path d="M298.117 424.58L297.862 424.051C301.43 421.166 304.656 417.884 307.48 414.268C309.512 411.468 310.528 408.937 310.528 406.676C310.614 405.214 310.167 403.771 309.269 402.614C308.836 402.122 308.298 401.735 307.694 401.481C307.091 401.226 306.437 401.111 305.783 401.145C304.674 401.159 303.588 401.464 302.634 402.03C301.471 402.726 300.437 403.619 299.577 404.668L299.012 404.211C299.875 402.41 301.128 400.823 302.68 399.566C304.008 398.578 305.625 398.055 307.28 398.079C308.206 398.059 309.125 398.236 309.976 398.6C310.827 398.963 311.591 399.504 312.216 400.187C313.544 401.612 314.256 403.505 314.196 405.452C314.196 407.704 313.238 410.122 311.322 412.707C308.697 415.994 305.671 418.94 302.315 421.477L308.959 421.404C309.899 421.429 310.839 421.374 311.769 421.24C312.245 421.166 312.696 420.978 313.083 420.692C313.544 420.272 313.957 419.802 314.315 419.292C314.838 418.561 315.323 417.802 315.766 417.02L316.405 417.33L313.594 424.503C311.914 424.478 310.606 424.46 309.67 424.448C308.734 424.436 307.865 424.43 307.061 424.43C305.418 424.43 303.86 424.442 302.388 424.466C300.916 424.49 299.493 424.528 298.117 424.58Z" fill="white"/>
<path d="M319.668 425.437L319.303 424.653C322.048 423.361 324.561 421.625 326.74 419.515C328.556 417.706 329.922 415.497 330.728 413.064C329.868 413.578 328.949 413.985 327.99 414.277C327.12 414.536 326.216 414.668 325.308 414.669C324.275 414.72 323.244 414.553 322.279 414.18C321.315 413.806 320.44 413.235 319.71 412.502C318.981 411.769 318.413 410.891 318.045 409.925C317.676 408.959 317.514 407.927 317.569 406.894C317.527 405.709 317.732 404.528 318.171 403.427C318.609 402.325 319.272 401.326 320.116 400.494C321.941 398.89 324.287 398.005 326.716 398.005C329.146 398.005 331.492 398.89 333.316 400.494C334.156 401.418 334.803 402.5 335.219 403.677C335.636 404.854 335.814 406.102 335.743 407.348C335.751 411.353 334.241 415.212 331.518 418.148C328.286 421.588 324.196 424.104 319.668 425.437ZM331.111 411.8C331.303 411.036 331.453 410.262 331.559 409.482C331.66 408.738 331.712 407.988 331.713 407.237C331.821 405.14 331.333 403.056 330.308 401.224C329.933 400.546 329.382 399.983 328.713 399.592C328.045 399.202 327.283 398.999 326.508 399.006C325.781 398.986 325.06 399.142 324.407 399.462C323.754 399.781 323.188 400.254 322.757 400.84C321.773 402.388 321.282 404.198 321.349 406.031C321.416 407.864 322.038 409.634 323.132 411.106C323.697 411.775 324.406 412.307 325.205 412.664C326.005 413.021 326.874 413.194 327.749 413.169C328.374 413.177 328.995 413.062 329.575 412.831C330.149 412.589 330.67 412.239 331.111 411.8Z" fill="white"/>
<path d="M249.501 412.032H222.505V413.032H249.501V412.032Z" fill="white"/>
<path d="M376.837 412.032H349.84V413.032H376.837V412.032Z" fill="white"/>
<path d="M222.914 390.344L222.9 389.819C223.944 389.865 224.971 389.55 225.81 388.928C226.294 388.429 226.535 387.262 226.534 385.428V375.112C226.534 373.255 226.303 372.067 225.839 371.548C225.061 370.905 224.08 370.559 223.07 370.57V370.044C223.988 370.044 225.261 370.054 226.889 370.073C228.517 370.092 229.686 370.102 230.395 370.101C231.617 370.101 232.868 370.096 234.15 370.087C235.432 370.078 236.916 370.063 238.6 370.044L238.16 374.785H237.734C237.776 374.211 237.688 373.636 237.478 373.1C237.268 372.565 236.941 372.083 236.52 371.691C235.768 371.123 234.309 370.839 232.141 370.839H229.274V379.669H232.609C233.689 379.752 234.769 379.504 235.704 378.959C236.046 378.686 236.32 378.338 236.505 377.941C236.69 377.545 236.78 377.111 236.769 376.674L237.237 376.688C237.191 377.615 237.155 378.488 237.131 379.307C237.107 380.126 237.095 380.918 237.095 381.684C237.095 382.329 237.098 382.816 237.103 383.147C237.109 383.478 237.111 383.785 237.109 384.069H236.684C236.728 383.625 236.667 383.176 236.507 382.76C236.346 382.343 236.091 381.97 235.761 381.669C234.843 381.106 233.768 380.853 232.695 380.946H229.274V385.284C229.274 387.054 229.558 388.212 230.125 388.758C230.693 389.304 231.871 389.657 233.66 389.818V390.343H233.49C231.086 390.305 229.302 390.286 228.138 390.286C227.494 390.286 226.806 390.291 226.073 390.3L222.914 390.344Z" fill="white"/>
<path d="M240.224 380.109C240.16 378.709 240.394 377.312 240.912 376.01C241.429 374.708 242.217 373.531 243.224 372.557C245.421 370.601 248.299 369.587 251.237 369.732C252.68 369.663 254.122 369.886 255.477 370.387C256.832 370.889 258.072 371.658 259.123 372.649C260.123 373.67 260.901 374.885 261.41 376.22C261.919 377.555 262.148 378.98 262.082 380.407C262.141 381.798 261.902 383.185 261.382 384.476C260.862 385.768 260.072 386.933 259.066 387.895C256.873 389.851 254.001 390.868 251.066 390.727C249.624 390.795 248.184 390.574 246.829 390.076C245.475 389.578 244.234 388.813 243.18 387.827C242.182 386.814 241.404 385.605 240.895 384.277C240.386 382.949 240.158 381.53 240.224 380.109ZM243.688 379.697C243.572 382.308 244.331 384.884 245.845 387.015C246.464 387.899 247.289 388.619 248.249 389.113C249.208 389.606 250.274 389.858 251.353 389.847C252.371 389.877 253.382 389.665 254.303 389.228C255.223 388.792 256.027 388.143 256.648 387.335C258.064 385.397 258.77 383.032 258.648 380.635C258.652 379.427 258.495 378.224 258.18 377.058C257.9 375.985 257.449 374.964 256.845 374.034C256.185 372.974 255.289 372.08 254.227 371.423C252.835 370.649 251.215 370.391 249.651 370.695C248.088 370.999 246.682 371.844 245.681 373.083C244.276 374.994 243.573 377.331 243.688 379.7V379.697Z" fill="white"/>
<path d="M265.841 382.556V375.1C265.872 374.241 265.817 373.381 265.678 372.533C265.6 372.141 265.393 371.786 265.089 371.525C264.724 371.243 264.31 371.029 263.868 370.894C263.337 370.736 262.789 370.643 262.235 370.617V370.092C262.851 370.111 263.508 370.125 264.208 370.134C264.908 370.143 265.968 370.148 267.388 370.149C268.826 370.149 269.903 370.144 270.617 370.134C271.332 370.124 271.999 370.11 272.617 370.092L272.631 370.617C271.478 370.52 270.331 370.859 269.416 371.568C268.862 372.154 268.585 373.321 268.585 375.068V382.274C268.552 383.375 268.659 384.477 268.905 385.551C269.096 386.277 269.465 386.945 269.977 387.494C270.594 388.134 271.352 388.62 272.191 388.912C273.162 389.256 274.186 389.426 275.215 389.412C276.409 389.459 277.594 389.198 278.657 388.653C279.606 388.085 280.354 387.234 280.793 386.22C281.11 385.45 281.3 384.633 281.354 383.802C281.463 382.748 281.517 381.067 281.517 378.759C281.547 377.192 281.488 375.625 281.34 374.065C281.285 373.376 281.08 372.708 280.74 372.107C280.392 371.608 279.903 371.225 279.335 371.007C278.603 370.742 277.829 370.61 277.05 370.617V370.092C277.57 370.111 278.124 370.126 278.711 370.134C279.298 370.142 280.187 370.149 281.379 370.149C282.571 370.149 283.479 370.149 284.069 370.134C284.659 370.119 285.207 370.111 285.709 370.092V370.617H285.652C285.172 370.572 284.689 370.674 284.269 370.91C283.848 371.145 283.509 371.504 283.296 371.937C282.87 372.816 282.657 375.033 282.657 378.59C282.657 378.892 282.653 379.346 282.643 379.951C282.605 383.242 282.331 385.479 281.819 386.66C281.248 388.006 280.217 389.105 278.909 389.76C277.334 390.513 275.601 390.875 273.856 390.816C272.447 390.85 271.043 390.629 269.711 390.164C268.651 389.791 267.723 389.115 267.042 388.22C266.606 387.611 266.295 386.921 266.127 386.191C265.902 384.993 265.806 383.774 265.841 382.556Z" fill="white"/>
<path d="M287.087 390.344L287.072 389.819C287.665 389.854 288.256 389.738 288.791 389.482C289.327 389.226 289.788 388.838 290.132 388.354C290.675 387.453 290.947 385.591 290.948 382.77V377.193C290.948 376.939 290.948 376.599 290.962 376.175C290.976 375.751 290.976 375.453 290.976 375.283C291.005 374.564 290.908 373.846 290.692 373.16C290.489 372.64 290.169 372.175 289.755 371.801C289.367 371.449 288.917 371.173 288.428 370.987C287.875 370.776 287.294 370.65 286.703 370.612V370.087C287.016 370.087 287.47 370.096 288.066 370.115C288.662 370.134 289.097 370.143 289.372 370.144C289.656 370.144 290.068 370.134 290.607 370.115C291.146 370.096 291.539 370.086 291.785 370.087L306.321 385.629V378.935C306.36 377.238 306.291 375.541 306.115 373.853C306.046 373.149 305.794 372.476 305.384 371.9C305.057 371.498 304.624 371.194 304.135 371.023C303.491 370.793 302.818 370.655 302.135 370.612V370.087C302.647 370.106 303.195 370.121 303.782 370.129C304.369 370.137 305.225 370.144 306.352 370.144C307.479 370.144 308.294 370.144 308.829 370.129C309.364 370.114 309.853 370.106 310.298 370.087V370.612H310.071C309.589 370.597 309.116 370.742 308.724 371.023C308.333 371.305 308.045 371.707 307.905 372.169C307.388 374.053 307.18 376.008 307.288 377.958V384.158C307.288 385.602 307.3 386.882 307.324 387.998C307.348 389.114 307.379 390.147 307.417 391.098H307.245C306.659 390.42 306.023 389.688 305.336 388.903L304.194 387.598L291.899 374.59V380.321C291.899 383.143 291.953 385.043 292.062 386.021C292.101 386.752 292.293 387.467 292.623 388.121C292.914 388.564 293.329 388.911 293.815 389.121C294.56 389.444 295.342 389.672 296.143 389.8V390.34H296.058C294.058 390.302 292.568 390.283 291.587 390.283C291.038 390.283 290.446 390.288 289.812 390.297C289.178 390.306 288.27 390.322 287.087 390.344Z" fill="white"/>
<path d="M311.722 390.344V389.819C312.81 389.842 313.875 389.505 314.752 388.86C315.375 387.985 315.651 386.911 315.527 385.844V374.359C315.633 373.382 315.375 372.4 314.802 371.602C314.01 370.981 313.039 370.634 312.034 370.612V370.087C313.662 370.068 315.393 370.042 317.229 370.009C319.064 369.976 320.105 369.96 320.353 369.96C324.591 369.96 327.913 370.883 330.318 372.728C331.487 373.605 332.426 374.754 333.054 376.074C333.682 377.394 333.981 378.847 333.924 380.308C333.983 381.729 333.701 383.144 333.103 384.434C332.504 385.725 331.605 386.853 330.481 387.725C328.186 389.525 325.023 390.425 320.991 390.425C320.215 390.425 318.784 390.413 316.698 390.39C314.612 390.367 312.953 390.351 311.722 390.344ZM318.322 385.02C318.322 386.904 318.625 388.156 319.231 388.775C319.837 389.394 320.967 389.704 322.623 389.705C323.679 389.736 324.728 389.532 325.696 389.107C326.663 388.682 327.524 388.047 328.216 387.249C329.776 385.211 330.539 382.673 330.363 380.113C330.187 377.552 329.082 375.143 327.258 373.338C325.171 371.53 322.278 370.626 318.578 370.627H318.322V385.02Z" fill="white"/>
<path d="M334.259 390.344V389.819C335.358 389.79 336.427 389.447 337.339 388.832C337.839 388.365 338.09 387.36 338.091 385.815V374.672C338.091 373.042 337.842 371.965 337.346 371.442C336.561 370.816 335.572 370.505 334.571 370.57V370.044C335.517 370.067 336.524 370.083 337.594 370.09C338.663 370.097 340.215 370.101 342.251 370.101C344.626 370.101 346.365 370.097 347.467 370.09C348.569 370.083 349.56 370.072 350.441 370.059C350.355 370.702 350.281 371.392 350.221 372.131C350.16 372.87 350.101 373.717 350.044 374.672H349.6C349.62 374.12 349.524 373.57 349.317 373.058C349.111 372.546 348.798 372.083 348.4 371.7C347.263 371.039 345.948 370.749 344.638 370.87H340.838V379.245H343.762C344.901 379.342 346.046 379.131 347.076 378.634C347.415 378.368 347.695 378.033 347.896 377.651C348.098 377.27 348.218 376.85 348.247 376.42H348.716C348.716 376.95 348.694 377.783 348.652 378.92C348.609 380.057 348.588 380.942 348.589 381.575V383.25H348.162C348.161 382.837 348.063 382.429 347.875 382.061C347.688 381.692 347.417 381.373 347.084 381.128C346.057 380.643 344.921 380.436 343.79 380.528H340.838V385.695C340.838 387.275 341.159 388.316 341.803 388.818C342.446 389.32 343.7 389.571 345.565 389.57C347.02 389.655 348.456 389.203 349.6 388.3C350.677 387.254 351.366 385.873 351.552 384.383L352.021 384.439C351.969 385.494 351.848 386.545 351.659 387.584C351.485 388.541 351.235 389.484 350.913 390.402C349.542 390.364 348.042 390.335 346.413 390.316C344.783 390.297 343.009 390.287 341.09 390.288C339.302 390.288 337.929 390.293 336.973 390.302C336.016 390.311 335.111 390.325 334.259 390.344Z" fill="white"/>
<path d="M353.291 390.344V389.819C354.379 389.842 355.444 389.505 356.321 388.86C356.944 387.985 357.22 386.911 357.096 385.844V374.359C357.202 373.382 356.944 372.4 356.371 371.602C355.58 370.981 354.608 370.634 353.603 370.612V370.087C355.23 370.068 356.963 370.042 358.803 370.009C360.643 369.976 361.684 369.96 361.925 369.96C366.165 369.96 369.487 370.883 371.891 372.728C373.06 373.606 373.999 374.754 374.627 376.074C375.255 377.394 375.553 378.847 375.496 380.308C375.555 381.729 375.274 383.144 374.675 384.434C374.076 385.724 373.178 386.853 372.054 387.725C369.759 389.525 366.595 390.425 362.564 390.425C361.788 390.425 360.357 390.413 358.27 390.39C356.183 390.367 354.524 390.351 353.291 390.344ZM359.891 385.02C359.891 386.904 360.194 388.156 360.8 388.775C361.406 389.394 362.537 389.704 364.193 389.705C365.249 389.736 366.299 389.532 367.266 389.107C368.233 388.682 369.094 388.047 369.786 387.249C371.346 385.21 372.109 382.673 371.932 380.112C371.756 377.552 370.652 375.143 368.827 373.338C366.741 371.53 363.848 370.626 360.147 370.627H359.891V385.02Z" fill="white"/>
<path d="M231.833 332.092C231.413 331.703 231.181 331.477 231.055 331.345C230.938 331.258 230.799 331.154 230.63 331.026C229.511 330.176 228.437 329.343 227.401 328.426L122.1 457.358L122.18 457.438C121.543 458.013 121.043 458.722 120.714 459.514C120.386 460.306 120.237 461.161 120.28 462.017C120.322 462.873 120.554 463.71 120.96 464.465C121.365 465.221 121.933 465.877 122.623 466.386C123.314 466.894 124.108 467.244 124.95 467.408C125.791 467.572 126.659 467.547 127.489 467.334C128.32 467.122 129.093 466.727 129.753 466.179C130.412 465.631 130.942 464.944 131.303 464.166L237.37 334.813C235.296 334.471 233.37 333.525 231.833 332.092Z" fill="white"/>
<path d="M226.959 171.558C228.432 170.132 230.296 169.177 232.313 168.813L133.139 47.375L124.2 55.093L224.173 177.019C224.482 174.944 225.46 173.026 226.959 171.558Z" fill="white"/>
<path d="M365.557 172.371C367.016 173.778 367.984 175.616 368.318 177.615L468.447 55.5L459.511 47.782L360.021 169.607C362.1 169.958 364.028 170.92 365.557 172.371Z" fill="white"/>
<path d="M469.521 457.438L469.602 457.358L364.721 328.933C364.518 329.604 364.239 330.249 363.89 330.857C363.147 332.188 362.089 333.318 360.81 334.148C359.531 334.979 358.068 335.484 356.549 335.621C356.179 335.811 355.796 335.975 355.403 336.113L460.403 464.166C460.764 464.944 461.294 465.632 461.953 466.18C462.613 466.728 463.386 467.123 464.217 467.335C465.047 467.548 465.915 467.573 466.757 467.409C467.599 467.245 468.393 466.896 469.083 466.387C469.774 465.878 470.342 465.222 470.747 464.466C471.153 463.71 471.385 462.874 471.427 462.017C471.47 461.161 471.321 460.305 470.992 459.513C470.663 458.721 470.162 458.013 469.525 457.438H469.521Z" fill="white"/>
<path d="M787.615 326.364C787.615 347.653 788.481 362.653 790.215 371.364C791.948 380.075 794.891 386.433 799.045 390.439C803.475 394.59 809.431 398.082 816.912 400.915C824.392 403.748 833.95 406.063 845.584 407.86L845.376 415.547C824.46 415.273 808.531 415.065 797.59 414.924C786.648 414.783 776.537 414.713 767.257 414.716C749.941 414.716 724.108 414.993 689.757 415.547H688.51V407.86C700.282 406.065 709.943 403.75 717.493 400.915C725.043 398.08 730.964 394.588 735.257 390.439C739.549 386.434 742.562 380.076 744.295 371.364C746.027 362.652 746.894 347.652 746.895 326.364V133.4H717.395C690.801 133.4 671.409 137.486 659.22 145.658C647.03 153.83 638.234 168.167 632.83 188.669L625.559 187.422L633.659 105.356H638.645L651.526 119.069C664.823 119.069 684.423 119.138 710.326 119.276C736.228 119.414 755.62 119.483 768.5 119.484C781.242 119.484 800.356 119.415 825.843 119.276C851.329 119.137 870.374 119.068 882.978 119.069L897.106 105.356H900.43L907.702 188.256L900.846 189.705C895.859 169.49 887.168 155.053 874.772 146.394C862.376 137.735 843.988 133.404 819.61 133.4H787.61L787.615 326.364Z" fill="white"/>
<path d="M909.767 415.547L909.559 407.86C922.44 407.307 930.993 404.682 935.218 399.983C939.442 395.284 941.555 383.057 941.555 363.301L941.139 167.477C941.139 158.751 940.342 152.138 938.749 147.638C937.048 142.976 934.23 138.802 930.543 135.481L919.531 126.132V122.392L971.68 101.2L976.043 103.277L973.55 246.617C988.092 236.79 1001.53 229.384 1013.86 224.399C1026.18 219.414 1037.13 216.922 1046.68 216.924C1066.49 216.924 1080.96 222.524 1090.11 233.724C1099.25 244.924 1104.17 263.176 1104.86 288.481L1106.73 368.481C1107.28 385.614 1109.56 396.15 1113.58 400.088C1117.6 404.026 1125.77 406.616 1138.1 407.859V415.546C1132.83 415.272 1126.91 415.064 1120.33 414.923C1113.76 414.782 1103.68 414.712 1090.11 414.715C1076.53 414.715 1066.21 414.784 1059.15 414.923C1052.09 415.062 1045.58 415.269 1039.62 415.546L1039.41 407.859C1052.57 406.48 1061.33 403.58 1065.69 399.159C1070.06 394.738 1072.24 385.62 1072.24 371.805C1072.24 370.7 1072.17 368.626 1072.03 365.585C1071.89 362.544 1071.82 360.126 1071.82 358.331L1070.99 309C1070.44 284.819 1065.97 267.308 1057.59 256.467C1049.21 245.626 1036.09 240.201 1018.22 240.194C1011.05 240.232 1003.94 241.387 997.131 243.616C989.161 246.284 981.527 249.864 974.381 254.287V362.887C974.381 381.126 976.631 393.043 981.133 398.64C985.634 404.237 994.603 407.31 1008.04 407.861L1007.83 415.548C1002.01 415.274 995.642 415.066 988.717 414.925C981.791 414.784 971.472 414.714 957.76 414.717C944.462 414.717 934.49 414.786 927.842 414.925C921.194 415.064 915.169 415.271 909.767 415.547Z" fill="white"/>
<path d="M1302.93 364.437L1308.95 369.632C1298.01 385.565 1285.61 397.615 1271.76 405.782C1258.13 413.895 1242.54 418.134 1226.68 418.04C1201.47 418.04 1180.27 408.795 1163.1 390.306C1145.93 371.817 1137.34 348.72 1137.34 321.015C1137.34 291.928 1146.52 267.308 1164.87 247.153C1183.22 226.998 1205.55 216.922 1231.87 216.925C1253.06 216.925 1270.13 222.881 1283.08 234.793C1296.03 246.705 1303.06 262.98 1304.17 283.617C1280.49 282.786 1258.01 282.162 1236.75 281.747C1215.49 281.332 1195.3 281.124 1176.19 281.124C1175.23 284.95 1174.53 288.837 1174.11 292.759C1173.68 296.831 1173.48 300.923 1173.49 305.017C1173.49 329.812 1180.69 350.381 1195.09 366.723C1209.5 383.065 1227.44 391.237 1248.9 391.239C1259.2 391.324 1269.37 389.013 1278.61 384.489C1288.11 379.7 1296.42 372.849 1302.93 364.437ZM1261.17 270.528C1258.39 256.4 1253.75 245.561 1247.25 238.011C1240.74 230.461 1232.77 226.687 1223.35 226.69C1212.55 226.69 1203.03 230.811 1194.78 239.054C1186.54 247.297 1180.9 258.481 1177.85 272.606L1261.17 270.528Z" fill="white"/>
<path d="M1747.33 382.349V390.024C1723.78 400.677 1701.41 408.599 1680.22 413.788C1660.18 418.833 1639.6 421.447 1618.93 421.573C1567.82 421.573 1526.76 407.756 1495.73 380.122C1464.71 352.488 1449.2 316.095 1449.2 270.944C1449.2 248.09 1453.42 227.14 1461.87 208.093C1470.32 189.046 1482.99 172.113 1499.89 157.293C1516.32 142.839 1535.41 131.723 1556.09 124.568C1577.21 117.163 1600.17 113.458 1624.96 113.455C1642.16 113.492 1659.33 114.951 1676.28 117.818C1694.18 120.836 1711.82 125.212 1729.05 130.907C1728.36 142.267 1727.77 154.214 1727.29 166.748C1726.8 179.282 1726.42 192.682 1726.14 206.948H1719.7C1713.33 180.081 1701.59 159.548 1684.49 145.348C1667.38 131.148 1645.67 124.05 1619.35 124.055C1583.06 124.055 1553.77 136.21 1531.47 160.519C1509.17 184.828 1498.02 216.928 1498.02 256.819C1497.94 276.182 1501.5 295.388 1508.51 313.436C1515.51 331.38 1525.84 347.84 1538.95 361.947C1552.25 376.353 1568.59 387.469 1587.98 395.295C1607.87 403.215 1629.11 407.201 1650.52 407.032C1664.37 407.032 1673.61 404.89 1678.26 400.605C1682.9 396.32 1685.22 387.124 1685.22 373.016V332.362C1685.22 315.495 1681.2 303.569 1673.17 296.583C1665.13 289.597 1650.17 285.206 1628.29 283.409V275.722C1639.64 275.943 1650.76 276.136 1661.63 276.301C1672.51 276.466 1683.35 276.55 1694.15 276.553C1705.23 276.553 1716.14 276.484 1726.87 276.346C1737.61 276.208 1748.1 276 1758.35 275.722L1758.56 283.409C1745.67 285.072 1737.05 288.772 1732.69 294.509C1728.33 300.246 1726.14 312.379 1726.14 330.909V382.35L1747.33 382.349Z" fill="white"/>
<path d="M1808.98 301.56V192.36C1808.98 173.816 1808.19 161.291 1806.59 154.786C1805 148.281 1802.13 143.366 1797.97 140.043C1792.62 135.912 1786.57 132.783 1780.1 130.805C1772.33 128.491 1764.31 127.131 1756.21 126.756V119.069C1765.21 119.347 1774.84 119.554 1785.09 119.691C1795.34 119.828 1810.86 119.897 1831.63 119.899C1852.68 119.899 1868.44 119.83 1878.9 119.691C1889.36 119.552 1899.09 119.345 1908.09 119.069L1908.29 126.756C1885.03 127.45 1869.34 132.087 1861.24 140.667C1853.13 149.247 1849.08 166.34 1849.08 191.945V297.409C1849.08 318.172 1850.64 334.158 1853.76 345.367C1856.55 355.998 1861.94 365.769 1869.44 373.804C1877.89 382.804 1888.69 389.725 1901.85 394.568C1915.01 399.411 1929.77 401.833 1946.11 401.835C1966.61 401.835 1983.4 398.135 1996.49 390.735C2009.58 383.335 2020.01 371.466 2027.76 355.127C2031.63 346.963 2034.37 335.163 2035.96 319.727C2037.56 304.291 2038.35 279.691 2038.35 245.927C2038.35 212.99 2037.48 190.086 2035.75 177.215C2034.02 164.344 2031.07 154.793 2026.92 148.561C2021.82 141.272 2014.66 135.671 2006.35 132.475C1997.63 128.947 1986.48 127.043 1972.91 126.764V119.077C1980.52 119.355 1988.62 119.562 1997.21 119.699C2005.79 119.836 2018.81 119.905 2036.27 119.907C2053.86 119.907 2066.98 119.838 2075.63 119.699C2084.29 119.56 2092.29 119.353 2099.63 119.077V126.764H2098.8C2082.04 126.764 2070.54 133.2 2064.31 146.072C2058.08 158.944 2054.97 191.402 2054.96 243.447C2054.96 247.872 2054.89 254.515 2054.76 263.375C2054.2 311.545 2050.19 344.28 2042.71 361.581C2034.12 381.514 2019.92 396.635 2000.11 406.944C1980.3 417.253 1955.66 422.405 1926.16 422.4C1902.48 422.4 1882.26 419.216 1865.5 412.847C1848.74 406.478 1835.72 396.996 1826.44 384.401C1820.05 375.487 1815.5 365.397 1813.04 354.713C1810.33 343.501 1808.98 325.783 1808.98 301.56Z" fill="white"/>
<path d="M2115.57 415.547V407.86C2137.17 406.618 2151.79 402.161 2159.4 394.488C2167.02 386.815 2170.83 369.782 2170.83 343.388V191.021C2170.83 164.763 2167.09 147.832 2159.61 140.229C2152.13 132.626 2137.45 128.135 2115.57 126.756V119.069C2124.15 119.069 2137 119.207 2154.11 119.484C2171.22 119.761 2183.99 119.899 2192.44 119.899C2200.89 119.899 2213.46 119.761 2230.15 119.484C2246.84 119.207 2259.27 119.069 2267.44 119.069V126.756C2245.56 128.139 2230.87 132.7 2223.4 140.437C2215.92 148.174 2212.18 165.036 2212.18 191.021V343.387C2212.18 369.649 2215.95 386.682 2223.5 394.487C2231.05 402.292 2245.7 406.749 2267.44 407.859L2267.23 415.546C2246.18 415.131 2230.49 414.889 2220.18 414.821C2209.86 414.753 2200.2 414.718 2191.19 414.715C2182.19 414.715 2172.52 414.75 2162.21 414.821C2151.89 414.892 2136.34 415.134 2115.57 415.547Z" fill="white"/>
<path d="M2284.31 415.547V407.86C2306.33 406.074 2321.12 401.399 2328.66 393.834C2336.21 386.269 2339.99 371.553 2339.99 349.686V181.605C2339.99 162.009 2336.45 148.556 2329.39 141.246C2322.33 133.936 2308.82 129.106 2288.88 126.756V119.069C2312.7 118.794 2338.05 118.412 2364.92 117.923C2391.79 117.434 2407.03 117.193 2410.63 117.199C2472.68 117.199 2521.29 130.704 2556.48 157.713C2591.66 184.722 2609.25 221.704 2609.25 268.658C2609.25 314.645 2592.46 350.83 2558.87 377.213C2525.28 403.596 2478.98 416.79 2419.98 416.794C2408.61 416.794 2387.66 416.62 2357.12 416.272C2326.59 415.924 2302.31 415.682 2284.31 415.547ZM2380.92 337.636C2380.92 365.202 2385.35 383.519 2394.22 392.587C2403.08 401.655 2419.63 406.192 2443.87 406.198C2477.25 406.198 2504.54 394.217 2525.73 370.255C2546.92 346.293 2557.52 314.99 2557.52 276.346C2557.52 229.669 2542.25 193.103 2511.7 166.646C2481.16 140.189 2438.81 126.962 2384.66 126.963H2380.92L2380.92 337.636Z" fill="white"/>
<path d="M2636.32 265.75C2636.32 219.626 2650.97 182.782 2680.26 155.219C2709.55 127.656 2748.65 113.874 2797.54 113.874C2845.6 113.874 2884.07 128.105 2912.95 156.567C2941.84 185.029 2956.28 222.878 2956.28 270.113C2956.28 315.546 2941.56 352.077 2912.12 379.706C2882.69 407.335 2843.66 421.152 2795.05 421.157C2746.98 421.157 2708.51 407.029 2679.64 378.773C2650.77 350.517 2636.33 312.843 2636.32 265.75ZM2687.02 259.724C2687.02 303.496 2697.55 339.196 2718.6 366.824C2739.65 394.452 2766.52 408.269 2799.21 408.275C2831.34 408.275 2857.18 396.017 2876.71 371.501C2896.24 346.985 2906.01 314.297 2906 273.437C2906.06 255.757 2903.75 238.148 2899.14 221.08C2894.57 204.322 2888.06 189.571 2879.61 176.827C2868.25 159.653 2855.48 146.91 2841.28 138.598C2827.08 130.288 2810.98 126.133 2792.98 126.132C2761.25 126.132 2735.67 138.39 2716.21 162.906C2696.75 187.422 2687.02 219.695 2687.01 259.724H2687.02Z" fill="white"/>
<path d="M2955.29 415.547L2955.08 407.86C2976.96 406.755 2991.89 399.608 2999.85 386.421C3007.82 373.234 3011.8 345.993 3011.8 304.7V223.08C3011.8 219.354 3011.87 214.384 3012.01 208.17C3012.15 201.956 3012.22 197.605 3012.21 195.116C3012.21 181.722 3010.83 171.365 3008.06 164.045C3005.09 156.442 3000.4 149.633 2994.35 144.156C2988.67 139.016 2982.08 134.977 2974.92 132.248C2966.83 129.16 2958.32 127.31 2949.68 126.758V119.071C2954.25 119.071 2960.9 119.209 2969.62 119.486C2978.35 119.763 2984.72 119.901 2988.74 119.901C2992.89 119.901 2998.92 119.763 3006.81 119.486C3014.71 119.209 3020.46 119.071 3024.06 119.071L3236.81 346.545V248.558C3236.81 211.825 3235.8 187.036 3233.79 174.192C3231.78 161.348 3228.22 151.82 3223.09 145.609C3218.8 140.083 3212.7 135.801 3204.81 132.763C3196.92 129.725 3187.15 127.723 3175.51 126.756V119.069C3182.99 119.347 3191.02 119.554 3199.61 119.691C3208.2 119.828 3220.73 119.897 3237.22 119.899C3253.56 119.899 3265.64 119.83 3273.47 119.691C3281.29 119.558 3288.46 119.35 3294.97 119.069V126.756H3291.65C3276.55 126.756 3265.99 134.352 3259.96 149.543C3253.94 164.734 3250.93 192.976 3250.93 234.267V325C3250.93 346.133 3251.1 364.867 3251.45 381.2C3251.8 397.533 3252.25 412.653 3252.8 426.559H3250.3C3241.72 416.621 3232.4 405.916 3222.36 394.444C3212.32 382.972 3206.75 376.603 3205.63 375.338L3025.72 184.965V268.865C3025.72 310.161 3026.52 337.954 3028.11 352.244C3029.7 366.534 3032.44 376.786 3036.32 383C3039.92 388.933 3045.74 393.836 3053.77 397.707C3061.8 401.578 3073.16 404.892 3087.84 407.648V415.548H3086.6C3057.37 414.996 3035.56 414.719 3021.15 414.717C3013.12 414.717 3004.46 414.786 2995.18 414.925C2985.91 415.064 2972.61 415.271 2955.29 415.547Z" fill="white"/>
</g>
<defs>
<clipPath id="clip0_83_1549">
<rect width="3294.98" height="504.346" fill="white"/>
</clipPath>
</defs>
</svg>
