<svg width="2956" height="629" viewBox="0 0 2956 629" fill="none" xmlns="http://www.w3.org/2000/svg">
<path d="M105.92 8.44778C107.256 10.2422 103.563 15.2533 97.6729 19.6399C91.7825 24.0266 85.9221 26.1225 84.5859 24.3257C83.2497 22.5289 86.9413 17.519 92.8317 13.1335C98.722 8.74804 104.581 6.6522 105.92 8.44778Z" fill="black"/>
<path d="M99.112 9.19808C99.112 10.8935 98.6093 12.5509 97.6675 13.9607C96.7257 15.3705 95.387 16.4694 93.8208 17.1184C92.2545 17.7675 90.5309 17.9377 88.868 17.6073C87.205 17.277 85.6774 16.461 84.4781 15.2626C83.2788 14.0642 82.4618 12.5371 82.1303 10.8744C81.7988 9.21165 81.9678 7.48798 82.6158 5.92126C83.2638 4.35454 84.3617 3.01512 85.7708 2.07233C87.18 1.12953 88.837 0.625697 90.5324 0.624514C91.6588 0.623728 92.7743 0.844909 93.8152 1.27542C94.8561 1.70593 95.802 2.33733 96.5987 3.13354C97.3955 3.92974 98.0275 4.87515 98.4588 5.91574C98.89 6.95632 99.112 8.07168 99.112 9.19808Z" fill="black"/>
<path d="M584.518 9.79915C584.518 11.4948 585.02 13.1524 585.962 14.5624C586.905 15.9723 588.244 17.0712 589.81 17.7201C591.377 18.369 593.101 18.5388 594.764 18.208C596.427 17.8772 597.955 17.0606 599.154 15.8616C600.353 14.6625 601.169 13.1349 601.5 11.4718C601.831 9.80866 601.661 8.0848 601.012 6.51819C600.363 4.95158 599.264 3.61257 597.854 2.67049C596.444 1.72842 594.787 1.22559 593.091 1.22559C590.817 1.22559 588.637 2.12887 587.029 3.73672C585.421 5.34458 584.518 7.5253 584.518 9.79915Z" fill="black"/>
<path d="M94.1469 24.8975C94.1469 24.8975 49.4756 79.5483 33.9294 114.826C33.9294 114.826 25.3586 134.359 25.3586 137.947C25.3586 141.535 23.4596 149.506 31.2327 150.104C39.0058 150.702 27.3521 169.537 18.9811 180.3C10.6101 191.062 5.82665 216.175 3.13597 238C0.445279 259.824 1.04321 305.267 13.3008 314.834C25.5583 324.401 30.0368 322.906 30.9397 338.452C31.8426 353.998 30.0428 374.328 41.7025 386.885C53.3621 399.441 52.1662 418.575 51.8673 422.461C51.5683 426.348 62.63 397.647 58.7435 377.019C54.8569 356.39 50.3725 353.699 57.5476 327.092C64.7228 300.484 64.4238 299.886 58.1455 292.711C51.8673 285.535 45.888 282.546 61.1352 261.618C76.3824 240.691 100.3 210.794 100.001 199.433C99.7017 188.073 94.3203 184.784 90.4338 181.794C86.5472 178.805 84.7534 179.104 91.9286 177.609C99.1038 176.114 146.938 142.331 165.175 113.331C147.536 104.063 125.706 98.3831 94.1469 24.8975Z" stroke="black" stroke-width="3.56571"/>
<path d="M121.62 77.556C121.62 77.556 130.39 92.9013 119.628 158.077C101.69 172.029 98.8985 174.021 98.8985 174.021C98.8985 174.021 105.675 140.937 104.878 111.837C104.08 82.7365 92.3213 26.5322 92.3213 26.5322L94.1474 24.8975L121.62 77.556Z" fill="black"/>
<path d="M73.9916 51.4502C73.9916 51.4502 90.7336 102.274 86.5481 178.211C90.3461 181.611 93.7552 185.421 96.7129 189.572C94.848 187.728 92.5838 186.337 90.0954 185.507C87.607 184.678 84.9612 184.432 82.3626 184.789C73.3936 185.985 66.2185 190.17 65.0226 172.83C63.8268 155.49 72.7957 112.439 51.8682 83.1405C66.8164 59.8212 73.9916 51.4502 73.9916 51.4502Z" fill="black"/>
<path d="M35.1275 111.24C35.1275 111.24 48.8799 124.395 51.8695 147.714C54.8592 171.033 53.0654 196.744 71.6012 199.136C90.1371 201.528 100.003 199.435 100.003 199.435L89.5391 224.249C89.5391 224.249 64.4261 229.033 54.8592 206.311C45.2923 183.59 50.6737 153.693 31.2409 150.106C22.5709 147.116 25.3609 137.949 25.3609 137.949L35.1275 111.24Z" fill="black"/>
<path d="M28.5456 166.845C28.5456 166.845 39.3083 174.02 41.7001 203.917C44.0918 233.813 73.9883 243.978 73.9883 243.978L57.2463 267.298C57.2463 267.298 42.298 252.947 38.7104 239.793C35.1228 226.638 36.3187 198.536 10.0098 200.927C12.4015 189.567 24.3601 172.825 28.5456 166.845Z" fill="black"/>
<path d="M5.83004 215.882C5.83004 215.882 20.7783 235.016 27.3555 249.964C33.9328 264.913 54.2624 290.026 54.2624 290.026L62.0355 297.799L62.6334 307.964C62.6334 307.964 53.6645 302.582 45.2934 297.201C36.9224 291.82 32.7369 284.644 27.3555 277.469C21.9742 270.294 14.799 263.717 1.64453 257.14C2.20098 243.315 3.59874 229.537 5.83004 215.882Z" fill="black"/>
<path d="M2.2373 274.474C2.2373 274.474 16.5876 294.206 21.969 297.195C27.3504 300.185 45.2883 305.567 50.0717 314.535C54.8552 323.504 57.8448 329.484 57.8448 329.484L53.6593 351.009C53.6593 351.009 48.2779 333.669 39.9069 328.288C31.5359 322.906 11.2063 315.731 8.81454 310.35C6.42282 304.969 2.2373 274.474 2.2373 274.474Z" fill="black"/>
<path d="M29.7471 336.662C29.7471 336.662 39.9119 353.404 45.2933 360.579C50.6746 367.754 59.6436 382.104 59.6436 382.104L57.8498 402.434C57.8498 402.434 56.6539 387.486 49.4788 382.702C42.3036 377.919 32.1388 373.135 32.1388 370.744C32.1388 368.352 29.7471 336.662 29.7471 336.662Z" fill="black"/>
<path d="M342.46 465.617C427.879 465.617 497.124 396.372 497.124 310.953C497.124 225.534 427.879 156.289 342.46 156.289C257.041 156.289 187.796 225.534 187.796 310.953C187.796 396.372 257.041 465.617 342.46 465.617Z" stroke="black" stroke-width="7.13142"/>
<path d="M485.085 311.354C485.085 339.483 476.744 366.98 461.116 390.369C445.489 413.757 423.277 431.986 397.289 442.751C371.301 453.516 342.705 456.332 315.117 450.845C287.528 445.357 262.186 431.812 242.296 411.922C222.406 392.032 208.86 366.69 203.373 339.102C197.885 311.513 200.701 282.917 211.466 256.929C222.23 230.941 240.459 208.729 263.848 193.101C287.236 177.474 314.733 169.132 342.862 169.132C380.582 169.132 416.756 184.116 443.428 210.788C470.1 237.46 485.084 273.634 485.085 311.354Z" stroke="black" stroke-width="2.37714"/>
<path d="M517.658 114.627C517.658 114.627 548.546 100.078 565.288 75.3617C591.802 36.2176 592.399 24.937 592.399 24.937C592.399 24.937 623.492 74.5652 640.234 75.1632C656.976 75.7611 659.966 75.7611 664.749 102.668C669.532 129.575 677.344 192.787 688.866 217.271C695.243 230.824 687.67 252.349 684.481 261.12C683.188 264.672 670.928 295.4 686.872 320.913C711.305 360.008 664.151 447.674 664.151 447.674C664.151 447.674 674.516 378.912 657.774 349.613C641.032 320.315 609.739 292.212 609.739 274.274C609.739 256.336 616.915 241.986 614.523 231.223C612.131 220.46 609.141 218.069 606.152 195.347C603.162 172.626 601.368 159.471 582.833 158.873C564.297 158.276 552.936 154.688 517.658 114.627Z" stroke="black" stroke-width="3.56571"/>
<path d="M558.374 85.1965C562.403 91.6396 572.08 99.7298 578.075 90.4876C582.87 83.0947 576.678 73.9792 571.274 68.7767C568.775 66.3687 564.963 70.1704 567.468 72.582C570.717 75.7114 574.294 80.1746 574.446 84.852C574.59 89.2399 570.372 90.0234 567.536 87.7374C565.754 86.2417 564.229 84.4635 563.022 82.4738C561.187 79.5382 556.527 82.2346 558.374 85.1905V85.1965Z" fill="black"/>
<path d="M600.999 101.915C598.579 98.6657 594.517 92.1377 590.003 91.9092C585.559 91.6831 581.39 93.6964 579.708 97.9144C576.775 105.259 584.914 113.747 591.216 115.841C594.552 116.95 598.305 115.363 600.464 112.786C603.16 109.567 602.539 105.471 600.999 101.915C599.623 98.7362 594.986 101.48 596.351 104.631C597.428 107.121 597.148 109.698 594.35 110.664C592.162 111.419 589.641 109.132 588.224 107.793C586.062 105.759 582.256 99.503 586.66 97.7792C589.242 96.7672 589.627 97.2326 590.996 98.4802C592.971 100.356 594.764 102.413 596.351 104.627C598.399 107.378 603.075 104.698 600.999 101.915Z" fill="black"/>
<path d="M625.907 123.56C623.556 120.11 620.517 114.539 616.379 113.064C615.24 112.608 614.015 112.404 612.79 112.466C611.564 112.528 610.366 112.854 609.279 113.422C608.191 113.99 607.239 114.787 606.488 115.758C605.738 116.728 605.206 117.85 604.929 119.046C603.419 125.736 608.802 134.157 615.217 136.241C623.019 138.775 628.503 131.346 626.18 124.209C625.109 120.923 619.91 122.329 620.988 125.644C621.743 127.96 621.791 130.281 619.143 131.218C616.915 132.005 614.773 129.965 613.356 128.551C611.562 126.757 607.607 119.76 611.631 118.174C615.969 116.463 619.287 123.39 621.26 126.288C623.201 129.123 627.869 126.431 625.907 123.56Z" fill="black"/>
<path d="M640.734 153.383C639.814 149.183 639.165 143.143 636.27 139.789C632.293 135.178 626.645 136.778 624.272 141.983C621.443 148.19 623.793 156.838 628.136 161.8C629.113 162.843 630.387 163.561 631.786 163.854C633.185 164.148 634.64 164.004 635.954 163.442C639.58 161.739 640.532 157.765 640.829 154.1C641.109 150.63 635.724 150.664 635.446 154.1C635.326 155.589 634.862 159.619 632.403 158.399C631.012 157.709 630.171 155.203 629.673 153.887C628.959 151.955 628.551 149.924 628.466 147.867C628.4 146.497 628.882 142.395 630.7 142.306C633.844 142.15 635.066 152.644 635.542 154.815C636.289 158.205 641.474 156.767 640.734 153.383Z" fill="black"/>
<path d="M651.601 190.373C651.186 185.092 650.306 179.858 648.969 174.732C647.372 169.437 641.381 169.599 639.343 174.519C636.711 180.881 636.461 191.592 639.594 197.797C640.812 200.209 643.5 202.093 646.203 200.501C649.839 198.362 651.181 194.361 651.601 190.373C651.96 186.922 646.575 186.958 646.216 190.373C646.086 191.601 644.901 197.277 643.859 193.807C643.258 191.387 642.981 188.899 643.034 186.407C642.993 184.759 643.07 183.11 643.19 181.467C643.305 180.291 643.512 179.126 643.808 177.983C643.928 177.608 644.041 177.235 644.157 176.862C645.011 175.932 644.832 175.58 643.619 175.805C644.97 176.9 645.066 182.098 645.32 183.701C645.67 185.915 645.962 188.14 646.216 190.367C646.6 193.782 651.988 193.819 651.601 190.373Z" fill="black"/>
<path d="M570.735 88.2852C574.563 93.2867 579.269 98.5156 585.059 101.213C588.184 102.669 590.92 98.0299 587.775 96.5645C584.652 94.9578 581.843 92.8016 579.484 90.1992C578.398 89.0962 577.369 87.9347 576.368 86.7552C576.046 86.376 575.73 85.9896 575.418 85.602C575.168 85.2921 574.975 85.0337 575.385 85.5685C573.305 82.853 568.626 85.529 570.737 88.2864L570.735 88.2852Z" fill="black"/>
<path d="M595.212 111.972C600.537 115.237 605.832 118.574 610.961 122.14C613.821 124.127 616.507 119.458 613.678 117.491C608.549 113.925 603.255 110.588 597.928 107.323C594.96 105.504 592.258 110.162 595.212 111.972Z" fill="black"/>
<path d="M617.997 130.881C621.784 134.862 625.058 139.301 627.742 144.095C629.449 147.117 634.1 144.405 632.389 141.377C629.47 136.188 625.913 131.384 621.802 127.076C619.394 124.564 615.591 128.38 617.997 130.881Z" fill="black"/>
<path d="M633.542 159.781C637.951 164.553 640.121 171.505 641.223 177.733C641.821 181.148 647.013 179.696 646.415 176.298C645.149 169.129 642.388 161.425 637.347 155.97C634.988 153.415 631.19 157.232 633.542 159.776V159.781Z" fill="black"/>
<path d="M642.719 193.044C641.718 199.769 643.546 207.026 645.411 213.417C646.381 216.741 651.576 215.325 650.603 211.981C649.248 207.618 648.359 203.123 647.95 198.572C647.872 197.438 647.853 196.3 647.893 195.163C647.903 194.839 648.122 193.053 647.911 194.472C648.417 191.078 643.23 189.617 642.719 193.036V193.044Z" fill="black"/>
<path d="M625.133 180.306C625.133 180.306 623.802 176.887 621.879 177.025C622.397 181.935 622.452 182.453 622.78 185.551C623.107 188.65 623.138 194.406 624.4 204.55C625.662 214.693 630.095 240.076 625.661 264.139C622.74 267.709 620.609 269.521 620.758 261.833C620.906 254.144 622.63 217.227 620.537 212.064C618.445 206.902 614.494 204.397 612.34 204.214C615.596 208.718 617.446 214.086 617.654 219.64C617.756 222.418 617.273 258.232 617.602 261.332C617.93 264.431 618.395 274.319 623.301 269.388C624.102 275.138 624.332 275.458 626.554 278.165C628.776 280.871 626.905 287.02 625.338 290.517C623.77 294.013 630.207 306.077 631.255 308.659C632.302 311.241 638.878 316.582 642.615 309.556C644.915 303.793 637.364 308.445 636.935 308.061C636.506 307.677 632.6 307.762 628.002 297.354C632.259 289.97 633.884 281.494 632.955 278.202C632.026 274.909 627.739 271.049 627.739 271.049C627.739 271.049 632.901 266.695 634.242 268.37C635.583 270.046 637.059 273.014 635.453 277.998C637.767 279.732 642.636 281.781 643.566 285.073C644.497 288.365 647.548 286.092 647.597 282.859C647.494 281.224 646.95 279.647 646.022 278.296C645.093 276.946 643.816 275.872 642.326 275.19C639.92 274.425 640.586 273.387 641.298 269.118C642.009 264.849 640.349 252.835 629.555 264.386C630.385 259.404 638.913 231.897 634.887 212.134C637.549 207.985 640.396 200.504 640.672 197.593C640.948 194.683 639.177 184.289 639.177 184.289C639.177 184.289 637.34 204.172 633.984 209.099C632.718 204.448 630.449 199.483 630.339 198.448C630.229 197.414 629.667 190.242 629.667 190.242C629.667 190.242 634.491 184.535 635.248 182.527C636.005 180.519 637.528 174.754 636.114 176.058C634.699 177.363 632.127 180.538 631.091 179.959C630.055 179.38 628.682 177.19 625.133 180.306Z" fill="black"/>
<path d="M655.981 141.567C656.229 138.454 656.882 135.387 657.924 132.443C658.442 137.355 658.499 137.871 658.826 140.972C659.152 144.073 660.219 148.658 661.138 159.189C662.058 169.72 663.366 198.61 671.407 208.659C674.379 205.607 676.402 202.759 674.826 197.01C673.25 191.262 666.216 165.639 665.596 157.36C665.032 150.637 665.967 143.872 668.334 137.553C667.536 150.11 668.858 155.147 669.304 157.539C669.75 159.93 676.895 187.174 677.221 190.275C677.548 193.376 679.052 202.097 674.256 208.067C674.71 214.204 674.592 214.916 673.352 221.515C672.112 228.113 674.747 229.199 676.643 228.803C678.538 228.408 678.17 248.774 677.839 252.911C677.507 257.047 675.94 269.788 669.377 273.694C666.477 273.774 671.254 265.801 671.52 264.636C674.497 256.609 675.963 248.1 675.844 239.539C671.093 242.272 668.212 238.862 668.324 234.396C668.437 229.931 671.081 218.288 671.081 218.288C671.081 218.288 666.191 225.224 665.452 229.235C664.713 233.246 664.111 238.552 666.318 239.253C664.82 245.27 661.373 256.661 661.264 261.122C661.155 265.582 658.319 269.922 657.676 267.47C657.034 265.019 658.626 256.283 660.379 250.848C662.132 245.413 661.407 245.935 660.038 244.002C658.669 242.068 657.711 229.27 668.396 216.687C666.8 214.433 654.883 209.892 654.323 186.237C651.441 188.319 648.215 190.781 647.447 189.046C646.764 186.853 646.268 184.607 645.963 182.331C645.963 182.331 650.885 184.894 654.459 182.037C654.579 175.83 655.428 167.358 655.319 166.326C655.21 165.294 654.3 158.507 654.3 158.507C654.3 158.507 649.421 163.698 648.441 163.639C647.46 163.579 645.175 162.103 646.534 160.29C647.894 158.477 650.52 155.81 651.222 153.287C651.924 150.764 652.596 146.235 655.981 141.567Z" fill="black"/>
<path d="M640.238 215.834C640.238 215.834 652.595 208.71 655.585 205.918C658.574 203.127 656.182 211.3 656.182 211.3C657.537 216.145 658.356 221.125 658.624 226.149C658.774 247.375 655.186 252.757 648.409 255.547C648.409 255.547 639.425 258.736 638.644 242.392C637.996 228.839 640.836 221.814 640.836 221.814C640.836 221.814 637.248 217.03 640.238 215.834Z" fill="black"/>
<path d="M634.549 214.484C634.549 214.484 638.884 216.875 641.724 216.875C644.564 216.875 640.827 220.314 640.827 220.314C638.556 219.211 636.359 217.963 634.25 216.576L633.054 215.53L634.698 213.736L634.549 214.484Z" fill="black"/>
<path d="M654.131 207.467C655.557 202.331 656.508 197.076 656.972 191.766C657.47 183.621 659.813 202.682 655.775 209.71C651.226 217.628 650.113 218.873 654.131 207.467Z" fill="black"/>
<path d="M578.075 8.44778C576.738 10.2422 580.432 15.2533 586.322 19.6399C592.213 24.0266 598.072 26.1225 599.411 24.3257C600.749 22.5289 597.054 17.519 591.164 13.1335C585.273 8.74804 579.413 6.6522 578.075 8.44778Z" fill="black"/>
<path d="M296.376 189.735L287.733 191.675L280.294 194.399L273.622 197.506L267.733 201.017L263.024 205.297L258.71 209.96L255.184 214.622L252.049 220.071L249.69 225.904L247.728 231.751L246.56 237.972L245.777 244.188L245.376 251.194L244.987 257.813L245.376 264.816L245.777 271.815L246.943 286.21L248.912 300.213L250.865 313.834L252.049 327.056L252.431 333.278L252.827 339.508L252.431 344.954L252.049 350.401L251.259 355.452L250.08 360.115L248.13 364.01L245.777 367.9L243.809 366.731L241.451 365.176L239.105 362.073L236.346 358.562L235.179 355.838L233.999 353.113L233.21 350.004L232.432 346.891L231.642 342.999L231.259 338.722V334.057V328.994L226.537 329.78L224.191 330.546L222.235 331.334L220.667 332.121L219.098 333.278L217.913 334.842L217.131 335.997L215.562 339.508L214.771 342.999L214.395 346.891L215.173 351.174L215.956 355.452L217.53 359.731L219.483 364.01L221.451 368.673L224.191 372.568L226.938 376.849L229.692 380.353L232.826 383.462L243.408 379.572L252.431 375.288L256.351 373.351L259.494 371.013L262.642 368.673L265.384 366.347L267.733 364.01L270.086 361.285L271.654 358.96L273.221 356.236L274.405 353.514L275.191 350.791L276.757 344.954L277.159 339.119L276.757 332.504L276.369 325.886L275.191 318.498L272.839 302.936L271.654 294.377L270.864 285.437L270.486 282.713L269.696 274.928L269.296 263.258L269.696 256.642L270.086 249.25L270.864 241.465L272.432 233.695L274.405 225.52L277.159 217.749L280.683 209.96L282.646 206.467L284.998 202.956L287.356 199.462L290.092 195.952L293.239 192.844L296.376 189.735Z" fill="black"/>
<path d="M359.542 390.075V384.627L359.931 379.566L361.493 369.837L363.45 360.506L366.203 352.338L371.709 336.772L374.432 329.385L376.795 322.387L378.363 314.985L378.745 311.489V307.991V304.484L378.363 300.59L377.98 296.713L376.795 292.818L375.227 288.924L373.66 284.644L371.295 280.367L368.566 276.092L365.401 271.425L361.876 266.747L357.563 261.697L352.469 256.252L341.876 264.81L330.495 273.363L317.166 282.707L316.772 269.085L317.166 255.083L317.95 238.751L318.334 230.576L319.519 222.79L321.088 215.403L322.653 208.787L325.007 202.95L326.192 200.627L327.76 198.669L329.326 197.117L330.896 195.562L332.853 194.775H334.821L336.389 196.349L338.351 197.903L340.692 199.456L343.443 201.011L346.197 202.178L349.333 202.95L352.858 203.333L355.994 203.731L359.542 203.333L363.06 202.566L366.587 201.011L370.522 199.059L374.043 196.349L377.56 192.838L381.115 188.174L384.252 183.111L381.498 184.281L378.745 185.451L375.994 185.834L373.277 186.621H367.771L362.678 186.218L357.179 184.664L352.086 182.727L346.963 180.389L341.876 177.665L335.988 180.001L330.896 182.727L325.79 185.834L321.088 189.345L317.166 193.222L313.247 197.5L310.111 202.566L306.974 207.631L304.605 213.46L302.254 219.68L300.687 226.685L299.513 233.689L298.334 241.459L297.944 250.031V258.973L298.334 268.301L301.081 308.381L301.871 329.385L302.649 349.998V359.725V369.065L301.871 378.012L301.081 385.797L299.902 393.185L298.334 399.405L296.378 404.467L295.198 406.405L294.03 408.361L288.927 405.234L284.601 402.512L280.296 400.576L276.76 399.017L273.624 397.847L270.489 397.079L267.736 396.681H265.386L262.644 397.079L260.674 397.847L256.354 399.405L247.348 403.68L252.051 405.234L256.354 406.793L259.89 409.133L263.027 411.468L268.131 416.132L270.489 418.075L272.841 420.025L275.193 421.582L277.54 422.349L280.686 422.75L284.211 421.966L288.137 420.798L292.463 418.075L297.944 414.578L304.216 409.517L306.574 407.191L308.927 404.85L310.894 402.512L312.846 399.803L315.983 393.954L318.334 387.735L319.902 381.119L321.088 374.516L321.876 367.512V360.506V353.892L321.486 347.274L320.687 334.836L319.117 323.94L318.334 316.152L317.551 293.202L319.519 291.266L321.486 288.924L324.224 287.371L326.579 285.814L329.326 284.644L332.068 284.26L334.821 284.644L337.567 285.431L339.925 287.371L342.677 290.095L344.63 293.989L346.963 299.035L348.566 305.271L350.1 313.042L351.289 322.387L352.086 333.272L352.469 340.673V348.054L351.702 360.109L350.9 370.236L349.333 379.176L348.566 386.564L347.764 393.954V397.847L348.154 401.357L348.566 405.234L349.333 409.517L351.702 418.473L352.858 422.75L354.427 426.244L355.994 429.357L357.973 432.078L359.542 434.419L361.876 436.356L363.834 437.914L366.203 438.696L368.566 439.085H370.906L373.66 438.312L376.405 437.142L379.546 435.2L382.683 432.475L386.21 429.357L387.778 427.031L388.572 426.244V425.073V424.307L388.161 423.52L387.004 422.349L385.023 421.582L379.135 419.246L375.994 417.685L372.474 416.132L369.337 413.791L366.203 410.687L363.45 407.191L362.265 404.85L361.109 402.512L360.313 399.803L359.931 397.079L359.542 393.568V390.075Z" fill="black"/>
<path d="M443.877 301.381H443.075L436.038 295.933L432.101 292.44L428.574 288.546L424.644 284.649L421.118 280.371L417.983 275.707L415.23 271.033L412.896 266.369L411.299 261.701L410.143 257.023V252.363L410.527 250.036L410.915 247.699L411.712 245.741L412.896 243.415L414.465 241.077L416.025 239.138L417.983 237.184L420.323 235.246L425.829 237.971L431.327 241.862L436.804 246.528L442.31 251.973L447.397 258.194L449.765 261.701L451.722 265.198L453.674 269.089L455.242 272.983L456.811 276.862L457.989 281.158L459.172 278.816L460.358 276.48L461.513 271.814L461.926 266.751V261.701L460.747 257.023L459.172 251.973L456.811 246.911L453.674 242.245L450.149 237.587L446.631 232.905L442.31 228.631L437.606 224.746L432.896 220.854L427.78 217.344L422.691 214.236L417.6 211.512L412.896 218.13L408.958 224.349L405.433 230.182L402.682 235.629L399.934 241.077L397.981 246.144L395.997 251.192L394.84 255.868L394.045 260.532L393.274 264.814L392.861 268.705V272.586L393.274 276.096L393.663 279.584L394.429 283.095L395.614 286.208L397.981 291.653L401.119 296.717L404.254 301.381L407.775 305.275L411.712 308.385L414.847 311.493L420.323 315.772L425.445 320.434L429.76 325.112L433.285 330.162L436.422 334.84L438.761 339.889L441.129 344.952L442.693 350.002L443.877 355.063L444.643 359.73V364.393V368.671L444.261 372.951L443.488 376.847L442.31 380.351L441.129 383.46L439.556 386.186L437.606 388.525L435.625 390.462L433.285 391.633L430.916 392.019H428.574L425.829 391.235L423.076 390.079L420.323 387.739L417.6 385.015L414.847 381.124L412.099 376.456L409.347 370.628L406.59 364.008L403.866 356.617L401.503 347.675L399.167 337.947L397.593 343.401L396.415 349.23L395.997 355.451V362.071L396.799 368.671L397.981 375.287L399.551 381.907L401.503 388.128L403.866 393.959L406.59 399.021L409.733 403.685L412.896 407.578L414.465 408.748L416.415 410.303L417.983 411.089L419.94 411.858L421.892 412.242H423.871L425.829 411.858L427.78 411.089L431.327 409.138L435.237 406.409L439.946 402.918L444.643 398.637L449.354 393.573L454.063 387.739L458.378 381.124L462.313 374.119L463.883 370.24L465.067 366.345L466.223 362.454L467.019 358.176L467.408 353.896V349.619L467.019 345.335L466.635 340.677L465.451 335.995L463.883 331.333L461.926 326.268L459.564 321.604L456.421 316.554L452.907 311.493L448.581 306.431L443.877 301.381Z" fill="black"/>
<path d="M291.176 565.153V564.159C292.668 564.123 294.146 563.855 295.556 563.367C296.584 563.02 297.477 562.359 298.109 561.478C298.586 560.467 298.842 559.366 298.862 558.248C299.005 556.649 299.077 554.046 299.076 550.438V538.861C299.123 536.704 299.029 534.546 298.795 532.401C298.706 531.446 298.368 530.531 297.814 529.748C297.138 529.078 296.292 528.605 295.367 528.38C294.005 527.976 292.6 527.735 291.181 527.663V526.613C291.879 526.631 292.65 526.645 293.492 526.654C294.334 526.664 295.579 526.668 297.228 526.667C299.25 526.667 300.759 526.663 301.755 526.654C302.752 526.645 303.661 526.623 304.483 526.586C304.358 528.475 304.265 530.134 304.202 531.564C304.139 532.993 304.107 534.149 304.107 535.033V553.63C304.049 555.716 304.152 557.804 304.416 559.874C304.534 560.77 304.902 561.615 305.477 562.312C306.184 562.957 307.045 563.41 307.977 563.628C309.331 563.967 310.72 564.148 312.115 564.165V565.159C309.266 565.106 307.125 565.074 305.692 565.064C304.259 565.053 302.924 565.049 301.687 565.052C300.451 565.052 299.116 565.056 297.682 565.064C296.248 565.071 294.079 565.101 291.176 565.153Z" fill="black"/>
<path d="M318.337 566.526L317.799 565.371C321.841 563.468 325.542 560.912 328.751 557.805C331.425 555.142 333.436 551.888 334.622 548.306C333.356 549.062 332.003 549.662 330.592 550.092C329.311 550.473 327.981 550.668 326.645 550.67C325.124 550.745 323.604 550.499 322.184 549.95C320.764 549.4 319.476 548.559 318.402 547.48C317.327 546.4 316.492 545.108 315.949 543.685C315.406 542.263 315.168 540.742 315.25 539.222C315.189 537.477 315.49 535.74 316.136 534.118C316.781 532.497 317.755 531.027 318.998 529.801C320.276 528.574 321.787 527.617 323.442 526.987C325.098 526.357 326.863 526.066 328.633 526.132C330.432 526.034 332.233 526.309 333.921 526.941C335.609 527.572 337.148 528.546 338.442 529.801C340.825 532.248 342.016 535.612 342.016 539.893C342.029 545.792 339.807 551.477 335.796 555.803C331.646 560.479 325.826 564.054 318.337 566.526ZM335.187 546.451C335.469 545.326 335.689 544.187 335.846 543.038C335.995 541.942 336.071 540.838 336.073 539.732C336.231 536.646 335.513 533.577 334.004 530.88C333.451 529.884 332.641 529.055 331.657 528.481C330.674 527.906 329.554 527.608 328.415 527.616C327.344 527.586 326.283 527.816 325.321 528.287C324.359 528.757 323.525 529.454 322.891 530.317C321.442 532.596 320.719 535.261 320.818 537.96C320.916 540.659 321.831 543.265 323.442 545.433C324.275 546.417 325.318 547.201 326.495 547.727C327.673 548.253 328.953 548.507 330.242 548.47C331.161 548.483 332.074 548.313 332.928 547.972C333.772 547.615 334.539 547.099 335.187 546.451Z" fill="black"/>
<path d="M344.448 565.265L344.07 564.486C349.324 560.239 354.076 555.406 358.234 550.081C361.227 545.961 362.723 542.234 362.722 538.9C362.85 536.748 362.191 534.622 360.868 532.919C360.231 532.195 359.438 531.625 358.549 531.25C357.66 530.876 356.698 530.707 355.735 530.756C354.102 530.777 352.503 531.226 351.098 532.06C349.385 533.084 347.862 534.398 346.598 535.943L345.761 535.271C347.032 532.618 348.877 530.282 351.163 528.431C353.118 526.976 355.499 526.206 357.936 526.24C359.299 526.211 360.653 526.474 361.907 527.01C363.16 527.546 364.284 528.344 365.205 529.351C367.16 531.45 368.208 534.236 368.121 537.104C368.121 540.42 366.71 543.981 363.889 547.787C360.023 552.629 355.567 556.969 350.626 560.707L360.408 560.599C361.791 560.637 363.175 560.557 364.545 560.36C365.247 560.252 365.911 559.975 366.482 559.554C367.159 558.936 367.767 558.247 368.296 557.499C369.065 556.42 369.778 555.302 370.432 554.149L371.372 554.605L367.235 565.168C364.762 565.13 362.836 565.103 361.456 565.087C360.075 565.07 358.795 565.061 357.614 565.06C355.195 565.06 352.901 565.078 350.733 565.114C348.566 565.15 346.471 565.2 344.448 565.265Z" fill="black"/>
<path d="M376.17 566.527L375.633 565.371C379.675 563.47 383.375 560.913 386.583 557.806C389.258 555.143 391.269 551.889 392.456 548.307C391.189 549.063 389.835 549.663 388.424 550.093C387.143 550.474 385.813 550.668 384.477 550.67C382.956 550.745 381.436 550.5 380.016 549.95C378.596 549.401 377.308 548.559 376.233 547.48C375.159 546.401 374.324 545.108 373.781 543.686C373.238 542.263 372.999 540.743 373.081 539.222C373.02 537.478 373.322 535.74 373.967 534.118C374.613 532.497 375.588 531.027 376.831 529.802C379.518 527.437 382.974 526.132 386.553 526.132C390.132 526.132 393.589 527.437 396.275 529.802C398.658 532.248 399.849 535.612 399.849 539.893C399.861 545.792 397.639 551.477 393.628 555.803C389.478 560.48 383.658 564.054 376.17 566.527ZM393.02 546.451C393.302 545.326 393.522 544.187 393.679 543.038C393.829 541.943 393.905 540.839 393.907 539.733C394.064 536.646 393.347 533.578 391.838 530.881C391.286 529.884 390.475 529.056 389.491 528.481C388.508 527.907 387.387 527.608 386.248 527.616C385.178 527.587 384.116 527.817 383.155 528.287C382.193 528.758 381.359 529.454 380.725 530.317C379.276 532.596 378.553 535.262 378.651 537.961C378.75 540.66 379.665 543.266 381.277 545.433C382.109 546.418 383.152 547.202 384.329 547.728C385.506 548.253 386.786 548.507 388.075 548.47C388.995 548.483 389.909 548.314 390.763 547.973C391.606 547.616 392.373 547.099 393.02 546.451Z" fill="black"/>
<path d="M233.136 547.514H272.887" stroke="black" stroke-width="1.18857"/>
<path d="M420.586 547.514H460.339" stroke="black" stroke-width="1.18857"/>
<path d="M233.746 514.863L233.726 514.089C235.873 513.95 237.302 513.511 238.011 512.773C238.72 512.034 239.075 510.315 239.078 507.615V492.434C239.078 489.699 238.736 487.95 238.052 487.185C236.906 486.24 235.462 485.732 233.977 485.749V484.977C235.329 484.977 237.203 484.991 239.599 485.018C241.996 485.046 243.717 485.06 244.762 485.059C246.559 485.059 248.402 485.052 250.291 485.039C252.181 485.025 254.365 485.004 256.844 484.977L256.197 491.957H255.569C255.489 489.756 254.891 488.238 253.775 487.401C252.658 486.565 250.509 486.146 247.327 486.146H243.105V499.147H248.017C249.607 499.269 251.197 498.905 252.575 498.103C253.078 497.701 253.481 497.188 253.753 496.604C254.025 496.021 254.158 495.382 254.142 494.738L254.831 494.758C254.762 496.124 254.709 497.41 254.674 498.615C254.639 499.82 254.622 500.987 254.623 502.117C254.623 503.065 254.626 503.782 254.633 504.27C254.64 504.759 254.643 505.211 254.643 505.629H254.016C254.081 504.974 253.993 504.314 253.758 503.699C253.523 503.085 253.148 502.534 252.662 502.09C251.31 501.261 249.727 500.888 248.146 501.024H243.109V507.412C243.109 510.019 243.527 511.724 244.363 512.53C245.198 513.335 246.934 513.854 249.569 514.085V514.859H249.316C245.776 514.802 243.15 514.774 241.437 514.775C240.489 514.775 239.476 514.782 238.396 514.796L233.746 514.863Z" fill="black"/>
<path d="M259.233 499.793C259.139 497.73 259.485 495.672 260.248 493.754C261.011 491.835 262.174 490.102 263.659 488.668C266.605 485.895 270.538 484.508 275.459 484.508C277.584 484.407 279.707 484.735 281.702 485.473C283.698 486.211 285.523 487.344 287.071 488.804C288.542 490.307 289.688 492.097 290.438 494.062C291.187 496.027 291.524 498.126 291.428 500.227C291.514 502.275 291.163 504.318 290.397 506.219C289.631 508.121 288.468 509.837 286.986 511.253C284.025 514.033 280.099 515.423 275.208 515.424C273.085 515.526 270.964 515.201 268.97 514.468C266.976 513.736 265.149 512.611 263.597 511.16C262.124 509.669 260.976 507.889 260.225 505.933C259.474 503.977 259.136 501.886 259.233 499.793ZM264.334 499.186C264.164 503.032 265.281 506.824 267.51 509.962C268.421 511.264 269.636 512.324 271.049 513.051C272.462 513.778 274.031 514.149 275.62 514.133C277.12 514.178 278.609 513.865 279.964 513.222C281.32 512.579 282.503 511.623 283.418 510.433C285.504 507.58 286.545 504.096 286.365 500.567C286.37 498.789 286.138 497.019 285.676 495.303C285.263 493.724 284.599 492.221 283.711 490.852C282.738 489.29 281.418 487.974 279.853 487.006C277.803 485.866 275.417 485.486 273.115 485.934C270.813 486.381 268.743 487.627 267.269 489.451C265.201 492.261 264.163 495.697 264.328 499.183L264.334 499.186Z" fill="black"/>
<path d="M296.936 503.397V492.411C296.981 491.146 296.901 489.879 296.696 488.63C296.582 488.053 296.277 487.53 295.829 487.147C295.292 486.731 294.684 486.417 294.035 486.218C293.253 485.985 292.445 485.848 291.63 485.811V485.037C292.536 485.066 293.505 485.086 294.536 485.099C295.567 485.112 297.128 485.119 299.218 485.121C301.336 485.121 302.921 485.113 303.973 485.099C305.026 485.085 306.005 485.064 306.91 485.037L306.932 485.811C304.591 485.879 303.012 486.346 302.196 487.21C301.379 488.075 300.971 489.793 300.971 492.365V502.976C300.921 504.598 301.079 506.219 301.441 507.8C301.722 508.87 302.265 509.853 303.02 510.662C303.927 511.605 305.044 512.32 306.28 512.751C307.709 513.256 309.216 513.504 310.732 513.483C312.49 513.552 314.236 513.168 315.802 512.365C317.2 511.528 318.301 510.273 318.948 508.777C319.414 507.642 319.693 506.439 319.772 505.215C319.932 503.663 320.011 501.187 320.011 497.789C320.056 495.482 319.969 493.174 319.751 490.877C319.668 489.863 319.365 488.879 318.862 487.994C318.349 487.26 317.629 486.696 316.794 486.374C315.715 485.984 314.575 485.79 313.427 485.801V485.027C314.194 485.056 315.009 485.077 315.874 485.09C316.738 485.102 318.048 485.109 319.803 485.111C321.572 485.111 322.892 485.104 323.764 485.09C324.636 485.076 325.439 485.056 326.178 485.027V485.801H326.094C325.387 485.735 324.677 485.885 324.057 486.232C323.437 486.579 322.938 487.106 322.625 487.744C321.998 489.038 321.684 492.304 321.685 497.54C321.685 497.985 321.678 498.653 321.664 499.545C321.607 504.392 321.203 507.685 320.451 509.425C319.609 511.407 318.09 513.025 316.166 513.99C313.846 515.098 311.294 515.631 308.725 515.545C306.65 515.596 304.583 515.272 302.624 514.588C301.062 514.04 299.696 513.045 298.694 511.727C298.052 510.829 297.593 509.812 297.346 508.736C297.02 506.976 296.882 505.186 296.936 503.397Z" fill="black"/>
<path d="M328.209 514.866L328.188 514.093C330.39 513.982 331.892 513.265 332.693 511.939C333.493 510.614 333.894 507.873 333.895 503.716V495.504C333.895 495.129 333.902 494.629 333.915 494.004C333.929 493.379 333.936 492.94 333.937 492.688C333.979 491.629 333.837 490.571 333.518 489.561C333.219 488.796 332.747 488.111 332.138 487.561C331.567 487.044 330.904 486.638 330.184 486.365C329.37 486.054 328.514 485.868 327.645 485.813V485.039C328.105 485.039 328.773 485.053 329.652 485.08C330.531 485.106 331.17 485.123 331.574 485.123C331.979 485.123 332.598 485.108 333.393 485.08C334.187 485.051 334.765 485.039 335.128 485.039L356.532 507.925V498.067C356.589 495.569 356.488 493.07 356.228 490.585C356.126 489.55 355.755 488.56 355.151 487.714C354.67 487.121 354.033 486.674 353.313 486.422C352.363 486.085 351.371 485.884 350.365 485.824V485.05C351.119 485.079 351.927 485.099 352.79 485.112C353.653 485.125 354.914 485.132 356.575 485.134C358.218 485.134 359.434 485.126 360.221 485.112C361.008 485.098 361.729 485.077 362.385 485.05V485.824H362.051C361.342 485.802 360.645 486.015 360.068 486.429C359.492 486.844 359.068 487.436 358.862 488.116C358.257 489.644 357.954 492.485 357.953 496.64V505.769C357.953 507.894 357.97 509.779 358.005 511.422C358.041 513.066 358.086 514.587 358.142 515.986H357.889C357.026 514.988 356.089 513.911 355.079 512.756L353.396 510.835L335.29 491.667V500.108C335.29 504.262 335.37 507.059 335.529 508.498C335.586 509.575 335.867 510.629 336.354 511.592C336.782 512.247 337.393 512.761 338.111 513.072C339.207 513.547 340.358 513.883 341.538 514.072V514.866H341.418C338.478 514.81 336.285 514.782 334.839 514.783C334.03 514.783 333.159 514.79 332.225 514.803L328.209 514.866Z" fill="black"/>
<path d="M364.463 514.865V514.091C366.678 513.912 368.166 513.442 368.925 512.681C369.684 511.92 370.064 510.44 370.065 508.239V491.328C370.222 489.889 369.843 488.443 368.999 487.268C367.834 486.354 366.404 485.842 364.923 485.811V485.037C367.321 485.009 369.87 484.969 372.572 484.917C375.274 484.865 376.807 484.841 377.172 484.844C383.416 484.844 388.307 486.203 391.845 488.92C393.567 490.212 394.95 491.903 395.875 493.847C396.8 495.791 397.239 497.931 397.155 500.082C397.243 502.175 396.828 504.258 395.946 506.158C395.065 508.058 393.741 509.719 392.087 511.004C388.706 513.659 384.048 514.986 378.112 514.985C376.969 514.985 374.862 514.968 371.79 514.933C368.718 514.899 366.276 514.876 364.463 514.865ZM374.182 507.026C374.182 509.799 374.629 511.642 375.521 512.555C376.413 513.468 378.079 513.925 380.517 513.925C382.072 513.97 383.618 513.669 385.042 513.044C386.467 512.418 387.734 511.483 388.753 510.308C391.049 507.305 392.172 503.569 391.912 499.799C391.653 496.028 390.027 492.482 387.341 489.823C384.268 487.162 380.007 485.832 374.559 485.831H374.182V507.026Z" fill="black"/>
<path d="M397.646 514.867V514.093C399.266 514.051 400.839 513.548 402.182 512.641C402.92 511.948 403.289 510.468 403.29 508.199V491.79C403.29 489.391 402.924 487.805 402.193 487.033C401.037 486.112 399.581 485.655 398.107 485.749V484.977C399.499 485.01 400.983 485.032 402.559 485.042C404.135 485.053 406.42 485.058 409.415 485.059C412.913 485.059 415.473 485.054 417.096 485.044C418.719 485.033 420.179 485.018 421.475 484.997C421.349 485.944 421.241 486.962 421.151 488.049C421.061 489.136 420.974 490.383 420.89 491.79H420.242C420.272 490.976 420.128 490.165 419.822 489.41C419.516 488.656 419.053 487.974 418.464 487.411C417.42 486.596 415.574 486.188 412.927 486.188H407.324V498.522H411.63C413.308 498.664 414.994 498.353 416.511 497.622C417.01 497.229 417.422 496.736 417.718 496.174C418.015 495.613 418.191 494.995 418.235 494.361H418.925C418.925 495.142 418.893 496.368 418.83 498.04C418.767 499.711 418.736 501.014 418.737 501.949V504.416H418.11C418.108 503.807 417.963 503.207 417.687 502.664C417.411 502.121 417.011 501.65 416.521 501.29C415.01 500.574 413.338 500.268 411.672 500.402H407.324V508.01C407.324 510.338 407.797 511.872 408.745 512.61C409.692 513.349 411.539 513.718 414.285 513.718C416.428 513.846 418.544 513.184 420.231 511.856C421.816 510.316 422.829 508.281 423.102 506.088L423.793 506.171C423.716 507.724 423.539 509.271 423.26 510.801C423.005 512.211 422.637 513.599 422.162 514.951C420.143 514.895 417.934 514.853 415.536 514.826C413.138 514.798 410.525 514.784 407.697 514.784C405.065 514.784 403.045 514.79 401.635 514.804C400.226 514.818 398.896 514.839 397.646 514.867Z" fill="black"/>
<path d="M425.662 514.865V514.091C427.878 513.912 429.365 513.442 430.124 512.681C430.883 511.92 431.263 510.44 431.264 508.239V491.328C431.421 489.889 431.041 488.444 430.198 487.268C429.033 486.353 427.603 485.842 426.123 485.811V485.037C428.515 485.009 431.065 484.969 433.773 484.917C436.48 484.865 438.013 484.841 438.371 484.844C444.614 484.844 449.505 486.203 453.046 488.92C454.767 490.213 456.149 491.905 457.074 493.85C457.998 495.795 458.436 497.935 458.351 500.087C458.438 502.179 458.024 504.263 457.142 506.163C456.26 508.063 454.937 509.724 453.282 511.009C449.902 513.663 445.244 514.99 439.308 514.99C438.166 514.99 436.058 514.973 432.986 514.938C429.913 514.904 427.472 514.88 425.662 514.865ZM435.382 507.026C435.382 509.799 435.828 511.642 436.72 512.555C437.613 513.468 439.278 513.925 441.716 513.925C443.271 513.97 444.816 513.669 446.241 513.044C447.665 512.418 448.932 511.483 449.951 510.308C452.248 507.306 453.371 503.57 453.112 499.799C452.852 496.028 451.227 492.482 448.54 489.823C445.468 487.162 441.207 485.832 435.759 485.831H435.383L435.382 507.026Z" fill="black"/>
<path d="M246.873 429.1C246.255 428.527 245.917 428.195 245.728 428.001C245.556 427.873 245.352 427.719 245.104 427.531C243.456 426.28 241.875 425.054 240.35 423.704L85.3546 613.502L85.4742 613.621C84.5386 614.467 83.8028 615.511 83.32 616.677C82.8372 617.842 82.6195 619.1 82.6825 620.36C82.7456 621.62 83.0878 622.85 83.6846 623.962C84.2813 625.073 85.1176 626.038 86.1329 626.787C87.1483 627.535 88.3173 628.049 89.5555 628.291C90.7937 628.532 92.0701 628.495 93.2923 628.183C94.5146 627.871 95.6522 627.291 96.6229 626.485C97.5935 625.679 98.373 624.668 98.9049 623.524L255.023 433.11C251.971 432.606 249.135 431.211 246.873 429.1Z" fill="black"/>
<path d="M239.695 192.801C241.863 190.702 244.607 189.295 247.577 188.759L101.589 9.99414L88.4341 21.3548L235.598 200.834C236.052 197.782 237.491 194.961 239.695 192.801Z" fill="black"/>
<path d="M443.716 194C445.864 196.071 447.29 198.778 447.782 201.721L595.175 21.9564L582.021 10.5957L435.567 189.926C438.628 190.444 441.465 191.863 443.716 194Z" fill="black"/>
<path d="M596.761 613.625L596.88 613.505L442.495 424.459C442.197 425.446 441.786 426.396 441.273 427.291C440.178 429.251 438.622 430.914 436.739 432.136C434.856 433.358 432.703 434.102 430.467 434.303C429.921 434.584 429.357 434.826 428.778 435.028L583.333 623.527C583.864 624.672 584.643 625.685 585.613 626.493C586.584 627.3 587.722 627.881 588.946 628.194C590.169 628.508 591.446 628.545 592.685 628.303C593.925 628.062 595.095 627.548 596.111 626.799C597.127 626.049 597.964 625.083 598.561 623.971C599.158 622.858 599.499 621.626 599.562 620.365C599.624 619.104 599.405 617.845 598.92 616.679C598.436 615.513 597.698 614.471 596.761 613.625Z" fill="black"/>
<path d="M949.001 530.727L936.713 499.239H841.865L830.345 530.727C829.321 533.287 828.553 535.847 828.041 538.407C827.529 540.711 827.273 542.759 827.273 544.551C827.273 550.951 829.961 555.431 835.337 557.991C840.713 560.551 848.265 562.215 857.993 562.983V580.263H773.897V562.983C779.017 561.959 783.497 560.679 787.337 559.143C791.177 557.351 794.121 553.895 796.169 548.775L874.121 344.103L860.681 310.695H950.153L1044.23 548.775C1046.02 553.639 1048.84 556.967 1052.68 558.759C1056.52 560.551 1061.26 561.959 1066.89 562.983V580.263H922.889V562.983C931.593 562.727 938.633 561.319 944.009 558.759C949.385 555.943 952.073 551.335 952.073 544.935C952.073 543.143 951.817 541.095 951.305 538.791C950.793 536.231 950.025 533.543 949.001 530.727ZM887.945 374.439L849.929 476.967H927.881L887.945 374.439Z" fill="black"/>
<path d="M1209.14 331.047H1201.07V448.167H1209.52C1225.65 448.167 1238.32 442.919 1247.54 432.423C1257.01 421.927 1261.74 407.207 1261.74 388.263C1261.74 370.087 1257.14 356.007 1247.92 346.023C1238.7 336.039 1225.78 331.047 1209.14 331.047ZM1201.07 468.903V537.255C1201.07 546.983 1202.35 553.383 1204.91 556.455C1207.47 559.527 1215.02 561.703 1227.57 562.983V580.263H1090.48V562.983C1103.02 561.703 1110.58 559.527 1113.14 556.455C1115.7 553.383 1116.98 546.983 1116.98 537.255V353.703C1116.98 343.975 1115.7 337.575 1113.14 334.503C1110.58 331.431 1103.02 329.255 1090.48 327.975V310.695H1239.86C1270.58 310.695 1295.66 317.607 1315.12 331.431C1334.83 344.999 1344.69 363.815 1344.69 387.879C1344.69 406.567 1338.93 421.543 1327.41 432.807C1316.15 443.815 1303.6 451.751 1289.78 456.615L1340.85 531.879C1348.53 543.399 1354.67 551.335 1359.28 555.687C1363.89 560.039 1370.55 562.471 1379.25 562.983V580.263H1284.4C1279.02 576.167 1273.65 570.663 1268.27 563.751C1263.15 556.583 1257.78 548.007 1252.14 538.023L1212.59 468.903H1201.07Z" fill="black"/>
<path d="M1537.86 306.855C1555.52 306.855 1571.52 308.903 1585.86 312.999C1600.45 316.839 1613.25 322.343 1624.26 329.511L1625.79 399.015H1605.06C1600.19 375.975 1592.64 358.311 1582.4 346.023C1572.16 333.735 1558.34 327.591 1540.93 327.591C1518.15 327.591 1501.76 338.727 1491.78 360.999C1482.05 383.271 1477.19 410.407 1477.19 442.407C1477.19 476.967 1482.82 505.639 1494.08 528.423C1505.6 550.951 1522.5 562.215 1544.77 562.215C1559.62 562.215 1573.06 555.943 1585.09 543.399C1597.38 530.599 1607.49 509.479 1615.43 480.039H1636.55L1629.63 557.991C1618.63 566.183 1604.55 572.583 1587.39 577.191C1570.24 581.799 1552.19 584.103 1533.25 584.103C1488.71 584.103 1453.51 572.455 1427.65 549.159C1401.79 525.863 1388.87 493.863 1388.87 453.159C1388.87 408.103 1403.59 372.519 1433.03 346.407C1462.47 320.039 1497.41 306.855 1537.86 306.855Z" fill="black"/>
<path d="M1778.36 353.703V431.271H1867.45V353.703C1867.45 343.975 1866.17 337.575 1863.61 334.503C1861.05 331.431 1853.5 329.255 1840.95 327.975V310.695H1978.04V327.975C1965.5 329.255 1957.95 331.431 1955.39 334.503C1952.83 337.575 1951.55 343.975 1951.55 353.703V537.255C1951.55 546.983 1952.83 553.383 1955.39 556.455C1957.95 559.527 1965.5 561.703 1978.04 562.983V580.263H1840.95V562.983C1853.5 561.703 1861.05 559.527 1863.61 556.455C1866.17 553.383 1867.45 546.983 1867.45 537.255V457.383H1778.36V537.255C1778.36 546.983 1779.64 553.383 1782.2 556.455C1784.76 559.527 1792.31 561.703 1804.86 562.983V580.263H1667.77V562.983C1680.31 561.703 1687.87 559.527 1690.43 556.455C1692.99 553.383 1694.27 546.983 1694.27 537.255V353.703C1694.27 343.975 1692.99 337.575 1690.43 334.503C1687.87 331.431 1680.31 329.255 1667.77 327.975V310.695H1804.86V327.975C1792.31 329.255 1784.76 331.431 1782.2 334.503C1779.64 337.575 1778.36 343.975 1778.36 353.703Z" fill="black"/>
<path d="M2120.26 353.703V537.255C2120.26 546.983 2121.54 553.383 2124.1 556.455C2126.66 559.527 2134.21 561.703 2146.75 562.983V580.263H2009.67V562.983C2022.21 561.703 2029.76 559.527 2032.32 556.455C2034.88 553.383 2036.16 546.983 2036.16 537.255V353.703C2036.16 343.975 2034.88 337.575 2032.32 334.503C2029.76 331.431 2022.21 329.255 2009.67 327.975V310.695H2146.75V327.975C2134.21 329.255 2126.66 331.431 2124.1 334.503C2121.54 337.575 2120.26 343.975 2120.26 353.703Z" fill="black"/>
<path d="M2347.27 476.967L2392.58 360.231C2393.61 357.415 2394.5 354.727 2395.27 352.167C2396.29 349.351 2396.81 346.919 2396.81 344.871C2396.81 339.239 2395.14 335.143 2391.81 332.583C2388.74 330.023 2381.57 328.487 2370.31 327.975V310.695H2450.95V327.975C2445.32 328.999 2440.58 330.407 2436.74 332.199C2433.16 333.735 2430.34 337.063 2428.29 342.183L2329.99 581.415H2305.41L2192.52 342.183C2189.96 337.063 2187.01 333.735 2183.69 332.199C2180.36 330.407 2175.88 328.999 2170.25 327.975V310.695H2315.01V327.975C2303.75 328.487 2296.45 330.023 2293.13 332.583C2290.05 335.143 2288.52 339.239 2288.52 344.871C2288.52 346.919 2288.9 349.351 2289.67 352.167C2290.44 354.983 2291.33 357.671 2292.36 360.231L2347.27 476.967Z" fill="black"/>
<path d="M2474.46 580.263V562.983C2487 561.703 2494.55 559.527 2497.11 556.455C2499.67 553.383 2500.95 546.983 2500.95 537.255V353.703C2500.95 343.975 2499.67 337.575 2497.11 334.503C2494.55 331.431 2487 329.255 2474.46 327.975V310.695H2699.48L2701.4 387.111H2685.27C2675.03 365.607 2665.82 350.759 2657.62 342.567C2649.69 334.119 2636.5 329.895 2618.07 329.895H2585.05V429.735H2616.92C2625.88 429.735 2631.9 427.175 2634.97 422.055C2638.3 416.679 2640.73 407.335 2642.26 394.023H2660.31V488.487H2642.26C2640.73 475.175 2638.3 465.959 2634.97 460.839C2631.9 455.463 2625.88 452.775 2616.92 452.775H2585.05V535.335C2585.05 545.575 2587.48 552.487 2592.34 556.071C2597.21 559.399 2604.63 561.063 2614.62 561.063H2623.06C2640.98 561.063 2653.91 556.327 2661.85 546.855C2669.78 537.383 2680.79 519.463 2694.87 493.095H2714.07L2701.4 580.263H2474.46Z" fill="black"/>
<path d="M2846.4 584.103C2826.94 584.103 2809.02 581.671 2792.64 576.807C2776.25 571.687 2763.32 565.543 2753.85 558.375L2749.24 491.175H2771.9C2776.76 511.911 2785.6 529.319 2798.4 543.399C2811.2 557.223 2827.2 564.135 2846.4 564.135C2858.94 564.135 2869.18 561.319 2877.12 555.687C2885.05 550.055 2889.02 541.607 2889.02 530.343C2889.02 518.823 2884.54 509.863 2875.58 503.463C2866.88 497.063 2852.28 491.047 2831.8 485.415C2805.18 478.247 2784.96 467.623 2771.13 453.543C2757.31 439.463 2750.4 420.647 2750.4 397.095C2750.4 368.935 2760 346.919 2779.2 331.047C2798.65 314.919 2822.84 306.855 2851.77 306.855C2869.95 306.855 2886.2 309.031 2900.54 313.383C2915.13 317.479 2927.04 322.983 2936.25 329.895V388.647H2917.44C2912.57 370.215 2904.76 355.239 2894.01 343.719C2883.52 332.199 2869.44 326.439 2851.77 326.439C2840.76 326.439 2831.68 329.383 2824.51 335.271C2817.6 341.159 2814.14 349.351 2814.14 359.847C2814.14 371.623 2818.49 380.711 2827.2 387.111C2835.9 393.255 2849.85 399.015 2869.05 404.391C2894.4 411.559 2915 421.543 2930.88 434.343C2947 446.887 2955.07 467.239 2955.07 495.399C2955.07 526.119 2944.32 548.647 2922.81 562.983C2901.56 577.063 2876.09 584.103 2846.4 584.103Z" fill="black"/>
<path d="M883.908 170.424C883.684 178.563 884.154 186.707 885.313 194.766C885.83 198.609 887.495 202.205 890.09 205.085C892.913 207.585 896.196 209.51 899.755 210.754C904.784 212.53 909.981 213.788 915.265 214.51L915.153 218.673L889.302 218.335C883.381 218.262 877.912 218.225 872.896 218.225C863.529 218.225 849.555 218.374 830.975 218.673H830.301V214.51C835.638 213.789 840.889 212.531 845.973 210.754C849.528 209.537 852.797 207.608 855.581 205.085C858.245 202.237 859.957 198.631 860.479 194.766C861.639 186.707 862.11 178.563 861.884 170.424V66.0407H845.921C831.536 66.0407 821.046 68.2511 814.451 72.6718C807.856 77.0925 803.098 84.8467 800.178 95.9344L796.243 95.2611L800.628 50.8662H803.322L810.291 58.2833C817.482 58.2833 828.084 58.3207 842.097 58.3958C856.109 58.4709 866.6 58.5085 873.567 58.5085C880.457 58.5085 890.797 58.4709 904.587 58.3958C918.376 58.3207 928.678 58.2833 935.494 58.2833L943.136 50.8662H944.933L948.871 95.7116L945.161 96.4975C942.463 85.56 937.76 77.7496 931.054 73.066C924.348 68.3825 914.403 66.0407 901.217 66.0407H883.908V170.424Z" fill="black"/>
<path d="M949.983 218.671L949.871 214.508C956.836 214.209 961.463 212.789 963.75 210.247C966.037 207.706 967.179 201.094 967.178 190.413L966.953 84.4798C967.097 80.8571 966.661 77.2348 965.662 73.7497C964.741 71.2274 963.216 68.9691 961.22 67.1724L955.265 62.1158V60.0908L983.474 48.6284L985.834 49.7523L984.495 127.288C991.327 122.537 998.635 118.51 1006.3 115.27C1011.91 112.806 1017.94 111.433 1024.06 111.224C1034.77 111.224 1042.6 114.254 1047.55 120.314C1052.49 126.374 1055.15 136.25 1055.53 149.943L1056.54 193.219C1056.84 202.488 1058.07 208.187 1060.25 210.316C1062.42 212.445 1066.84 213.846 1073.51 214.52V218.683C1070.66 218.536 1067.46 218.424 1063.9 218.345C1060.34 218.267 1054.89 218.23 1047.55 218.235C1040.2 218.235 1034.62 218.272 1030.8 218.345C1026.98 218.419 1023.46 218.531 1020.24 218.683L1020.12 214.52C1027.24 213.774 1031.98 212.205 1034.34 209.812C1036.7 207.418 1037.88 202.486 1037.88 195.014C1037.88 194.417 1037.84 193.295 1037.77 191.65C1037.69 190.004 1037.66 188.698 1037.66 187.732L1037.21 161.041C1036.91 147.96 1034.49 138.487 1029.96 132.624C1025.43 126.76 1018.32 123.826 1008.66 123.821C1004.78 123.841 1000.93 124.466 997.245 125.672C992.935 127.115 988.806 129.052 984.94 131.443V190.19C984.94 200.058 986.158 206.507 988.594 209.535C991.03 212.563 995.881 214.226 1003.15 214.523L1003.04 218.686C999.89 218.539 996.444 218.426 992.695 218.348C988.947 218.269 983.365 218.233 975.949 218.237C968.756 218.237 963.362 218.274 959.766 218.348C956.169 218.421 952.909 218.529 949.983 218.671Z" fill="black"/>
<path d="M1162.67 191.022L1165.93 193.833C1160.74 201.748 1153.87 208.424 1145.81 213.389C1138.43 217.778 1130 220.071 1121.42 220.02C1114.95 220.135 1108.52 218.855 1102.59 216.266C1096.65 213.677 1091.35 209.84 1087.03 205.016C1077.66 194.823 1072.66 181.368 1073.09 167.532C1072.72 152.791 1078.06 138.477 1087.99 127.576C1092.47 122.379 1098.04 118.223 1104.3 115.399C1110.56 112.575 1117.36 111.15 1124.23 111.224C1135.69 111.224 1144.92 114.446 1151.93 120.891C1158.93 127.336 1162.73 136.14 1163.34 147.303C1150.52 146.853 1138.37 146.515 1126.87 146.292C1115.37 146.068 1104.45 145.956 1094.1 145.954C1093.59 148.023 1093.21 150.126 1092.98 152.247C1092.75 154.45 1092.64 156.663 1092.64 158.878C1092.21 171.078 1096.38 182.994 1104.33 192.259C1107.89 196.494 1112.35 199.882 1117.39 202.176C1122.42 204.47 1127.91 205.613 1133.44 205.521C1139.01 205.567 1144.51 204.317 1149.51 201.87C1154.65 199.279 1159.15 195.573 1162.67 191.022ZM1140.08 140.222C1139.12 133.808 1136.53 127.749 1132.55 122.63C1130.99 120.702 1129.02 119.151 1126.78 118.091C1124.55 117.031 1122.1 116.49 1119.62 116.508C1116.73 116.51 1113.86 117.105 1111.2 118.255C1108.55 119.406 1106.15 121.088 1104.17 123.198C1099.41 128.227 1096.23 134.535 1095.01 141.348L1140.08 140.222Z" fill="black"/>
<path d="M1403.07 200.71V204.872C1391.39 210.262 1379.24 214.565 1366.77 217.728C1355.93 220.456 1344.8 221.869 1333.62 221.937C1305.97 221.937 1283.75 214.463 1266.97 199.515C1250.18 184.566 1241.79 164.879 1241.79 140.455C1241.65 128.764 1243.99 117.177 1248.65 106.454C1253.41 95.8987 1260.43 86.5178 1269.22 78.9751C1278.11 71.1574 1288.43 65.1449 1299.62 61.2735C1311.61 57.1741 1324.21 55.1413 1336.88 55.2619C1346.18 55.2816 1355.46 56.0711 1364.64 57.6224C1374.32 59.2547 1383.86 61.6212 1393.18 64.7016C1392.81 70.8478 1392.49 77.3108 1392.23 84.0904C1391.97 90.8701 1391.76 98.119 1391.61 105.837H1388.12C1384.68 91.3083 1378.33 80.2002 1369.07 72.5129C1359.82 64.8257 1348.08 60.9893 1333.84 61.004C1314.21 61.004 1298.36 67.5788 1286.3 80.7283C1274.24 93.8778 1268.2 111.242 1268.21 132.822C1268.16 143.297 1270.09 153.687 1273.88 163.45C1277.67 173.157 1283.25 182.06 1290.35 189.69C1297.73 197.613 1306.79 203.779 1316.87 207.732C1327.63 212.015 1339.12 214.171 1350.7 214.079C1358.19 214.079 1363.19 212.92 1365.7 210.602C1368.21 208.284 1369.47 203.31 1369.47 195.68V173.688C1369.47 164.564 1367.3 158.116 1362.95 154.344C1358.6 150.571 1350.51 148.196 1338.67 147.218V143.055C1344.82 143.172 1350.83 143.276 1356.71 143.366C1362.59 143.456 1368.46 143.502 1374.3 143.503C1380.29 143.503 1386.19 143.466 1392 143.39C1397.81 143.315 1403.48 143.203 1409.03 143.055L1409.14 147.218C1402.18 148.117 1397.51 150.119 1395.15 153.222C1392.79 156.325 1391.61 162.889 1391.61 172.912V200.739L1403.07 200.71Z" fill="black"/>
<path d="M1436.42 157.008V97.9359C1436.66 91.1352 1436.23 84.3272 1435.13 77.6118C1434.51 74.5049 1432.87 71.6955 1430.46 69.6363C1427.57 67.402 1424.29 65.7089 1420.8 64.6385C1416.59 63.3861 1412.25 62.6502 1407.87 62.447V58.2842C1412.74 58.436 1417.95 58.5486 1423.5 58.6221C1429.04 58.6956 1437.43 58.733 1448.67 58.7346C1460.06 58.7346 1468.58 58.6972 1474.24 58.6221C1479.89 58.547 1485.16 58.4344 1490.03 58.2842L1490.14 62.447C1477.55 62.8241 1469.06 65.3331 1464.67 69.9742C1460.28 74.6153 1458.09 83.8616 1458.1 97.7131V154.768C1457.83 163.487 1458.68 172.206 1460.63 180.709C1462.14 186.461 1465.05 191.747 1469.11 196.092C1473.99 201.164 1480 205.012 1486.65 207.324C1494.33 210.042 1502.43 211.373 1510.58 211.257C1520.03 211.633 1529.42 209.565 1537.84 205.25C1545.35 200.756 1551.27 194.02 1554.75 185.989C1557.26 179.887 1558.76 173.419 1559.19 166.837C1560.05 158.489 1560.48 145.184 1560.48 126.924C1560.72 114.517 1560.25 102.106 1559.08 89.7524C1558.63 84.3002 1557 79.0108 1554.3 74.2521C1551.54 70.308 1547.67 67.2777 1543.17 65.5494C1537.38 63.4476 1531.25 62.401 1525.08 62.4591V58.2964C1529.2 58.4483 1533.58 58.5609 1538.23 58.6344C1542.88 58.7078 1549.92 58.7453 1559.36 58.7469C1568.88 58.7469 1575.98 58.7094 1580.66 58.6344C1585.35 58.5593 1589.67 58.4466 1593.64 58.2964V62.4591H1593.19C1584.12 62.4591 1577.91 65.9413 1574.53 72.9054C1571.16 79.8695 1569.48 97.4233 1569.48 125.567C1569.48 127.96 1569.45 131.552 1569.37 136.341C1569.07 162.4 1566.9 180.113 1562.86 189.478C1558.33 200.132 1550.16 208.83 1539.81 214.019C1529.1 219.594 1515.77 222.383 1499.8 222.386C1488.64 222.656 1477.53 220.905 1466.99 217.217C1458.59 214.264 1451.25 208.914 1445.86 201.829C1442.41 197.008 1439.94 191.55 1438.61 185.771C1436.86 176.289 1436.12 166.647 1436.42 157.008Z" fill="black"/>
<path d="M1602.26 218.668V214.505C1613.95 213.834 1621.86 211.423 1625.98 207.272C1630.1 203.12 1632.16 193.906 1632.16 179.628V97.2051C1632.16 83.0027 1630.13 73.8439 1626.09 69.7284C1622.04 65.613 1614.1 63.1829 1602.26 62.4385V58.2759C1606.91 58.2759 1613.86 58.3509 1623.11 58.5011C1632.37 58.6513 1639.28 58.7263 1643.85 58.7263C1648.42 58.7263 1655.22 58.6513 1664.25 58.5011C1673.28 58.3509 1680 58.2759 1684.42 58.2759V62.4385C1672.58 63.1878 1664.64 65.6553 1660.59 69.841C1656.55 74.0266 1654.52 83.148 1654.52 97.2051V179.628C1654.52 193.831 1656.56 203.045 1660.64 207.272C1664.73 211.498 1672.65 213.909 1684.41 214.505L1684.3 218.668C1672.91 218.443 1664.43 218.312 1658.85 218.276C1653.27 218.24 1648.04 218.221 1643.18 218.22C1638.3 218.22 1633.08 218.239 1627.5 218.276C1621.93 218.314 1613.52 218.444 1602.26 218.668Z" fill="black"/>
<path d="M1693.54 218.669V214.506C1705.46 213.539 1713.46 211.009 1717.54 206.915C1721.62 202.821 1723.66 194.86 1723.66 183.033V92.1174C1723.66 81.5064 1721.75 74.229 1717.93 70.2849C1714.11 66.3409 1706.8 63.7289 1696.02 62.4491V58.2863C1708.9 58.1393 1722.61 57.9329 1737.15 57.6668C1751.69 57.4007 1759.94 57.2701 1761.88 57.275C1795.45 57.275 1821.75 64.5802 1840.78 79.1908C1859.82 93.8013 1869.33 113.807 1869.33 139.208C1869.33 164.085 1860.25 183.66 1842.08 197.931C1823.91 212.202 1798.86 219.34 1766.94 219.344C1760.8 219.344 1749.46 219.25 1732.94 219.06C1716.42 218.871 1703.29 218.74 1693.54 218.669ZM1745.81 176.522C1745.81 191.434 1748.2 201.343 1753 206.249C1757.79 211.154 1766.75 213.609 1779.86 213.612C1788.22 213.857 1796.53 212.239 1804.19 208.876C1811.85 205.513 1818.66 200.488 1824.14 194.167C1835.6 181.205 1841.34 164.272 1841.34 143.366C1841.34 118.119 1833.08 98.3379 1816.55 84.0245C1800.03 69.711 1777.12 62.5552 1747.83 62.5568H1745.81V176.522Z" fill="black"/>
<path d="M1883.97 137.637C1883.97 112.688 1891.89 92.757 1907.74 77.8444C1923.58 62.9318 1944.73 55.4772 1971.18 55.4805C1997.18 55.4805 2018 63.1783 2033.62 78.5741C2049.25 93.9698 2057.07 114.444 2057.06 139.997C2057.06 164.576 2049.1 184.337 2033.17 199.283C2017.25 214.228 1996.14 221.702 1969.84 221.705C1943.84 221.705 1923.03 214.063 1907.4 198.778C1891.78 183.493 1883.96 163.113 1883.97 137.637ZM1911.39 134.377C1911.39 158.048 1917.09 177.361 1928.47 192.316C1939.86 207.271 1954.4 214.745 1972.08 214.739C1980.15 214.979 1988.15 213.3 1995.44 209.842C2002.73 206.383 2009.09 201.244 2014 194.846C2024.57 181.583 2029.85 163.901 2029.85 141.797C2029.88 132.232 2028.64 122.706 2026.14 113.473C2023.92 104.98 2020.36 96.8979 2015.58 89.5345C2010.34 81.1415 2003.25 74.0658 1994.84 68.8552C1983.82 62.7291 1970.99 60.689 1958.62 63.0945C1946.24 65.5 1935.11 72.1967 1927.18 82.0047C1916.65 95.2668 1911.39 112.724 1911.39 134.377Z" fill="black"/>
<path d="M2056.52 218.671L2056.41 214.509C2068.25 213.911 2076.32 210.046 2080.63 202.912C2084.94 195.778 2087.1 181.042 2087.1 158.703V114.555C2087.1 112.538 2087.13 109.849 2087.21 106.489C2087.28 103.13 2087.32 100.776 2087.32 99.4272C2087.55 93.7369 2086.79 88.0507 2085.07 82.6195C2083.47 78.5066 2080.93 74.8231 2077.65 71.8598C2074.58 69.078 2071.02 66.8932 2067.14 65.4173C2062.77 63.748 2058.16 62.7466 2053.49 62.447V58.2842C2055.96 58.2842 2059.56 58.3594 2064.28 58.5096C2069 58.6597 2072.45 58.7348 2074.62 58.7348C2076.87 58.7348 2080.13 58.6597 2084.4 58.5096C2088.67 58.3594 2091.78 58.2842 2093.73 58.2842L2208.81 181.339V128.339C2208.81 108.465 2208.27 95.0554 2207.18 88.1093C2206.64 82.5381 2204.64 77.2072 2201.39 72.6458C2198.8 69.4635 2195.38 67.0589 2191.5 65.6965C2186.4 63.879 2181.07 62.7851 2175.66 62.447V58.2842C2179.7 58.436 2184.05 58.5486 2188.7 58.6221C2193.34 58.6956 2200.12 58.7332 2209.04 58.7348C2217.88 58.7348 2224.42 58.6972 2228.65 58.6221C2232.88 58.547 2236.76 58.4344 2240.28 58.2842V62.447H2238.48C2230.32 62.447 2224.61 66.5568 2221.34 74.7763C2218.08 82.9957 2216.45 98.2723 2216.45 120.606V169.688C2216.45 181.115 2216.54 191.249 2216.73 200.091C2216.92 208.932 2217.16 217.112 2217.46 224.629H2216.11C2211.47 219.252 2206.43 213.461 2201 207.256L2191.94 196.92L2094.61 93.9372V139.321C2094.61 161.662 2095.04 176.697 2095.9 184.426C2096.76 192.156 2098.24 197.707 2100.34 201.078C2102.64 204.594 2105.92 207.36 2109.78 209.033C2115.67 211.595 2121.87 213.405 2128.21 214.42V218.691H2127.54C2111.72 218.392 2099.92 218.243 2092.13 218.243C2087.79 218.243 2083.1 218.28 2078.08 218.353L2056.52 218.671Z" fill="black"/>
</svg>
