<svg width="17" height="16" viewBox="0 0 17 16" fill="none" xmlns="http://www.w3.org/2000/svg">
<g id="ic20-fullscreen">
<path id="Icon" fill-rule="evenodd" clip-rule="evenodd" d="M6.0918 1.59961C6.53362 1.59961 6.8918 1.95778 6.8918 2.39961C6.8918 2.80988 6.58296 3.14802 6.18509 3.19423L6.0918 3.19961H3.6918V5.59961C3.6918 6.00988 3.38296 6.34801 2.98509 6.39423L2.8918 6.39961C2.48153 6.39961 2.14339 6.09078 2.09718 5.69291L2.0918 5.59961V2.39961C2.0918 1.98934 2.40063 1.6512 2.7985 1.60499L2.8918 1.59961H6.0918ZM2.98509 9.60499L2.8918 9.59961L2.7985 9.60499C2.43123 9.64765 2.13984 9.93905 2.09718 10.3063L2.0918 10.3996V13.5996L2.09718 13.6929C2.13984 14.0602 2.43123 14.3516 2.7985 14.3942L2.8918 14.3996H6.0918L6.18509 14.3942C6.58296 14.348 6.8918 14.0099 6.8918 13.5996C6.8918 13.1893 6.58296 12.8512 6.18509 12.805L6.0918 12.7996H3.6918V10.3996L3.68641 10.3063C3.64376 9.93905 3.35236 9.64765 2.98509 9.60499ZM14.8864 10.3063C14.8402 9.90844 14.5021 9.59961 14.0918 9.59961L13.9985 9.60499C13.6006 9.6512 13.2918 9.98934 13.2918 10.3996V12.7996H10.8918L10.7985 12.805C10.4006 12.8512 10.0918 13.1893 10.0918 13.5996C10.0918 14.0414 10.45 14.3996 10.8918 14.3996H14.0918L14.1851 14.3942C14.583 14.348 14.8918 14.0099 14.8918 13.5996V10.3996L14.8864 10.3063ZM14.1851 1.60499L14.0918 1.59961H10.8918L10.7985 1.60499C10.4006 1.6512 10.0918 1.98934 10.0918 2.39961C10.0918 2.80988 10.4006 3.14802 10.7985 3.19423L10.8918 3.19961H13.2918V5.59961L13.2972 5.69291C13.3398 6.06017 13.6312 6.35157 13.9985 6.39423L14.0918 6.39961L14.1851 6.39423C14.5524 6.35157 14.8438 6.06017 14.8864 5.69291L14.8918 5.59961V2.39961L14.8864 2.30631C14.8438 1.93905 14.5524 1.64765 14.1851 1.60499Z" fill="white"/>
</g>
</svg>
