<svg
  xmlns="http://www.w3.org/2000/svg"
  width="16"
  height="16"
  viewBox="0 0 16 16"
  fill="none"
>
  <path
    fill-rule="evenodd"
    clip-rule="evenodd"
    d="M5.60156 1.60126C6.04339 1.60126 6.40156 1.95943 6.40156 2.40126C6.40156 2.81153 6.09273 3.14966 5.69486 3.19588L5.60156 3.20126H3.20156V5.60126C3.20156 6.01153 2.89273 6.34966 2.49486 6.39587L2.40156 6.40126C1.99129 6.40126 1.65316 6.09242 1.60694 5.69455L1.60156 5.60126V2.40126C1.60156 1.99099 1.91039 1.65285 2.30827 1.60664L2.40156 1.60126H5.60156ZM2.49486 9.60664L2.40156 9.60126L2.30827 9.60664C1.941 9.6493 1.6496 9.94069 1.60694 10.308L1.60156 10.4013V13.6013L1.60694 13.6946C1.6496 14.0618 1.941 14.3532 2.30827 14.3959L2.40156 14.4013H5.60156L5.69486 14.3959C6.09273 14.3497 6.40156 14.0115 6.40156 13.6013C6.40156 13.191 6.09273 12.8529 5.69486 12.8066L5.60156 12.8013H3.20156V10.4013L3.19618 10.308C3.15352 9.94069 2.86212 9.6493 2.49486 9.60664ZM14.3962 10.308C14.35 9.91009 14.0118 9.60126 13.6016 9.60126L13.5083 9.60664C13.1104 9.65285 12.8016 9.99099 12.8016 10.4013V12.8013H10.4016L10.3083 12.8066C9.91039 12.8529 9.60156 13.191 9.60156 13.6013C9.60156 14.0431 9.95973 14.4013 10.4016 14.4013H13.6016L13.6949 14.3959C14.0927 14.3497 14.4016 14.0115 14.4016 13.6013V10.4013L14.3962 10.308ZM13.6949 1.60664L13.6016 1.60126H10.4016L10.3083 1.60664C9.91039 1.65285 9.60156 1.99099 9.60156 2.40126C9.60156 2.81153 9.91039 3.14966 10.3083 3.19588L10.4016 3.20126H12.8016V5.60126L12.8069 5.69455C12.8496 6.06182 13.141 6.35322 13.5083 6.39587L13.6016 6.40126L13.6949 6.39587C14.0621 6.35322 14.3535 6.06182 14.3962 5.69455L14.4016 5.60126V2.40126L14.3962 2.30796C14.3535 1.94069 14.0621 1.6493 13.6949 1.60664Z"
    fill="white"
  />
</svg>
