<svg width="25" height="25" viewBox="0 0 25 25" fill="none" xmlns="http://www.w3.org/2000/svg">
<g id="basil:instagram-solid">
<path id="Vector" d="M12.5 9.25C11.638 9.25 10.8114 9.59241 10.2019 10.2019C9.59241 10.8114 9.25 11.638 9.25 12.5C9.25 13.362 9.59241 14.1886 10.2019 14.7981C10.8114 15.4076 11.638 15.75 12.5 15.75C13.362 15.75 14.1886 15.4076 14.7981 14.7981C15.4076 14.1886 15.75 13.362 15.75 12.5C15.75 11.638 15.4076 10.8114 14.7981 10.2019C14.1886 9.59241 13.362 9.25 12.5 9.25Z" fill="#1C4480"/>
<path id="Vector_2" fill-rule="evenodd" clip-rule="evenodd" d="M7.26994 3.58194C10.746 3.19664 14.2539 3.19664 17.7299 3.58194C19.6289 3.79394 21.1599 5.28894 21.3829 7.19494C21.7952 10.7196 21.7952 14.2803 21.3829 17.8049C21.1599 19.7109 19.6289 21.2059 17.7309 21.4189C14.2546 21.8043 10.7463 21.8043 7.26994 21.4189C5.37094 21.2059 3.83994 19.7109 3.61694 17.8059C3.20467 14.281 3.20467 10.7199 3.61694 7.19494C3.83994 5.28894 5.37094 3.79394 7.26994 3.58194ZM17.4999 6.49994C17.2347 6.49994 16.9804 6.6053 16.7928 6.79284C16.6053 6.98037 16.4999 7.23473 16.4999 7.49994C16.4999 7.76516 16.6053 8.01951 16.7928 8.20705C16.9804 8.39459 17.2347 8.49994 17.4999 8.49994C17.7652 8.49994 18.0195 8.39459 18.2071 8.20705C18.3946 8.01951 18.4999 7.76516 18.4999 7.49994C18.4999 7.23473 18.3946 6.98037 18.2071 6.79284C18.0195 6.6053 17.7652 6.49994 17.4999 6.49994ZM7.74994 12.4999C7.74994 11.2402 8.25039 10.032 9.14119 9.14119C10.032 8.25039 11.2402 7.74994 12.4999 7.74994C13.7597 7.74994 14.9679 8.25039 15.8587 9.14119C16.7495 10.032 17.2499 11.2402 17.2499 12.4999C17.2499 13.7597 16.7495 14.9679 15.8587 15.8587C14.9679 16.7495 13.7597 17.2499 12.4999 17.2499C11.2402 17.2499 10.032 16.7495 9.14119 15.8587C8.25039 14.9679 7.74994 13.7597 7.74994 12.4999Z" fill="#1C4480"/>
</g>
</svg>
