<svg width="23" height="23" viewBox="0 0 23 23" fill="none" xmlns="http://www.w3.org/2000/svg">
<g id="ic20-menu">
<path id="Icon" fill-rule="evenodd" clip-rule="evenodd" d="M18.9417 15.5989C19.5571 15.5989 20.056 16.0978 20.056 16.7131C20.056 17.3285 19.5571 17.8274 18.9417 17.8274H3.34273C2.72737 17.8274 2.22852 17.3285 2.22852 16.7131C2.22852 16.0978 2.72737 15.5989 3.34273 15.5989H18.9417ZM18.9417 10.0279C19.5571 10.0279 20.056 10.5267 20.056 11.1421C20.056 11.7574 19.5571 12.2563 18.9417 12.2563H3.34273C2.72737 12.2563 2.22852 11.7574 2.22852 11.1421C2.22852 10.5267 2.72737 10.0279 3.34273 10.0279H18.9417ZM18.9417 4.45679C19.5571 4.45679 20.056 4.95564 20.056 5.571C20.056 6.18637 19.5571 6.68522 18.9417 6.68522H3.34273C2.72737 6.68522 2.22852 6.18637 2.22852 5.571C2.22852 4.95564 2.72737 4.45679 3.34273 4.45679H18.9417Z" fill="white"/>
</g>
</svg>
