<svg
  width="24"
  height="24"
  viewBox="0 0 24 24"
  fill="none"
  xmlns="http://www.w3.org/2000/svg"
>
  <path
    fill-rule="evenodd"
    clip-rule="evenodd"
    d="M10.8004 2.40039C15.4396 2.40039 19.2004 6.1612 19.2004 10.8004C19.2004 12.692 18.5751 14.4377 17.5199 15.8418L17.5858 15.8933L17.6489 15.9519L21.2489 19.5519C21.7175 20.0205 21.7175 20.7803 21.2489 21.2489C20.8163 21.6815 20.1357 21.7148 19.6649 21.3487L19.5519 21.2489L15.9519 17.6489C15.9108 17.6079 15.8734 17.5646 15.8395 17.5195C14.4377 18.5751 12.692 19.2004 10.8004 19.2004C6.1612 19.2004 2.40039 15.4396 2.40039 10.8004C2.40039 6.1612 6.1612 2.40039 10.8004 2.40039ZM10.8004 4.80039C7.48668 4.80039 4.80039 7.48668 4.80039 10.8004C4.80039 14.1141 7.48668 16.8004 10.8004 16.8004C14.1141 16.8004 16.8004 14.1141 16.8004 10.8004C16.8004 7.48668 14.1141 4.80039 10.8004 4.80039Z"
    fill="white"
  />
</svg>
