<svg width="24" height="24" viewBox="0 0 24 24" fill="none" xmlns="http://www.w3.org/2000/svg">
<g id="ic20-search">
<path id="Icon" fill-rule="evenodd" clip-rule="evenodd" d="M10.7999 2.3999C15.4391 2.3999 19.1999 6.16071 19.1999 10.7999C19.1999 12.6916 18.5746 14.4372 17.5195 15.8413L17.5853 15.8928L17.6484 15.9514L21.2484 19.5514C21.7171 20.02 21.7171 20.7798 21.2484 21.2484C20.8158 21.681 20.1352 21.7143 19.6644 21.3483L19.5514 21.2484L15.9514 17.6484C15.9103 17.6074 15.8729 17.5641 15.839 17.519C14.4372 18.5746 12.6916 19.1999 10.7999 19.1999C6.16071 19.1999 2.3999 15.4391 2.3999 10.7999C2.3999 6.16071 6.16071 2.3999 10.7999 2.3999ZM10.7999 4.7999C7.48619 4.7999 4.7999 7.48619 4.7999 10.7999C4.7999 14.1136 7.48619 16.7999 10.7999 16.7999C14.1136 16.7999 16.7999 14.1136 16.7999 10.7999C16.7999 7.48619 14.1136 4.7999 10.7999 4.7999Z" fill="#1C4480"/>
</g>
</svg>
