<svg width="25" height="25" viewBox="0 0 25 25" fill="none" xmlns="http://www.w3.org/2000/svg">
<g id="mdi:spotify">
<path id="Vector" d="M18.4 11.4C15.2 9.5 9.85 9.3 6.8 10.25C6.3 10.4 5.8 10.1 5.65 9.65C5.5 9.15 5.8 8.65 6.25 8.5C9.8 7.45 15.65 7.65 19.35 9.85C19.8 10.1 19.95 10.7 19.7 11.15C19.45 11.5 18.85 11.65 18.4 11.4ZM18.3 14.2C18.05 14.55 17.6 14.7 17.25 14.45C14.55 12.8 10.45 12.3 7.3 13.3C6.9 13.4 6.45 13.2 6.35 12.8C6.25 12.4 6.45 11.95 6.85 11.85C10.5 10.75 15 11.3 18.1 13.2C18.4 13.35 18.55 13.85 18.3 14.2ZM17.1 16.95C16.9 17.25 16.55 17.35 16.25 17.15C13.9 15.7 10.95 15.4 7.45 16.2C7.1 16.3 6.8 16.05 6.7 15.75C6.6 15.4 6.85 15.1 7.15 15C10.95 14.15 14.25 14.5 16.85 16.1C17.2 16.25 17.25 16.65 17.1 16.95ZM12.5 2.5C11.1868 2.5 9.88642 2.75866 8.67317 3.2612C7.45991 3.76375 6.35752 4.50035 5.42893 5.42893C3.55357 7.3043 2.5 9.84784 2.5 12.5C2.5 15.1522 3.55357 17.6957 5.42893 19.5711C6.35752 20.4997 7.45991 21.2362 8.67317 21.7388C9.88642 22.2413 11.1868 22.5 12.5 22.5C15.1522 22.5 17.6957 21.4464 19.5711 19.5711C21.4464 17.6957 22.5 15.1522 22.5 12.5C22.5 11.1868 22.2413 9.88642 21.7388 8.67317C21.2362 7.45991 20.4997 6.35752 19.5711 5.42893C18.6425 4.50035 17.5401 3.76375 16.3268 3.2612C15.1136 2.75866 13.8132 2.5 12.5 2.5Z" fill="#1C4480"/>
</g>
</svg>
