<svg width="18" height="22" viewBox="0 0 18 22" fill="none" xmlns="http://www.w3.org/2000/svg">
<g clip-path="url(#clip0_2647_7199)">
<path d="M13.6621 12.1447C13.6171 12.3842 13.5807 12.6162 13.5293 12.8448C13.3556 13.6203 13.0576 14.3407 12.559 14.968C12.0957 15.551 11.5093 15.9583 10.8105 16.2094C10.0637 16.4785 9.29028 16.5422 8.51239 16.446C7.36987 16.3049 6.37617 15.8529 5.69692 14.8787C5.19949 14.1645 5.02442 13.3642 5.16494 12.501C5.37727 11.1977 6.17832 10.3854 7.34941 9.88009C8.27593 9.47995 9.2565 9.40756 10.2463 9.43265C10.7515 9.4452 11.2553 9.51546 11.7597 9.55928C11.7826 9.5614 11.806 9.55928 11.8591 9.55928C11.832 9.423 11.8135 9.29503 11.7818 9.17053C11.601 8.4795 11.2638 7.90042 10.6003 7.56591C10.2492 7.38871 9.87167 7.30358 9.48079 7.281C8.85057 7.2449 8.2408 7.31961 7.6818 7.63791C7.34737 7.82615 7.06382 8.09301 6.85565 8.41541L5.35642 7.39238C5.44772 7.26459 5.52686 7.13797 5.62164 7.02428C6.22349 6.3041 6.98092 5.81787 7.88949 5.59184C8.70425 5.38897 9.52847 5.38414 10.3552 5.5542C11.102 5.70765 11.7616 6.02479 12.3196 6.54403C12.6985 6.89669 12.9852 7.31845 13.2019 7.78692C13.522 8.47892 13.6845 9.2099 13.7231 9.96811C13.7291 10.0816 13.7779 10.1385 13.8744 10.1804C14.7141 10.5433 15.4368 11.0684 16.0199 11.7735C16.4656 12.3117 16.7852 12.9429 16.9551 13.6207C17.229 14.6949 17.1991 15.7614 16.8503 16.8126C16.5351 17.7625 15.9803 18.5608 15.2596 19.2493C14.6552 19.8263 13.9792 20.2979 13.2191 20.6449C12.5327 20.9565 11.8061 21.1706 11.0603 21.2809C10.0011 21.4434 8.92524 21.4669 7.85996 21.3508C6.79099 21.2336 5.7639 20.9775 4.79781 20.5048C3.83171 20.0321 2.9909 19.3874 2.30006 18.5518C1.51483 17.6032 0.968568 16.5319 0.613209 15.3593C0.0655957 13.5512 -0.0878595 11.7021 0.044942 9.82372C0.107482 8.9387 0.231597 8.06391 0.452805 7.20321C0.768208 5.97094 1.261 4.82051 2.02422 3.79631C2.84291 2.69761 3.88351 1.87925 5.14602 1.34123C5.99746 0.977373 6.88537 0.769678 7.80244 0.659074C8.98048 0.517498 10.1733 0.558516 11.3389 0.78068C13.0581 1.10612 14.5682 1.84116 15.795 3.10953C16.5546 3.89456 17.1304 4.80313 17.5423 5.81189C17.7066 6.21434 17.8371 6.63031 17.9816 7.04049C17.9921 7.07041 17.9917 7.10419 18 7.16152L16.2739 7.62053C16.1126 7.18487 15.9832 6.77315 15.8107 6.38073C15.0891 4.746 13.9287 3.56121 12.2306 2.93639C10.9059 2.449 9.54256 2.33318 8.14564 2.47197C7.27027 2.55864 6.42771 2.75745 5.63245 3.1352C4.5681 3.64054 3.73539 4.40222 3.12466 5.41174C2.7856 5.9764 2.51789 6.58094 2.32766 7.21151C2.11359 7.91007 1.96091 8.62368 1.90822 9.35409C1.86266 9.99629 1.79375 10.6408 1.81441 11.2818C1.83815 12.0227 1.93022 12.7631 2.02673 13.4993C2.11379 14.1726 2.31145 14.8227 2.56083 15.4535C2.84593 16.175 3.22696 16.8402 3.73829 17.431C4.42855 18.2286 5.2794 18.7822 6.26692 19.1297C6.95332 19.3715 7.66211 19.5279 8.39117 19.5485C8.98202 19.5653 9.57576 19.5767 10.1647 19.5379C11.2578 19.4659 12.2922 19.177 13.2131 18.5599C13.9312 18.0788 14.541 17.4907 14.9311 16.7051C15.2995 15.9615 15.4136 15.1802 15.2679 14.3587C15.0942 13.3889 14.5458 12.6902 13.7372 12.1692C13.7132 12.1582 13.688 12.15 13.6621 12.1447ZM11.922 11.4731C11.838 11.4492 11.7847 11.4287 11.729 11.4193C10.78 11.2567 9.82708 11.2069 8.87218 11.3421C8.39464 11.41 7.93794 11.5438 7.54687 11.847C7.18012 12.1323 6.95216 12.4977 6.93112 12.9666C6.90197 13.6134 7.28745 14.1479 7.95512 14.422C8.55697 14.6692 9.17755 14.7005 9.81067 14.5864C10.5218 14.4585 11.0543 14.0788 11.402 13.4443C11.6297 13.0283 11.7531 12.5778 11.8324 12.114C11.8677 11.9072 11.8913 11.6949 11.922 11.4731Z" fill="white"/>
</g>
<defs>
<clipPath id="clip0_2647_7199">
<rect width="18" height="20.8467" fill="white" transform="translate(0 0.57666)"/>
</clipPath>
</defs>
</svg>
