<svg width="25" height="25" viewBox="0 0 25 25" fill="none" xmlns="http://www.w3.org/2000/svg">
<g id="bi:youtube" clip-path="url(#clip0_1569_22017)">
<path id="Vector" d="M12.5765 3.49805H12.71C13.943 3.50255 20.1905 3.54755 21.875 4.00055C22.3842 4.1388 22.8483 4.40828 23.2207 4.78206C23.5932 5.15584 23.861 5.62082 23.9975 6.13055C24.149 6.70055 24.2555 7.45505 24.3275 8.23355L24.3425 8.38955L24.3755 8.77955L24.3875 8.93555C24.485 10.3065 24.497 11.5905 24.4985 11.871V11.9835C24.497 12.2745 24.4835 13.6455 24.3755 15.0735L24.3635 15.231L24.35 15.387C24.275 16.245 24.164 17.097 23.9975 17.724C23.8615 18.234 23.5938 18.6992 23.2212 19.073C22.8487 19.4469 22.3844 19.7162 21.875 19.854C20.135 20.322 13.5215 20.355 12.605 20.3565H12.392C11.9285 20.3565 10.0115 20.3475 8.0015 20.2785L7.7465 20.2695L7.616 20.2635L7.3595 20.253L7.103 20.2425C5.438 20.169 3.8525 20.0505 3.122 19.8525C2.61273 19.7148 2.1486 19.4457 1.77609 19.0722C1.40358 18.6986 1.13577 18.2337 0.9995 17.724C0.833 17.0985 0.722 16.245 0.647 15.387L0.635 15.2295L0.623 15.0735C0.548971 14.0571 0.50795 13.0386 0.5 12.0195L0.5 11.835C0.503 11.5125 0.515 10.398 0.596 9.16805L0.6065 9.01355L0.611 8.93555L0.623 8.77955L0.656 8.38955L0.671 8.23355C0.743 7.45505 0.8495 6.69905 1.001 6.13055C1.13704 5.62062 1.40474 5.15541 1.77727 4.78157C2.1498 4.40773 2.61405 4.13839 3.1235 4.00055C3.854 3.80555 5.4395 3.68555 7.1045 3.61055L7.3595 3.60005L7.6175 3.59105L7.7465 3.58655L8.003 3.57605C9.43056 3.53011 10.8587 3.50461 12.287 3.49955H12.5765V3.49805ZM10.1 8.31305V15.54L16.3355 11.928L10.1 8.31305Z" fill="#1C4480"/>
</g>
<defs>
<clipPath id="clip0_1569_22017">
<rect width="24" height="24" fill="white" transform="translate(0.5 0.5)"/>
</clipPath>
</defs>
</svg>
