<svg
  xmlns="http://www.w3.org/2000/svg"
  width="20"
  height="20"
  viewBox="0 0 20 20"
  fill="none"
>
  <path
    fill-rule="evenodd"
    clip-rule="evenodd"
    d="M9 2.0014C12.866 2.0014 16 5.13541 16 9.0014C16 10.5778 15.4789 12.0325 14.5996 13.2026L14.6545 13.2455L14.7071 13.2943L17.7071 16.2943C18.0976 16.6848 18.0976 17.318 17.7071 17.7085C17.3466 18.069 16.7794 18.0967 16.3871 17.7917L16.2929 17.7085L13.2929 14.7085C13.2587 14.6743 13.2275 14.6382 13.1993 14.6006C12.031 15.4803 10.5764 16.0014 9 16.0014C5.13401 16.0014 2 12.8674 2 9.0014C2 5.13541 5.13401 2.0014 9 2.0014ZM8.99986 4.00057C6.23844 4.00057 3.99986 6.23914 3.99986 9.00057C3.99986 11.762 6.23844 14.0006 8.99986 14.0006C11.7613 14.0006 13.9999 11.762 13.9999 9.00057C13.9999 6.23914 11.7613 4.00057 8.99986 4.00057ZM11.0004 8.00029C11.5527 8.00029 12.0004 8.448 12.0004 9.00029C12.0004 9.55257 11.5527 10.0003 11.0004 10.0003H7.00042C6.44813 10.0003 6.00042 9.55257 6.00042 9.00029C6.00042 8.448 6.44813 8.00029 7.00042 8.00029H11.0004Z"
    fill="white"
  />
</svg>
