<svg width="21" height="20" viewBox="0 0 21 20" fill="none" xmlns="http://www.w3.org/2000/svg">
<g id="ic20-zoom-in">
<path id="Icon" fill-rule="evenodd" clip-rule="evenodd" d="M9.49219 1.99951C13.3582 1.99951 16.4922 5.13352 16.4922 8.99951C16.4922 10.5759 15.9711 12.0306 15.0918 13.2007L15.1467 13.2436L15.1993 13.2924L18.1993 16.2924C18.5898 16.6829 18.5898 17.3161 18.1993 17.7066C17.8388 18.0671 17.2716 18.0948 16.8793 17.7898L16.7851 17.7066L13.7851 14.7066C13.7509 14.6724 13.7197 14.6363 13.6915 14.5987C12.5232 15.4784 11.0686 15.9995 9.49219 15.9995C5.62619 15.9995 2.49219 12.8655 2.49219 8.99951C2.49219 5.13352 5.62619 1.99951 9.49219 1.99951ZM9.49135 3.99972C6.72993 3.99972 4.49135 6.2383 4.49135 8.99972C4.49135 11.7611 6.72993 13.9997 9.49135 13.9997C12.2528 13.9997 14.4913 11.7611 14.4913 8.99972C14.4913 6.2383 12.2528 3.99972 9.49135 3.99972ZM9.49191 5.99958C10.0442 5.99958 10.4919 6.4473 10.4919 6.99958V7.99958H11.4919C12.0442 7.99958 12.4919 8.4473 12.4919 8.99958C12.4919 9.55187 12.0442 9.99958 11.4919 9.99958H10.4919V10.9996C10.4919 11.5519 10.0442 11.9996 9.49191 11.9996C8.93962 11.9996 8.49191 11.5519 8.49191 10.9996V9.99958H7.49191C6.93962 9.99958 6.49191 9.55187 6.49191 8.99958C6.49191 8.4473 6.93962 7.99958 7.49191 7.99958H8.49191V6.99958C8.49191 6.4473 8.93962 5.99958 9.49191 5.99958Z" fill="white"/>
</g>
</svg>
