<svg
  xmlns="http://www.w3.org/2000/svg"
  width="20"
  height="20"
  viewBox="0 0 20 20"
  fill="none"
>
  <path
    fill-rule="evenodd"
    clip-rule="evenodd"
    d="M9.00098 2.0014C12.867 2.0014 16.001 5.13541 16.001 9.0014C16.001 10.5778 15.4799 12.0325 14.6006 13.2026L14.6555 13.2455L14.7081 13.2943L17.7081 16.2943C18.0986 16.6848 18.0986 17.318 17.7081 17.7085C17.3476 18.069 16.7804 18.0967 16.3881 17.7917L16.2939 17.7085L13.2939 14.7085C13.2597 14.6743 13.2285 14.6382 13.2002 14.6006C12.032 15.4803 10.5774 16.0014 9.00098 16.0014C5.13498 16.0014 2.00098 12.8674 2.00098 9.0014C2.00098 5.13541 5.13498 2.0014 9.00098 2.0014ZM9.00014 4.00057C6.23872 4.00057 4.00014 6.23914 4.00014 9.00057C4.00014 11.762 6.23872 14.0006 9.00014 14.0006C11.7616 14.0006 14.0001 11.762 14.0001 9.00057C14.0001 6.23914 11.7616 4.00057 9.00014 4.00057ZM9.0007 6.00112C9.55298 6.00112 10.0007 6.44884 10.0007 7.00112V8.00112H11.0007C11.553 8.00112 12.0007 8.44884 12.0007 9.00112C12.0007 9.55341 11.553 10.0011 11.0007 10.0011H10.0007V11.0011C10.0007 11.5534 9.55298 12.0011 9.0007 12.0011C8.44841 12.0011 8.0007 11.5534 8.0007 11.0011V10.0011H7.0007C6.44841 10.0011 6.0007 9.55341 6.0007 9.00112C6.0007 8.44884 6.44841 8.00112 7.0007 8.00112H8.0007V7.00112C8.0007 6.44884 8.44841 6.00112 9.0007 6.00112Z"
    fill="white"
  />
</svg>
