<svg width="2955" height="629" viewBox="0 0 2955 629" fill="none" xmlns="http://www.w3.org/2000/svg">
<path d="M105.868 8.44828C107.204 10.2413 103.513 15.2487 97.6275 19.6321C91.7416 24.0155 85.8855 26.1098 84.5503 24.3143C83.2151 22.5189 86.9039 17.5127 92.7899 13.1305C98.6759 8.74832 104.531 6.65404 105.868 8.44828Z" fill="white"/>
<path d="M99.0652 9.19168C99.0652 10.8858 98.5629 12.542 97.6218 13.9507C96.6807 15.3595 95.3431 16.4575 93.778 17.1061C92.2129 17.7547 90.4906 17.9247 88.8289 17.5947C87.1672 17.2646 85.6407 16.4492 84.4423 15.2517C83.2439 14.0541 82.4275 12.5282 82.0963 10.8667C81.765 9.20524 81.9338 7.48285 82.5813 5.91731C83.2288 4.35176 84.326 3.01334 85.7341 2.07125C87.1421 1.12916 88.7979 0.625696 90.4921 0.624514C91.6177 0.623729 92.7323 0.844744 93.7724 1.27493C94.8125 1.70512 95.7577 2.33605 96.5539 3.13166C97.35 3.92728 97.9816 4.87198 98.4125 5.91179C98.8434 6.95159 99.0652 8.06612 99.0652 9.19168Z" fill="white"/>
<path d="M584.274 9.78884C584.274 11.4833 584.776 13.1396 585.718 14.5485C586.659 15.9574 587.997 17.0554 589.562 17.7039C591.128 18.3523 592.85 18.522 594.512 18.1914C596.174 17.8608 597.701 17.0449 598.899 15.8467C600.097 14.6486 600.913 13.1221 601.243 11.4602C601.574 9.79835 601.404 8.07578 600.756 6.51033C600.107 4.94489 599.009 3.60688 597.601 2.66551C596.192 1.72413 594.535 1.22168 592.841 1.22168C590.569 1.22168 588.39 2.12429 586.783 3.73094C585.176 5.3376 584.274 7.51669 584.274 9.78884Z" fill="white"/>
<path d="M94.1072 24.8916C94.1072 24.8916 49.4545 79.5197 33.9148 114.783C33.9148 114.783 25.3476 134.308 25.3476 137.894C25.3476 141.48 23.4494 149.448 31.2192 150.046C38.9891 150.644 27.3403 169.471 18.9727 180.229C10.6052 190.987 5.82376 216.09 3.1342 237.905C0.444635 259.721 1.04232 305.144 13.2948 314.707C25.5472 324.27 30.0239 322.776 30.9264 338.316C31.8289 353.855 30.0298 374.177 41.6846 386.728C53.3394 399.279 52.144 418.405 51.8452 422.29C51.5464 426.175 62.6035 397.486 58.7185 376.866C54.8336 356.246 50.351 353.557 57.5232 326.96C64.6953 300.363 64.3965 299.765 58.1208 292.593C51.8452 285.421 45.8684 282.432 61.1093 261.514C76.3501 240.595 100.257 210.711 99.9585 199.355C99.6597 187.999 94.2805 184.712 90.3956 181.723C86.5107 178.735 84.7176 179.034 91.8898 177.539C99.062 176.045 146.876 142.276 165.106 113.289C147.474 104.025 125.653 98.3466 94.1072 24.8916Z" stroke="white" stroke-width="3.58609"/>
<path d="M121.569 77.5282C121.569 77.5282 130.336 92.8671 119.578 158.016C101.647 171.962 98.8574 173.953 98.8574 173.953C98.8574 173.953 105.632 140.882 104.834 111.794C104.037 82.7065 92.283 26.5257 92.283 26.5257L94.1083 24.8916L121.569 77.5282Z" fill="white"/>
<path d="M73.9606 51.4292C73.9606 51.4292 90.6957 102.232 86.5119 178.138C90.3083 181.536 93.716 185.344 96.6725 189.494C94.8084 187.65 92.5451 186.26 90.0578 185.431C87.5704 184.601 84.9257 184.356 82.3282 184.712C73.3629 185.907 66.1908 190.091 64.9954 172.758C63.8001 155.426 72.7653 112.393 51.8464 83.1063C66.7885 59.7967 73.9606 51.4292 73.9606 51.4292Z" fill="white"/>
<path d="M35.1132 111.199C35.1132 111.199 48.8599 124.348 51.8483 147.657C54.8367 170.967 53.0437 196.667 71.5718 199.058C90.0999 201.449 99.9616 199.357 99.9616 199.357L89.5022 224.16C89.5022 224.16 64.3996 228.942 54.8367 206.23C45.2738 183.518 50.6529 153.634 31.2283 150.048C22.5619 147.06 25.3507 137.896 25.3507 137.896L35.1132 111.199Z" fill="white"/>
<path d="M28.5342 166.777C28.5342 166.777 39.2925 173.949 41.6832 203.833C44.0739 233.717 73.958 243.878 73.958 243.878L57.2229 267.187C57.2229 267.187 42.2809 252.843 38.6948 239.694C35.1087 226.545 36.3041 198.454 10.0061 200.845C12.3968 189.489 24.3504 172.754 28.5342 166.777Z" fill="white"/>
<path d="M5.82805 215.794C5.82805 215.794 20.7701 234.92 27.3446 249.862C33.9191 264.804 54.2402 289.906 54.2402 289.906L62.0101 297.676L62.6077 307.837C62.6077 307.837 53.6425 302.458 45.275 297.079C36.9075 291.699 32.7237 284.527 27.3446 277.355C21.9654 270.183 14.7933 263.608 1.64429 257.034C2.2005 243.215 3.59768 229.443 5.82805 215.794Z" fill="white"/>
<path d="M2.23657 274.362C2.23657 274.362 16.5809 294.085 21.96 297.074C27.3392 300.062 45.2696 305.441 50.051 314.406C54.8325 323.372 57.8209 329.348 57.8209 329.348L53.6371 350.865C53.6371 350.865 48.258 333.532 39.8905 328.153C31.5229 322.774 11.2018 315.602 8.81106 310.223C6.42034 304.844 2.23657 274.362 2.23657 274.362Z" fill="white"/>
<path d="M29.7346 336.524C29.7346 336.524 39.8952 353.259 45.2743 360.431C50.6535 367.603 59.6187 381.948 59.6187 381.948L57.8256 402.269C57.8256 402.269 56.6303 387.327 49.4581 382.545C42.2859 377.764 32.1253 372.982 32.1253 370.592C32.1253 368.201 29.7346 336.524 29.7346 336.524Z" fill="white"/>
<path d="M342.318 465.424C427.701 465.424 496.918 396.208 496.918 310.824C496.918 225.441 427.701 156.225 342.318 156.225C256.935 156.225 187.718 225.441 187.718 310.824C187.718 396.208 256.935 465.424 342.318 465.424Z" stroke="white" stroke-width="7.17218"/>
<path d="M484.882 311.226C484.882 339.343 476.545 366.829 460.924 390.208C445.303 413.586 423.1 431.808 397.123 442.568C371.146 453.328 342.562 456.144 314.985 450.659C287.408 445.173 262.077 431.634 242.195 411.752C222.313 391.87 208.773 366.539 203.287 338.962C197.802 311.385 200.617 282.801 211.377 256.823C222.137 230.846 240.358 208.644 263.737 193.022C287.116 177.401 314.601 169.063 342.719 169.063C380.423 169.063 416.582 184.041 443.243 210.702C469.904 237.362 484.882 273.522 484.882 311.226Z" stroke="white" stroke-width="2.39072"/>
<path d="M517.443 114.579C517.443 114.579 548.318 100.036 565.053 75.3304C591.555 36.2026 592.153 24.9268 592.153 24.9268C592.153 24.9268 623.232 74.5343 639.967 75.132C656.702 75.7297 659.691 75.7297 664.472 102.625C669.254 129.521 677.062 192.707 688.579 217.18C694.954 230.728 687.384 252.244 684.196 261.011C682.903 264.562 670.649 295.277 686.586 320.779C711.009 359.858 663.874 447.487 663.874 447.487C663.874 447.487 674.235 378.754 657.5 349.468C640.765 320.181 609.485 292.09 609.485 274.16C609.485 256.229 616.658 241.885 614.267 231.127C611.876 220.369 608.888 217.978 605.899 195.266C602.911 172.554 601.118 159.405 582.59 158.807C564.062 158.21 552.706 154.624 517.443 114.579Z" stroke="white" stroke-width="3.58609"/>
<path d="M558.142 85.1563C562.168 91.5946 571.837 99.6788 577.828 90.4434C582.619 83.0561 576.432 73.9474 571.031 68.7488C568.534 66.3425 564.726 70.1414 567.229 72.5513C570.476 75.6783 574.05 80.1382 574.202 84.8121C574.345 89.1967 570.13 89.9796 567.297 87.6953C565.516 86.2007 563.992 84.4239 562.786 82.4357C560.952 79.5023 556.296 82.1966 558.142 85.1504V85.1563Z" fill="white"/>
<path d="M600.741 101.87C598.323 98.623 594.265 92.0999 589.754 91.8716C585.313 91.6457 581.147 93.6575 579.466 97.8723C576.535 105.212 584.669 113.693 590.966 115.786C594.3 116.894 598.049 115.308 600.207 112.733C602.901 109.516 602.281 105.423 600.741 101.87C599.367 98.6935 594.733 101.436 596.097 104.584C597.173 107.072 596.893 109.647 594.098 110.612C591.911 111.367 589.393 109.081 587.976 107.744C585.816 105.712 582.012 99.4598 586.414 97.7372C588.993 96.726 589.378 97.191 590.746 98.4377C592.719 100.312 594.511 102.368 596.097 104.58C598.144 107.329 602.816 104.651 600.741 101.87Z" fill="white"/>
<path d="M625.639 123.51C623.291 120.063 620.253 114.496 616.118 113.022C614.98 112.566 613.757 112.362 612.532 112.424C611.307 112.486 610.11 112.811 609.023 113.379C607.937 113.947 606.985 114.743 606.235 115.713C605.485 116.683 604.954 117.804 604.678 118.999C603.168 125.684 608.547 134.099 614.958 136.181C622.754 138.714 628.233 131.289 625.912 124.158C624.842 120.874 619.647 122.28 620.724 125.592C621.478 127.907 621.526 130.226 618.881 131.162C616.654 131.948 614.514 129.91 613.098 128.497C611.305 126.704 607.353 119.712 611.374 118.127C615.708 116.418 619.024 123.34 620.995 126.235C622.936 129.068 627.6 126.379 625.639 123.51Z" fill="white"/>
<path d="M640.461 153.311C639.542 149.114 638.894 143.078 636.001 139.727C632.026 135.12 626.383 136.718 624.011 141.919C621.184 148.122 623.533 156.763 627.872 161.721C628.849 162.764 630.122 163.481 631.52 163.774C632.918 164.068 634.372 163.924 635.685 163.363C639.308 161.66 640.26 157.689 640.556 154.027C640.836 150.56 635.455 150.594 635.177 154.027C635.058 155.515 634.594 159.542 632.136 158.323C630.746 157.633 629.906 155.129 629.408 153.814C628.695 151.884 628.288 149.855 628.202 147.799C628.137 146.43 628.618 142.331 630.435 142.242C633.577 142.086 634.797 152.572 635.273 154.742C636.02 158.129 641.201 156.692 640.461 153.311Z" fill="white"/>
<path d="M651.325 190.289C650.911 185.012 650.031 179.782 648.695 174.66C647.099 169.368 641.113 169.53 639.076 174.447C636.446 180.804 636.196 191.507 639.327 197.707C640.544 200.117 643.23 202 645.931 200.409C649.564 198.272 650.905 194.273 651.325 190.289C651.683 186.84 646.303 186.876 645.944 190.289C645.814 191.515 644.63 197.187 643.588 193.72C642.988 191.302 642.711 188.816 642.765 186.325C642.723 184.679 642.801 183.031 642.92 181.39C643.035 180.215 643.242 179.05 643.538 177.907C643.658 177.533 643.77 177.16 643.886 176.787C644.74 175.858 644.561 175.506 643.349 175.732C644.699 176.826 644.794 182.02 645.049 183.621C645.398 185.834 645.69 188.057 645.944 190.283C646.328 193.695 651.712 193.732 651.325 190.289Z" fill="white"/>
<path d="M570.497 88.2437C574.322 93.2415 579.025 98.4665 584.81 101.162C587.934 102.617 590.668 97.9811 587.525 96.5168C584.404 94.9113 581.597 92.7568 579.24 90.1563C578.155 89.0542 577.127 87.8935 576.126 86.7149C575.805 86.3359 575.489 85.9498 575.177 85.5625C574.927 85.2529 574.735 84.9947 575.144 85.5291C573.066 82.8156 568.39 85.4896 570.5 88.2449L570.497 88.2437Z" fill="white"/>
<path d="M594.964 111.925C600.286 115.187 605.576 118.522 610.702 122.085C613.559 124.071 616.244 119.405 613.417 117.44C608.291 113.877 603.001 110.542 597.679 107.28C594.713 105.461 592.012 110.116 594.964 111.925Z" fill="white"/>
<path d="M617.739 130.83C621.523 134.807 624.795 139.243 627.476 144.034C629.182 147.053 633.83 144.344 632.12 141.318C629.203 136.133 625.649 131.332 621.541 127.028C619.135 124.517 615.335 128.33 617.739 130.83Z" fill="white"/>
<path d="M633.277 159.714C637.683 164.483 639.851 171.429 640.952 177.653C641.55 181.065 646.738 179.615 646.14 176.219C644.875 169.055 642.117 161.357 637.079 155.906C634.722 153.353 630.927 157.167 633.277 159.709V159.714Z" fill="white"/>
<path d="M642.452 192.96C641.451 199.68 643.278 206.932 645.141 213.317C646.111 216.639 651.302 215.224 650.329 211.883C648.975 207.523 648.087 203.031 647.679 198.484C647.601 197.35 647.582 196.213 647.622 195.077C647.631 194.753 647.85 192.969 647.64 194.386C648.145 190.995 642.962 189.536 642.452 192.952V192.96Z" fill="white"/>
<path d="M624.872 180.232C624.872 180.232 623.542 176.815 621.62 176.952C622.137 181.86 622.192 182.378 622.52 185.475C622.847 188.572 622.878 194.327 624.139 204.466C625.401 214.605 629.832 239.978 625.399 264.031C622.48 267.599 620.35 269.41 620.498 261.725C620.647 254.04 622.37 217.138 620.278 211.978C618.187 206.817 614.237 204.313 612.084 204.13C615.339 208.632 617.188 213.998 617.396 219.55C617.498 222.327 617.015 258.126 617.344 261.224C617.673 264.323 618.136 274.206 623.041 269.277C623.842 275.025 624.071 275.345 626.292 278.05C628.513 280.755 626.644 286.902 625.077 290.397C623.51 293.892 629.944 305.951 630.991 308.532C632.038 311.113 638.612 316.451 642.347 309.428C644.646 303.668 637.098 308.318 636.669 307.934C636.24 307.55 632.336 307.635 627.74 297.232C631.995 289.851 633.62 281.378 632.691 278.087C631.762 274.796 627.477 270.938 627.477 270.938C627.477 270.938 632.637 266.585 633.977 268.26C635.317 269.935 636.794 272.902 635.188 277.884C637.501 279.617 642.368 281.665 643.298 284.956C644.228 288.247 647.278 285.974 647.327 282.743C647.224 281.108 646.68 279.532 645.752 278.182C644.824 276.832 643.547 275.759 642.058 275.077C639.653 274.312 640.319 273.275 641.03 269.007C641.741 264.74 640.082 252.731 629.293 264.277C630.122 259.297 638.646 231.802 634.622 212.047C637.282 207.9 640.129 200.422 640.405 197.513C640.681 194.603 638.911 184.214 638.911 184.214C638.911 184.214 637.074 204.088 633.719 209.013C632.454 204.364 630.186 199.401 630.076 198.367C629.966 197.333 629.404 190.165 629.404 190.165C629.404 190.165 634.226 184.459 634.983 182.452C635.739 180.445 637.262 174.682 635.848 175.986C634.434 177.291 631.863 180.464 630.827 179.886C629.792 179.307 628.42 177.117 624.872 180.232Z" fill="white"/>
<path d="M655.708 141.505C655.956 138.393 656.609 135.328 657.65 132.385C658.168 137.295 658.225 137.811 658.551 140.911C658.878 144.01 659.944 148.593 660.863 159.12C661.782 169.646 663.09 198.525 671.128 208.569C674.098 205.519 676.121 202.671 674.545 196.925C672.97 191.179 665.939 165.567 665.32 157.292C664.755 150.571 665.69 143.809 668.056 137.493C667.258 150.044 668.579 155.079 669.025 157.47C669.471 159.861 676.613 187.093 676.94 190.193C677.266 193.293 678.77 202.01 673.975 207.978C674.429 214.112 674.311 214.823 673.071 221.419C671.832 228.015 674.466 229.101 676.361 228.705C678.256 228.31 677.888 248.668 677.556 252.803C677.225 256.937 675.658 269.673 669.098 273.577C666.199 273.657 670.975 265.687 671.24 264.523C674.216 256.499 675.682 247.993 675.563 239.436C670.813 242.169 667.934 238.759 668.046 234.296C668.158 229.832 670.801 218.194 670.801 218.194C670.801 218.194 665.914 225.127 665.175 229.137C664.436 233.146 663.835 238.45 666.04 239.15C664.544 245.165 661.098 256.551 660.989 261.01C660.88 265.469 658.045 269.807 657.403 267.356C656.761 264.906 658.352 256.173 660.104 250.741C661.857 245.308 661.132 245.83 659.764 243.897C658.395 241.964 657.437 229.171 668.118 216.594C666.522 214.341 654.61 209.802 654.051 186.156C651.17 188.237 647.945 190.699 647.177 188.964C646.495 186.772 645.999 184.527 645.694 182.252C645.694 182.252 650.614 184.814 654.187 181.958C654.307 175.754 655.155 167.285 655.047 166.253C654.938 165.222 654.028 158.438 654.028 158.438C654.028 158.438 649.151 163.627 648.171 163.567C647.191 163.508 644.906 162.033 646.265 160.22C647.625 158.408 650.25 155.743 650.951 153.22C651.653 150.698 652.325 146.171 655.708 141.505Z" fill="white"/>
<path d="M639.972 215.742C639.972 215.742 652.324 208.62 655.312 205.83C658.3 203.04 655.91 211.209 655.91 211.209C657.264 216.053 658.082 221.03 658.351 226.052C658.5 247.27 654.914 252.649 648.14 255.438C648.14 255.438 639.159 258.626 638.379 242.289C637.731 228.742 640.57 221.719 640.57 221.719C640.57 221.719 636.984 216.938 639.972 215.742Z" fill="white"/>
<path d="M634.284 214.396C634.284 214.396 638.618 216.787 641.457 216.787C644.296 216.787 640.56 220.223 640.56 220.223C638.29 219.122 636.094 217.874 633.986 216.488L632.79 215.442L634.434 213.649L634.284 214.396Z" fill="white"/>
<path d="M653.857 207.376C655.283 202.244 656.233 196.992 656.696 191.687C657.195 183.548 659.535 202.595 655.501 209.617C650.955 217.529 649.843 218.774 653.857 207.376Z" fill="white"/>
<path d="M577.834 8.44828C576.498 10.2413 580.189 15.2487 586.075 19.6321C591.961 24.0155 597.816 26.1098 599.154 24.3143C600.491 22.5189 596.799 17.5127 590.913 13.1305C585.027 8.74832 579.171 6.65404 577.834 8.44828Z" fill="white"/>
<path d="M296.252 189.653L287.613 191.592L280.177 194.315L273.508 197.421L267.622 200.93L262.914 205.209L258.601 209.87L255.078 214.53L251.943 219.977L249.586 225.807L247.624 231.652L246.457 237.871L245.675 244.084L245.273 251.087L244.885 257.703L245.273 264.703L245.675 271.699L246.84 286.088L248.808 300.086L250.76 313.701L251.943 326.917L252.326 333.136L252.721 339.364L252.326 344.808L251.943 350.253L251.154 355.302L249.976 359.963L248.026 363.856L245.675 367.744L243.707 366.575L241.35 365.021L239.005 361.919L236.247 358.41L235.08 355.687L233.902 352.964L233.113 349.856L232.335 346.744L231.546 342.853L231.162 338.579V333.916V328.854L226.443 329.64L224.097 330.406L222.142 331.194L220.575 331.98L219.006 333.136L217.822 334.7L217.04 335.855L215.472 339.364L214.681 342.853L214.305 346.744L215.083 351.025L215.866 355.302L217.439 359.579L219.391 363.856L221.359 368.517L224.097 372.41L226.843 376.689L229.596 380.192L232.729 383.3L243.307 379.411L252.326 375.129L256.244 373.193L259.386 370.856L262.532 368.517L265.273 366.192L267.622 363.856L269.973 361.132L271.54 358.808L273.107 356.085L274.291 353.364L275.076 350.642L276.642 344.808L277.043 338.976L276.642 332.363L276.253 325.748L275.076 318.363L272.725 302.808L271.54 294.252L270.751 285.316L270.373 282.593L269.583 274.811L269.184 263.145L269.583 256.533L269.973 249.144L270.751 241.362L272.318 233.595L274.291 225.423L277.043 217.656L280.566 209.87L282.528 206.379L284.879 202.869L287.236 199.376L289.971 195.868L293.116 192.761L296.252 189.653Z" fill="white"/>
<path d="M359.392 389.91V384.464L359.781 379.405L361.342 369.681L363.298 360.353L366.05 352.189L371.554 336.629L374.276 329.245L376.638 322.25L378.205 314.851L378.587 311.357V307.86V304.354L378.205 300.462L377.822 296.587L376.638 292.693L375.07 288.801L373.504 284.523L371.14 280.247L368.412 275.974L365.248 271.31L361.725 266.633L357.414 261.585L352.321 256.143L341.733 264.697L330.357 273.246L317.033 282.587L316.64 268.97L317.033 254.974L317.817 238.649L318.201 230.477L319.386 222.694L320.954 215.31L322.519 208.698L324.871 202.863L326.056 200.541L327.623 198.584L329.189 197.032L330.758 195.478L332.714 194.692H334.682L336.249 196.265L338.21 197.817L340.55 199.37L343.3 200.924L346.053 202.091L349.187 202.863L352.711 203.246L355.845 203.644L359.392 203.246L362.909 202.479L366.434 200.924L370.368 198.973L373.887 196.265L377.403 192.755L380.956 188.093L384.092 183.032L381.339 184.201L378.587 185.371L375.837 185.754L373.121 186.54H367.617L362.526 186.138L357.03 184.585L351.939 182.648L346.818 180.311L341.733 177.588L335.848 179.923L330.758 182.648L325.654 185.754L320.954 189.263L317.033 193.139L313.116 197.415L309.982 202.479L306.846 207.542L304.478 213.368L302.128 219.586L300.561 226.587L299.388 233.589L298.21 241.356L297.82 249.925V258.862L298.21 268.186L300.956 308.25L301.745 329.245L302.523 349.85V359.573V368.909L301.745 377.852L300.956 385.634L299.777 393.019L298.21 399.236L296.254 404.296L295.074 406.233L293.908 408.188L288.806 405.062L284.482 402.342L280.179 400.406L276.644 398.848L273.51 397.678L270.376 396.911L267.624 396.513H265.275L262.534 396.911L260.565 397.678L256.247 399.236L247.244 403.509L251.946 405.062L256.247 406.621L259.781 408.96L262.917 411.294L268.019 415.956L270.376 417.898L272.727 419.848L275.078 421.404L277.424 422.17L280.569 422.571L284.093 421.788L288.017 420.62L292.341 417.898L297.82 414.403L304.089 409.344L306.446 407.019L308.798 404.679L310.765 402.342L312.716 399.634L315.851 393.788L318.201 387.571L319.768 380.958L320.954 374.357L321.742 367.356V360.353V353.742L321.352 347.127L320.554 334.694L318.984 323.803L318.201 316.017L317.418 293.077L319.386 291.142L321.352 288.801L324.088 287.249L326.443 285.692L329.189 284.523L331.93 284.139L334.682 284.523L337.426 285.31L339.783 287.249L342.534 289.972L344.486 293.864L346.818 298.908L348.421 305.141L349.953 312.909L351.143 322.25L351.939 333.13L352.321 340.528V347.906L351.555 359.956L350.753 370.079L349.187 379.015L348.421 386.4L347.619 393.788V397.678L348.009 401.187L348.421 405.062L349.187 409.344L351.555 418.296L352.711 422.571L354.279 426.064L355.845 429.175L357.824 431.896L359.392 434.235L361.725 436.172L363.682 437.729L366.05 438.511L368.412 438.899H370.752L373.504 438.127L376.248 436.957L379.388 435.016L382.523 432.293L386.049 429.175L387.616 426.85L388.409 426.064V424.893V424.127L387.999 423.341L386.842 422.17L384.863 421.404L378.977 419.068L375.837 417.508L372.319 415.956L369.183 413.616L366.05 410.513L363.298 407.019L362.114 404.679L360.958 402.342L360.163 399.634L359.781 396.911L359.392 393.402V389.91Z" fill="white"/>
<path d="M443.692 301.257H442.891L435.857 295.811L431.921 292.319L428.396 288.427L424.467 284.531L420.943 280.255L417.809 275.594L415.057 270.921L412.724 266.259L411.128 261.593L409.972 256.917V252.259L410.356 249.933L410.744 247.597L411.54 245.64L412.724 243.315L414.292 240.978L415.852 239.039L417.809 237.086L420.148 235.15L425.652 237.873L431.148 241.762L436.623 246.427L442.126 251.869L447.211 258.087L449.578 261.593L451.534 265.089L453.486 268.978L455.053 272.871L456.621 276.748L457.799 281.042L458.981 278.702L460.167 276.366L461.321 271.701L461.734 266.641V261.593L460.555 256.917L458.981 251.869L456.621 246.809L453.486 242.145L449.962 237.489L446.445 232.809L442.126 228.537L437.424 224.653L432.716 220.763L427.603 217.255L422.515 214.148L417.426 211.425L412.724 218.04L408.788 224.256L405.265 230.087L402.514 235.532L399.767 240.978L397.815 246.043L395.832 251.089L394.676 255.762L393.881 260.424L393.11 264.705L392.698 268.595V272.474L393.11 275.982L393.499 279.469L394.265 282.979L395.45 286.09L397.815 291.533L400.952 296.595L404.086 301.257L407.605 305.149L411.54 308.258L414.675 311.365L420.148 315.642L425.268 320.301L429.581 324.978L433.105 330.026L436.24 334.702L438.578 339.749L440.945 344.81L442.509 349.858L443.692 354.917L444.458 359.581V364.243V368.519L444.076 372.797L443.304 376.691L442.126 380.194L440.945 383.302L439.373 386.026L437.424 388.364L435.444 390.301L433.105 391.471L430.737 391.857H428.396L425.652 391.073L422.9 389.918L420.148 387.579L417.426 384.856L414.675 380.966L411.928 376.3L409.177 370.474L406.421 363.858L403.698 356.469L401.336 347.532L399.001 337.807L397.428 343.259L396.251 349.086L395.832 355.304V361.921L396.634 368.519L397.815 375.131L399.385 381.749L401.336 387.967L403.698 393.796L406.421 398.856L409.562 403.518L412.724 407.41L414.292 408.579L416.242 410.133L417.809 410.919L419.766 411.688L421.717 412.072H423.695L425.652 411.688L427.603 410.919L431.148 408.969L435.056 406.241L439.763 402.751L444.458 398.472L449.167 393.41L453.874 387.579L458.187 380.966L462.121 373.965L463.691 370.087L464.874 366.194L466.029 362.304L466.825 358.028L467.213 353.75V349.474L466.825 345.192L466.441 340.536L465.258 335.857L463.691 331.196L461.734 326.133L459.373 321.472L456.231 316.424L452.718 311.365L448.395 306.305L443.692 301.257Z" fill="white"/>
<path d="M291.055 564.906V563.912C292.546 563.876 294.023 563.609 295.432 563.121C296.459 562.774 297.351 562.114 297.983 561.234C298.46 560.223 298.716 559.123 298.735 558.006C298.879 556.408 298.95 553.807 298.949 550.202V538.633C298.996 536.477 298.902 534.321 298.668 532.178C298.58 531.223 298.242 530.309 297.688 529.527C297.012 528.858 296.167 528.385 295.243 528.16C293.882 527.756 292.478 527.515 291.06 527.443V526.395C291.758 526.412 292.528 526.426 293.369 526.435C294.211 526.445 295.455 526.449 297.102 526.449C299.123 526.449 300.631 526.444 301.627 526.435C302.622 526.427 303.531 526.404 304.352 526.367C304.228 528.255 304.134 529.913 304.071 531.341C304.008 532.769 303.977 533.925 303.977 534.808V553.391C303.918 555.476 304.022 557.562 304.285 559.631C304.403 560.526 304.771 561.37 305.345 562.067C306.052 562.711 306.912 563.164 307.844 563.382C309.196 563.721 310.584 563.901 311.979 563.918V564.912C309.132 564.858 306.993 564.826 305.561 564.816C304.129 564.806 302.795 564.802 301.559 564.804C300.323 564.804 298.989 564.808 297.556 564.816C296.124 564.824 293.956 564.854 291.055 564.906Z" fill="white"/>
<path d="M318.203 566.282L317.666 565.127C321.705 563.226 325.403 560.672 328.61 557.567C331.281 554.906 333.291 551.655 334.477 548.075C333.211 548.83 331.859 549.43 330.45 549.86C329.169 550.24 327.841 550.435 326.505 550.437C324.985 550.512 323.467 550.267 322.048 549.718C320.629 549.169 319.341 548.328 318.268 547.249C317.195 546.171 316.36 544.879 315.817 543.458C315.275 542.036 315.037 540.517 315.119 538.997C315.058 537.255 315.359 535.518 316.004 533.898C316.648 532.277 317.622 530.808 318.864 529.584C320.141 528.358 321.651 527.402 323.305 526.772C324.959 526.142 326.723 525.852 328.492 525.918C330.29 525.82 332.089 526.095 333.776 526.726C335.463 527.357 337.001 528.33 338.294 529.584C340.675 532.029 341.865 535.39 341.865 539.668C341.878 545.563 339.657 551.244 335.649 555.566C331.502 560.239 325.687 563.811 318.203 566.282ZM335.041 546.221C335.323 545.097 335.543 543.959 335.7 542.811C335.848 541.716 335.924 540.613 335.927 539.508C336.084 536.423 335.367 533.357 333.859 530.662C333.307 529.667 332.497 528.839 331.514 528.265C330.531 527.691 329.412 527.392 328.274 527.4C327.204 527.371 326.143 527.601 325.182 528.071C324.221 528.541 323.388 529.237 322.754 530.099C321.306 532.377 320.584 535.04 320.683 537.737C320.781 540.434 321.695 543.038 323.305 545.204C324.137 546.187 325.18 546.971 326.356 547.496C327.532 548.022 328.812 548.276 330.099 548.239C331.018 548.252 331.931 548.083 332.784 547.742C333.627 547.385 334.394 546.869 335.041 546.221Z" fill="white"/>
<path d="M344.305 565.017L343.927 564.239C349.177 559.995 353.925 555.166 358.08 549.845C361.071 545.728 362.566 542.004 362.565 538.673C362.692 536.522 362.034 534.398 360.712 532.696C360.075 531.973 359.283 531.403 358.395 531.028C357.507 530.654 356.546 530.485 355.583 530.535C353.951 530.555 352.353 531.004 350.95 531.838C349.237 532.861 347.716 534.174 346.453 535.718L345.616 535.046C346.886 532.395 348.73 530.061 351.014 528.211C352.968 526.757 355.347 525.988 357.782 526.022C359.145 525.993 360.497 526.255 361.75 526.791C363.002 527.327 364.126 528.125 365.045 529.13C367 531.228 368.047 534.012 367.96 536.877C367.96 540.191 366.55 543.749 363.731 547.553C359.868 552.391 355.415 556.728 350.478 560.463L360.252 560.355C361.635 560.393 363.018 560.313 364.387 560.116C365.088 560.008 365.752 559.732 366.322 559.311C366.999 558.694 367.606 558.005 368.134 557.257C368.903 556.179 369.616 555.062 370.269 553.91L371.209 554.365L367.074 564.921C364.604 564.883 362.679 564.856 361.299 564.839C359.92 564.823 358.64 564.814 357.461 564.813C355.043 564.813 352.751 564.831 350.585 564.867C348.419 564.903 346.326 564.953 344.305 565.017Z" fill="white"/>
<path d="M376.013 566.282L375.476 565.127C379.515 563.227 383.212 560.673 386.418 557.568C389.09 554.907 391.1 551.656 392.286 548.076C391.021 548.831 389.668 549.431 388.258 549.86C386.977 550.241 385.649 550.436 384.313 550.438C382.793 550.512 381.275 550.267 379.856 549.718C378.437 549.169 377.149 548.328 376.076 547.25C375.003 546.171 374.168 544.88 373.625 543.458C373.082 542.037 372.844 540.517 372.926 538.998C372.865 537.255 373.167 535.518 373.812 533.898C374.457 532.278 375.431 530.809 376.674 529.585C379.358 527.221 382.812 525.918 386.388 525.918C389.965 525.918 393.418 527.221 396.103 529.585C398.483 532.029 399.674 535.391 399.674 539.669C399.686 545.563 397.465 551.244 393.458 555.567C389.311 560.24 383.496 563.812 376.013 566.282ZM392.85 546.222C393.132 545.098 393.352 543.959 393.509 542.811C393.658 541.717 393.734 540.613 393.736 539.508C393.893 536.424 393.177 533.358 391.669 530.663C391.117 529.667 390.307 528.839 389.324 528.265C388.341 527.691 387.222 527.392 386.083 527.401C385.014 527.371 383.953 527.601 382.992 528.071C382.031 528.542 381.198 529.237 380.564 530.1C379.116 532.377 378.394 535.041 378.492 537.738C378.591 540.435 379.505 543.038 381.116 545.204C381.947 546.188 382.99 546.972 384.166 547.497C385.342 548.023 386.621 548.276 387.909 548.239C388.828 548.252 389.741 548.083 390.595 547.742C391.438 547.385 392.204 546.869 392.85 546.222Z" fill="white"/>
<path d="M233.039 547.29H272.761" stroke="white" stroke-width="1.19536"/>
<path d="M420.411 547.29H460.134" stroke="white" stroke-width="1.19536"/>
<path d="M233.649 514.635L233.629 513.861C235.775 513.723 237.202 513.284 237.91 512.546C238.619 511.808 238.974 510.09 238.977 507.392V492.223C238.977 489.49 238.635 487.742 237.952 486.978C236.807 486.034 235.364 485.525 233.88 485.543V484.771C235.23 484.771 237.103 484.785 239.498 484.813C241.893 484.841 243.612 484.854 244.657 484.853C246.453 484.853 248.294 484.847 250.182 484.833C252.07 484.82 254.253 484.799 256.73 484.771L256.084 491.746H255.456C255.376 489.547 254.779 488.03 253.663 487.194C252.547 486.358 250.4 485.94 247.22 485.94H243.001V498.931H247.91C249.498 499.053 251.087 498.689 252.464 497.888C252.967 497.486 253.37 496.973 253.641 496.39C253.913 495.807 254.046 495.168 254.03 494.525L254.718 494.545C254.649 495.911 254.597 497.195 254.562 498.399C254.527 499.603 254.51 500.77 254.51 501.898C254.51 502.846 254.514 503.563 254.52 504.05C254.527 504.539 254.531 504.991 254.531 505.408H253.904C253.969 504.754 253.881 504.094 253.646 503.48C253.411 502.866 253.036 502.315 252.551 501.872C251.2 501.043 249.618 500.67 248.039 500.807H243.005V507.19C243.005 509.794 243.423 511.499 244.258 512.304C245.093 513.109 246.827 513.627 249.46 513.858V514.631H249.208C245.67 514.575 243.046 514.547 241.334 514.547C240.387 514.547 239.374 514.554 238.295 514.568L233.649 514.635Z" fill="white"/>
<path d="M259.125 499.579C259.031 497.518 259.377 495.461 260.14 493.545C260.902 491.628 262.064 489.895 263.548 488.462C266.492 485.691 270.422 484.306 275.339 484.306C277.462 484.205 279.584 484.533 281.578 485.27C283.572 486.008 285.396 487.14 286.942 488.599C288.413 490.101 289.558 491.889 290.307 493.853C291.056 495.817 291.393 497.914 291.296 500.013C291.382 502.06 291.031 504.101 290.266 506.001C289.5 507.901 288.338 509.616 286.858 511.031C283.899 513.809 279.976 515.198 275.088 515.199C272.967 515.301 270.848 514.976 268.855 514.244C266.862 513.512 265.037 512.388 263.486 510.937C262.015 509.448 260.867 507.669 260.117 505.715C259.367 503.76 259.029 501.671 259.125 499.579ZM264.222 498.973C264.052 502.816 265.169 506.605 267.396 509.741C268.307 511.042 269.52 512.101 270.933 512.828C272.345 513.554 273.913 513.925 275.5 513.909C276.999 513.953 278.487 513.641 279.841 512.999C281.196 512.356 282.378 511.401 283.292 510.212C285.377 507.361 286.417 503.88 286.237 500.353C286.242 498.577 286.011 496.808 285.549 495.093C285.136 493.515 284.473 492.013 283.585 490.645C282.613 489.084 281.293 487.769 279.73 486.802C277.682 485.663 275.297 485.283 272.997 485.73C270.697 486.177 268.628 487.422 267.156 489.245C265.089 492.053 264.051 495.487 264.216 498.97L264.222 498.973Z" fill="white"/>
<path d="M296.81 503.178V492.2C296.856 490.936 296.776 489.67 296.571 488.422C296.457 487.845 296.152 487.323 295.705 486.94C295.168 486.525 294.561 486.21 293.912 486.011C293.13 485.779 292.323 485.642 291.509 485.605V484.831C292.414 484.86 293.382 484.881 294.413 484.893C295.443 484.906 297.003 484.913 299.091 484.915C301.207 484.915 302.791 484.908 303.843 484.893C304.895 484.879 305.873 484.858 306.777 484.831L306.799 485.605C304.46 485.673 302.883 486.139 302.066 487.003C301.25 487.867 300.842 489.584 300.842 492.154V502.757C300.793 504.377 300.951 505.998 301.312 507.578C301.593 508.647 302.136 509.629 302.89 510.437C303.797 511.379 304.913 512.094 306.147 512.524C307.576 513.029 309.082 513.277 310.597 513.256C312.353 513.326 314.098 512.941 315.663 512.139C317.06 511.303 318.16 510.048 318.806 508.553C319.272 507.42 319.55 506.218 319.63 504.995C319.789 503.443 319.869 500.97 319.869 497.574C319.914 495.269 319.827 492.963 319.608 490.667C319.526 489.654 319.223 488.67 318.72 487.786C318.208 487.053 317.488 486.49 316.653 486.168C315.575 485.778 314.436 485.584 313.29 485.595V484.822C314.056 484.85 314.87 484.871 315.734 484.884C316.598 484.897 317.907 484.904 319.661 484.905C321.429 484.905 322.748 484.898 323.619 484.884C324.49 484.871 325.292 484.85 326.031 484.822V485.595H325.947C325.241 485.529 324.531 485.679 323.912 486.026C323.292 486.372 322.793 486.899 322.481 487.536C321.854 488.83 321.541 492.093 321.541 497.325C321.541 497.77 321.534 498.438 321.52 499.329C321.463 504.171 321.059 507.462 320.308 509.201C319.467 511.182 317.949 512.799 316.026 513.763C313.708 514.87 311.158 515.403 308.591 515.317C306.518 515.368 304.452 515.044 302.494 514.36C300.934 513.813 299.568 512.818 298.568 511.501C297.925 510.604 297.468 509.588 297.22 508.513C296.894 506.754 296.757 504.966 296.81 503.178Z" fill="white"/>
<path d="M328.072 514.639L328.051 513.865C330.252 513.755 331.752 513.038 332.552 511.714C333.353 510.389 333.753 507.65 333.754 503.497V495.291C333.754 494.916 333.761 494.416 333.774 493.792C333.788 493.167 333.795 492.728 333.796 492.477C333.837 491.419 333.696 490.362 333.377 489.352C333.079 488.588 332.606 487.904 331.998 487.353C331.427 486.837 330.765 486.431 330.046 486.158C329.232 485.848 328.377 485.662 327.508 485.607V484.833C327.968 484.833 328.635 484.848 329.514 484.874C330.392 484.9 331.031 484.917 331.435 484.917C331.839 484.917 332.458 484.903 333.252 484.874C334.045 484.845 334.623 484.833 334.986 484.833L356.374 507.702V497.852C356.431 495.356 356.33 492.859 356.07 490.375C355.969 489.341 355.598 488.352 354.994 487.506C354.513 486.914 353.877 486.467 353.157 486.215C352.208 485.879 351.217 485.678 350.212 485.618V484.844C350.965 484.873 351.772 484.894 352.635 484.906C353.497 484.919 354.758 484.926 356.417 484.928C358.059 484.928 359.274 484.921 360.06 484.906C360.847 484.892 361.567 484.871 362.223 484.844V485.618H361.889C361.18 485.596 360.484 485.809 359.908 486.223C359.331 486.637 358.908 487.229 358.702 487.908C358.097 489.435 357.795 492.274 357.794 496.426V505.548C357.794 507.672 357.811 509.555 357.846 511.197C357.881 512.84 357.927 514.36 357.983 515.758H357.73C356.867 514.76 355.931 513.684 354.922 512.53L353.241 510.61L335.148 491.457V499.891C335.148 504.043 335.227 506.837 335.387 508.275C335.444 509.351 335.725 510.405 336.211 511.367C336.639 512.021 337.249 512.535 337.966 512.846C339.062 513.32 340.212 513.656 341.391 513.845V514.639H341.271C338.333 514.582 336.142 514.554 334.697 514.555C333.889 514.555 333.018 514.562 332.085 514.575L328.072 514.639Z" fill="white"/>
<path d="M364.311 514.644V513.87C366.525 513.691 368.011 513.221 368.77 512.461C369.528 511.701 369.908 510.221 369.909 508.023V491.124C370.066 489.686 369.687 488.241 368.844 487.067C367.679 486.153 366.25 485.642 364.771 485.611V484.837C367.167 484.809 369.714 484.77 372.414 484.718C375.114 484.666 376.646 484.642 377.01 484.645C383.249 484.645 388.137 486.002 391.673 488.717C393.393 490.009 394.775 491.698 395.699 493.641C396.624 495.584 397.063 497.722 396.979 499.871C397.066 501.963 396.652 504.044 395.771 505.943C394.89 507.841 393.567 509.502 391.914 510.785C388.536 513.438 383.881 514.764 377.95 514.763C376.808 514.763 374.702 514.746 371.632 514.712C368.563 514.678 366.122 514.655 364.311 514.644ZM374.023 506.81C374.023 509.581 374.469 511.423 375.361 512.335C376.252 513.248 377.916 513.704 380.353 513.704C381.907 513.749 383.451 513.449 384.875 512.823C386.298 512.198 387.565 511.264 388.583 510.089C390.877 507.089 391.999 503.356 391.74 499.588C391.48 495.821 389.856 492.277 387.172 489.62C384.101 486.961 379.843 485.632 374.4 485.631H374.023V506.81Z" fill="white"/>
<path d="M397.481 514.64V513.867C399.099 513.825 400.672 513.321 402.014 512.415C402.751 511.723 403.12 510.243 403.12 507.977V491.58C403.12 489.182 402.755 487.598 402.024 486.826C400.87 485.906 399.414 485.449 397.941 485.544V484.771C399.332 484.805 400.815 484.827 402.39 484.837C403.965 484.848 406.248 484.853 409.241 484.854C412.736 484.854 415.294 484.849 416.916 484.838C418.538 484.828 419.997 484.813 421.292 484.792C421.166 485.739 421.058 486.755 420.968 487.841C420.878 488.927 420.791 490.174 420.708 491.58H420.06C420.089 490.767 419.946 489.956 419.64 489.202C419.334 488.448 418.872 487.767 418.284 487.204C417.24 486.39 415.395 485.982 412.75 485.982H407.151V498.307H411.454C413.131 498.449 414.816 498.138 416.332 497.408C416.83 497.015 417.242 496.522 417.538 495.961C417.835 495.4 418.011 494.782 418.054 494.149H418.744C418.744 494.929 418.712 496.155 418.649 497.825C418.586 499.495 418.555 500.797 418.556 501.731V504.196H417.93C417.928 503.588 417.783 502.988 417.507 502.445C417.231 501.903 416.832 501.433 416.341 501.073C414.832 500.358 413.161 500.052 411.496 500.186H407.151V507.788C407.151 510.114 407.625 511.646 408.571 512.384C409.518 513.122 411.363 513.491 414.107 513.491C416.249 513.619 418.363 512.957 420.049 511.631C421.633 510.092 422.644 508.059 422.918 505.867L423.608 505.95C423.532 507.502 423.354 509.048 423.076 510.577C422.82 511.986 422.453 513.373 421.978 514.724C419.961 514.667 417.754 514.625 415.357 514.598C412.961 514.571 410.35 514.557 407.524 514.556C404.894 514.556 402.875 514.563 401.467 514.577C400.059 514.59 398.73 514.611 397.481 514.64Z" fill="white"/>
<path d="M425.485 514.644V513.87C427.698 513.691 429.185 513.221 429.943 512.461C430.702 511.701 431.082 510.221 431.082 508.023V491.124C431.239 489.686 430.86 488.242 430.017 487.067C428.853 486.153 427.424 485.642 425.945 485.611V484.837C428.336 484.809 430.884 484.77 433.589 484.718C436.295 484.666 437.826 484.642 438.184 484.645C444.422 484.645 449.31 486.002 452.848 488.717C454.568 490.01 455.949 491.7 456.873 493.644C457.796 495.587 458.234 497.726 458.149 499.876C458.236 501.967 457.822 504.049 456.941 505.948C456.06 507.846 454.738 509.506 453.084 510.79C449.706 513.443 445.051 514.769 439.12 514.768C437.979 514.768 435.873 514.751 432.803 514.717C429.732 514.682 427.293 514.658 425.485 514.644ZM435.197 506.81C435.197 509.581 435.643 511.423 436.535 512.335C437.426 513.248 439.09 513.704 441.526 513.704C443.08 513.749 444.625 513.449 446.048 512.824C447.471 512.198 448.738 511.264 449.755 510.089C452.05 507.09 453.173 503.357 452.914 499.589C452.654 495.821 451.03 492.277 448.346 489.62C445.275 486.961 441.018 485.632 435.573 485.631H435.198L435.197 506.81Z" fill="white"/>
<path d="M246.771 428.924C246.153 428.352 245.815 428.019 245.626 427.826C245.454 427.698 245.251 427.544 245.002 427.356C243.355 426.106 241.774 424.88 240.25 423.531L85.3195 613.249L85.439 613.369C84.5039 614.215 83.7684 615.258 83.2858 616.423C82.8032 617.588 82.5856 618.845 82.6486 620.105C82.7116 621.364 83.0537 622.594 83.6502 623.705C84.2467 624.816 85.0826 625.78 86.0976 626.529C87.1125 627.277 88.281 627.791 89.5187 628.032C90.7564 628.273 92.0322 628.237 93.254 627.925C94.4757 627.612 95.6129 627.033 96.5831 626.227C97.5534 625.422 98.3325 624.411 98.8642 623.267L254.917 432.932C251.866 432.429 249.032 431.034 246.771 428.924Z" fill="white"/>
<path d="M239.595 192.721C241.763 190.623 244.505 189.216 247.474 188.68L101.547 9.99023L88.3977 21.3462L235.5 200.751C235.955 197.7 237.392 194.88 239.595 192.721Z" fill="white"/>
<path d="M443.531 193.915C445.678 195.985 447.103 198.691 447.595 201.633L594.927 21.9433L581.778 10.5874L435.385 189.843C438.445 190.361 441.281 191.779 443.531 193.915Z" fill="white"/>
<path d="M596.512 613.368L596.632 613.248L442.311 424.281C442.012 425.268 441.603 426.217 441.089 427.111C439.995 429.07 438.439 430.733 436.557 431.954C434.675 433.176 432.523 433.92 430.288 434.121C429.742 434.401 429.179 434.643 428.6 434.845L583.09 623.266C583.62 624.411 584.399 625.423 585.37 626.23C586.34 627.037 587.478 627.618 588.7 627.931C589.923 628.244 591.2 628.282 592.439 628.04C593.677 627.799 594.847 627.285 595.863 626.536C596.879 625.787 597.715 624.821 598.312 623.709C598.908 622.597 599.25 621.366 599.312 620.106C599.374 618.845 599.155 617.586 598.671 616.421C598.187 615.255 597.449 614.213 596.512 613.368Z" fill="white"/>
<path d="M948.712 530.723L936.424 499.235H841.576L830.056 530.723C829.032 533.283 828.264 535.843 827.752 538.403C827.24 540.707 826.984 542.755 826.984 544.547C826.984 550.947 829.672 555.427 835.048 557.987C840.424 560.547 847.976 562.211 857.704 562.979V580.259H773.608V562.979C778.728 561.955 783.208 560.675 787.048 559.139C790.888 557.347 793.832 553.891 795.88 548.771L873.832 344.099L860.392 310.691H949.864L1043.94 548.771C1045.74 553.635 1048.55 556.963 1052.39 558.755C1056.23 560.547 1060.97 561.955 1066.6 562.979V580.259H922.6V562.979C931.304 562.723 938.344 561.315 943.72 558.755C949.096 555.939 951.784 551.331 951.784 544.931C951.784 543.139 951.528 541.091 951.016 538.787C950.504 536.227 949.736 533.539 948.712 530.723ZM887.656 374.435L849.64 476.963H927.592L887.656 374.435Z" fill="white"/>
<path d="M1208.85 331.043H1200.78V448.163H1209.23C1225.36 448.163 1238.03 442.915 1247.25 432.419C1256.72 421.923 1261.46 407.203 1261.46 388.259C1261.46 370.083 1256.85 356.003 1247.63 346.019C1238.42 336.035 1225.49 331.043 1208.85 331.043ZM1200.78 468.899V537.251C1200.78 546.979 1202.06 553.379 1204.62 556.451C1207.18 559.523 1214.74 561.699 1227.28 562.979V580.259H1090.19V562.979C1102.74 561.699 1110.29 559.523 1112.85 556.451C1115.41 553.379 1116.69 546.979 1116.69 537.251V353.699C1116.69 343.971 1115.41 337.571 1112.85 334.499C1110.29 331.427 1102.74 329.251 1090.19 327.971V310.691H1239.57C1270.29 310.691 1295.38 317.603 1314.83 331.427C1334.54 344.995 1344.4 363.811 1344.4 387.875C1344.4 406.563 1338.64 421.539 1327.12 432.803C1315.86 443.811 1303.31 451.747 1289.49 456.611L1340.56 531.875C1348.24 543.395 1354.38 551.331 1358.99 555.683C1363.6 560.035 1370.26 562.467 1378.96 562.979V580.259H1284.11C1278.74 576.163 1273.36 570.659 1267.98 563.747C1262.86 556.579 1257.49 548.003 1251.86 538.019L1212.3 468.899H1200.78Z" fill="white"/>
<path d="M1537.57 306.851C1555.23 306.851 1571.23 308.899 1585.57 312.995C1600.16 316.835 1612.96 322.339 1623.97 329.507L1625.51 399.011H1604.77C1599.91 375.971 1592.35 358.307 1582.11 346.019C1571.87 333.731 1558.05 327.587 1540.64 327.587C1517.86 327.587 1501.47 338.723 1491.49 360.995C1481.76 383.267 1476.9 410.403 1476.9 442.403C1476.9 476.963 1482.53 505.635 1493.79 528.419C1505.31 550.947 1522.21 562.211 1544.48 562.211C1559.33 562.211 1572.77 555.939 1584.8 543.395C1597.09 530.595 1607.2 509.475 1615.14 480.035H1636.26L1629.35 557.987C1618.34 566.179 1604.26 572.579 1587.11 577.187C1569.95 581.795 1551.91 584.099 1532.96 584.099C1488.42 584.099 1453.22 572.451 1427.36 549.155C1401.51 525.859 1388.58 493.859 1388.58 453.155C1388.58 408.099 1403.3 372.515 1432.74 346.403C1462.18 320.035 1497.12 306.851 1537.57 306.851Z" fill="white"/>
<path d="M1778.07 353.699V431.267H1867.16V353.699C1867.16 343.971 1865.88 337.571 1863.32 334.499C1860.76 331.427 1853.21 329.251 1840.67 327.971V310.691H1977.75V327.971C1965.21 329.251 1957.66 331.427 1955.1 334.499C1952.54 337.571 1951.26 343.971 1951.26 353.699V537.251C1951.26 546.979 1952.54 553.379 1955.1 556.451C1957.66 559.523 1965.21 561.699 1977.75 562.979V580.259H1840.67V562.979C1853.21 561.699 1860.76 559.523 1863.32 556.451C1865.88 553.379 1867.16 546.979 1867.16 537.251V457.379H1778.07V537.251C1778.07 546.979 1779.35 553.379 1781.91 556.451C1784.47 559.523 1792.03 561.699 1804.57 562.979V580.259H1667.48V562.979C1680.03 561.699 1687.58 559.523 1690.14 556.451C1692.7 553.379 1693.98 546.979 1693.98 537.251V353.699C1693.98 343.971 1692.7 337.571 1690.14 334.499C1687.58 331.427 1680.03 329.251 1667.48 327.971V310.691H1804.57V327.971C1792.03 329.251 1784.47 331.427 1781.91 334.499C1779.35 337.571 1778.07 343.971 1778.07 353.699Z" fill="white"/>
<path d="M2119.97 353.699V537.251C2119.97 546.979 2121.25 553.379 2123.81 556.451C2126.37 559.523 2133.92 561.699 2146.46 562.979V580.259H2009.38V562.979C2021.92 561.699 2029.47 559.523 2032.03 556.451C2034.59 553.379 2035.87 546.979 2035.87 537.251V353.699C2035.87 343.971 2034.59 337.571 2032.03 334.499C2029.47 331.427 2021.92 329.251 2009.38 327.971V310.691H2146.46V327.971C2133.92 329.251 2126.37 331.427 2123.81 334.499C2121.25 337.571 2119.97 343.971 2119.97 353.699Z" fill="white"/>
<path d="M2346.98 476.963L2392.29 360.227C2393.32 357.411 2394.21 354.723 2394.98 352.163C2396.01 349.347 2396.52 346.915 2396.52 344.867C2396.52 339.235 2394.85 335.139 2391.53 332.579C2388.45 330.019 2381.29 328.483 2370.02 327.971V310.691H2450.66V327.971C2445.03 328.995 2440.29 330.403 2436.45 332.195C2432.87 333.731 2430.05 337.059 2428.01 342.179L2329.7 581.411H2305.13L2192.23 342.179C2189.67 337.059 2186.73 333.731 2183.4 332.195C2180.07 330.403 2175.59 328.995 2169.96 327.971V310.691H2314.73V327.971C2303.46 328.483 2296.17 330.019 2292.84 332.579C2289.77 335.139 2288.23 339.235 2288.23 344.867C2288.23 346.915 2288.61 349.347 2289.38 352.163C2290.15 354.979 2291.05 357.667 2292.07 360.227L2346.98 476.963Z" fill="white"/>
<path d="M2474.17 580.259V562.979C2486.71 561.699 2494.26 559.523 2496.82 556.451C2499.38 553.379 2500.66 546.979 2500.66 537.251V353.699C2500.66 343.971 2499.38 337.571 2496.82 334.499C2494.26 331.427 2486.71 329.251 2474.17 327.971V310.691H2699.19L2701.11 387.107H2684.98C2674.74 365.603 2665.53 350.755 2657.33 342.563C2649.4 334.115 2636.21 329.891 2617.78 329.891H2584.76V429.731H2616.63C2625.59 429.731 2631.61 427.171 2634.68 422.051C2638.01 416.675 2640.44 407.331 2641.97 394.019H2660.02V488.483H2641.97C2640.44 475.171 2638.01 465.955 2634.68 460.835C2631.61 455.459 2625.59 452.771 2616.63 452.771H2584.76V535.331C2584.76 545.571 2587.19 552.483 2592.05 556.067C2596.92 559.395 2604.34 561.059 2614.33 561.059H2622.77C2640.69 561.059 2653.62 556.323 2661.56 546.851C2669.49 537.379 2680.5 519.459 2694.58 493.091H2713.78L2701.11 580.259H2474.17Z" fill="white"/>
<path d="M2846.11 584.099C2826.65 584.099 2808.73 581.667 2792.35 576.803C2775.96 571.683 2763.03 565.539 2753.56 558.371L2748.95 491.171H2771.61C2776.47 511.907 2785.31 529.315 2798.11 543.395C2810.91 557.219 2826.91 564.131 2846.11 564.131C2858.65 564.131 2868.89 561.315 2876.83 555.683C2884.76 550.051 2888.73 541.603 2888.73 530.339C2888.73 518.819 2884.25 509.859 2875.29 503.459C2866.59 497.059 2851.99 491.043 2831.51 485.411C2804.89 478.243 2784.67 467.619 2770.84 453.539C2757.02 439.459 2750.11 420.643 2750.11 397.091C2750.11 368.931 2759.71 346.915 2778.91 331.043C2798.36 314.915 2822.55 306.851 2851.48 306.851C2869.66 306.851 2885.91 309.027 2900.25 313.379C2914.84 317.475 2926.75 322.979 2935.96 329.891V388.643H2917.15C2912.28 370.211 2904.47 355.235 2893.72 343.715C2883.23 332.195 2869.15 326.435 2851.48 326.435C2840.47 326.435 2831.39 329.379 2824.22 335.267C2817.31 341.155 2813.85 349.347 2813.85 359.843C2813.85 371.619 2818.2 380.707 2826.91 387.107C2835.61 393.251 2849.56 399.011 2868.76 404.387C2894.11 411.555 2914.71 421.539 2930.59 434.339C2946.71 446.883 2954.78 467.235 2954.78 495.395C2954.78 526.115 2944.03 548.643 2922.52 562.979C2901.27 577.059 2875.8 584.099 2846.11 584.099Z" fill="white"/>
<path d="M883.618 170.417C883.394 178.557 883.864 186.7 885.024 194.76C885.54 198.602 887.206 202.199 889.801 205.079C892.624 207.578 895.907 209.504 899.466 210.747C904.495 212.523 909.692 213.782 914.976 214.504L914.863 218.667L889.013 218.329C883.092 218.255 877.623 218.218 872.607 218.218C863.24 218.218 849.266 218.368 830.685 218.667H830.012V214.504C835.349 213.783 840.6 212.525 845.683 210.747C849.238 209.53 852.508 207.602 855.292 205.079C857.956 202.231 859.668 198.625 860.189 194.76C861.35 186.701 861.82 178.557 861.595 170.417V66.0343H845.632C831.247 66.0343 820.757 68.2447 814.162 72.6654C807.567 77.0861 802.809 84.8403 799.888 95.928L795.953 95.2547L800.339 50.8599H803.032L810.001 58.2769C817.192 58.2769 827.794 58.3144 841.807 58.3895C855.82 58.4646 866.31 58.5022 873.278 58.5022C880.168 58.5022 890.508 58.4646 904.297 58.3895C918.087 58.3144 928.389 58.2769 935.204 58.2769L942.847 50.8599H944.644L948.582 95.7052L944.872 96.4912C942.173 85.5537 937.471 77.7432 930.765 73.0597C924.059 68.3762 914.113 66.0343 900.928 66.0343H883.618V170.417Z" fill="white"/>
<path d="M949.693 218.667L949.581 214.504C956.546 214.205 961.173 212.785 963.46 210.243C965.747 207.702 966.89 201.09 966.888 190.409L966.663 84.4759C966.807 80.8532 966.372 77.2309 965.372 73.7458C964.451 71.2235 962.926 68.9652 960.93 67.1685L954.975 62.1119V60.0869L983.184 48.6245L985.544 49.7484L984.205 127.284C991.038 122.533 998.345 118.506 1006.01 115.266C1011.62 112.802 1017.65 111.429 1023.77 111.221C1034.48 111.221 1042.31 114.25 1047.26 120.31C1052.2 126.37 1054.86 136.246 1055.24 149.939L1056.25 193.215C1056.55 202.484 1057.78 208.183 1059.96 210.312C1062.13 212.441 1066.55 213.842 1073.22 214.516V218.679C1070.37 218.532 1067.17 218.42 1063.61 218.341C1060.05 218.263 1054.6 218.226 1047.26 218.231C1039.91 218.231 1034.33 218.268 1030.51 218.341C1026.7 218.415 1023.17 218.527 1019.95 218.679L1019.83 214.516C1026.95 213.77 1031.69 212.201 1034.05 209.808C1036.41 207.414 1037.59 202.482 1037.59 195.01C1037.59 194.413 1037.55 193.291 1037.48 191.646C1037.4 190 1037.37 188.694 1037.37 187.728L1036.92 161.037C1036.62 147.956 1034.2 138.484 1029.67 132.62C1025.14 126.756 1018.04 123.822 1008.37 123.817C1004.49 123.837 1000.64 124.462 996.955 125.668C992.645 127.111 988.516 129.048 984.651 131.439V190.186C984.651 200.054 985.868 206.503 988.304 209.531C990.74 212.559 995.591 214.222 1002.86 214.519L1002.75 218.682C999.601 218.535 996.154 218.422 992.406 218.344C988.658 218.265 983.075 218.229 975.659 218.234C968.467 218.234 963.072 218.27 959.476 218.344C955.88 218.417 952.619 218.525 949.693 218.667Z" fill="white"/>
<path d="M1162.38 191.019L1165.64 193.83C1160.45 201.745 1153.58 208.421 1145.52 213.385C1138.14 217.775 1129.71 220.068 1121.13 220.016C1114.66 220.132 1108.23 218.851 1102.3 216.263C1096.36 213.674 1091.06 209.837 1086.74 205.013C1077.37 194.819 1072.37 181.364 1072.8 167.528C1072.43 152.788 1077.77 138.473 1087.7 127.573C1092.18 122.376 1097.75 118.22 1104.01 115.396C1110.27 112.571 1117.07 111.147 1123.94 111.221C1135.4 111.221 1144.63 114.443 1151.64 120.888C1158.64 127.333 1162.45 136.137 1163.05 147.3C1150.23 146.849 1138.08 146.512 1126.58 146.288C1115.08 146.065 1104.16 145.952 1093.81 145.95C1093.3 148.02 1092.92 150.123 1092.69 152.244C1092.46 154.446 1092.35 156.66 1092.35 158.875C1091.92 171.074 1096.09 182.99 1104.04 192.255C1107.6 196.49 1112.06 199.878 1117.1 202.173C1122.13 204.467 1127.62 205.61 1133.15 205.517C1138.72 205.564 1144.22 204.314 1149.22 201.866C1154.36 199.276 1158.86 195.57 1162.38 191.019ZM1139.79 140.218C1138.83 133.804 1136.24 127.745 1132.26 122.627C1130.7 120.699 1128.73 119.147 1126.49 118.087C1124.26 117.027 1121.81 116.486 1119.33 116.505C1116.44 116.507 1113.57 117.102 1110.91 118.252C1108.26 119.402 1105.86 121.085 1103.88 123.195C1099.12 128.224 1095.94 134.532 1094.72 141.344L1139.79 140.218Z" fill="white"/>
<path d="M1402.78 200.707V204.869C1391.1 210.259 1378.95 214.562 1366.48 217.725C1355.64 220.453 1344.51 221.867 1333.33 221.934C1305.68 221.934 1283.46 214.46 1266.68 199.512C1249.89 184.563 1241.5 164.877 1241.5 140.452C1241.37 128.762 1243.7 117.175 1248.36 106.451C1253.12 95.8957 1260.14 86.5149 1268.93 78.9722C1277.82 71.1544 1288.14 65.142 1299.33 61.2706C1311.32 57.1712 1323.92 55.1384 1336.59 55.259C1345.89 55.2786 1355.18 56.0682 1364.35 57.6195C1374.03 59.2518 1383.57 61.6183 1392.89 64.6987C1392.52 70.8449 1392.2 77.3079 1391.94 84.0875C1391.68 90.8671 1391.47 98.116 1391.32 105.834H1387.84C1384.39 91.3054 1378.04 80.1973 1368.79 72.51C1359.53 64.8227 1347.79 60.9864 1333.55 61.0011C1313.92 61.0011 1298.07 67.5758 1286.01 80.7253C1273.95 93.8748 1267.92 111.239 1267.92 132.819C1267.87 143.294 1269.8 153.684 1273.59 163.447C1277.38 173.154 1282.96 182.057 1290.06 189.688C1297.44 197.61 1306.5 203.776 1316.58 207.73C1327.34 212.012 1338.83 214.168 1350.41 214.076C1357.9 214.076 1362.9 212.917 1365.41 210.599C1367.92 208.281 1369.18 203.307 1369.18 195.677V173.685C1369.18 164.561 1367.01 158.113 1362.66 154.341C1358.32 150.568 1350.22 148.193 1338.38 147.215V143.052C1344.53 143.17 1350.54 143.273 1356.42 143.363C1362.3 143.453 1368.17 143.499 1374.01 143.5C1380.01 143.5 1385.91 143.463 1391.71 143.388C1397.52 143.312 1403.19 143.201 1408.74 143.052L1408.85 147.215C1401.89 148.114 1397.22 150.116 1394.86 153.219C1392.5 156.322 1391.32 162.886 1391.32 172.909V200.736L1402.78 200.707Z" fill="white"/>
<path d="M1436.13 157.005V97.933C1436.37 91.1323 1435.94 84.3243 1434.84 77.6088C1434.22 74.502 1432.58 71.6926 1430.17 69.6334C1427.28 67.3991 1424 65.7059 1420.51 64.6355C1416.3 63.3832 1411.96 62.6473 1407.58 62.4441V58.2812C1412.45 58.4331 1417.66 58.5457 1423.21 58.6192C1428.75 58.6926 1437.14 58.7301 1448.38 58.7317C1459.77 58.7317 1468.29 58.6943 1473.95 58.6192C1479.61 58.5441 1484.87 58.4314 1489.74 58.2812L1489.85 62.4441C1477.26 62.8212 1468.77 65.3302 1464.38 69.9713C1459.99 74.6124 1457.8 83.8587 1457.81 97.7101V154.765C1457.54 163.484 1458.39 172.203 1460.34 180.706C1461.85 186.458 1464.76 191.744 1468.82 196.089C1473.7 201.161 1479.71 205.01 1486.36 207.321C1494.04 210.039 1502.14 211.37 1510.29 211.254C1519.74 211.631 1529.13 209.562 1537.55 205.247C1545.06 200.753 1550.98 194.017 1554.46 185.986C1556.97 179.884 1558.47 173.416 1558.9 166.834C1559.76 158.486 1560.19 145.181 1560.19 126.921C1560.43 114.514 1559.96 102.103 1558.79 89.7495C1558.34 84.2973 1556.71 79.0079 1554.01 74.2492C1551.25 70.3051 1547.38 67.2748 1542.88 65.5465C1537.09 63.4447 1530.96 62.398 1524.79 62.4562V58.2935C1528.91 58.4453 1533.29 58.558 1537.94 58.6314C1542.59 58.7049 1549.63 58.7423 1559.07 58.744C1568.59 58.744 1575.69 58.7065 1580.37 58.6314C1585.06 58.5563 1589.38 58.4437 1593.35 58.2935V62.4562H1592.9C1583.83 62.4562 1577.62 65.9383 1574.24 72.9024C1570.87 79.8665 1569.19 97.4204 1569.2 125.564C1569.2 127.957 1569.16 131.549 1569.09 136.338C1568.79 162.397 1566.61 180.11 1562.57 189.475C1558.04 200.129 1549.87 208.827 1539.53 214.016C1528.81 219.591 1515.48 222.38 1499.51 222.383C1488.35 222.653 1477.24 220.902 1466.7 217.214C1458.31 214.261 1450.96 208.911 1445.57 201.826C1442.12 197.005 1439.66 191.547 1438.32 185.768C1436.57 176.286 1435.83 166.644 1436.13 157.005Z" fill="white"/>
<path d="M1601.97 218.665V214.503C1613.66 213.832 1621.57 211.421 1625.69 207.269C1629.81 203.118 1631.87 193.903 1631.87 179.626V97.2027C1631.87 83.0003 1629.85 73.8414 1625.8 69.726C1621.75 65.6106 1613.81 63.1805 1601.97 62.4361V58.2734C1606.62 58.2734 1613.57 58.3485 1622.82 58.4987C1632.08 58.6489 1638.99 58.7239 1643.56 58.7239C1648.13 58.7239 1654.93 58.6489 1663.96 58.4987C1672.99 58.3485 1679.71 58.2734 1684.13 58.2734V62.4361C1672.29 63.1854 1664.35 65.6529 1660.3 69.8385C1656.26 74.0242 1654.24 83.1455 1654.23 97.2027V179.626C1654.23 193.828 1656.27 203.043 1660.36 207.269C1664.44 211.496 1672.36 213.907 1684.13 214.503L1684.01 218.665C1672.62 218.44 1664.14 218.31 1658.56 218.274C1652.98 218.238 1647.75 218.219 1642.89 218.217C1638.01 218.217 1632.79 218.236 1627.22 218.274C1621.64 218.311 1613.23 218.442 1601.97 218.665Z" fill="white"/>
<path d="M1693.26 218.666V214.503C1705.17 213.536 1713.17 211.006 1717.25 206.912C1721.33 202.818 1723.37 194.857 1723.37 183.03V92.1145C1723.37 81.5035 1721.46 74.226 1717.64 70.282C1713.82 66.338 1706.52 63.726 1695.73 62.4461V58.2833C1708.61 58.1364 1722.32 57.9299 1736.86 57.6638C1751.4 57.3977 1759.65 57.2672 1761.6 57.2721C1795.16 57.2721 1821.46 64.5773 1840.49 79.1878C1859.53 93.7984 1869.04 113.804 1869.04 139.205C1869.04 164.083 1859.96 183.657 1841.79 197.928C1823.62 212.199 1798.57 219.337 1766.65 219.342C1760.51 219.342 1749.18 219.247 1732.65 219.057C1716.13 218.868 1703 218.738 1693.26 218.666ZM1745.52 176.519C1745.52 191.431 1747.91 201.34 1752.71 206.246C1757.5 211.151 1766.46 213.606 1779.57 213.609C1787.93 213.854 1796.24 212.236 1803.9 208.873C1811.56 205.51 1818.38 200.485 1823.85 194.164C1835.31 181.202 1841.05 164.269 1841.05 143.363C1841.05 118.116 1832.79 98.335 1816.26 84.0216C1799.74 69.7081 1776.83 62.5523 1747.54 62.5539H1745.52V176.519Z" fill="white"/>
<path d="M1883.68 137.633C1883.68 112.684 1891.6 92.7531 1907.45 77.8405C1923.29 62.9279 1944.44 55.4733 1970.89 55.4766C1996.89 55.4766 2017.71 63.1744 2033.34 78.5702C2048.96 93.9659 2056.78 114.44 2056.77 139.993C2056.77 164.572 2048.81 184.333 2032.88 199.279C2016.96 214.224 1995.85 221.698 1969.55 221.701C1943.55 221.701 1922.74 214.059 1907.11 198.774C1891.49 183.489 1883.67 163.109 1883.68 137.633ZM1911.1 134.374C1911.1 158.044 1916.8 177.357 1928.18 192.312C1939.57 207.267 1954.11 214.741 1971.79 214.735C1979.86 214.975 1987.86 213.296 1995.15 209.838C2002.44 206.379 2008.8 201.24 2013.71 194.842C2024.28 181.58 2029.56 163.897 2029.56 141.793C2029.59 132.229 2028.35 122.703 2025.85 113.469C2023.63 104.976 2020.07 96.894 2015.29 89.5306C2010.06 81.1376 2002.96 74.0619 1994.55 68.8513C1983.53 62.7252 1970.7 60.6851 1958.33 63.0906C1945.95 65.4961 1934.82 72.1928 1926.89 82.0008C1916.36 95.2629 1911.1 112.721 1911.1 134.374Z" fill="white"/>
<path d="M2056.23 218.669L2056.12 214.506C2067.96 213.908 2076.03 210.043 2080.34 202.909C2084.65 195.775 2086.81 181.039 2086.81 158.7V114.552C2086.81 112.535 2086.84 109.846 2086.92 106.486C2086.99 103.127 2087.03 100.773 2087.03 99.4243C2087.26 93.734 2086.5 88.0478 2084.78 82.6165C2083.18 78.5037 2080.64 74.8202 2077.36 71.8568C2074.29 69.0751 2070.73 66.8903 2066.85 65.4144C2062.48 63.745 2057.87 62.7437 2053.2 62.4441V58.2812C2055.67 58.2812 2059.27 58.3564 2063.99 58.5066C2068.71 58.6568 2072.16 58.7319 2074.33 58.7319C2076.58 58.7319 2079.84 58.6568 2084.11 58.5066C2088.38 58.3564 2091.49 58.2812 2093.44 58.2812L2208.52 181.336V128.336C2208.52 108.462 2207.98 95.0525 2206.89 88.1064C2206.35 82.5352 2204.35 77.2042 2201.11 72.6428C2198.51 69.4606 2195.09 67.056 2191.21 65.6936C2186.11 63.876 2180.78 62.7822 2175.37 62.4441V58.2812C2179.41 58.4331 2183.76 58.5457 2188.41 58.6192C2193.05 58.6926 2199.83 58.7302 2208.75 58.7319C2217.59 58.7319 2224.13 58.6943 2228.36 58.6192C2232.59 58.5441 2236.47 58.4314 2239.99 58.2812V62.4441H2238.2C2230.03 62.4441 2224.32 66.5539 2221.05 74.7733C2217.79 82.9928 2216.16 98.2694 2216.16 120.603V169.685C2216.16 181.112 2216.25 191.246 2216.44 200.088C2216.63 208.929 2216.87 217.109 2217.17 224.626H2215.82C2211.18 219.249 2206.14 213.458 2200.71 207.253L2191.65 196.917L2094.32 93.9343V139.318C2094.32 161.659 2094.75 176.694 2095.61 184.424C2096.47 192.153 2097.95 197.704 2100.05 201.075C2102.35 204.592 2105.63 207.357 2109.49 209.031C2115.38 211.592 2121.58 213.402 2127.92 214.418V218.688H2127.25C2111.43 218.389 2099.63 218.24 2091.84 218.24C2087.5 218.24 2082.81 218.277 2077.79 218.35L2056.23 218.669Z" fill="white"/>
</svg>
